<?xml version="1.0" standalone="no"?>
<!DOCTYPE svg PUBLIC "-//W3C//DTD SVG 1.1//EN" "http://www.w3.org/Graphics/SVG/1.1/DTD/svg11.dtd" >
<svg xmlns="http://www.w3.org/2000/svg" xmlns:xlink="http://www.w3.org/1999/xlink" version="1.1">
<metadata>
Created by FontForge 20170731 at Fri Oct 20 04:38:43 2023
 By Aleksey,,,
Copyright Copr.1992 Image Club Graphics, Inc.
</metadata>
<defs>
<font id="AmericanaFont" horiz-adv-x="1542" >
  <font-face 
    font-family="Americana Font"
    font-weight="500"
    font-stretch="normal"
    units-per-em="2048"
    panose-1="0 0 0 0 0 0 0 0 0 0"
    ascent="1638"
    descent="-410"
    x-height="1245"
    cap-height="1567"
    bbox="-213 -512 2877 2173.02"
    underline-thickness="26"
    underline-position="-239"
    unicode-range="U+0020-25CA"
  />
<missing-glyph horiz-adv-x="1024" 
 />
    <glyph glyph-name=".notdef" horiz-adv-x="1024" 
 />
    <glyph glyph-name=".null" horiz-adv-x="0" 
 />
    <glyph glyph-name="nonmarkingreturn" horiz-adv-x="682" 
 />
    <glyph glyph-name="space" unicode=" " horiz-adv-x="559" 
 />
    <glyph glyph-name="exclam" unicode="!" horiz-adv-x="350" 
d="M297 1325q-2 -107 -12 -199.5t-28.5 -225.5t-31.5 -259q-9 -82 -9.5 -172t-4 -121.5t-21.5 -32.5q-15 -1 -18.5 31t-6 123t-11.5 172q-14 120 -35.5 258.5t-31.5 228t-11 195.5q-2 47 1.5 89t13.5 84.5t32 68.5t55 28q34 2 58.5 -22.5t37 -67t18 -86.5t5.5 -92zM197 225
q43 0 72.5 -23.5t35.5 -56.5t-1.5 -66.5t-37.5 -57t-73 -23.5t-71.5 23.5t-35 57t1 66.5t37 56.5t72.5 23.5z" />
    <glyph glyph-name="quotedbl" unicode="&#x22;" horiz-adv-x="489" 
d="M430 1468l-20 -370h-84l-29 370q-4 98 65 101q72 0 68 -101zM182 1468l-20 -370h-84l-27 370q-4 40 11.5 70t54.5 31q40 0 54.5 -30t10.5 -71z" />
    <glyph glyph-name="numbersign" unicode="#" horiz-adv-x="1038" 
d="M961 766h-197l-35 -250h184v-108h-202l-56 -410h-108l55 412h-246l-59 -410h-107l58 412h-197v106h213l41 252h-203v107h215l60 387h108l-55 -387h242l53 387h109l-54 -385h181v-113zM655 770h-241l-39 -254h246z" />
    <glyph glyph-name="dollar" unicode="$" horiz-adv-x="1263" 
d="M1188 457q-4 -84 -49 -158.5t-113.5 -126t-150 -84t-162.5 -41.5l-23 -4v-176q0 -20 -1 -30.5t-8.5 -21.5t-21.5 -12q-13 -1 -21 4t-11 17t-3.5 19.5t-0.5 23.5v172l-33 2q-25 2 -78.5 5.5t-77 6t-64 9.5t-79.5 18q-134 39 -250 102l53 164l8 35q2 13 10 25t15 6
q6 -3 17 -27t25 -56.5t47.5 -71.5t79 -73.5t125 -61.5t179.5 -36q112 -11 209.5 30t151.5 110t53 143q-1 55 -13 97t-32.5 69t-54 47t-69 31.5t-87 22t-99 17.5t-113.5 19.5t-122 27.5q-137 37 -211 105.5t-80 191.5q-4 94 31.5 171.5t99 127.5t143 79.5t168.5 37.5l31 2
v197q0 9 2 15t10.5 10t24.5 3q20 -3 24.5 -9t4.5 -19v-199q98 -2 223 -29q113 -25 207 -67l-43 -191q-4 -8 -15 -8q-9 1 -19.5 24t-31.5 55.5t-56.5 66.5t-109 63t-174.5 39q-137 14 -249 -60t-111 -198q1 -49 14.5 -88t33.5 -66t55.5 -48t68.5 -33.5t84 -24t90.5 -17.5
t100 -15t100.5 -17q47 -9 90 -22t93.5 -40t86 -62.5t58.5 -92t20 -125.5z" />
    <glyph glyph-name="percent" unicode="%" horiz-adv-x="1161" 
d="M612 1188q0 -134 -75 -234t-199 -100q-128 -3 -205.5 96t-79.5 234q0 86 33 162.5t97.5 126.5t146.5 51q94 0 159.5 -49.5t94 -123.5t28.5 -163zM1059 1503l-907 -1476q-13 -24 -20 -26.5t-46 -0.5q-13 1 -18.5 4.5t-3.5 10t5 12t9 13.5t8 11l893 1460q23 38 63 35
q3 -1 11 -1.5t10.5 -1.5t6 -3.5t3 -6.5t-3.5 -11.5t-10 -18.5zM1083 340q2 -86 -27.5 -163t-92.5 -129.5t-146 -55.5q-86 -4 -154.5 43.5t-104 128t-34.5 174.5q1 86 36 162.5t101 125t148 46.5q82 -1 145 -50t95 -123t34 -159zM481 1188q2 148 -33.5 226.5t-117.5 78.5
q-49 0 -83.5 -51t-48.5 -120t-12 -140q9 -287 150 -287q44 0 74.5 26.5t44.5 74t19.5 92t6.5 100.5zM948 340q-9 291 -143 291q-37 0 -65 -28t-43 -73.5t-22.5 -94t-8.5 -99.5q0 -47 2 -84t10.5 -81.5t23.5 -74t42 -49.5t65 -20q44 0 74.5 29t44 79t18 99t2.5 106z" />
    <glyph glyph-name="ampersand" unicode="&#x26;" horiz-adv-x="1691" 
d="M1657 0q-74 6 -189 6q-29 0 -69 -1.5t-68.5 -3t-30.5 -1.5h-26q-13 9 -33.5 25.5t-32.5 25.5q-85 63 -98 72l-20 -17q-82 -72 -216.5 -124.5t-283.5 -51.5q-150 1 -270 48.5t-191 137t-74 206.5q-2 72 29.5 140.5t83.5 120t103 88t102 60.5l35 19l-21 30l-27 40.5t-27 41
t-22.5 36.5t-21.5 39.5t-14.5 36.5t-12.5 42t-5 42t-1 48q11 159 132 270.5t271 98.5q131 -11 223 -89.5t89 -191.5q-2 -58 -21.5 -109.5t-48 -88.5t-72 -72.5t-81.5 -58t-89 -48.5l-47 -22q101 -107 131 -137t99 -93q41 -40 98 -90.5t100.5 -87.5t81.5 -69t41 -35l17 28
q23 44 30.5 166.5t-22.5 184.5q-42 72 -164 86v16q22 -1 207 -4q31 0 82.5 5t56.5 5h16q-8 -134 -38 -246q-42 -142 -107 -243l-22 -35q21 -17 108 -75t111 -71q76 -42 126 -62t93 -20v-18zM813 1135q4 74 -21.5 143.5t-79.5 114.5t-122 41q-100 -6 -158.5 -77t-50.5 -167
q7 -109 48.5 -180.5t133.5 -163.5l21 -21l39 23q90 55 137 123.5t53 163.5zM1063 160q-187 154 -322 272q-182 164 -305 287l-35 -23q-46 -29 -97.5 -114.5t-51.5 -169.5q-2 -118 61 -215t170 -149.5t232 -49.5q100 1 176.5 34t146.5 101z" />
    <glyph glyph-name="quotesingle" unicode="'" horiz-adv-x="251" 
d="M186 1468l-20 -370h-84l-29 370q-4 99 66 101q71 0 67 -101z" />
    <glyph glyph-name="parenleft" unicode="(" horiz-adv-x="456" 
d="M473 -248q-9 -7 -36.5 18t-66.5 78t-83 126t-86.5 168.5t-77.5 197.5t-56.5 222t-21.5 233q0 112 30.5 252.5t76 264t94.5 227.5t90 161t59 47q5 -2 -12.5 -45.5t-49 -130t-62 -195t-52 -267t-18.5 -321.5q3 -183 35.5 -356t74.5 -287.5t83.5 -204t64 -135.5t14.5 -53z
" />
    <glyph glyph-name="parenright" unicode=")" horiz-adv-x="483" 
d="M408 784q0 -156 -40.5 -322.5t-99 -294.5t-120 -230.5t-108.5 -153.5t-60 -41q-8 7 14.5 53t64 135.5t84 204t75.5 287.5t36 356q2 163 -19.5 321.5t-52.5 267.5t-62 195t-49.5 129.5t-13.5 45.5q18 10 59 -47t90 -161.5t95 -228t76.5 -264t30.5 -252.5z" />
    <glyph glyph-name="asterisk" unicode="*" horiz-adv-x="768" 
d="M702 1272q-9 1 -23 0t-42.5 -3.5t-56.5 -4.5q-122 -5 -129 -43q-2 -11 30 -53.5t60 -63.5q29 -20 52.5 -37.5t31.5 -22.5l-111 -94q-4 21 -37 90q-45 105 -68 131q-17 18 -32 19q-11 0 -37.5 -42t-38.5 -77q-14 -35 -37.5 -81t-25.5 -52l-113 115q44 20 121 75
q32 22 57 56t19 49q-4 15 -49 25t-97 10q-25 1 -57 2.5t-41 2t-27 -0.5l41 149q19 -19 125 -86q32 -20 83 -37.5t56 -9.5q6 11 3.5 50t-11.5 79q-19 91 -39 150h146q-3 -7 -7.5 -28.5t-12 -57t-15.5 -66.5q-10 -35 -8.5 -77.5t14.5 -51.5q6 -3 51 16.5t78 40.5q84 60 96 72z
" />
    <glyph glyph-name="plus" unicode="+" horiz-adv-x="1232" 
d="M1167 504h-495v-504h-125v506h-494v123h492v499h121v-499h501v-125z" />
    <glyph glyph-name="comma" unicode="," horiz-adv-x="348" 
d="M283 84q0 -114 -48 -209t-102 -129l-16 -12l-13 12l11 16q61 82 71 146q13 68 11 80.5t-33 9.5q-40 -2 -69.5 19t-38.5 53t-5 64.5t31 58.5t70 32q50 7 90.5 -38.5t40.5 -102.5z" />
    <glyph glyph-name="hyphen" unicode="-" horiz-adv-x="677" 
d="M655 840l-30 -119h-582l43 119h569z" />
    <glyph glyph-name="period" unicode="." horiz-adv-x="346" 
d="M170 -2q-54 0 -84.5 35.5t-30.5 78t30.5 78t84.5 35.5t84.5 -35.5t30.5 -78t-30.5 -78t-84.5 -35.5z" />
    <glyph glyph-name="slash" unicode="/" horiz-adv-x="1177" 
d="M1090 1563l-953 -1563h-80l953 1563h80z" />
    <glyph glyph-name="zero" unicode="0" horiz-adv-x="1546" 
d="M1485 805q5 -123 -21 -239.5t-84 -216.5t-140.5 -177t-196.5 -123t-246 -51q-158 -6 -300 57.5t-240.5 173t-154.5 256t-53 303.5q3 150 59.5 288t150.5 241.5t226.5 165t280.5 61.5q158 0 291.5 -59.5t224 -160.5t143.5 -235t60 -284zM1253 784q-1 79 -6.5 146t-20 143
t-36.5 136.5t-59 117t-86 94.5t-119 61t-156 23q-474 0 -487 -710q-1 -79 5 -154t22.5 -153t42.5 -144.5t67 -125t93.5 -98.5t125 -61t158.5 -16t155.5 31.5t117 66.5t82 98.5t54 118.5t31 136.5t14.5 143t2 146.5z" />
    <glyph glyph-name="one" unicode="1" horiz-adv-x="600" 
d="M526 0q-112 8 -219 8q-154 0 -248 -8v20q58 15 95 60q45 55 45 137v922q0 48 -10 111.5t-33 86.5q-44 47 -103 58l-2 12q23 7 168 53q27 9 143 51l-2 -13q-1 -12 -2.5 -29.5t-1.5 -30.5q-2 -24 -2 -133l31 -1047q0 -5 0.5 -27.5t1 -28t2 -23t4 -25.5t7 -21.5t11 -24.5
t15.5 -22q44 -53 100 -68v-18z" />
    <glyph glyph-name="two" unicode="2" horiz-adv-x="1302" 
d="M1229 340q-11 -36 -28 -92.5t-23 -77.5q-26 -81 -50 -170h-1075l10 37q70 233 265 383q47 37 122.5 78t140.5 71t136 77t121 98.5t83.5 132t35.5 180.5q1 47 -8 95.5t-34.5 104t-64.5 99t-105.5 74t-150.5 34.5q-138 6 -252 -62.5t-174 -178.5l-16 -29l-35 -8l-51 198
l26 13q77 34 206.5 69t258.5 35q284 0 446 -127.5t167 -333.5q2 -75 -20.5 -139.5t-60.5 -112t-92.5 -89.5t-111.5 -71t-122 -56.5t-120 -47t-110 -42t-88 -40.5q-88 -44 -161 -128.5t-48 -120.5q7 -11 43 -11h28h590q52 0 92 13.5t95 44.5q24 14 44 31t32 31t20.5 26
t13.5 18t8 4z" />
    <glyph glyph-name="three" unicode="3" horiz-adv-x="1431" 
d="M1360 451q6 -92 -32 -169t-107.5 -129.5t-162.5 -88.5t-196.5 -51.5t-210.5 -12.5q-147 5 -309.5 42.5t-257.5 94.5l-27 15l80 254l21 -11l8 -33q32 -130 168.5 -225t320.5 -96q86 0 167.5 23t151 68t112 121.5t42.5 172.5q0 80 -24 144.5t-64 105t-86.5 69t-98.5 42
t-93.5 19t-77.5 3.5q-32 -1 -65 -6.5t-50.5 -9.5t-33 -5t-22 8t-7.5 29q-1 22 5 31t21.5 9t33.5 -4t50.5 -8.5t63.5 -4.5q42 1 86.5 8.5t98 29.5t94.5 55.5t69.5 91.5t30.5 132q3 149 -100 243.5t-275 94.5q-308 0 -436 -254l-12 -24l-29 -11l-60 199l29 14q100 55 252 84
t252 27q62 -1 123.5 -7t134.5 -20t133 -40.5t109.5 -63.5t74.5 -94t19 -127q-4 -52 -19 -95t-43.5 -75.5t-57 -56t-75.5 -45t-82 -34.5t-92 -32l-45 -14l45 -17q20 -7 62 -19.5t67.5 -20.5t65 -22.5t65.5 -28.5t58 -34t53 -43.5t40.5 -52.5t30 -65.5t13.5 -79.5z" />
    <glyph glyph-name="four" unicode="4" horiz-adv-x="1531" 
d="M1477 657l-88 -272h-33h-7q-7 0 -18 -0.5t-25.5 -1t-33 -0.5h-38.5t-43.5 0.5t-45.5 1.5q-101 0 -101 -27l5 -100q2 -61 11 -99t40 -73q52 -55 114 -68v-18q-159 12 -278 12q-102 0 -240 -12v18q52 19 88 60q31 34 45.5 65.5t14.5 73.5v172h-793l-4 60l942 1077l33 -10
q0 -1 -1 -13.5t-2.5 -32l-2.5 -32.5q-1 -22 0 -53t2.5 -55t1.5 -25l18 -785q2 -21 15.5 -29.5t46.5 -5.5q7 0 36.5 2t37.5 2.5t34 3.5t36 6t33 9t35 13.5t32.5 19t35 25t32 32.5t34.5 41l16 20zM844 481v758l-33 14l-612 -741l10 -31h635z" />
    <glyph glyph-name="five" unicode="5" horiz-adv-x="1478" 
d="M1407 451q-4 -117 -64 -208t-159.5 -145t-219.5 -81t-253 -25q-180 2 -359.5 38t-271.5 97l-31 20l84 250l25 -18l8 -29q23 -87 109.5 -160.5t203 -114.5t232.5 -42q86 0 167 24t148.5 70t108 122.5t39.5 172.5q-1 76 -23.5 139t-57.5 106t-81.5 76t-93.5 52t-97 31
t-87 15.5t-68 2.5q-92 -3 -219 -30t-185 -56l-51 -27l-39 14l55 750h912q7 0 20.5 -0.5t19 0t15.5 1.5t19.5 3.5t21.5 7.5q35 15 53 31l10 -10l-69 -205h-823q-64 0 -101 -35q-17 -13 -28 -61t-11 -74l-24 -346l96 27q130 34 213 42t217 5q91 -1 182.5 -20t174.5 -56
t147 -87.5t101 -119.5t34 -147z" />
    <glyph glyph-name="six" unicode="6" horiz-adv-x="1507" 
d="M1436 524q-1 -102 -41.5 -191t-107.5 -150.5t-152.5 -105t-177 -63t-179.5 -16.5q-152 5 -283.5 56.5t-230.5 143.5t-157 231t-60 310q-2 129 31 249t99.5 221t159.5 176.5t218 117t268 39.5q143 -3 278 -41t216 -78l26 -14l-65 -231l-18 16l-7 25q-26 88 -102 154
t-163.5 95.5t-170.5 28.5q-120 -1 -212 -34.5t-162 -104.5t-114.5 -185.5t-62.5 -273.5q-6 -47 -5.5 -99.5t7.5 -70.5l13 -29l34 56q67 108 181.5 176t273.5 74q126 5 246 -27.5t213.5 -94t150.5 -155.5t56 -205zM1214 500q-2 194 -126 325.5t-330 130.5q-196 0 -328.5 -131
t-128.5 -340q3 -127 65 -231t171 -162.5t241 -52.5q113 5 198.5 43t136.5 101.5t76 143t25 173.5z" />
    <glyph glyph-name="seven" unicode="7" horiz-adv-x="1417" 
d="M1319 1452q3 -28 -30 -89.5t-77 -117.5q-22 -26 -69.5 -81.5t-78 -92.5t-79.5 -100.5t-96 -132.5q-103 -149 -163.5 -311t-68.5 -291q-2 -48 0 -87t5.5 -80t3.5 -46v-23q-68 8 -136 8q-74 0 -153 -8l4 37q30 206 106 379q107 239 431 551q85 82 168 191t63 128q-3 3 -6 5
t-7.5 3.5t-7.5 2t-9 1t-8.5 0.5h-10.5h-10h-41h-523q-23 0 -80 0.5t-85.5 0.5t-69.5 -2t-67.5 -8t-43.5 -15q-69 -38 -123 -100l-18 -21l-19 12l97 301h913q55 0 158 7q19 1 46.5 4t46.5 5t24 1l12 -4z" />
    <glyph glyph-name="eight" unicode="8" horiz-adv-x="1511" 
d="M1432 459q5 -95 -34 -174.5t-108 -132.5t-161.5 -91t-190.5 -56.5t-199 -20.5q-96 -2 -191.5 11t-187 43.5t-161 76t-111.5 114.5t-41 152q0 48 13.5 91t33.5 76t54 64t64 52t75.5 44t76.5 36t78 32l54 21l-54 18q-67 23 -122 55t-99.5 74t-68.5 97.5t-21 117.5
q6 131 93 220.5t225.5 129.5t318.5 39q96 0 186 -19t169 -57.5t127 -106.5t48 -157q0 -203 -339 -313q-10 -3 -13 -4l-47 -14l68 -23q17 -6 69.5 -23.5t77.5 -26.5t73 -29.5t74.5 -38t62 -47.5t54.5 -61t35 -75t19 -94zM1126 1212q1 64 -19.5 114.5t-55.5 83.5t-86 55.5
t-107 32.5t-123 13q-110 3 -207.5 -30.5t-161 -106.5t-57.5 -170q10 -209 449 -305l49 -10l80 26q40 14 79 37.5t76 59.5t60 88t24 112zM1227 367q7 61 -12.5 112.5t-75.5 91t-98.5 65.5t-135 53t-128 35.5t-131.5 29.5q-11 3 -17 4l-47 10l-66 -14q-125 -28 -201.5 -135
t-76.5 -228q-1 -157 145.5 -263.5t353.5 -100.5q450 9 490 340z" />
    <glyph glyph-name="nine" unicode="9" horiz-adv-x="1474" 
d="M1407 799q2 -169 -45.5 -314.5t-138.5 -254.5t-232.5 -171t-316.5 -63q-309 0 -537 127l-24 12l73 240l23 -4l8 -35q18 -83 100.5 -153.5t180.5 -106.5t180 -35q234 1 357.5 149.5t158.5 464.5q4 66 -4 86l-10 31l-33 -53q-146 -235 -471 -246q-94 -4 -189 21t-176 74
t-143.5 115.5t-96.5 152.5t-30 178q5 110 47 200t108 149.5t153 99.5t179 56t187 13q142 -4 266 -54t218.5 -140.5t150 -229t57.5 -309.5zM1165 1012q-1 128 -61 239.5t-168 178.5t-238 63q-95 -2 -170 -27.5t-125 -67.5t-83.5 -102t-49.5 -127t-18 -145q-3 -102 27 -192.5
t89 -159.5t154.5 -109.5t214.5 -40.5q127 1 226.5 71t151 181t50.5 238z" />
    <glyph glyph-name="colon" unicode=":" horiz-adv-x="364" 
d="M170 885q-54 0 -84.5 35t-30.5 77.5t30.5 77.5t84.5 35t84.5 -35t30.5 -77.5t-30.5 -77.5t-84.5 -35zM170 -2q-54 0 -84.5 35.5t-30.5 78t30.5 78t84.5 35.5t84.5 -35.5t30.5 -78t-30.5 -78t-84.5 -35.5z" />
    <glyph glyph-name="semicolon" unicode=";" horiz-adv-x="360" 
d="M156 885q-43 0 -72 23t-36 56.5t0 66.5t36 56t72 23q54 0 84.5 -35t30.5 -77.5t-30.5 -77.5t-84.5 -35zM283 84q0 -114 -48 -209t-102 -129l-16 -12l-13 12l11 16q61 82 71 146q13 68 11 80.5t-33 9.5q-40 -2 -69.5 19t-38.5 53t-5 64.5t31 58.5t70 32q50 7 90.5 -38.5
t40.5 -102.5z" />
    <glyph glyph-name="less" unicode="&#x3c;" horiz-adv-x="1257" 
d="M1182 -4l-1141 536v123l1139 519v-154l-951 -428l953 -447v-149z" />
    <glyph glyph-name="equal" unicode="=" horiz-adv-x="1310" 
d="M1229 729h-1186v131h1186v-131zM1229 287h-1186v133h1186v-133z" />
    <glyph glyph-name="greater" unicode="&#x3e;" horiz-adv-x="1269" 
d="M1202 532l-1145 -536v149l953 447l-951 428v154l1143 -519v-123z" />
    <glyph glyph-name="question" unicode="?" horiz-adv-x="1128" 
d="M1034 1186q2 -81 -25.5 -151.5t-75.5 -126t-98 -101t-108.5 -99.5t-91.5 -98q-109 -145 -109 -248v-9q1 -9 0.5 -13.5t-2.5 -11t-7.5 -10t-14.5 -3.5q-13 1 -17 10t-4 37q0 49 24 126t50 122q30 55 77 129.5t77 124t60 109.5t44.5 117t13.5 114q-3 154 -86.5 249
t-257.5 99q-121 3 -218.5 -63.5t-151.5 -179.5l-21 -43l-16 -9l-68 234l41 16q75 33 198.5 59.5t244.5 26.5q91 2 184.5 -24.5t173 -75.5t131 -129.5t53.5 -177.5zM512 217q42 0 70.5 -22.5t34.5 -55t-0.5 -65t-35.5 -55t-71 -21.5q-41 0 -69 22.5t-34.5 55t0.5 64.5
t35.5 54.5t69.5 22.5z" />
    <glyph glyph-name="at" unicode="@" horiz-adv-x="1597" 
d="M1503 893q0 -148 -66.5 -284t-181.5 -221t-245 -85q-38 0 -67.5 17.5t-44 42t-24 49t-12.5 42.5l-2 17l-61 -70q-78 -90 -197 -90q-120 -1 -198 96t-78 226q0 78 30 152t78.5 128.5t108.5 96t121.5 63t115.5 21.5q132 0 160 -95l21 -57l43 127l176 4l-160 -590
q-12 -35 -5 -79t38 -44q82 0 162 79t129 199.5t49 238.5q0 97 -33.5 180.5t-91 142.5t-134 101t-162.5 62.5t-177 20.5q-130 0 -248 -50t-203 -135t-135.5 -202.5t-50.5 -246.5q0 -179 86.5 -331.5t237 -242.5t329.5 -90q71 0 135 10t112.5 27t90.5 39.5t72 47t54.5 48.5
t39.5 46.5t25 39.5t14 27l4 10h135q-3 -8 -10 -22.5t-33.5 -56t-59.5 -79t-91 -83.5t-125 -79.5t-163.5 -56t-205.5 -22.5q-154 0 -294.5 60.5t-242 162t-161.5 242t-60 294.5q1 152 60.5 290.5t159 239.5t238 160.5t290.5 59.5q135 0 262.5 -43.5t226.5 -120t159 -190
t60 -244.5zM924 860q0 79 -32.5 129.5t-90.5 50.5q-65 0 -134 -81t-113 -198t-44 -220q0 -70 34 -120t105 -50q68 0 134 90t103.5 203.5t37.5 195.5z" />
    <glyph glyph-name="A" unicode="A" horiz-adv-x="1980" 
d="M1933 0q-111 8 -284 8q-112 0 -224 -8v16q64 27 82 93q9 35 -2.5 75t-25.5 58l-254 555h-621l-225 -492q-57 -120 -4 -201q42 -73 110 -88v-16q-109 8 -219 8q-139 0 -225 -8v16q52 39 100 90q14 14 29.5 33t29 38t26 38t23.5 37t18.5 31t13.5 23t6 11l696 1369
l723 -1410q36 -76 98 -149q20 -23 41.5 -43t37 -31.5t50.5 -36.5v-16zM1200 850l-291 575l-278 -575h569z" />
    <glyph glyph-name="B" unicode="B" horiz-adv-x="1746" 
d="M1669 430q-3 -97 -52 -174t-122.5 -124t-170 -77.5t-187.5 -42.5t-183 -12h-213q-181 10 -379 10q-169 0 -325 -10v16q67 15 121 82q43 54 43 160v1114q0 69 -37 119q-13 18 -35.5 35.5t-32.5 21.5v19h637q44 0 80 -0.5t98 -4.5t113 -10t114.5 -18.5t113.5 -29t100 -42.5
t83.5 -58.5t55 -78t22.5 -98.5q2 -72 -20.5 -129t-67 -97t-96.5 -66.5t-121 -47.5l-135 -41l139 -29q128 -26 229.5 -75.5t166.5 -131t61 -180.5zM1284 1188q0 69 -22 123.5t-52.5 89t-89 59t-103.5 36.5t-124.5 18t-124 7t-128.5 1h-5h-244v-658h115q34 0 107 -1
q77 -4 157 -1t154.5 8.5t140 27.5t114.5 55.5t77 93.5t28 141zM1423 428q0 63 -18 115.5t-44.5 90.5t-77 67.5t-93 48.5t-115 32.5t-121.5 20t-134.5 10t-131.5 4t-133 0.5h-164v-559q0 -121 65 -165q56 -37 213 -43q30 -1 203 -3q275 -4 413 95.5t138 285.5z" />
    <glyph glyph-name="C" unicode="C" horiz-adv-x="1697" 
d="M1636 170l-26 -18q-62 -43 -110.5 -71t-118.5 -56t-158 -44t-199 -22q-149 -9 -292.5 19.5t-269.5 95t-221 164.5t-150.5 237.5t-55.5 304.5q0 181 71.5 338t196.5 267.5t301 171.5t377 55q190 -7 343.5 -60t254.5 -120l31 -23l-70 -213l-22 6l-9 21q-18 47 -39 85.5
t-63 85.5t-96 80.5t-139.5 60.5t-192.5 36q-142 11 -260 -26.5t-198.5 -110t-137 -174.5t-83.5 -216.5t-30 -238.5q-5 -160 43.5 -309.5t139.5 -264.5t234.5 -179.5t316.5 -53.5q194 12 331.5 93.5t223.5 244.5l12 24l14 7z" />
    <glyph glyph-name="D" unicode="D" horiz-adv-x="1841" 
d="M1737 819q3 -167 -49 -305t-142.5 -232t-214.5 -158.5t-262.5 -94t-288.5 -29.5h-131q-61 0 -163 7.5t-169 6.5q-110 0 -280 -16v18q51 20 94 72q25 34 35 82.5t10 77.5l-2 1093q0 11 -2.5 32.5t-13 57.5t-27.5 56q-16 20 -37.5 39t-30.5 22v19h805q194 0 357 -57
t274 -156.5t173.5 -237t64.5 -297.5zM1487 788q0 107 -12.5 196.5t-34.5 159t-57.5 124.5t-76.5 94.5t-96.5 68.5t-111 47t-126.5 28.5t-138 14t-150 3.5h-324l35 -1266q1 -54 14.5 -90t37 -58.5t67.5 -34t94.5 -15.5t128.5 -3q106 1 191.5 11.5t164 34t138.5 61.5t109 94.5
t80.5 132t49 175t17.5 222.5z" />
    <glyph glyph-name="E" unicode="E" horiz-adv-x="1662" 
d="M1602 336l-103 -336h-907q-49 0 -127 4t-127 4q-186 0 -301 -8v16q59 21 100 76q39 43 39 238v1048q0 18 -12.5 50t-30.5 59q-20 35 -55 61v19h1292l88 -269l-26 5l-23 22q-22 22 -43.5 40t-36 28.5t-37.5 22.5t-34 17t-41 17t-43 18q-53 22 -193 33t-256.5 13t-314.5 2
h-39v-656h493q64 0 97.5 1.5t79.5 12t79 31.5q69 49 105 125h22q-8 -99 -8 -194q0 -92 8 -191h-22q-27 43 -52 68.5t-75 52.5q-38 22 -90.5 30.5t-143.5 8.5h-487l16 -545q3 -73 18 -115t58.5 -60.5t76.5 -22t118 -4.5q28 -1 43 -1q357 -7 563 64t307 211z" />
    <glyph glyph-name="F" unicode="F" horiz-adv-x="1546" 
d="M1464 1264l-22 2l-21 22q-54 60 -109 96t-134 70q-49 20 -131 32.5t-208 17.5t-211 6t-241 1h-43l12 -661h363q161 0 232 6t113 22.5t91 57.5q32 28 62 90h16q-3 -96 0 -192q0 -95 6 -224h-14q-31 55 -58 86t-71 54q-82 45 -375 45h-363l19 -537q5 -112 53 -176
q30 -38 82 -66v-16q-123 8 -240 8q-110 0 -225 -8v16q35 19 55.5 36t38.5 46q13 20 24 93t11 98v1083q0 38 -49 111q-24 35 -64 65v19h1311z" />
    <glyph glyph-name="G" unicode="G" horiz-adv-x="1845" 
d="M1778 799l-4 -19q-58 -6 -97 -45q-29 -29 -38 -61.5t-7 -81.5l13 -404l-27 -18q-75 -52 -127 -82.5t-124 -60t-156.5 -45t-196.5 -21.5q-139 -8 -278 21t-265 96.5t-223 164.5t-154.5 236t-56.5 301q0 168 64 317t179 260t285.5 178t374.5 71q155 4 355 -49t284 -111
l41 -29l-66 -227l-18 6l-18 33q-21 41 -51.5 82t-83.5 89t-116 83.5t-153 58.5t-190 21q-161 -4 -285.5 -63.5t-202.5 -162.5t-118 -237.5t-42 -294.5q-2 -134 26.5 -255t88.5 -222.5t146 -174t206 -110.5t261 -31q99 5 166 18.5t122.5 42.5t84.5 77t42 122t6 179
q-1 21 -2 59.5t-2.5 59t-7 51.5t-18.5 49.5t-34.5 39.5t-57 34t-84.5 22l-56 10l-14 33q221 -21 385 -21q115 0 244 11z" />
    <glyph glyph-name="H" unicode="H" horiz-adv-x="1798" 
d="M1735 0q-120 8 -238 8q-99 0 -203 -8v16q30 20 47.5 37t34.5 45q33 55 33 164l4 531h-1057l19 -535q1 -45 14.5 -98t22.5 -68q22 -33 33.5 -44.5t37.5 -31.5l2 -16q-125 8 -247 8q-91 0 -187 -8v16q52 37 76 82q12 22 23.5 81t11.5 79v1112q0 69 -33 119q-30 46 -51 59
v19q108 -11 174 -11q29 0 71.5 3t70.5 5l28 3v-19q-9 -5 -25 -25t-26 -40q-19 -41 -19 -111l4 -522h1057l8 522q0 61 -22 111q-11 27 -43 65v19q103 -11 166 -11q26 0 65 3l65 5l25 3v-19q-1 -1 -8 -7t-16.5 -19.5t-20.5 -38.5q-20 -51 -20 -111l-2 -1114q0 -43 16 -95.5
t27 -70.5q48 -55 82 -76v-16z" />
    <glyph glyph-name="I" unicode="I" horiz-adv-x="571" 
d="M512 0q-109 8 -215 8q-115 0 -238 -8v16q58 27 93 82q34 51 34 160l9 1114q0 52 -35 111q-25 41 -56 65v19q94 -13 183 -13q68 0 170 13v-19q-9 -6 -26 -26t-28 -39q-26 -51 -26 -111l10 -1114q1 -45 17.5 -98t27.5 -68q45 -56 80 -76v-16z" />
    <glyph glyph-name="J" unicode="J" horiz-adv-x="985" 
d="M895 1548q-39 -16 -66 -65q-22 -43 -22 -111l4 -825q2 -90 -34 -187.5t-99.5 -181t-161 -141t-207.5 -64.5q-74 -4 -158 16t-102 36l-12 12q4 11 10.5 26t11.5 27.5t9 26.5q28 103 34 131h27l8 -19q83 -177 256 -180q30 0 59 11.5t62.5 45.5t58 87.5t40 147t14.5 214.5
l4 817q0 44 -43 111q-25 37 -62 65l-2 19q90 -11 213 -11q77 0 158 11v-19z" />
    <glyph glyph-name="K" unicode="K" horiz-adv-x="1685" 
d="M1651 16l-4 -16h-379l-330 506q-87 137 -182.5 215.5t-210.5 77.5q-70 -2 -121.5 -48t-48.5 -114l16 -379q1 -48 17.5 -104.5t27.5 -73.5q43 -50 84 -64v-16q-107 8 -209 8q-115 0 -235 -8v16q46 29 82 82q13 20 22.5 100t9.5 109v942q0 29 -17 117t-36 119
q-9 18 -25 37.5t-24 25.5v19q87 -11 164 -11q90 0 192 11v-19q-18 -14 -49 -63q-28 -45 -28 -113l-2 -483q0 -66 26 -60q13 4 32 15.5t50.5 36t49.5 39t61.5 51t54.5 45.5l322 262q176 144 157 215q-9 32 -43 55v19q109 -13 215 -13q112 0 221 13v-19q-120 -55 -239 -125
q-40 -25 -108.5 -75.5t-122 -93t-112.5 -90t-61 -48.5l-237 -178q-5 -4 -17.5 -12.5t-17.5 -12.5t-13 -12t-12 -17t-6 -20q-1 -6 6.5 -9.5t22.5 -5.5t35 -3t46 -3.5t54 -6t60 -10t62.5 -15.5t62.5 -23.5t59 -33.5q50 -34 124.5 -131.5t139.5 -197.5t145.5 -200t141.5 -139
q45 -29 127 -70z" />
    <glyph glyph-name="L" unicode="L" horiz-adv-x="1613" 
d="M1556 309l-90 -309h-850q-52 0 -135 4t-135 4q-151 0 -295 -10v18q73 17 115 82q13 19 22 77t9 83v1055q0 96 -31 151q-13 25 -37.5 51.5t-34.5 32.5v19q109 -13 221 -13q119 3 191 13v-19q-31 -18 -64 -65q-31 -44 -43 -76.5t-12 -87.5l27 -1061q3 -119 66 -163t247 -48
q118 -2 229.5 8.5t225 38.5t207 83.5t149.5 133.5z" />
    <glyph glyph-name="M" unicode="M" horiz-adv-x="2041" 
d="M1985 0q-106 8 -277 8q-91 0 -190 -8v16q46 20 90 82q13 19 26 79t13 81l-23 1151l-655 -1409h-27l-663 1393l4 -1043q0 -41 5.5 -78t12.5 -62t18 -48.5t18 -35t16 -24.5l9 -12q36 -44 82 -74l2 -16q-88 8 -170 8q-108 0 -223 -8v16q55 28 103 82q27 34 48 122t21 132
l-10 967q0 26 -14.5 77.5t-40.5 86.5q-12 18 -33.5 38.5t-30.5 26.5v19q76 -6 170 -6q74 0 142 6l622 -1286l598 1286q18 -4 119 -8q99 0 158 8v-19q-1 0 -5 -2.5t-6 -4t-7 -5t-9 -8t-9.5 -10.5t-11.5 -15t-12 -20q-15 -26 -24 -60.5t-9 -50.5l35 -1114q3 -45 23.5 -96.5
t34.5 -69.5q41 -56 77 -76z" />
    <glyph glyph-name="N" unicode="N" horiz-adv-x="1812" 
d="M1755 1548q-3 -2 -9.5 -5.5t-9 -5t-8 -5t-7.5 -5t-7 -5t-7.5 -6.5t-7.5 -7.5t-9 -9t-8.5 -11t-10.5 -13.5q-12 -14 -24 -35.5t-26.5 -83t-14.5 -139.5v-1250h-31q-39 45 -177.5 206t-234.5 265q-123 133 -367 402.5t-382 419t-138 141.5l19 -1051q1 -78 22.5 -159.5
t34.5 -98.5q23 -29 49 -45t66 -31l2 -16q-96 8 -188 8q-110 0 -222 -8v16q52 24 101 76q28 34 45.5 122.5t17.5 137.5l-2 1004q0 33 -20 69t-39 58q-60 60 -68 65v19q70 -8 185 -8q72 0 145 8q49 -65 100 -129q26 -34 277.5 -306t495 -528.5t243.5 -245.5l-6 856
q0 42 -23.5 131t-52.5 123q-47 57 -94 80v19q110 -11 211 -11q84 0 180 11v-19z" />
    <glyph glyph-name="O" unicode="O" horiz-adv-x="1875" 
d="M1784 770q-1 -169 -68 -319t-180.5 -257.5t-272.5 -171t-339 -65.5q-175 -4 -339.5 59.5t-286.5 173.5t-196 266.5t-73 329.5q2 231 118.5 418t319.5 293t453 107q183 1 345 -64t276.5 -176.5t179.5 -266t63 -327.5zM1546 754q5 129 -16.5 247.5t-72 221.5t-124.5 179
t-180.5 120t-234.5 45q-136 1 -246.5 -42.5t-184 -118t-123.5 -176.5t-72 -213t-22 -233t22.5 -234.5t72.5 -215t124 -177t184.5 -117.5t246.5 -40q138 3 246 46.5t176 113.5t114 168.5t66 201.5t24 224z" />
    <glyph glyph-name="P" unicode="P" horiz-adv-x="1617" 
d="M1520 1167q4 -71 -21 -131t-69.5 -103t-108.5 -77.5t-133.5 -56.5t-150.5 -38t-152 -23.5t-146 -10.5q-152 -5 -284 4l-84 8l20 -450q8 -144 49 -197q45 -54 107 -76v-16q-115 8 -228 8q-133 0 -274 -8v16q69 29 102 82q19 29 27 80.5t8 81.5v1112q0 53 -39 111
q-15 21 -42 41t-38 24v19h668q105 0 204.5 -10.5t206 -38t186.5 -71t133.5 -115.5t58.5 -165zM1292 1167q-8 85 -42 147.5t-85.5 97.5t-119 58.5t-143 29t-156.5 9t-161 -0.5q-23 0 -36 -0.5t-32.5 -0.5h-35.5h-119l9 -698l55 -12q135 -17 256 -17q307 0 467.5 104.5
t142.5 282.5z" />
    <glyph glyph-name="Q" unicode="Q" horiz-adv-x="1832" 
d="M1743 799q6 -317 -187.5 -537.5t-531.5 -288.5l-51 -10q0 -2 -13 -13q-11 -10 5 -11q6 -1 137.5 -68t289.5 -135t234 -72q48 -3 82 14l8 -8l-147 -96q-77 -49 -127 -49q-29 0 -180.5 85t-315 170.5t-221.5 86.5q-51 0 -87 -16t-128 -76l-29 -17l-20 31q50 38 123 82
q28 15 75.5 33t77.5 29.5t29 17.5q0 10 -4 22l-31 9q-326 83 -507 291t-181 513q-1 152 44 284t124 229t185.5 167t232 105t260.5 35q184 1 342.5 -60t269.5 -167.5t175.5 -256.5t66.5 -323zM1507 799q-1 133 -23 247.5t-72 214t-124 168.5t-185 105t-249 29
q-125 -7 -226 -57t-165.5 -127t-108 -178.5t-62.5 -204.5t-20 -212q-2 -115 22 -226t75 -210t122.5 -174.5t172 -120.5t217.5 -47q139 -2 248.5 42.5t179 120t115.5 180.5t64.5 216t18.5 234z" />
    <glyph glyph-name="R" unicode="R" horiz-adv-x="1769" 
d="M1708 0h-324l-22 49q-22 46 -59.5 152t-68.5 195.5t-77.5 178.5t-93.5 123q-89 66 -184 78t-428 12h-82l26 -530q1 -46 15 -99t24 -67q24 -29 44 -46.5t29 -21.5t23 -8v-16q-112 8 -215 8q-128 0 -264 -8v16q50 24 92 82q12 21 27.5 81.5t15.5 78.5l-2 1067q0 84 -43 158
q-17 33 -49 65v19h703q78 0 143.5 -3.5t143.5 -13.5t139.5 -27t121 -47.5t99 -70.5t63.5 -99t23 -132q-1 -67 -28 -122.5t-67.5 -91.5t-97.5 -64.5t-109 -43.5t-110 -25l-100 -18l88 -39q5 -2 34.5 -15t37 -16.5t33.5 -16t36.5 -19.5l31.5 -21t33 -27t27 -30.5t27 -36.5
q42 -69 90 -183t86.5 -199t71.5 -114q49 -44 96 -76v-16zM1288 1188q-4 60 -14 105t-38 79t-50.5 57t-81 38t-97 23t-131 12t-151 4.5t-186.5 0.5h-15h-159l-3 -659h453q109 0 194 20t138 52.5t86 77.5t45.5 91.5t9.5 98.5z" />
    <glyph glyph-name="S" unicode="S" horiz-adv-x="1552" 
d="M1473 516q9 -169 -85.5 -293.5t-269 -186t-403.5 -52.5q-167 4 -339 48t-294 99l-43 21l90 258l14 -13l7 -20q19 -78 72.5 -140t120.5 -100t149 -63t153 -35.5t139 -11.5q64 -1 130.5 10.5t132.5 39t117 68t83 103.5t31 139q-1 37 -9.5 69t-22 56.5t-36.5 45.5t-45.5 36
t-56.5 28.5t-61 21.5t-68 17t-70 14.5t-73.5 13.5t-71.5 13l-66 13q-61 12 -111 24t-107.5 31t-102 40.5t-87 53t-69.5 67.5t-43 84.5t-14 104.5q3 102 43 183t102.5 132t146.5 84.5t169.5 46.5t175.5 11q141 -3 314.5 -42t273.5 -85l32 -16l-73 -236l-21 10l-4 21
q-18 80 -76.5 140t-138.5 92.5t-156 48t-151 18.5q-198 6 -323.5 -74t-135.5 -229q-13 -166 146 -246q84 -42 282 -81q8 -1 23 -4q29 -6 43 -9l51 -11q1 0 39 -6t73 -12t91.5 -20.5t104 -32t99.5 -45.5t88.5 -61t62 -80t28.5 -101z" />
    <glyph glyph-name="T" unicode="T" horiz-adv-x="1746" 
d="M1663 1264h-23q-15 30 -60 70t-109 79.5t-151.5 66t-172.5 25.5q-37 0 -65.5 -3t-60 -11t-48.5 -27t-17 -47v-1159q0 -105 56 -168q51 -54 118 -74v-16q-123 8 -266 8q-120 0 -276 -8v16q39 10 66 29t57 53q45 54 45 162v1163q0 43 -57 63.5t-128 18.5q-100 -2 -195 -30
t-159.5 -67.5t-106.5 -77.5t-57 -66h-35l95 303h1468z" />
    <glyph glyph-name="U" unicode="U" horiz-adv-x="1755" 
d="M1671 1548q-14 -6 -44.5 -29.5t-51.5 -56.5q-39 -63 -39 -198l-18 -717q-2 -89 -26.5 -172.5t-75.5 -157.5t-122.5 -129.5t-174 -89t-224.5 -35.5q-126 -3 -232.5 13t-181.5 43t-135.5 68t-97.5 80.5t-64 89.5t-39.5 86t-19.5 79t-7.5 59.5t-0.5 35.5v3v852q0 76 -19 111
q-12 21 -36 42t-33 23v19q118 -8 194 -8l193 8v-19q-33 -20 -62 -65q-17 -25 -27 -60t-10 -51l11 -817q3 -259 155.5 -396.5t421.5 -140.5q110 -1 199.5 26.5t146 70t99 101.5t63.5 112t33.5 111t15 88.5t2.5 54.5l-4 665q0 24 -3.5 57.5t-20 90t-43.5 88.5q-19 20 -48 40.5
t-40 24.5v19q112 -6 182 -6l184 6v-19z" />
    <glyph glyph-name="V" unicode="V" horiz-adv-x="1896" 
d="M1833 1548q-10 -6 -42 -35t-54 -55q-32 -34 -77.5 -103.5t-60.5 -101.5l-647 -1273h-26l-127 278l-598 1114q-22 45 -88 111q-19 20 -46.5 41t-37.5 24v19q102 -6 266 -6q148 4 178 6v-19q-11 -4 -32 -24.5t-29 -40.5q-11 -32 -8.5 -61t12.5 -50l614 -1102l488 983
q27 52 34 114.5t-6 90.5q-16 37 -34 54.5t-64 35.5v19q112 -6 184 -6l201 6v-19z" />
    <glyph glyph-name="W" unicode="W" horiz-adv-x="2551" 
d="M2462 1548q-10 -6 -43.5 -37t-55.5 -57q-42 -48 -78 -107.5t-51 -99.5l-501 -1282h-21l-485 1258l-451 -1258h-24l-535 1286q-77 180 -131 232q-55 51 -78 65v19q101 -11 242 -11q97 0 207 11v-19q-38 -8 -72 -65q-42 -66 33 -230l422 -931l450 1267h23l497 -1282
l351 946q17 49 17.5 112.5t-11.5 84.5q-35 71 -101 98v19q102 -11 189 -11q97 0 207 11v-19z" />
    <glyph glyph-name="X" unicode="X" horiz-adv-x="1685" 
d="M1626 0q-131 8 -258 8q-154 0 -250 -8v16q41 24 47 82q3 25 -18 72t-51 88l-324 457l-260 -338q-64 -85 -96.5 -160.5t-24.5 -118.5q6 -26 19 -43.5t25 -24t32 -14.5v-16q-115 8 -225 8q-94 0 -195 -8v16q76 44 129 84q13 10 60 61t81 95l424 508l-366 489
q-109 139 -170 201q-72 76 -96 94v19q107 -13 213 -13q116 0 233 13v-19q-1 0 -3.5 -1t-4.5 -2l-5 -2.5t-5.5 -3.5t-6 -5t-7 -7.5t-7.5 -10t-8.5 -13t-9.5 -16.5q-9 -17 -10 -37.5t6 -41.5t16.5 -41t22.5 -39.5t23 -33t19.5 -25t10.5 -12.5l264 -358l278 354l6 7q5 8 10 15
t13 19.5t15 23.5t14.5 26.5t13 29t9.5 29.5t4.5 30t-2 28t-9.5 26q-6 10 -11.5 18.5t-9.5 14t-8.5 10t-7.5 7t-7 5t-5.5 3t-5 2t-4.5 1.5v19q101 -8 196 -8q94 0 193 8v-19q-4 -3 -125 -102q-69 -57 -190 -193l-328 -401l467 -594q67 -85 164 -158q24 -19 43 -35.5
t31.5 -26.5t31.5 -22v-16z" />
    <glyph glyph-name="Y" unicode="Y" horiz-adv-x="1763" 
d="M1677 1548q-37 -27 -106 -88q-93 -84 -197 -205l-456 -550v-449q0 -44 12 -97.5t22 -66.5q19 -21 30 -32.5t29 -23.5t38 -20v-16q-125 8 -244 8q-102 0 -209 -8v16q54 20 94 82q12 20 17.5 75t5.5 85v408l-432 587q-15 25 -60.5 82t-93.5 101q-32 30 -76.5 68.5
t-52.5 43.5v19q135 -6 233 -6q102 0 234 6v-19q-29 -15 -59 -71q-9 -18 -10 -39.5t5 -42t14 -40t19.5 -37.5t20.5 -30.5t17 -23t9 -11.5l404 -503l397 505q7 8 14.5 19t22 33.5t25 45t19.5 47.5t8 48t-13 39q-13 21 -40.5 40t-39.5 21v19q110 -11 205 -11q92 0 194 11v-19z
" />
    <glyph glyph-name="Z" unicode="Z" horiz-adv-x="1478" 
d="M1427 336l-108 -336h-1264q42 60 210.5 291.5t271.5 388.5q63 94 201.5 282.5t222.5 325.5l34 60l12 18l12 18t9 16.5t7 18t2 18t-3 21.5q-3 14 -14.5 24t-24.5 14.5t-29.5 7t-23 3t-10.5 0.5h-139q-302 0 -492 -86q-54 -25 -89.5 -50.5t-74.5 -67.5l-20 -25l-25 -2
l90 291h1182q-196 -272 -223 -305v-1q-2 -8 -201 -303q-158 -234 -233 -347t-89 -136t-41 -69t-77 -125l-23 -35q-43 -73 -41 -109q2 -23 14 -38.5t27.5 -23.5t42 -13t46 -5.5t52 -1.5t48.5 -2q115 -5 244.5 17t257.5 77.5t200 135.5l43 49z" />
    <glyph glyph-name="bracketleft" unicode="[" horiz-adv-x="516" 
d="M500 -231h-39l-81 3q-81 2 -130 1q-38 0 -100 -5.5t-72 -5.5h-35l10 68q8 60 9 201t-1.5 367t-1.5 347q1 244 -3.5 519.5t-10.5 343.5l-6 51h37q8 0 69.5 -5t100.5 -5q35 -1 80.5 0t83 2.5t45.5 1.5h41v-70h-47q-2 0 -21 0.5t-31.5 0.5t-34 -2t-37 -5t-31 -10t-24.5 -17
q-12 -12 -17.5 -27.5t-6 -26t-0.5 -34.5l4 -1497q0 -34 5 -54.5t24 -39.5q10 -12 30 -18.5t45 -8.5t45 -2t43 1t27 1h29z" />
    <glyph glyph-name="backslash" unicode="\" horiz-adv-x="1114" 
d="M1057 0h-84l-955 1563h88z" />
    <glyph glyph-name="bracketright" unicode="]" horiz-adv-x="546" 
d="M451 1659l-5 -51q-6 -68 -10.5 -343.5t-3.5 -519.5q1 -122 -2 -347.5t-2 -366.5t10 -201l8 -68h-34q-9 0 -71.5 5.5t-98.5 5.5q-49 1 -130 -1l-81 -3h-41l4 75h29q4 0 27 -1t43 -1t45 2t45 8.5t30 18.5q29 31 29 94l4 1497q0 23 -1 34t-6 26.5t-16 27.5q-9 10 -25.5 17
t-32 10t-37.5 5t-34.5 2t-31.5 -0.5t-21 -0.5h-47v70h43q8 0 45.5 -1.5t83 -2.5t80.5 0q38 0 99.5 5t70.5 5h35z" />
    <glyph glyph-name="asciicircum" unicode="^" horiz-adv-x="833" 
d="M776 1225h-143l-225 237l-228 -237h-141l289 342h157z" />
    <glyph glyph-name="underscore" unicode="_" horiz-adv-x="1413" 
d="M1466 -358h-1456v71h1456v-71z" />
    <glyph glyph-name="grave" unicode="`" horiz-adv-x="501" 
d="M416 1274h-115l-293 293h172z" />
    <glyph glyph-name="a" unicode="a" horiz-adv-x="1361" 
d="M1294 0h-209q-6 16 -14 43.5t-12 40.5q-23 85 -31 156l-55 -82q-68 -99 -151.5 -142.5t-203.5 -46.5q-102 -4 -203.5 21.5t-184.5 74t-134 126t-49 169.5q2 75 34 136t82.5 102t123 72.5t145 49t158.5 28.5t154 14.5t141 3.5h114v43q0 93 -19.5 169.5t-61.5 140
t-118.5 99t-181.5 35.5q-147 0 -267.5 -70.5t-162.5 -185.5l-16 -41h-22l-58 213l51 21q251 103 471 98q160 -2 273 -40t177 -108t92 -158.5t28 -205.5v-416q0 -52 13 -144t30 -118q38 -63 67 -88v-10zM1006 438v279h-62q-75 0 -135 -2.5t-136.5 -11.5t-134 -24t-115 -43.5
t-93 -67.5t-55 -97t-13.5 -131q14 -143 114.5 -235t252.5 -82q173 13 275 130.5t102 284.5z" />
    <glyph glyph-name="b" unicode="b" horiz-adv-x="1556" 
d="M1479 641q1 -178 -83.5 -333t-233.5 -248t-326 -93q-138 0 -240 46.5t-225 148.5l-64 55q-2 -22 -6.5 -47.5t-10.5 -51t-7 -28.5q-7 -35 -35 -90h-197l-4 16q22 21 33 35t29 47q38 63 38 162v1215q0 28 -13.5 77t-41.5 88q-25 33 -53 46v16q112 29 143 39q15 4 88 22
l19 -2l16 -778l53 84q81 125 190.5 184.5t258.5 61.5q137 1 260.5 -50t214 -139t144 -214t53.5 -269zM1260 655q-3 170 -57 307t-161.5 221.5t-253.5 84.5q-110 1 -201 -48t-150 -134t-91.5 -197t-34.5 -238q-1 -97 14 -185t51.5 -170.5t92 -143t142 -97.5t194.5 -39
q114 -2 204 50t144.5 142t82 204.5t24.5 242.5z" />
    <glyph glyph-name="c" unicode="c" horiz-adv-x="1386" 
d="M1317 328l-19 -31q-95 -163 -223.5 -247.5t-306.5 -90.5q-145 -6 -278.5 40t-235.5 133t-161 222.5t-54 296.5q6 197 102 348.5t258.5 230.5t364.5 73q137 -4 244.5 -34t246.5 -100l21 -10l-59 -215l-29 2l-4 15q-46 136 -167 218t-278 85q-111 2 -197 -32t-139.5 -91.5
t-88.5 -140t-49 -167t-15 -182.5q-1 -95 14.5 -181t52.5 -165t92.5 -138.5t139 -98.5t186.5 -48q311 -25 529 302l14 24z" />
    <glyph glyph-name="d" unicode="d" horiz-adv-x="1603" 
d="M1542 0h-223q0 2 -8 26t-17.5 55t-13.5 52q-16 80 -16 154l-39 -60q-46 -73 -103.5 -126t-118.5 -82.5t-117.5 -43.5t-113.5 -16q-160 -8 -299 43t-233.5 144.5t-147.5 222.5t-49 272q3 135 58 257t146 209.5t215.5 138.5t260.5 50q150 -1 276 -55t207 -147l31 -33v401
q0 119 -63 170q-21 21 -56 27l4 22q40 8 133 37q55 17 115 45l19 -12v1v1v1v0v1v0v0v0v0v0v0v0v0v-1v0v-1v0v-1v0v-1v-1v0v-1v-1v-1v-1v-1v-1v-1v-1v-1v-1v-1v-1v-1v-1v-1v-1v-1v-1v-1v-1v-1v-1v-1v-1v-1v-1v-1v-1v-1v-1v-1v-1v-1v-1v-1v-1v-1v-1v-1v-1v-1v-1v-1v-1v-1v-1
v-1v-1v-1v-1v-1v-1v-1v-1v-1v-9q0 -23 -0.5 -75.5t-1.5 -96t-1 -46.5l52 -1212q0 -16 13.5 -75t21.5 -75q33 -60 69 -90v-16zM1243 651q-4 128 -31.5 232t-81.5 187t-145.5 130t-214.5 49q-118 3 -206.5 -31.5t-142 -91.5t-86.5 -141.5t-45.5 -168t-13.5 -185.5
q-2 -173 50.5 -310.5t165.5 -223t272 -85.5q157 1 269 87t163.5 228t46.5 324z" />
    <glyph glyph-name="e" unicode="e" horiz-adv-x="1443" 
d="M1389 467l-11 -37q-60 -213 -215.5 -340t-406.5 -137q-102 -4 -202 21.5t-191 83.5t-160.5 140t-111.5 199.5t-44 253.5q-1 128 50.5 248t142 210t221.5 142t278 47q222 -6 395 -129t203 -288l17 -84h-1063l-4 -60q-17 -206 36 -368.5t171.5 -256t283.5 -92.5
q121 1 236.5 54t204 154t120.5 231l9 30zM1124 879q4 92 -42 177.5t-136.5 143t-204.5 60.5q-76 2 -141 -14.5t-109 -44.5t-79 -66t-55.5 -74.5t-34 -73t-18 -59.5t-5.5 -37l-2 -43h827v31z" />
    <glyph glyph-name="f" unicode="f" horiz-adv-x="759" 
d="M778 1765l-57 -178l-35 6q-57 82 -133 72q-35 -5 -63 -27t-43.5 -55t-25.5 -65t-14 -68t-5 -51.5t-1 -26.5l7 -164h239l-33 -63h-202l24 -838q3 -82 23.5 -142.5t36.5 -82.5q23 -29 37 -41.5t38 -24.5v-16q-72 6 -190 6q-144 0 -234 -6v16q28 11 46.5 30t39.5 52
q9 16 15 74.5t6 85.5v887h-213l37 63h174l6 107q3 59 16.5 111t29.5 85.5t37.5 62.5t34 41.5t25.5 22.5q73 55 170 95t179 34z" />
    <glyph glyph-name="g" unicode="g" horiz-adv-x="1433" 
d="M1403 -57q7 -85 -34 -156t-113 -118.5t-169 -80.5t-199.5 -48.5t-207.5 -16.5q-93 -1 -185 8t-184.5 33t-162 60.5t-112.5 94.5t-42 131q0 50 25 90t62 64t80 44t79.5 31.5t60.5 24t23 23.5q-1 16 -21.5 25t-44.5 14t-43 26.5t-18 59.5q2 41 34 74t69 48.5t68.5 31
t32.5 26.5q1 10 -24.5 25.5t-64.5 34t-84 52t-83 73.5t-61.5 104t-20.5 139q4 99 56.5 182.5t133.5 137.5t177.5 85t192.5 33q43 2 99 -2.5t89.5 -9t38.5 -6.5l24 -6l29 35q63 81 189 135q61 26 144 38.5t110 8.5l28 -4q-6 -21 -18 -53t-17 -48q-19 -55 -30 -94h-21
q-66 79 -149 76q-60 0 -112 -20.5t-73 -55.5l-16 -32l31 -13q83 -38 148 -90.5t108.5 -132.5t38.5 -170q-4 -97 -45 -176.5t-110.5 -133t-156 -87.5t-188.5 -49q-37 -5 -93.5 -5.5t-100.5 -0.5t-87 -4t-68.5 -18.5t-29.5 -41.5q-5 -33 26 -53.5t91.5 -29t122 -12t143.5 -7
t131 -9.5q92 -11 157 -23t133 -33.5t110 -50t71 -73.5t33 -104zM1071 866q-5 169 -112 282t-287 116q-102 1 -182.5 -31.5t-130.5 -90t-76 -133t-25 -161.5q2 -88 27 -160t75 -128t132.5 -86t191.5 -28q83 1 150 24t111.5 62t74 92t41.5 113.5t10 128.5zM1243 -141
q-1 55 -31.5 96t-77 65.5t-120 41t-144 23.5t-165.5 11q-74 1 -146.5 0t-138.5 -17t-118 -41.5t-85.5 -73.5t-40.5 -114q-6 -64 24 -114.5t81 -81t121 -50.5t138.5 -27.5t139.5 -6.5q73 1 145.5 9t150.5 29t136.5 52.5t95.5 82.5t35 116z" />
    <glyph glyph-name="h" unicode="h" horiz-adv-x="1536" 
d="M1473 0q-101 8 -201 8q-104 0 -213 -8v16q19 11 31 18.5t20.5 16t11.5 12.5t10 16.5t11 18.5q35 60 35 160v541q0 201 -103 313t-280 115q-101 2 -180.5 -35t-127.5 -96.5t-78.5 -138.5t-41 -153.5t-7.5 -148.5l-8 -397q1 -49 13 -106t22 -70q24 -30 38 -42t40 -24l2 -16
q-98 12 -211 12q-109 0 -203 -12v16q15 7 25.5 12t19 11.5t13 9.5t10.5 10.5l8 10t9 13.5t9 15q7 11 12 24.5t8 27.5t4.5 26.5t2 27t1 23t0 19.5t-0.5 12v1198q-2 42 -15 95.5t-28 74.5q-22 28 -74 45v15q68 15 142 40q37 12 98 37l29 -4v-5.5t-0.5 -4t-1.5 -15t-2 -32.5
q-3 -42 -4.5 -97.5t-1 -96t1.5 -78.5t1 -39l7 -451l49 84q84 144 195.5 204t273.5 60q250 1 378 -129.5t140 -370.5l6 -516q7 -155 29 -184q4 -5 15.5 -19t15 -17.5l12 -12t16 -13.5t17.5 -10v-16z" />
    <glyph glyph-name="i" unicode="i" horiz-adv-x="546" 
d="M229 1458q-30 -1 -54.5 10t-37.5 30t-20 42t-2 46.5t16 43.5t34.5 33t53.5 14q42 2 71.5 -19t37.5 -53t3 -64.5t-32.5 -56.5t-69.5 -26zM483 0q-106 12 -229 12q-93 0 -213 -12v16q78 23 104 82q19 40 19 158l2 743q0 78 -25 119q-13 21 -39 38t-41 22v16q61 13 121 29
q75 17 111 28l22 -2v-67q0 -53 5 -184l6 -130l28 -612q3 -49 12.5 -99.5t18.5 -60.5q27 -34 47.5 -52t50.5 -28v-16z" />
    <glyph glyph-name="j" unicode="j" horiz-adv-x="475" 
d="M276 1442q-43 0 -72 23t-36 56t0 66.5t36 56.5t72 23t72 -23t36 -56.5t0 -66.5t-36 -56t-72 -23zM391 258q1 -74 1 -144.5t-13 -142t-35 -134.5t-64.5 -122.5t-103.5 -105.5q-82 -61 -176.5 -83.5t-173.5 -4.5l-39 8l70 184l20 -12l10 -23q44 -80 136 -77q45 0 79 22.5
t51.5 57.5t30 76.5t14 80.5t4 70t-0.5 44v7v1022q0 38 -12 84.5t-29 67.5q-18 22 -64 41l2 20q17 3 150 31q27 6 100 28l23 -18q-2 -10 -4 -45q-4 -55 0.5 -170.5t7.5 -142.5z" />
    <glyph glyph-name="k" unicode="k" horiz-adv-x="1482" 
d="M1421 16l-10 -16h-336l-31 43q-47 67 -110 173t-110.5 184t-103 154.5t-113 116.5t-115.5 38q-50 -2 -90 -37t-40 -97l9 -274q3 -74 26 -141t39 -88q22 -28 37 -38t43 -18v-16q-108 12 -233 12q-123 0 -226 -12v16q20 8 38.5 22t29 26t27.5 34q32 47 32 160l9 1212
q0 21 -13.5 71.5t-27.5 70.5q-8 13 -17 23.5t-15 16t-14.5 10.5t-12 6.5t-12 4t-9.5 2.5v21q89 17 139 30q19 5 117 37l24 -12q0 -4 -6 -65q-3 -42 -3.5 -98t0.5 -98.5t2 -80t1 -39.5l12 -594q0 -2 0.5 -6t1 -6t1 -5.5t1 -6t1.5 -5.5t2.5 -5t3 -3.5t3.5 -2.5t5 -1
q7 -1 23 11t42.5 35.5t38.5 33.5l252 201q56 43 97 92t40 80q0 42 -22 49v20h387v-10q-20 -7 -43.5 -15t-30.5 -10.5t-22.5 -9t-30 -14t-41.5 -22.5q-107 -59 -248 -166l-229 -176q-17 -12 -24.5 -18t-15 -18.5t-7.5 -27.5q1 -10 25.5 -12t79 -10.5t108.5 -30.5
q60 -25 120 -88.5t104 -132.5t110 -164.5t124 -159.5q33 -36 71 -67t63 -46.5t48.5 -28.5t24.5 -14z" />
    <glyph glyph-name="l" unicode="l" horiz-adv-x="575" 
d="M506 0q-86 6 -225 6q-138 0 -224 -6v16q35 13 53.5 28t43.5 54q16 28 25 92t9 93l2 1177q0 50 -10 99.5t-26 70.5q-17 24 -62 51v21q32 6 133 31q27 6 103 30l14 -6v-53q8 -246 8 -315l27 -1110q2 -26 15.5 -100t19.5 -87q22 -36 41 -50t53 -26v-16z" />
    <glyph glyph-name="m" unicode="m" horiz-adv-x="2433" 
d="M2376 0q-88 12 -230 12q-77 0 -182 -12v16q42 26 82 82q16 25 24.5 88.5t8.5 94.5l-2 507q0 127 -47.5 231t-129 162.5t-178.5 57.5q-87 0 -160 -30t-121.5 -79t-82 -112.5t-48.5 -130t-14 -133.5l7 -496q0 -47 11.5 -100t22.5 -66q20 -25 28 -34.5t22.5 -21t33.5 -20.5
v-16q-120 12 -207 12q-124 0 -227 -12v16q45 17 86 68q11 13 26 84t15 90l2 481q0 75 -9.5 139.5t-34.5 129t-64 110.5t-103.5 76t-148.5 33q-87 3 -159 -27.5t-121 -85t-83 -128t-49.5 -154t-15.5 -164.5v-410q0 -49 18 -106t31 -72q25 -32 36 -42.5t33 -21.5v-16
q-99 6 -170 6q-141 0 -227 -6v16q45 24 78 82q9 16 17 76.5t8 83.5l2 746q0 23 -8.5 56.5t-24.5 53.5q-12 15 -30.5 29t-27.5 18v19q26 6 134 37q17 6 44.5 16t45.5 16l20 -10q-2 -12 -2 -51q-10 -202 0 -213l10 -12l27 53q16 33 37.5 64.5t62.5 73t89.5 71.5t121 51
t154.5 20q173 -1 279.5 -73.5t162.5 -212.5l19 -43l45 86q66 130 192 196t267 60q220 -8 351.5 -135.5t137.5 -354.5l14 -561q0 -47 10.5 -100t20.5 -66q8 -10 19 -24.5t16 -21t14 -15t21 -15.5v-16z" />
    <glyph glyph-name="n" unicode="n" horiz-adv-x="1570" 
d="M1503 0q-104 8 -203 8q-114 0 -237 -8v16q56 27 90 82q9 17 18 78t9 82l-6 547q-1 84 -25.5 158t-71 132t-121 93t-168.5 39q-84 3 -155 -27.5t-120.5 -85t-84.5 -128t-51 -154t-15 -164.5l7 -410q0 -5 0.5 -27.5t1 -29t1.5 -24.5t2.5 -26.5t4 -21t6 -21.5t8.5 -16
q40 -56 88 -76v-16q-105 6 -184 6q-144 0 -234 -6v16q47 22 84 78q33 47 33 164l-4 746q0 20 -13.5 56.5t-29.5 57.5q-15 24 -53 47l2 19q88 18 129 28q44 12 94 29l17 -8q2 -9 6 -74q1 -24 2.5 -70.5t3.5 -76.5t6 -47l6 -27l29 63q13 32 36 67.5t63.5 78t89 74t118.5 51.5
t147 16q248 -12 387 -134.5t146 -342.5l22 -553q1 -48 11.5 -101t19.5 -65q27 -33 44 -49t44 -27v-16z" />
    <glyph glyph-name="o" unicode="o" 
d="M1452 582q-13 -176 -111.5 -317.5t-254.5 -219.5t-338 -78q-118 0 -241 48.5t-224.5 131t-168.5 203.5t-73 254q-7 142 45.5 270.5t147 221.5t230.5 148t290 56q127 1 241.5 -39t200.5 -109.5t147.5 -160t89.5 -196.5t19 -213zM1237 614q2 79 -8.5 154.5t-33.5 149
t-62.5 135t-93 108t-129.5 72t-167 24.5q-102 -2 -184 -39t-136.5 -97.5t-90.5 -141.5t-51 -169t-13 -183q1 -94 20 -182t58.5 -168t96 -139t139.5 -93.5t182 -32.5q104 2 185.5 36.5t134 89.5t87 133t49.5 162t17 181z" />
    <glyph glyph-name="p" unicode="p" horiz-adv-x="1556" 
d="M1479 616q-1 -190 -94 -344t-248 -238t-338 -83q-68 1 -143 23.5t-135.5 56.5t-106.5 67.5t-70 61.5l-53 59l22 -438q6 -132 54 -201q13 -15 36.5 -26t36.5 -13v-22q-123 6 -213 6q-91 0 -211 -6v24q31 6 66 45q39 37 39 201l12 1159q2 119 -37 168q-27 35 -59 49v29
q59 4 137 29q53 17 78 30l29 -14q0 -2 -1.5 -26t-3.5 -55.5t-2 -53.5q0 -46 7 -139l20 -4l14 32q45 102 126 173.5t172.5 102.5t187.5 29q135 -1 249.5 -42t192.5 -108.5t133 -155.5t79.5 -183.5t23.5 -192.5zM1257 647q0 284 -107.5 436.5t-352.5 161.5
q-100 4 -181.5 -24.5t-138 -81t-96 -128.5t-59 -165.5t-23.5 -194.5q-11 -290 125 -466t373 -173q129 1 220 46.5t143 132t75 198t22 258.5z" />
    <glyph glyph-name="q" unicode="q" horiz-adv-x="1585" 
d="M1591 -512q-132 6 -223 6q-103 0 -244 -6v23q46 19 84 59q58 65 58 264v428l-86 -123q-56 -80 -173 -135t-247 -55q-200 -1 -362 84t-255.5 234.5t-99.5 336.5q-5 140 52 274.5t152.5 231.5t225 152.5t262.5 46.5q156 -12 266.5 -50t206.5 -135l25 -24h24q9 45 19 74
q6 21 10.5 42t6.5 33.5t3 14.5l199 4v-29q-37 -42 -61 -96q-8 -17 -15.5 -86.5t-5.5 -87.5l39 -1182q0 -23 2.5 -54.5t14 -80.5t30.5 -72q18 -23 48.5 -44t43.5 -25v-23zM1255 616q3 97 -10 185.5t-47.5 172.5t-88 146t-137.5 101t-190 43q-104 5 -191.5 -29.5t-148 -97
t-102.5 -146.5t-60 -177.5t-16 -190.5q2 -123 36.5 -232t98.5 -195.5t165.5 -137t228.5 -50.5q99 0 178 35.5t130 93.5t86 138t50 164t18 177z" />
    <glyph glyph-name="r" unicode="r" horiz-adv-x="860" 
d="M801 1278l-68 -219l-22 18q-29 23 -55 29t-81 2q-55 -3 -101 -54.5t-71.5 -122.5t-39 -136t-13.5 -107l8 -430q2 -65 9.5 -101t29.5 -65q45 -61 99 -76v-16q-110 10 -226 10q-112 0 -217 -10v16q46 22 84 82q17 28 24 78t7 82l8 756q0 78 -43 121q-12 15 -31.5 26
t-31.5 13v26q28 5 68 15t57 14q25 7 61.5 20t54.5 19l27 -21q-5 -24 -8 -57q-10 -116 -2 -240l22 -6l17 33q100 185 198 240q113 64 236 61z" />
    <glyph glyph-name="s" unicode="s" horiz-adv-x="1329" 
d="M1260 408q7 -125 -78 -227t-228 -156.5t-311 -53.5q-279 3 -545 109l-39 16l84 244l13 -4l6 -29q15 -66 65.5 -119.5t119.5 -86.5t140.5 -51.5t139.5 -22.5q84 -5 164.5 10t148 49t108 94.5t39.5 138.5q-1 59 -25 101.5t-49 65t-87.5 39t-92.5 20.5t-112 12q-25 3 -37 4
l-51 6q-90 10 -172 34.5t-153.5 64.5t-113 103t-38.5 140q2 80 36 146t89.5 110.5t129 75t152 44t160.5 13.5q112 0 229 -25.5t207 -60.5l29 -10l-55 -205l-25 9l-12 30q-24 61 -72.5 106.5t-106 68.5t-107 33.5t-95.5 12.5q-186 6 -284.5 -74t-98.5 -216q0 -40 13 -72
t32 -54t53 -39.5t64 -27.5t77.5 -18.5t81.5 -12t88 -8.5l41 -4q62 -6 107 -11.5t97 -17t88 -26.5t72 -39t58.5 -55.5t37.5 -75t18 -98.5z" />
    <glyph glyph-name="t" unicode="t" horiz-adv-x="714" 
d="M637 1190q0 -12 -3 -20.5t-6.5 -13t-11 -6.5t-12 -2t-15 0.5t-14.5 0.5h-184l12 -731q2 -90 25.5 -195.5t65.5 -142.5q53 -46 98 -64v-16h-39q-29 0 -81 -1.5t-75 -1t-54.5 4.5t-49.5 15t-29 30q0 1 -4.5 8t-5.5 9.5t-5 11t-6 14t-5.5 17t-5.5 21t-4.5 24.5t-3.5 30
t-2 35t-1 41l2 895l-180 -2v31q66 24 102 47t82 67q57 57 95 138.5t47 138.5l43 -8q-1 -3 -2.5 -6t-2.5 -5.5t-4 -14t-6 -32.5q-6 -42 -9.5 -125t3.5 -163h176q70 0 70 -29z" />
    <glyph glyph-name="u" unicode="u" horiz-adv-x="1417" 
d="M1358 0h-174l-17 6q-5 1 -12 11t-17 33.5t-16 53.5q-6 26 -13 72t-9 53l-6 17l-35 -47q-53 -72 -90 -106q-131 -119 -338 -126q-66 -3 -133 9.5t-133 44.5t-117.5 80.5t-83 123.5t-31.5 166v570q0 105 -24 137q-23 29 -36 38t-40 17v23q17 4 56.5 13.5t66.5 14.5
q21 4 39.5 10t40.5 14t38 13l31 -12q-2 -16 -6 -101q-2 -25 -2 -157l4 -529q0 -81 22.5 -154t65.5 -131t113.5 -91.5t159.5 -32.5q193 3 308.5 134.5t114.5 385.5v408v21v21.5v19.5t-1 20.5t-2 17.5t-2.5 18t-3.5 15t-5 14q-22 50 -76 63v23q17 -1 34 0.5t26 3.5t29.5 7
t29.5 7q64 16 98 35l37 -10q-2 -17 -6 -104q-3 -83 0 -172l17 -744q0 -19 19 -73.5t34 -75.5q25 -36 45 -52v-16z" />
    <glyph glyph-name="v" unicode="v" horiz-adv-x="1490" 
d="M1403 1225q-1 -1 -9.5 -5t-17 -9.5t-23 -19.5t-30.5 -34q-26 -31 -75 -101.5t-58 -90.5l-463 -977h-16l-523 1056q-44 89 -94 132q-17 16 -40.5 31.5t-30.5 17.5v20q129 -14 190 -14q97 0 209 14v-20q-38 -8 -60 -49q-24 -44 17 -146l403 -811l355 774q18 39 18.5 88
t-12.5 70q-24 53 -86 74v20q93 -8 180 -8q82 0 166 8v-20z" />
    <glyph glyph-name="w" unicode="w" horiz-adv-x="2273" 
d="M2175 1225q-1 -1 -16.5 -13t-35 -28t-32.5 -31q-26 -29 -70.5 -107t-74.5 -145l-400 -913h-18l-438 1007l-400 -1007h-24l-480 1011q-63 142 -104 183q-35 38 -53 43l-2 20q57 -6 151 -6q170 0 238 6v-20q-34 -9 -60 -43q-9 -12 -9.5 -34.5t3.5 -44.5t11.5 -47.5t12 -37
t7.5 -19.5l352 -737l410 1024h20l445 -1010l274 644q36 84 48 147t-1 84q-24 52 -92 74v20q78 -8 203 -8q67 0 135 8v-20z" />
    <glyph glyph-name="x" unicode="x" horiz-adv-x="1433" 
d="M1370 0q-160 12 -272 8q-82 0 -166 -8v16q58 22 67 80q1 6 -2.5 17t-9 21.5t-13.5 23.5t-14 22t-12.5 18.5t-7.5 10.5l-285 375l-227 -281q-49 -60 -78 -126t-18 -95q11 -43 63 -66v-16q-136 8 -178 8q-44 0 -176 -8v16q6 3 20.5 9.5t28.5 15.5t35 27q89 75 147 141
l353 416l-269 350q-98 137 -182 209q-3 2 -61 41v20q85 -10 178 -10q87 0 170 10v-20q-2 -2 -4 -2.5t-4 -2t-7.5 -9.5t-13.5 -23q-8 -23 -6.5 -44t14.5 -47t24.5 -43.5t24.5 -33.5l13 -16l217 -269l221 264l8 10t14 19.5t16.5 27t16 32t12.5 35t5 35t-6 32.5q-6 15 -11 23
t-7.5 9t-5 1t-3.5 2v20q90 -4 123 -4q110 0 178 4v-20q-4 -1 -24 -14t-49.5 -34t-49.5 -40q-71 -66 -133 -138l-266 -303l409 -487q30 -38 68 -79.5t47 -47.5q21 -17 43 -33.5t33 -24.5l12 -8v-16z" />
    <glyph glyph-name="y" unicode="y" 
d="M1446 1225q-43 -32 -70 -62q-37 -38 -79.5 -108.5t-62 -109.5t-30.5 -64l-252 -514l-217 -430q-20 -41 -31.5 -62.5t-47 -76t-68.5 -91.5t-87.5 -80t-113.5 -69q-111 -51 -211 -45l-31 2l78 233l23 -6q66 -70 127 -70q59 1 115 33.5t93 80t60.5 96.5t26.5 87l6 84
q-14 39 -51.5 130.5t-75.5 162.5q-6 12 -58 122t-118.5 241.5t-124.5 228.5q-8 19 -48.5 86t-76.5 119q-27 37 -103 82v20q82 -6 215 -6q113 0 183 6l4 -20q-3 -2 -16 -8.5t-19.5 -13.5t-11.5 -21q-18 -40 0 -110t53 -134l387 -727l356 729q67 152 19 229q-12 19 -25.5 31.5
t-20.5 16t-18 5.5l-10 3v20q63 -6 166 -6t166 6v-20z" />
    <glyph glyph-name="z" unicode="z" horiz-adv-x="1323" 
d="M1253 283l-90 -283h-1110l-10 16q77 96 200 262t199 261q49 61 158 196.5t168.5 210t65.5 84.5l30 45q1 1 8 9t11.5 13.5t13 17.5t11.5 20.5t6.5 22t-1.5 22.5q-3 13 -32.5 20.5t-53.5 7.5h-28h-113q-121 0 -237 -20.5t-173 -52.5q-55 -31 -86 -55t-61 -66l-12 -19h-37
l90 250h1028q-62 -83 -179.5 -229.5t-193.5 -251.5q-46 -62 -129 -177t-142.5 -195.5t-131.5 -174.5l-25 -31q-43 -58 -41 -90q0 -20 12 -31.5t36.5 -15.5t46 -4t55.5 1t51 1q199 -3 371 48.5t264 146.5l43 43z" />
    <glyph glyph-name="braceleft" unicode="{" horiz-adv-x="544" 
d="M547 1657l-41 -17q-48 -17 -86 -67q-39 -56 -39 -143l-12 -455v-35q0 -23 -12.5 -70.5t-37.5 -76.5q-40 -46 -96 -64l-30 -10l34 -17q58 -24 88 -63q35 -50 35 -96v-539q0 -58 10 -95t41 -71q36 -41 84 -57l39 -12h-63q-137 0 -219 79q-14 14 -24 34t-16 47t-10 49t-5 56
t-1.5 51.5t0 51t0.5 39.5v361v28q0 55 -39 97q-23 23 -79 47l-29 12l27 10q28 12 39 17.5t27.5 17.5t29.5 29q34 44 39 100l2 25l12 499q4 106 61 166q69 72 189 72h82z" />
    <glyph glyph-name="bar" unicode="|" horiz-adv-x="321" 
d="M221 -481h-164v2048h164v-2048z" />
    <glyph glyph-name="braceright" unicode="}" horiz-adv-x="534" 
d="M465 721l-29 -12q-57 -24 -80 -47q-39 -42 -39 -97v-28v-361q0 -3 0.5 -46.5t0 -62t-3.5 -60t-8.5 -65t-16.5 -51t-27 -43.5q-82 -79 -217 -79h-68l41 12q46 14 86 57q30 34 40 71.5t10 94.5v539q0 48 36 96q27 39 86 63l35 17l-30 10q-57 19 -97 64q-25 29 -37 76
t-12 71v35l-12 455q0 87 -37 143q-37 49 -88 67l-41 17h84q119 0 186 -72q58 -61 62 -166l12 -499l4 -25q3 -55 37 -100q14 -17 30 -29t28 -17.5t38 -17.5z" />
    <glyph glyph-name="asciitilde" unicode="~" horiz-adv-x="1208" 
d="M1133 754l-62 -95q-43 -66 -106.5 -103t-130.5 -40q-62 -2 -148 35l-186 76q-12 5 -39.5 18t-40.5 18t-35.5 9t-44.5 2q-58 -6 -97.5 -36t-74.5 -87l-51 -82l-74 106l70 91q43 57 89 86.5t115 42.5q23 4 47 3.5t38.5 -2t42 -10.5t35.5 -12t42 -17.5t41 -17.5l162 -69
q63 -29 106 -27q60 1 101 35.5t80 97.5l32 53z" />
    <glyph glyph-name="nbspace" unicode="&#xa0;" horiz-adv-x="1110" 
 />
    <glyph glyph-name="exclamdown" unicode="&#xa1;" horiz-adv-x="393" 
d="M207 889q-54 0 -84.5 35t-30.5 77.5t30.5 77.5t84.5 35q43 0 72 -23t36 -56t0 -66.5t-36 -56.5t-72 -23zM287 -213q0 -47 -6.5 -92t-20 -87t-39 -66.5t-59.5 -22.5q-104 7 -99 270q4 107 16 197.5t36 227t41 257.5q10 80 14.5 172t8.5 124.5t20 31.5q17 -1 20.5 -38.5
t1 -110t6.5 -179.5q11 -123 27.5 -258.5t24.5 -227t8 -198.5z" />
    <glyph glyph-name="cent" unicode="&#xa2;" horiz-adv-x="829" 
d="M750 748l-5 -27q-13 -101 -92 -180q-78 -78 -182 -95v-196h-61l2 192l-35 9q-160 36 -252.5 162t-87.5 296q13 385 328 465l24 8v185h66v-187q87 -9 153 -32q38 -11 88 -35l17 -10l-27 -146l-20 -2l-15 31q-76 152 -225 149q-70 -1 -121 -40.5t-76.5 -103.5t-36 -133.5
t-8.5 -144.5q2 -80 16.5 -147.5t45 -129.5t86.5 -98.5t133 -37.5q158 -3 240 241l8 25z" />
    <glyph glyph-name="sterling" unicode="&#xa3;" horiz-adv-x="1755" 
d="M1718 420l-8 -29q-16 -54 -42.5 -110t-66.5 -113t-86 -101t-107 -71.5t-124 -26.5q-73 1 -137.5 29t-105.5 64.5t-106 91.5t-120 90l-22 12l-19 -20q-116 -133 -261 -200.5t-292 -64.5q-70 2 -119 34t-49 99q0 74 71.5 147.5t181 120t216.5 48.5q34 1 92 -5.5t60 -6.5h16
q8 101 -4 188q-10 96 -47 195h-188q-2 0 -10 -0.5t-10 0.5t-7 3t-7 8.5t-3 16.5q-1 14 0.5 23t6.5 12.5t10 4.5t13 1h183l-9 39q-2 12 -16.5 66t-24.5 104.5t-8 75.5q12 201 150.5 326t322.5 122q45 -1 86.5 -6.5t85.5 -20.5t65.5 -22.5t71 -30t58.5 -26.5l39 -17l-84 -260
l-18 50q-52 134 -154.5 209.5t-220.5 72.5q-105 -3 -182.5 -80.5t-77.5 -179.5q0 -50 4 -90t18.5 -84.5t21.5 -64t33.5 -77t34.5 -75.5l13 -31h370q45 0 47 -31q2 -21 -7 -31t-20.5 -11t-42.5 -1h-6h-5.5h-6.5h-305q8 -21 19 -90t10 -125q-1 -27 -6 -61.5t-9.5 -56.5
t-12 -51.5t-7.5 -30.5l25 -11q36 -16 162 -83.5t214.5 -102t143.5 -27.5q64 7 113.5 31.5t78.5 58.5t48 65.5t34 63.5t23 42l14 14zM674 315l-25 13q-24 18 -81 32t-95 11q-98 -6 -169.5 -56t-82.5 -137q-7 -52 50 -91.5t122 -37.5q106 1 188.5 72t88.5 155z" />
    <glyph glyph-name="yen" unicode="&#xa5;" horiz-adv-x="1771" 
d="M1686 1546q-33 -20 -109 -86q-52 -47 -117.5 -117.5t-77.5 -87.5l-368 -442h305l-25 -76h-344l-26 -32v-109h395l-25 -76h-370v-264q0 -43 12.5 -96t21.5 -68q19 -21 30 -32.5t29 -23.5t38 -20v-16q-125 8 -244 8q-109 0 -209 -10v20q58 24 94 80q12 20 17.5 75t5.5 85
v262h-412l37 76h375v70l-53 71h-359l37 76h266l-323 440q-15 25 -60.5 82t-93.5 101q-30 29 -74.5 65.5t-54.5 42.5v23q135 -6 234 -6q101 0 233 6v-23q-1 0 -6.5 -4t-10 -8t-12 -11t-15 -18.5t-15.5 -25.5q-41 -83 77 -224l402 -503l397 505q7 8 14.5 19t22 33.5t25 45
t19.5 47.5t8 48t-13 39q-13 21 -40.5 38t-39.5 19v23q110 -11 205 -11q93 0 197 11v-21z" />
    <glyph glyph-name="section" unicode="&#xa7;" horiz-adv-x="1019" 
d="M940 655q-7 -116 -117 -215l-41 -37l9 -6q125 -84 120 -223q-5 -103 -78.5 -205.5t-187 -169t-227.5 -71.5q-86 -4 -175.5 22.5t-144.5 59.5l-16 12l27 311h59v-106q0 -46 37.5 -89.5t85 -68t86.5 -27.5q84 -12 157.5 -0.5t128 39.5t85 86t28.5 139q0 30 -9.5 54
t-35.5 46.5t-53 39.5t-82 39.5t-102 39.5t-132 46l-75 26q-49 17 -87.5 36.5t-63.5 36.5t-43 40t-27 37.5t-15 39.5t-7 34.5t-3 33.5q-13 129 137 269l23 20l-23 14q-37 26 -62 78t-26 107q-2 79 27 157t82 142t135.5 105t179.5 44q93 2 170 -16q14 -3 64.5 -19t60.5 -20
l20 -8v-12q-6 -28 -14 -148q-8 -90 -8 -123l2 -22l-64 2l-14 168l-8 8q-34 39 -109 65q-66 23 -132 24.5t-123 -19t-98 -70.5t-54 -123q-8 -45 12 -85.5t53 -66.5t78.5 -49t78 -34t60.5 -20q8 -2 11 -3l30 -10l31 -11q8 -3 50 -15t77.5 -23.5t67.5 -24.5q195 -86 184 -281z
M799 565q2 21 3 44.5t-9.5 50.5t-27.5 51t-51.5 46.5t-80.5 37.5l-375 120l-31 -34q-32 -36 -42.5 -74.5t-8.5 -93.5q1 -27 18 -52t50 -47t68 -40t87.5 -37t93 -32.5t100.5 -32.5t93 -30l47 -16l19 27q40 57 47 112z" />
    <glyph glyph-name="dieresis" unicode="&#xa8;" horiz-adv-x="817" 
d="M598 1323q-54 0 -84.5 36t-30.5 78.5t30.5 78.5t84.5 36q44 0 74 -23.5t37 -57t0 -67.5t-37 -57.5t-74 -23.5zM137 1323q-44 0 -74 23.5t-37 57.5t0 67.5t37 57t74 23.5t74 -23.5t37 -57t0 -67.5t-37 -57.5t-74 -23.5z" />
    <glyph glyph-name="copyright" unicode="&#xa9;" horiz-adv-x="1716" 
d="M840 -12q-191 0 -346 68t-250 179.5t-146.5 254t-51.5 291t51.5 291t146.5 254t250 179.5t346 68t346 -68t250 -179.5t146.5 -254t51.5 -291t-51.5 -291t-146.5 -254t-250 -179.5t-346 -68zM840 72q171 0 309 61t223 160.5t131 226.5t46 259.5t-46 259.5t-131 226.5
t-223 160.5t-309 61t-309 -61t-223 -160.5t-131 -226.5t-46 -259.5t46 -259.5t131 -226.5t223 -160.5t309 -61zM1176 449l-23 -54l-29 -14q-46 -23 -118.5 -42.5t-137.5 -16.5q-208 6 -338 110.5t-149 284.5q-13 113 14.5 206.5t84 153t123.5 96t140 50.5q85 9 144.5 6
t101.5 -12q105 -20 162 -39l18 -4l-26 -189h-37v78l-2 12q0 27 -51 55t-99 37q-118 17 -176 4q-107 -23 -172.5 -92.5t-85.5 -157t-8 -192.5q19 -144 121 -240t241 -104q150 -5 263 61l30 15z" />
    <glyph glyph-name="ordfeminine" unicode="&#xaa;" horiz-adv-x="704" 
d="M635 932h-98q-2 6 -4 13t-5 14.5t-4 11.5q-14 51 -14 73l-27 -38q-32 -46 -70.5 -66t-95.5 -22q-64 -2 -125 18.5t-102 64t-39 99.5q0 41 19 73.5t53 53t72 34t85 20t84.5 9t77.5 2.5h56v21q0 91 -42.5 149t-138.5 58q-68 0 -124 -33t-76 -88l-8 -19h-11l-26 101l24 10
q116 47 219 45q146 -1 206.5 -64t60.5 -178v-194q0 -23 7 -66.5t15 -54.5q15 -29 31 -41v-6zM500 1137v131h-29q-42 0 -74 -2t-73.5 -7t-70.5 -17.5t-55 -31t-37.5 -48.5t-8.5 -70q6 -68 53 -111t119 -39q80 6 128 62t48 133zM651 860l-30 -119h-580l41 119h569z" />
    <glyph glyph-name="guillemotleft" unicode="&#xab;" horiz-adv-x="1189" 
d="M1096 858l-330 -235l321 -228v-239l-454 356v227l463 342v-223zM514 858l-328 -235l322 -228v-239l-457 356v227l463 342v-223z" />
    <glyph glyph-name="logicalnot" unicode="&#xac;" horiz-adv-x="1716" 
d="M1632 0h-131v555h-1456v121h1587v-676z" />
    <glyph glyph-name="registered" unicode="&#xae;" horiz-adv-x="1714" 
d="M840 -10q-191 0 -346 68t-250 179.5t-146.5 254t-51.5 291t51.5 291t146.5 254t250 179.5t346 68t346 -68t250 -179.5t146.5 -254t51.5 -291t-51.5 -291t-146.5 -254t-250 -179.5t-346 -68zM840 76q171 0 309 61t223 160.5t131 226.5t46 259.5t-46 259.5t-131 226.5
t-223 160.5t-309 61t-309 -61t-223 -160.5t-131 -226.5t-46 -259.5t46 -259.5t131 -226.5t223 -160.5t309 -61zM1268 346h-11q-58 4 -73 4q-41 0 -70 -4h-16l-346 449l4 20l45 -2q90 -3 165 53t68 140q-14 140 -143 159q-52 6 -96.5 2t-65.5 -10l-18 -6v-696q0 -33 14 -49
q17 -19 70 -19l30 -2v-37h-20q-1 0 -60 4t-94 4t-91.5 -4t-63.5 -4h-21v37l35 2q1 0 13.5 1t18 2.5t14.5 5.5t15 10q19 19 19 49v653q0 17 -2.5 27t-4.5 12.5t-12 15.5q-13 17 -84 17h-12v39h21l60 -3q60 -4 95 -4q40 0 95 1t95 2.5t44 1.5l20 2q76 4 145.5 -26t94.5 -97
q29 -75 0 -144t-103 -118q-27 -19 -62.5 -31t-53.5 -15l-11 -4l281 -368q13 -13 31 -25q16 -8 33 -8h8v-37z" />
    <glyph glyph-name="degree" unicode="&#xb0;" horiz-adv-x="505" 
d="M465 1362q-1 -83 -61 -141t-142 -58q-85 0 -145 61t-58 146q1 82 59 138.5t140 58.5q84 1 145.5 -60t61.5 -145zM412 1368q-1 60 -45.5 101.5t-104.5 41.5t-103 -41.5t-44 -101.5q-2 -60 42 -104.5t105 -44.5q62 0 106 44t44 105z" />
    <glyph glyph-name="plusminus" unicode="&#xb1;" horiz-adv-x="1017" 
d="M934 651h-391v-387h-101v387h-379v111h379v387h105v-387h387v-111zM934 0h-871v100h871v-100z" />
    <glyph glyph-name="acute" unicode="&#xb4;" horiz-adv-x="540" 
d="M442 1567l-292 -293h-115l235 293h172z" />
    <glyph glyph-name="mu" unicode="&#xb5;" horiz-adv-x="1294" 
d="M1243 231l-16 -71q-18 -92 -111 -152.5t-168 -50.5q-75 11 -137 77t-66 152l-59 -59q-71 -71 -152.5 -117.5t-142.5 -46.5q-58 2 -137 37.5t-127 97.5v-82q0 -61 19.5 -118.5t40.5 -121t24 -136.5q0 -59 -32.5 -105t-86.5 -45q-47 0 -77.5 40.5t-32.5 94.5
q-2 83 31.5 171t37.5 138t4 64v1157h197v-795q0 -99 59 -173.5t150 -73.5q58 0 125 32.5t115.5 90.5t48.5 120v799h190v-899q0 -75 40 -137t101 -51q76 14 103 100l16 63h43z" />
    <glyph glyph-name="paragraph" unicode="&#xb6;" horiz-adv-x="1302" 
d="M1198 1509h-22q-20 0 -63 -5t-66 -13q-58 -22 -58 -117v-20v-1387v-28q0 -39 31 -58q35 -20 125 -26l41 -2v-58h-37q-2 0 -67.5 2t-157 4t-156.5 2q-69 0 -163 -2t-162.5 -4t-75.5 -2h-35v62l51 2q2 0 32.5 1.5t53 8t37.5 22.5q31 33 31 84v861h-25q-32 0 -116 23
t-171 69q-71 39 -122.5 110.5t-69 158t15.5 175.5q79 213 400 209l32 -2q6 0 69 -3t150.5 -6.5t149.5 -4.5q239 0 319 8h29v-64zM539 1493l-37 2q-16 1 -41 -4t-58 -22.5t-61.5 -45t-50.5 -78t-25 -114.5q-8 -110 64 -198.5t188 -108.5l19 -4zM831 -121l-2 1614h-129
l-2 -1614h133z" />
    <glyph glyph-name="periodcentered" unicode="&#xb7;" horiz-adv-x="346" 
d="M141 678q-43 0 -72 23.5t-36 57t0 66.5t36 56.5t72 23.5q54 0 84.5 -35.5t30.5 -78t-30.5 -78t-84.5 -35.5z" />
    <glyph glyph-name="ordmasculine" unicode="&#xba;" horiz-adv-x="757" 
d="M668 1194q-9 -122 -100.5 -200.5t-217.5 -78.5q-72 0 -143.5 37t-121.5 104.5t-54 147.5q-6 130 87.5 222t233.5 94q142 0 233.5 -99.5t82.5 -226.5zM571 1208q1 55 -10.5 105t-36.5 93.5t-70.5 69.5t-105.5 25q-57 -1 -100 -26.5t-67.5 -67t-36.5 -90.5t-11 -103
q1 -73 23.5 -134t74.5 -102.5t125 -39.5q58 1 101 23t67 61t35 85t12 101zM651 860l-30 -119h-580l41 119h569z" />
    <glyph glyph-name="guillemotright" unicode="&#xbb;" horiz-adv-x="1167" 
d="M1085 512l-454 -356v239l319 228l-327 235v223l462 -342v-227zM506 512l-457 -356v239l322 228l-330 235v223l465 -342v-227z" />
    <glyph glyph-name="questiondown" unicode="&#xbf;" horiz-adv-x="845" 
d="M586 1114q41 0 69 -22.5t34.5 -55t-0.5 -64.5t-35.5 -54.5t-69.5 -22.5q-41 1 -69 23.5t-34.5 55t0.5 64.5t35.5 54.5t69.5 21.5zM1087 -377l-40 -18q-75 -33 -198.5 -59.5t-244.5 -26.5q-91 -2 -184.5 24.5t-173.5 76t-131.5 130t-53.5 176.5q-2 81 26 151.5t76.5 126.5
t98.5 101.5t108.5 99.5t90.5 97q108 141 108 248v7v9t0.5 9t2 9t4 6.5t6.5 5t10 1.5q15 -2 19 -10.5t3 -36.5q0 -48 -24 -125.5t-49 -122.5q-33 -60 -95 -158.5t-94 -154t-58.5 -133.5t-25.5 -148q2 -73 21.5 -133.5t59 -108.5t107 -76t156.5 -30q123 -1 221 65t150 178
l21 43l16 9z" />
    <glyph glyph-name="Agrave" unicode="&#xc0;" horiz-adv-x="1980" 
d="M1933 0q-111 8 -284 8q-112 0 -224 -8v16q64 27 82 93q9 35 -2.5 75t-25.5 58l-254 555h-621l-225 -492q-57 -120 -4 -201q42 -73 110 -88v-16q-109 8 -219 8q-139 0 -225 -8v16q52 39 100 90q14 14 29.5 33t29 38t26 38t23.5 37t18.5 31t13.5 23t6 11l696 1369
l723 -1410q36 -76 98 -149q20 -23 41.5 -43t37 -31.5t50.5 -36.5v-16zM1200 850l-291 575l-278 -575h569zM1145 1761h-115l-293 293h172z" />
    <glyph glyph-name="Aacute" unicode="&#xc1;" horiz-adv-x="1980" 
d="M1933 0q-111 8 -284 8q-112 0 -224 -8v16q64 27 82 93q9 35 -2.5 75t-25.5 58l-254 555h-621l-225 -492q-57 -120 -4 -201q42 -73 110 -88v-16q-109 8 -219 8q-139 0 -225 -8v16q52 39 100 90q14 14 29.5 33t29 38t26 38t23.5 37t18.5 31t13.5 23t6 11l696 1369
l723 -1410q36 -76 98 -149q20 -23 41.5 -43t37 -31.5t50.5 -36.5v-16zM1200 850l-291 575l-278 -575h569zM1153 2056l-293 -293h-115l236 293h172z" />
    <glyph glyph-name="Acircumflex" unicode="&#xc2;" horiz-adv-x="1980" 
d="M1933 0q-111 8 -284 8q-112 0 -224 -8v16q64 27 82 93q9 35 -2.5 75t-25.5 58l-254 555h-621l-225 -492q-57 -120 -4 -201q42 -73 110 -88v-16q-109 8 -219 8q-139 0 -225 -8v16q52 39 100 90q14 14 29.5 33t29 38t26 38t23.5 37t18.5 31t13.5 23t6 11l696 1369
l723 -1410q36 -76 98 -149q20 -23 41.5 -43t37 -31.5t50.5 -36.5v-16zM1200 850l-291 575l-278 -575h569zM1317 1757h-143l-226 238l-227 -238h-141l288 342h158z" />
    <glyph glyph-name="Atilde" unicode="&#xc3;" horiz-adv-x="1980" 
d="M1933 0q-111 8 -284 8q-112 0 -224 -8v16q64 27 82 93q9 35 -2.5 75t-25.5 58l-254 555h-621l-225 -492q-57 -120 -4 -201q42 -73 110 -88v-16q-109 8 -219 8q-139 0 -225 -8v16q52 39 100 90q14 14 29.5 33t29 38t26 38t23.5 37t18.5 31t13.5 23t6 11l696 1369
l723 -1410q36 -76 98 -149q20 -23 41.5 -43t37 -31.5t50.5 -36.5v-16zM1200 850l-291 575l-278 -575h569zM1507 2017l-61 -94q-43 -66 -107 -103t-131 -40q-61 -2 -147 35l-187 75q-13 5 -39.5 18t-39.5 18t-35.5 9t-44.5 2q-58 -6 -97.5 -36t-74.5 -86l-51 -82l-74 106
l69 90q43 57 89.5 86t115.5 43q20 3 38 4t38 -2t32.5 -5t35 -10t31 -11.5t36 -15.5t35.5 -15l162 -70q61 -28 106 -26q59 1 100 35t80 98l33 53z" />
    <glyph glyph-name="Adieresis" unicode="&#xc4;" horiz-adv-x="1896" 
d="M1946 0q-109 8 -285 8q-111 0 -223 -8v16q64 26 82 93q9 23 2 54.5t-14 49t-15 29.5l-256 555h-621l-225 -492q-55 -123 -4 -201q41 -72 111 -88v-16q-109 8 -217 8q-142 0 -228 -8v16q64 48 101 90q31 31 65.5 80.5t58 89.5t23.5 41l694 1369l723 -1410q35 -74 99 -149
q20 -23 41.5 -43t37 -31.5t50.5 -36.5v-16zM1212 850l-290 575l-277 -575h567zM1223 1759q-44 0 -74 23.5t-37 57.5t0 68t37 57.5t74 23.5q54 0 84.5 -36t30.5 -79t-30.5 -79t-84.5 -36zM762 1759q-44 0 -74 23.5t-37 57.5t0 68t37 57.5t74 23.5t74 -23.5t37 -57.5t0 -68
t-37 -57.5t-74 -23.5z" />
    <glyph glyph-name="Aring" unicode="&#xc5;" horiz-adv-x="1898" 
d="M1196 1966q-2 -82 -61 -140.5t-142 -58.5q-84 0 -144 62t-58 147q3 82 60 139t138 58q85 1 147 -60.5t60 -146.5zM1946 0q-109 8 -285 8q-111 0 -223 -8v16q64 26 82 93q9 23 2 54.5t-14 49t-15 29.5l-256 555h-621l-225 -492q-55 -123 -4 -201q41 -72 111 -88v-16
q-109 8 -217 8q-142 0 -228 -8v16q64 48 101 90q31 31 65.5 80.5t58 89.5t23.5 41l694 1369l723 -1410q35 -74 99 -149q20 -23 41.5 -43t37 -31.5t50.5 -36.5v-16zM1212 850l-290 575l-277 -575h567zM1126 1972q-1 54 -40 91.5t-93 37.5q-53 0 -91 -37.5t-38 -89.5
q-3 -54 36 -93.5t93 -39.5q56 0 95 38.5t38 92.5z" />
    <glyph glyph-name="AE" unicode="&#xc6;" horiz-adv-x="2871" 
d="M2826 336l-102 -336h-905q-49 0 -127 4t-127 4q-145 0 -301 -8v27q64 23 102 71q26 30 37.5 114t11.5 128l-6 418h-616l-342 -469q-81 -113 -56 -191q9 -33 29.5 -52t56.5 -28l-6 -18q-104 8 -205 8q-104 0 -219 -8l6 16q76 49 119 84q38 31 84.5 79.5t74.5 81.5t32 40
l985 1266h1243l88 -273l-27 2l-22 23q-22 22 -43.5 40t-35.5 29t-38 23.5t-34 17t-42 17.5t-43 18q-52 22 -193 33t-252.5 12.5t-314.5 1.5h-53l12 -653h492q65 0 98.5 1.5t79 12.5t78.5 33q69 49 104 121l21 2q-6 -111 -6 -194q0 -82 6 -193h-21q-24 42 -50.5 69t-78.5 56
q-35 21 -85 28t-146 7h-487l20 -543q2 -72 16 -113.5t56.5 -60t74.5 -22t115 -4.5q31 -1 47 -1q357 -7 563.5 63.5t307.5 209.5zM1409 809l-6 532q0 63 -21 107l-30 51l-523 -690h580z" />
    <glyph glyph-name="Ccedilla" unicode="&#xc7;" horiz-adv-x="1701" 
d="M1642 168l-20 -12q-26 -18 -44.5 -31t-37.5 -24.5t-28.5 -18t-26 -15t-21.5 -11.5t-23 -10.5t-22.5 -9t-28 -10.5t-32.5 -12q-71 -26 -142 -38.5t-116.5 -15t-147.5 -3.5h-59l-62 -80q39 14 72 12q67 -1 114.5 -45t55.5 -110q10 -82 -64.5 -133.5t-172.5 -53.5
q-72 -2 -156 27l-45 18l33 72l32 -14q66 -27 107 -29q55 -2 98.5 28.5t42.5 78.5q-3 43 -36 65t-87 19q-43 -3 -75 -23l-37 35l98 141l-61 12q-60 12 -119.5 30.5t-131 51.5t-134.5 76t-123.5 107t-103.5 140t-69 178.5t-26 219.5q0 175 72.5 332.5t194.5 269t289 174
t349 56.5q126 -4 231.5 -22t188 -51.5t122.5 -54t101 -57.5l27 -18l-70 -215l-24 8l-8 23q-25 72 -69.5 131.5t-114 108.5t-174 77.5t-234.5 30.5q-126 2 -232.5 -39.5t-181 -115t-127.5 -173t-79 -210.5t-28 -230q-3 -153 38 -293.5t120.5 -253t208.5 -183t289 -77.5
q198 -11 361 68.5t263 255.5l21 34l16 11z" />
    <glyph glyph-name="Egrave" unicode="&#xc8;" horiz-adv-x="1662" 
d="M1602 336l-103 -336h-907q-49 0 -127 4t-127 4q-186 0 -301 -8v16q59 21 100 76q39 43 39 238v1048q0 18 -12.5 50t-30.5 59q-20 35 -55 61v19h1292l88 -269l-26 5l-23 22q-22 22 -43.5 40t-36 28.5t-37.5 22.5t-34 17t-41 17t-43 18q-53 22 -193 33t-256.5 13t-314.5 2
h-39v-656h493q64 0 97.5 1.5t79.5 12t79 31.5q69 49 105 125h22q-8 -99 -8 -194q0 -92 8 -191h-22q-27 43 -52 68.5t-75 52.5q-38 22 -90.5 30.5t-143.5 8.5h-487l16 -545q3 -73 18 -115t58.5 -60.5t76.5 -22t118 -4.5q28 -1 43 -1q357 -7 563 64t307 211zM995 1769h-114
l-293 293h172z" />
    <glyph glyph-name="Eacute" unicode="&#xc9;" horiz-adv-x="1667" 
d="M1616 336l-103 -336h-907q-49 0 -127 4t-127 4q-186 0 -301 -8v16q33 12 56 29t45 47q38 42 38 238v1048q0 18 -12.5 50t-30.5 59q-20 35 -55 61v19h1292l89 -269l-27 5l-23 22q-22 22 -43.5 40t-36 28.5t-37.5 22.5t-34 17t-41 17t-43 18q-53 22 -193 33t-256.5 13
t-314.5 2h-39v-656h494q64 0 97.5 1.5t79.5 12t79 31.5q68 48 104 125h21q-7 -130 -7 -194q0 -62 7 -191h-21q-27 43 -52.5 68.5t-76.5 52.5q-37 22 -88.5 30.5t-142.5 8.5h-488l17 -545q3 -73 18 -115t58.5 -60.5t76 -22t117.5 -4.5q28 -1 43 -1q357 -7 563 64t307 211z
M1094 2056l-293 -293h-115l236 293h172z" />
    <glyph glyph-name="Ecircumflex" unicode="&#xca;" horiz-adv-x="1662" 
d="M1602 336l-103 -336h-907q-49 0 -127 4t-127 4q-186 0 -301 -8v16q59 21 100 76q39 43 39 238v1048q0 18 -12.5 50t-30.5 59q-20 35 -55 61v19h1292l88 -269l-26 5l-23 22q-22 22 -43.5 40t-36 28.5t-37.5 22.5t-34 17t-41 17t-43 18q-53 22 -193 33t-256.5 13t-314.5 2
h-39v-656h493q64 0 97.5 1.5t79.5 12t79 31.5q69 49 105 125h22q-8 -99 -8 -194q0 -92 8 -191h-22q-27 43 -52 68.5t-75 52.5q-38 22 -90.5 30.5t-143.5 8.5h-487l16 -545q3 -73 18 -115t58.5 -60.5t76.5 -22t118 -4.5q28 -1 43 -1q357 -7 563 64t307 211zM1161 1765h-143
l-225 238l-228 -238h-141l289 342h157z" />
    <glyph glyph-name="Edieresis" unicode="&#xcb;" horiz-adv-x="1662" 
d="M1602 336l-103 -336h-907q-49 0 -127 4t-127 4q-186 0 -301 -8v16q59 21 100 76q39 43 39 238v1048q0 18 -12.5 50t-30.5 59q-20 35 -55 61v19h1292l88 -269l-26 5l-23 22q-22 22 -43.5 40t-36 28.5t-37.5 22.5t-34 17t-41 17t-43 18q-53 22 -193 33t-256.5 13t-314.5 2
h-39v-656h493q64 0 97.5 1.5t79.5 12t79 31.5q69 49 105 125h22q-8 -99 -8 -194q0 -92 8 -191h-22q-27 43 -52 68.5t-75 52.5q-38 22 -90.5 30.5t-143.5 8.5h-487l16 -545q3 -73 18 -115t58.5 -60.5t76.5 -22t118 -4.5q28 -1 43 -1q357 -7 563 64t307 211zM1038 1759
q-54 0 -84.5 36t-30.5 79t30.5 79t84.5 36q44 0 74 -23.5t37 -57.5t0 -68t-37 -57.5t-74 -23.5zM578 1759q-44 0 -74 23.5t-37 57.5t0 68t37 57.5t74 23.5t74 -23.5t37 -57.5t0 -68t-37 -57.5t-74 -23.5z" />
    <glyph glyph-name="Igrave" unicode="&#xcc;" horiz-adv-x="571" 
d="M512 0q-109 8 -215 8q-115 0 -238 -8v16q58 27 93 82q34 51 34 160l9 1114q0 52 -35 111q-25 41 -56 65v19q94 -13 183 -13q68 0 170 13v-19q-9 -6 -26 -26t-28 -39q-26 -51 -26 -111l10 -1114q1 -45 17.5 -98t27.5 -68q45 -56 80 -76v-16zM444 1755h-114l-293 293h172z
" />
    <glyph glyph-name="Iacute" unicode="&#xcd;" horiz-adv-x="571" 
d="M512 0q-109 8 -215 8q-115 0 -238 -8v16q58 27 93 82q34 51 34 160l9 1114q0 52 -35 111q-25 41 -56 65v19q94 -13 183 -13q68 0 170 13v-19q-9 -6 -26 -26t-28 -39q-26 -51 -26 -111l10 -1114q1 -45 17.5 -98t27.5 -68q45 -56 80 -76v-16zM506 2056l-293 -293h-115
l236 293h172z" />
    <glyph glyph-name="Icircumflex" unicode="&#xce;" horiz-adv-x="571" 
d="M512 0q-109 8 -215 8q-115 0 -238 -8v16q58 27 93 82q34 51 34 160l9 1114q0 52 -35 111q-25 41 -56 65v19q94 -13 183 -13q68 0 170 13v-19q-9 -6 -26 -26t-28 -39q-26 -51 -26 -111l10 -1114q1 -45 17.5 -98t27.5 -68q45 -56 80 -76v-16zM633 1765h-144l-225 238
l-227 -238h-141l288 342h158z" />
    <glyph glyph-name="Idieresis" unicode="&#xcf;" horiz-adv-x="571" 
d="M512 0q-109 8 -215 8q-115 0 -238 -8v16q58 27 93 82q34 51 34 160l9 1114q0 52 -35 111q-25 41 -56 65v19q94 -13 183 -13q68 0 170 13v-19q-9 -6 -26 -26t-28 -39q-26 -51 -26 -111l10 -1114q1 -45 17.5 -98t27.5 -68q45 -56 80 -76v-16zM489 1759q-54 0 -84.5 36
t-30.5 79t30.5 79t84.5 36q44 0 74 -23.5t37 -57.5t0 -68t-37 -57.5t-74 -23.5zM29 1759q-44 0 -74 23.5t-37 57.5t0 68t37 57.5t74 23.5t74 -23.5t37 -57.5t0 -68t-37 -57.5t-74 -23.5z" />
    <glyph glyph-name="Ntilde" unicode="&#xd1;" horiz-adv-x="1847" 
d="M1767 1548l-6 -3q-36 -21 -57 -45q-9 -10 -21 -25q-65 -87 -65 -258v-1250h-31q-45 51 -180.5 209.5t-230.5 261.5q-123 133 -367 402.5t-382 419t-138 141.5l18 -1051q1 -79 23.5 -160.5t36.5 -97.5q22 -29 47.5 -45t66.5 -31v-16q-96 8 -188 8q-106 0 -221 -8v16
q54 24 100 76q30 33 47 121.5t17 138.5l-3 1004q0 33 -19.5 69.5t-37.5 57.5q-57 57 -70 65v19q70 -8 185 -8q72 0 145 8q19 -25 50.5 -64.5t50.5 -64.5q51 -64 533 -580.5t482 -499.5l-6 856q0 42 -22.5 131t-50.5 123q-51 57 -95 80v19q110 -11 209 -11q84 0 180 11v-19z
M1460 2028l-61 -95q-43 -64 -107.5 -101t-132.5 -40q-63 -2 -145 33l-189 76q-12 5 -38.5 18t-39 18t-35 9.5t-44.5 3.5q-59 -7 -99 -38t-73 -87l-52 -82l-73 108l69 91q43 56 90 85t115 41q23 4 46.5 3.5t38.5 -2t41.5 -10t36 -12t42 -17t41.5 -17.5l162 -69
q66 -27 106 -27q60 3 101 37t79 98l33 51z" />
    <glyph glyph-name="Ograve" unicode="&#xd2;" horiz-adv-x="1875" 
d="M1784 770q-1 -169 -68 -319t-180.5 -257.5t-272.5 -171t-339 -65.5q-175 -4 -339.5 59.5t-286.5 173.5t-196 266.5t-73 329.5q2 231 118.5 418t319.5 293t453 107q183 1 345 -64t276.5 -176.5t179.5 -266t63 -327.5zM1546 754q5 129 -16.5 247.5t-72 221.5t-124.5 179
t-180.5 120t-234.5 45q-136 1 -246.5 -42.5t-184 -118t-123.5 -176.5t-72 -213t-22 -233t22.5 -234.5t72.5 -215t124 -177t184.5 -117.5t246.5 -40q138 3 246 46.5t176 113.5t114 168.5t66 201.5t24 224zM1122 1763h-114l-293 293h172z" />
    <glyph glyph-name="Oacute" unicode="&#xd3;" horiz-adv-x="1875" 
d="M1784 770q-1 -169 -68 -319t-180.5 -257.5t-272.5 -171t-339 -65.5q-175 -4 -339.5 59.5t-286.5 173.5t-196 266.5t-73 329.5q2 231 118.5 418t319.5 293t453 107q183 1 345 -64t276.5 -176.5t179.5 -266t63 -327.5zM1546 754q5 129 -16.5 247.5t-72 221.5t-124.5 179
t-180.5 120t-234.5 45q-136 1 -246.5 -42.5t-184 -118t-123.5 -176.5t-72 -213t-22 -233t22.5 -234.5t72.5 -215t124 -177t184.5 -117.5t246.5 -40q138 3 246 46.5t176 113.5t114 168.5t66 201.5t24 224zM1130 2056l-292 -293h-115l235 293h172z" />
    <glyph glyph-name="Ocircumflex" unicode="&#xd4;" horiz-adv-x="1875" 
d="M1784 770q-1 -169 -68 -319t-180.5 -257.5t-272.5 -171t-339 -65.5q-175 -4 -339.5 59.5t-286.5 173.5t-196 266.5t-73 329.5q2 231 118.5 418t319.5 293t453 107q183 1 345 -64t276.5 -176.5t179.5 -266t63 -327.5zM1546 754q5 129 -16.5 247.5t-72 221.5t-124.5 179
t-180.5 120t-234.5 45q-136 1 -246.5 -42.5t-184 -118t-123.5 -176.5t-72 -213t-22 -233t22.5 -234.5t72.5 -215t124 -177t184.5 -117.5t246.5 -40q138 3 246 46.5t176 113.5t114 168.5t66 201.5t24 224zM1311 1765h-144l-225 238l-227 -238h-142l289 342h158z" />
    <glyph glyph-name="Otilde" unicode="&#xd5;" horiz-adv-x="1867" 
d="M1810 770q-1 -169 -68 -319t-180.5 -257.5t-272.5 -171t-339 -65.5q-175 -4 -339.5 59.5t-286.5 173.5t-196 266.5t-73 329.5q2 231 118.5 418t320 293t454.5 107q183 1 344.5 -64t275.5 -176.5t179 -266t63 -327.5zM1573 754q5 129 -16.5 247.5t-72 221.5t-125 179
t-181 120t-234.5 45q-136 1 -246.5 -42.5t-183.5 -118t-123 -176.5t-72 -213t-22 -233t22 -234.5t72.5 -215t124.5 -177t185 -117.5t247 -40q137 3 244.5 46.5t176 113.5t114 168.5t66 201.5t24.5 224zM1507 2015l-61 -94q-43 -66 -107 -103t-131 -40q-63 -2 -147 34
l-187 76q-13 5 -39.5 18t-39.5 18t-35.5 9t-44.5 2q-103 -10 -172 -123l-51 -81l-74 106l71 90q42 58 88.5 87.5t114.5 41.5q20 3 38 4t38 -2t32.5 -5t35 -10t31 -11.5t36 -15.5t35.5 -15l162 -70q63 -26 106 -26q60 1 101 35.5t79 99.5l33 51z" />
    <glyph glyph-name="Odieresis" unicode="&#xd6;" horiz-adv-x="1861" 
d="M1810 770q-1 -169 -68 -319t-180.5 -257.5t-272.5 -171t-339 -65.5q-175 -4 -339.5 59.5t-286.5 173.5t-196 266.5t-73 329.5q2 231 118.5 418t320 293t454.5 107q183 1 344.5 -64t275.5 -176.5t179 -266t63 -327.5zM1573 754q5 129 -16.5 247.5t-72 221.5t-125 179
t-181 120t-234.5 45q-136 1 -246.5 -42.5t-183.5 -118t-123 -176.5t-72 -213t-22 -233t22 -234.5t72.5 -215t124.5 -177t185 -117.5t247 -40q137 3 244.5 46.5t176 113.5t114 168.5t66 201.5t24.5 224zM1178 1765q-44 0 -74 23.5t-37 57.5t0 68t37 57.5t74 23.5
q54 0 84.5 -36t30.5 -79t-30.5 -79t-84.5 -36zM717 1765q-44 0 -74 23.5t-37 57.5t0 68t37 57.5t74 23.5t74 -23.5t37 -57.5t0 -68t-37 -57.5t-74 -23.5z" />
    <glyph glyph-name="Oslash" unicode="&#xd8;" horiz-adv-x="1871" 
d="M1784 770q-1 -169 -68 -319t-180.5 -257.5t-272.5 -171t-339 -65.5q-164 -3 -317.5 50.5t-276.5 154.5q0 1 -49 -47t-99 -96l-49 -48h-135l260 256q-109 114 -169.5 257.5t-59.5 301.5q2 231 118.5 418t319.5 293t453 107q316 3 548 -181l148 148h135l-209 -209
q117 -114 180 -266.5t62 -325.5zM1386 1341q-175 226 -468 226q-136 1 -246.5 -42.5t-184 -118t-123.5 -176.5t-72 -213t-22 -233q0 -249 95 -450zM1546 754q10 298 -108 506l-1022 -1012q172 -256 504 -248q138 3 246 46.5t176 113.5t114 168.5t66 201.5t24 224z" />
    <glyph glyph-name="Ugrave" unicode="&#xd9;" horiz-adv-x="1755" 
d="M1671 1548q-14 -6 -44.5 -29.5t-51.5 -56.5q-39 -63 -39 -198l-18 -717q-2 -89 -26.5 -172.5t-75.5 -157.5t-122.5 -129.5t-174 -89t-224.5 -35.5q-126 -3 -232.5 13t-181.5 43t-135.5 68t-97.5 80.5t-64 89.5t-39.5 86t-19.5 79t-7.5 59.5t-0.5 35.5v3v852q0 76 -19 111
q-12 21 -36 42t-33 23v19q118 -8 194 -8l193 8v-19q-33 -20 -62 -65q-17 -25 -27 -60t-10 -51l11 -817q3 -259 155.5 -396.5t421.5 -140.5q110 -1 199.5 26.5t146 70t99 101.5t63.5 112t33.5 111t15 88.5t2.5 54.5l-4 665q0 24 -3.5 57.5t-20 90t-43.5 88.5q-19 20 -48 40.5
t-40 24.5v19q112 -6 182 -6l184 6v-19zM1038 1763h-114l-293 293h172z" />
    <glyph glyph-name="Uacute" unicode="&#xda;" horiz-adv-x="1755" 
d="M1671 1548q-14 -6 -44.5 -29.5t-51.5 -56.5q-39 -63 -39 -198l-18 -717q-2 -89 -26.5 -172.5t-75.5 -157.5t-122.5 -129.5t-174 -89t-224.5 -35.5q-126 -3 -232.5 13t-181.5 43t-135.5 68t-97.5 80.5t-64 89.5t-39.5 86t-19.5 79t-7.5 59.5t-0.5 35.5v3v852q0 76 -19 111
q-12 21 -36 42t-33 23v19q118 -8 194 -8l193 8v-19q-33 -20 -62 -65q-17 -25 -27 -60t-10 -51l11 -817q3 -259 155.5 -396.5t421.5 -140.5q110 -1 199.5 26.5t146 70t99 101.5t63.5 112t33.5 111t15 88.5t2.5 54.5l-4 665q0 24 -3.5 57.5t-20 90t-43.5 88.5q-19 20 -48 40.5
t-40 24.5v19q112 -6 182 -6l184 6v-19zM1096 2062l-293 -293h-115l236 293h172z" />
    <glyph glyph-name="Ucircumflex" unicode="&#xdb;" horiz-adv-x="1755" 
d="M1671 1548q-14 -6 -44.5 -29.5t-51.5 -56.5q-39 -63 -39 -198l-18 -717q-2 -89 -26.5 -172.5t-75.5 -157.5t-122.5 -129.5t-174 -89t-224.5 -35.5q-126 -3 -232.5 13t-181.5 43t-135.5 68t-97.5 80.5t-64 89.5t-39.5 86t-19.5 79t-7.5 59.5t-0.5 35.5v3v852q0 76 -19 111
q-12 21 -36 42t-33 23v19q118 -8 194 -8l193 8v-19q-33 -20 -62 -65q-17 -25 -27 -60t-10 -51l11 -817q3 -259 155.5 -396.5t421.5 -140.5q110 -1 199.5 26.5t146 70t99 101.5t63.5 112t33.5 111t15 88.5t2.5 54.5l-4 665q0 24 -3.5 57.5t-20 90t-43.5 88.5q-19 20 -48 40.5
t-40 24.5v19q112 -6 182 -6l184 6v-19zM1237 1772h-143l-226 237l-227 -237h-141l288 342h158z" />
    <glyph glyph-name="Udieresis" unicode="&#xdc;" horiz-adv-x="1759" 
d="M1683 1548q-14 -6 -44.5 -29.5t-51.5 -56.5q-39 -63 -39 -198l-16 -717q-2 -90 -27 -173t-76 -157t-122.5 -129.5t-174.5 -89t-225 -35.5q-126 -3 -232.5 13t-181 43t-135 68t-97.5 80t-64 89t-39 86t-19 79t-7.5 59.5t-0.5 36.5v3l-2 852q0 78 -18 111q-12 21 -36.5 42
t-33.5 23v19q121 -8 195 -8l194 8v-19q-31 -19 -63 -65q-17 -24 -26 -59t-9 -52l8 -817q3 -260 156 -397t424 -140q109 -1 198 26.5t145.5 70t99 101.5t63.5 112t33.5 111t15 88.5t2.5 54.5l-4 665q0 23 -3.5 57t-20.5 90.5t-44 88.5q-19 20 -48 40.5t-40 24.5v19
q112 -6 182 -6l184 6v-19zM1147 1763q-54 0 -84.5 36t-30.5 79t30.5 79t84.5 36q44 0 74 -23.5t37 -57.5t0 -68t-37 -57.5t-74 -23.5zM686 1763q-54 0 -84.5 36t-30.5 79t30.5 79t84.5 36q44 0 74 -23.5t37 -57.5t0 -68t-37 -57.5t-74 -23.5z" />
    <glyph glyph-name="germandbls" unicode="&#xdf;" horiz-adv-x="1554" 
d="M1475 430q-3 -82 -31 -149t-75 -113t-106.5 -79.5t-131.5 -52.5t-142 -27.5t-145 -8.5l-84 47q108 -2 192.5 21t135 61t83.5 90t45.5 103t12.5 106q0 70 -18.5 127.5t-48 96t-72.5 68.5t-84 47t-90.5 28.5t-84 15.5t-71.5 6l-2 47q31 1 71.5 11.5t90 35.5t90 60t68 92
t28.5 125q1 151 -112.5 242t-284.5 94l-140 2q-67 3 -123 -53q-49 -55 -49 -109l11 -1106q0 -39 9.5 -95t24.5 -77q27 -29 97 -59v-27q-48 4 -242 4q-26 0 -60.5 0.5t-54 0.5t-55 -1t-80.5 -4v20q73 16 121 78q25 31 35 80.5t10 79.5l4 1075v12.5v19t0.5 22t2.5 26t5.5 27
t8.5 28.5t13.5 26t18.5 24q11 12 24.5 20.5t32.5 14t31.5 8.5t39.5 4.5t37.5 2t43.5 0t41 -0.5h158q654 0 661 -340q3 -109 -58 -206.5t-181 -133.5l-135 -41l139 -29q186 -37 283.5 -135.5t91.5 -251.5z" />
    <glyph glyph-name="agrave" unicode="&#xe0;" horiz-adv-x="1361" 
d="M1294 0h-209q-6 16 -14 43.5t-12 40.5q-23 85 -31 156l-55 -82q-68 -99 -151.5 -142.5t-203.5 -46.5q-102 -4 -203.5 21.5t-184.5 74t-134 126t-49 169.5q2 75 34 136t82.5 102t123 72.5t145 49t158.5 28.5t154 14.5t141 3.5h114v43q0 93 -19.5 169.5t-61.5 140
t-118.5 99t-181.5 35.5q-147 0 -267.5 -70.5t-162.5 -185.5l-16 -41h-22l-58 213l51 21q251 103 471 98q160 -2 273 -40t177 -108t92 -158.5t28 -205.5v-416q0 -52 13 -144t30 -118q38 -63 67 -88v-10zM1006 438v279h-62q-75 0 -135 -2.5t-136.5 -11.5t-134 -24t-115 -43.5
t-93 -67.5t-55 -97t-13.5 -131q14 -143 114.5 -235t252.5 -82q173 13 275 130.5t102 284.5zM840 1430h-115l-293 292h172z" />
    <glyph glyph-name="aacute" unicode="&#xe1;" horiz-adv-x="1361" 
d="M1294 0h-209q-6 16 -14 43.5t-12 40.5q-23 85 -31 156l-55 -82q-68 -99 -151.5 -142.5t-203.5 -46.5q-102 -4 -203.5 21.5t-184.5 74t-134 126t-49 169.5q2 75 34 136t82.5 102t123 72.5t145 49t158.5 28.5t154 14.5t141 3.5h114v43q0 93 -19.5 169.5t-61.5 140
t-118.5 99t-181.5 35.5q-147 0 -267.5 -70.5t-162.5 -185.5l-16 -41h-22l-58 213l51 21q251 103 471 98q160 -2 273 -40t177 -108t92 -158.5t28 -205.5v-416q0 -52 13 -144t30 -118q38 -63 67 -88v-10zM1006 438v279h-62q-75 0 -135 -2.5t-136.5 -11.5t-134 -24t-115 -43.5
t-93 -67.5t-55 -97t-13.5 -131q14 -143 114.5 -235t252.5 -82q173 13 275 130.5t102 284.5zM860 1722l-293 -292h-114l235 292h172z" />
    <glyph glyph-name="acircumflex" unicode="&#xe2;" horiz-adv-x="1361" 
d="M1294 0h-209q-6 16 -14 43.5t-12 40.5q-23 85 -31 156l-55 -82q-68 -99 -151.5 -142.5t-203.5 -46.5q-102 -4 -203.5 21.5t-184.5 74t-134 126t-49 169.5q2 75 34 136t82.5 102t123 72.5t145 49t158.5 28.5t154 14.5t141 3.5h114v43q0 93 -19.5 169.5t-61.5 140
t-118.5 99t-181.5 35.5q-147 0 -267.5 -70.5t-162.5 -185.5l-16 -41h-22l-58 213l51 21q251 103 471 98q160 -2 273 -40t177 -108t92 -158.5t28 -205.5v-416q0 -52 13 -144t30 -118q38 -63 67 -88v-10zM1006 438v279h-62q-75 0 -135 -2.5t-136.5 -11.5t-134 -24t-115 -43.5
t-93 -67.5t-55 -97t-13.5 -131q14 -143 114.5 -235t252.5 -82q173 13 275 130.5t102 284.5zM1024 1432h-143l-226 237l-227 -237h-141l288 342h158z" />
    <glyph glyph-name="atilde" unicode="&#xe3;" horiz-adv-x="1357" 
d="M1294 0h-209q-6 16 -14 43.5t-12 40.5q-23 85 -31 156l-55 -82q-68 -99 -151.5 -142.5t-203.5 -46.5q-102 -4 -203.5 21.5t-184.5 74t-134 126t-49 169.5q2 75 34 136t82.5 102t123 72.5t145 49t158.5 28.5t154 14.5t141 3.5h114v43q0 93 -19.5 169.5t-61.5 140
t-118.5 99t-181.5 35.5q-147 0 -267.5 -70.5t-162.5 -185.5l-16 -41h-22l-58 213l51 21q251 103 471 98q160 -2 273 -40t177 -108t92 -158.5t28 -205.5v-416q0 -52 13 -144t30 -118q38 -63 67 -88v-10zM1006 438v279h-62q-75 0 -135 -2.5t-136.5 -11.5t-134 -24t-115 -43.5
t-93 -67.5t-55 -97t-13.5 -131q14 -143 114.5 -235t252.5 -82q173 13 275 130.5t102 284.5zM1100 1671l-51 -80q-37 -57 -91 -88.5t-112 -34.5q-47 -2 -125 29l-160 66q-13 5 -33.5 15t-32.5 15t-30 8.5t-37 2.5q-86 -10 -147 -107l-43 -67l-62 90l60 77q36 48 75.5 73.5
t96.5 35.5q20 3 39.5 3t32.5 -1.5t35 -9t30 -10.5t36 -15.5t35 -15.5l140 -60q47 -20 88 -20q51 1 85 30t68 85l27 43z" />
    <glyph glyph-name="adieresis" unicode="&#xe4;" horiz-adv-x="1361" 
d="M1294 0h-209q-6 16 -14 43.5t-12 40.5q-23 85 -31 156l-55 -82q-68 -99 -151.5 -142.5t-203.5 -46.5q-102 -4 -203.5 21.5t-184.5 74t-134 126t-49 169.5q2 75 34 136t82.5 102t123 72.5t145 49t158.5 28.5t154 14.5t141 3.5h114v43q0 93 -19.5 169.5t-61.5 140
t-118.5 99t-181.5 35.5q-147 0 -267.5 -70.5t-162.5 -185.5l-16 -41h-22l-58 213l51 21q251 103 471 98q160 -2 273 -40t177 -108t92 -158.5t28 -205.5v-416q0 -52 13 -144t30 -118q38 -63 67 -88v-10zM1006 438v279h-62q-75 0 -135 -2.5t-136.5 -11.5t-134 -24t-115 -43.5
t-93 -67.5t-55 -97t-13.5 -131q14 -143 114.5 -235t252.5 -82q173 13 275 130.5t102 284.5zM885 1430q-54 0 -84.5 36t-30.5 78.5t30.5 78.5t84.5 36q44 0 74 -23.5t37 -57.5t0 -67.5t-37 -57t-74 -23.5zM424 1430q-44 0 -74 23.5t-37 57t0 67.5t37 57.5t74 23.5t74 -23.5
t37 -57.5t0 -67.5t-37 -57t-74 -23.5z" />
    <glyph glyph-name="aring" unicode="&#xe5;" horiz-adv-x="1357" 
d="M838 1608q-2 -82 -61 -140.5t-142 -58.5t-143.5 62t-59.5 147q3 81 61 138t138 59q85 1 147 -60.5t60 -146.5zM1294 0h-209q-6 16 -14 43.5t-12 40.5q-23 85 -31 156l-55 -82q-68 -99 -151.5 -142.5t-203.5 -46.5q-102 -4 -203.5 21.5t-184.5 74t-134 126t-49 169.5
q2 75 34 136t82.5 102t123 72.5t145 49t158.5 28.5t154 14.5t141 3.5h114v43q0 93 -19.5 169.5t-61.5 140t-118.5 99t-181.5 35.5q-147 0 -267.5 -70.5t-162.5 -185.5l-16 -41h-22l-58 213l51 21q251 103 471 98q160 -2 273 -40t177 -108t92 -158.5t28 -205.5v-416
q0 -52 13 -144t30 -118q38 -63 67 -88v-10zM1006 438v279h-62q-75 0 -135 -2.5t-136.5 -11.5t-134 -24t-115 -43.5t-93 -67.5t-55 -97t-13.5 -131q14 -143 114.5 -235t252.5 -82q173 13 275 130.5t102 284.5zM768 1616q-2 53 -40.5 90t-92.5 37q-53 0 -91 -37.5t-38 -89.5
q-3 -54 36 -93.5t93 -39.5q56 0 95 39t38 94z" />
    <glyph glyph-name="ae" unicode="&#xe6;" horiz-adv-x="2398" 
d="M2343 487l-10 -36q-61 -213 -217.5 -340.5t-407.5 -137.5q-118 -4 -235 33t-223 120t-171 202l-80 -129q-62 -101 -161.5 -155.5t-219.5 -59.5q-137 -5 -267.5 39.5t-218.5 138.5t-85 215q2 74 34 135t82.5 102.5t123 72.5t145 48t158.5 28t154 14t141 3h114v45
q0 74 -11.5 137t-39 120.5t-70.5 98t-109 64t-151 23.5q-147 0 -267.5 -69.5t-162.5 -184.5l-16 -41h-22l-58 213l51 20q122 48 232.5 74t238.5 25q215 -3 337 -65.5t177 -180.5q111 137 257 201.5t309 58.5q221 -6 394.5 -129t203.5 -287l14 -86h-1061l-6 -59
q-17 -205 37 -368t173 -256.5t284 -92.5q120 1 235 53.5t204 153.5t122 231l8 31zM2079 899q6 143 -103.5 260t-279.5 123q-76 2 -141 -15t-109 -45.5t-79.5 -66t-55.5 -74t-34 -73t-18.5 -59.5t-5.5 -36l-4 -45h828zM1006 455v276h-62q-76 0 -135 -2t-136 -11t-134 -24
t-115 -43.5t-93.5 -67t-55 -96.5t-13.5 -131q14 -144 114.5 -235.5t252.5 -81.5q173 13 275 131t102 285z" />
    <glyph glyph-name="ccedilla" unicode="&#xe7;" horiz-adv-x="1386" 
d="M1323 346l-23 -39q-12 -20 -29 -45t-44.5 -61t-63 -71t-71.5 -58q-68 -45 -155.5 -68.5t-154.5 -30.5l-37 -2l-61 -80q32 13 70 13q67 -1 114.5 -45.5t55.5 -110.5q10 -82 -65 -133t-173 -53q-72 -2 -156 26l-45 17l35 73l33 -14q66 -27 104 -29q55 -2 99 28.5t43 78.5
q-3 44 -35.5 65.5t-87.5 18.5q-42 -3 -76 -23l-37 35l99 135l-41 9q-81 14 -159.5 45t-157 88t-136.5 131.5t-92.5 184t-30.5 237.5q6 196 102 346.5t258.5 229.5t364.5 73q138 -3 243 -32t240 -97l27 -12l-57 -220l-25 5l-14 32q-50 122 -162.5 200t-257.5 85
q-113 7 -202.5 -26t-145.5 -93t-93 -145.5t-52 -174.5t-15 -188q1 -96 18.5 -181.5t57 -163t98 -135t147 -94.5t199.5 -44q80 -4 155 20.5t136.5 71t108 97t88.5 110.5l24 35z" />
    <glyph glyph-name="egrave" unicode="&#xe8;" horiz-adv-x="1447" 
d="M1362 467l-10 -37q-30 -103 -82 -186.5t-128 -147.5t-181 -101t-232 -42q-102 -4 -202.5 21.5t-191.5 83.5t-160.5 140t-112 199.5t-44.5 253.5q-1 128 51 248t142.5 210t222 142t279.5 47q222 -6 395 -129t203 -288l16 -84h-1063l-6 -60q-16 -206 38 -368.5t172.5 -256
t283.5 -92.5q186 2 349.5 123.5t211.5 315.5l8 30zM1098 879q4 92 -42 177.5t-136.5 143t-204.5 60.5q-88 3 -161 -19.5t-119 -60.5t-79.5 -81t-50.5 -88t-24.5 -74t-8.5 -46l-2 -43h828v31zM903 1432h-115l-292 292h170z" />
    <glyph glyph-name="eacute" unicode="&#xe9;" horiz-adv-x="1447" 
d="M1376 467l-10 -37q-61 -213 -217.5 -340t-407.5 -137q-128 -5 -251.5 38.5t-225 128.5t-165 223.5t-66.5 307.5q-1 128 50.5 248t142 210t222 142t279.5 47q222 -6 395 -129t203 -288l14 -84h-1060l-7 -60q-17 -205 37 -368t173 -256.5t284 -92.5q120 1 235 54t204 154
t122 231l8 30zM1112 879q4 92 -42 177.5t-136.5 143t-204.5 60.5q-76 2 -141 -14.5t-109 -44.5t-79 -66t-55.5 -74.5t-34 -73t-18 -59.5t-5.5 -37l-4 -43h827zM965 1726l-293 -292h-115l236 292h172z" />
    <glyph glyph-name="ecircumflex" unicode="&#xea;" horiz-adv-x="1449" 
d="M1376 467l-10 -37q-61 -213 -217.5 -340t-407.5 -137q-128 -5 -251.5 38.5t-225 128.5t-165 223.5t-66.5 307.5q-1 128 50.5 248t142 210t222 142t279.5 47q222 -6 395 -129t203 -288l14 -84h-1060l-7 -60q-17 -205 37 -368t173 -256.5t284 -92.5q120 1 235 54t204 154
t122 231l8 30zM1112 879q4 92 -42 177.5t-136.5 143t-204.5 60.5q-76 2 -141 -14.5t-109 -44.5t-79 -66t-55.5 -74.5t-34 -73t-18 -59.5t-5.5 -37l-4 -43h827zM1104 1427h-143l-226 236l-227 -236h-141l288 340h158z" />
    <glyph glyph-name="edieresis" unicode="&#xeb;" horiz-adv-x="1449" 
d="M1376 467l-10 -37q-61 -213 -217.5 -340t-407.5 -137q-128 -5 -251.5 38.5t-225 128.5t-165 223.5t-66.5 307.5q-1 128 50.5 248t142 210t222 142t279.5 47q222 -6 395 -129t203 -288l14 -84h-1060l-7 -60q-17 -205 37 -368t173 -256.5t284 -92.5q120 1 235 54t204 154
t122 231l8 30zM1112 879q4 92 -42 177.5t-136.5 143t-204.5 60.5q-76 2 -141 -14.5t-109 -44.5t-79 -66t-55.5 -74.5t-34 -73t-18 -59.5t-5.5 -37l-4 -43h827zM965 1434q-54 0 -84.5 36t-30.5 78.5t30.5 78.5t84.5 36q44 0 74 -23.5t37 -57.5t0 -67.5t-37 -57t-74 -23.5z
M506 1434q-44 0 -74 23.5t-37 57t0 67.5t37 57.5t74 23.5t74 -23.5t37 -57.5t0 -67.5t-37 -57t-74 -23.5z" />
    <glyph glyph-name="igrave" unicode="&#xec;" horiz-adv-x="579" 
d="M455 1430h-115l-293 292h170zM506 0q-108 12 -232 12q-90 0 -213 -12v18q80 24 105 80q5 12 9 28t6 30t2.5 32t0.5 28.5v24.5v15l-4 743q0 83 -22 119q-22 37 -80 60v16q57 13 121 29q70 16 112 28l21 -2v-67q0 -60 4 -179t6 -135l35 -612q1 -45 11 -97t18 -63
q44 -56 100 -73v-23z" />
    <glyph glyph-name="iacute" unicode="&#xed;" horiz-adv-x="561" 
d="M479 1722l-293 -292h-114l235 292h172zM506 0q-108 12 -232 12q-90 0 -213 -12v18q80 24 105 80q5 12 9 28t6 30t2.5 32t0.5 28.5v24.5v15l-4 743q0 83 -22 119q-22 37 -80 60v16q57 13 121 29q70 16 112 28l21 -2v-67q0 -60 4 -179t6 -135l35 -612q1 -45 11 -97t18 -63
q44 -56 100 -73v-23z" />
    <glyph glyph-name="icircumflex" unicode="&#xee;" horiz-adv-x="573" 
d="M627 1430h-144l-225 235l-227 -235h-142l289 339h158zM506 0q-108 12 -232 12q-90 0 -213 -12v18q80 24 105 80q5 12 9 28t6 30t2.5 32t0.5 28.5v24.5v15l-4 743q0 83 -22 119q-22 37 -80 60v16q57 13 121 29q70 16 112 28l21 -2v-67q0 -60 4 -179t6 -135l35 -612
q1 -45 11 -97t18 -63q44 -56 100 -73v-23z" />
    <glyph glyph-name="idieresis" unicode="&#xef;" horiz-adv-x="579" 
d="M467 1427q-54 0 -84.5 36t-30.5 79t30.5 79t84.5 36q44 0 74 -23.5t37 -57.5t0 -68t-37 -57.5t-74 -23.5zM6 1427q-44 0 -74 23.5t-37 57.5t0 68t37 57.5t74 23.5t74 -23.5t37 -57.5t0 -68t-37 -57.5t-74 -23.5zM506 0q-108 12 -232 12q-90 0 -213 -12v18q80 24 105 80
q5 12 9 28t6 30t2.5 32t0.5 28.5v24.5v15l-4 743q0 83 -22 119q-22 37 -80 60v16q57 13 121 29q70 16 112 28l21 -2v-67q0 -60 4 -179t6 -135l35 -612q1 -45 11 -97t18 -63q44 -56 100 -73v-23z" />
    <glyph glyph-name="ntilde" unicode="&#xf1;" horiz-adv-x="1568" 
d="M1503 0q-104 8 -203 8q-114 0 -237 -8v16q56 27 90 82q9 17 18 78t9 82l-6 547q-1 84 -25.5 158t-71 132t-121 93t-168.5 39q-84 3 -155 -27.5t-120.5 -85t-84.5 -128t-51 -154t-15 -164.5l7 -410q0 -5 0.5 -27.5t1 -29t1.5 -24.5t2.5 -26.5t4 -21t6 -21.5t8.5 -16
q40 -56 88 -76v-16q-105 6 -184 6q-144 0 -234 -6v16q47 22 84 78q33 47 33 164l-4 746q0 20 -13.5 56.5t-29.5 57.5q-15 24 -53 47l2 19q88 18 129 28q44 12 94 29l17 -8q2 -9 6 -74q1 -24 2.5 -70.5t3.5 -76.5t6 -47l6 -27l29 63q13 32 36 67.5t63.5 78t89 74t118.5 51.5
t147 16q248 -12 387 -134.5t146 -342.5l22 -553q1 -48 11.5 -101t19.5 -65q27 -33 44 -49t44 -27v-16zM1237 1673l-53 -80q-37 -55 -91 -86t-112 -34q-46 -2 -125 28l-160 66l-33 15t-34 14.5t-30.5 8t-37.5 1.5q-50 -6 -83.5 -31.5t-63.5 -73.5l-43 -69l-64 92l60 75
q38 49 77.5 74.5t96.5 34.5q15 3 30.5 3.5t26.5 0t27 -4t24 -5t26 -8.5t23.5 -9.5t27 -12t26.5 -11.5l137 -59q57 -23 90 -21q52 1 87.5 30.5t66.5 84.5l28 43z" />
    <glyph glyph-name="ograve" unicode="&#xf2;" 
d="M1452 582q-13 -176 -111.5 -317.5t-254.5 -219.5t-338 -78q-118 0 -241 48.5t-224.5 131t-168.5 203.5t-73 254q-7 142 45.5 270.5t147 221.5t230.5 148t290 56q127 1 241.5 -39t200.5 -109.5t147.5 -160t89.5 -196.5t19 -213zM1237 614q2 79 -8.5 154.5t-33.5 149
t-62.5 135t-93 108t-129.5 72t-167 24.5q-102 -2 -184 -39t-136.5 -97.5t-90.5 -141.5t-51 -169t-13 -183q1 -94 20 -182t58.5 -168t96 -139t139.5 -93.5t182 -32.5q104 2 185.5 36.5t134 89.5t87 133t49.5 162t17 181zM956 1427h-114l-293 293h172z" />
    <glyph glyph-name="oacute" unicode="&#xf3;" 
d="M1452 582q-13 -176 -111.5 -317.5t-254.5 -219.5t-338 -78q-118 0 -241 48.5t-224.5 131t-168.5 203.5t-73 254q-7 142 45.5 270.5t147 221.5t230.5 148t290 56q127 1 241.5 -39t200.5 -109.5t147.5 -160t89.5 -196.5t19 -213zM1237 614q2 79 -8.5 154.5t-33.5 149
t-62.5 135t-93 108t-129.5 72t-167 24.5q-102 -2 -184 -39t-136.5 -97.5t-90.5 -141.5t-51 -169t-13 -183q1 -94 20 -182t58.5 -168t96 -139t139.5 -93.5t182 -32.5q104 2 185.5 36.5t134 89.5t87 133t49.5 162t17 181zM1001 1722l-292 -292h-115l235 292h172z" />
    <glyph glyph-name="ocircumflex" unicode="&#xf4;" 
d="M1452 582q-13 -176 -111.5 -317.5t-254.5 -219.5t-338 -78q-118 0 -241 48.5t-224.5 131t-168.5 203.5t-73 254q-7 142 45.5 270.5t147 221.5t230.5 148t290 56q127 1 241.5 -39t200.5 -109.5t147.5 -160t89.5 -196.5t19 -213zM1237 614q2 79 -8.5 154.5t-33.5 149
t-62.5 135t-93 108t-129.5 72t-167 24.5q-102 -2 -184 -39t-136.5 -97.5t-90.5 -141.5t-51 -169t-13 -183q1 -94 20 -182t58.5 -168t96 -139t139.5 -93.5t182 -32.5q104 2 185.5 36.5t134 89.5t87 133t49.5 162t17 181zM1145 1427h-144l-225 238l-227 -238h-141l288 342h158
z" />
    <glyph glyph-name="otilde" unicode="&#xf5;" horiz-adv-x="1531" 
d="M1452 582q-13 -176 -111.5 -317.5t-254.5 -219.5t-338 -78q-118 0 -241 48.5t-224.5 131t-168.5 203.5t-73 254q-7 142 45.5 270.5t147 221.5t230.5 148t290 56q127 1 241.5 -39t200.5 -109.5t147.5 -160t89.5 -196.5t19 -213zM1237 614q2 79 -8.5 154.5t-33.5 149
t-62.5 135t-93 108t-129.5 72t-167 24.5q-102 -2 -184 -39t-136.5 -97.5t-90.5 -141.5t-51 -169t-13 -183q1 -94 20 -182t58.5 -168t96 -139t139.5 -93.5t182 -32.5q104 2 185.5 36.5t134 89.5t87 133t49.5 162t17 181zM1223 1669l-54 -80q-37 -55 -91 -86.5t-111 -34.5
q-44 -2 -125 29l-160 66l-33 15t-34 14.5t-30.5 8t-37.5 1.5q-50 -6 -84 -31.5t-64 -73.5l-43 -70l-63 93l59 75q37 50 76.5 75.5t97.5 35.5q20 3 40.5 2.5t33 -1.5t36 -8.5t30.5 -10t36.5 -16t34.5 -15.5l137 -60q55 -22 91 -20q52 1 87 30.5t66 84.5l29 43z" />
    <glyph glyph-name="odieresis" unicode="&#xf6;" 
d="M1452 582q-13 -176 -111.5 -317.5t-254.5 -219.5t-338 -78q-118 0 -241 48.5t-224.5 131t-168.5 203.5t-73 254q-7 142 45.5 270.5t147 221.5t230.5 148t290 56q127 1 241.5 -39t200.5 -109.5t147.5 -160t89.5 -196.5t19 -213zM1237 614q2 79 -8.5 154.5t-33.5 149
t-62.5 135t-93 108t-129.5 72t-167 24.5q-102 -2 -184 -39t-136.5 -97.5t-90.5 -141.5t-51 -169t-13 -183q1 -94 20 -182t58.5 -168t96 -139t139.5 -93.5t182 -32.5q104 2 185.5 36.5t134 89.5t87 133t49.5 162t17 181zM1014 1430q-54 0 -84.5 36t-30.5 78.5t30.5 78.5
t84.5 36q44 0 74 -23.5t37 -57.5t0 -67.5t-37 -57t-74 -23.5zM553 1430q-44 0 -74 23.5t-37 57t0 67.5t37 57.5t74 23.5t74 -23.5t37 -57.5t0 -67.5t-37 -57t-74 -23.5z" />
    <glyph glyph-name="divide" unicode="&#xf7;" horiz-adv-x="1480" 
d="M709 823q-55 0 -92.5 29.5t-46.5 71.5t0 84.5t46.5 72t92.5 29.5t92.5 -29.5t46.5 -72t0 -84.5t-46.5 -71.5t-92.5 -29.5zM1397 535h-1348l-2 153h1348zM709 117q-55 0 -92.5 29.5t-46.5 71.5t0 84t46.5 71.5t92.5 29.5t92.5 -29.5t46.5 -71.5t0 -84t-46.5 -71.5
t-92.5 -29.5z" />
    <glyph glyph-name="oslash" unicode="&#xf8;" horiz-adv-x="1515" 
d="M1452 582q-13 -176 -111.5 -317.5t-254.5 -219.5t-338 -78q-109 0 -222.5 40.5t-210.5 113.5l-157 -162h-109l207 211q-96 87 -153.5 198t-61.5 236q-7 142 45.5 270.5t147 221.5t230.5 148t290 56q259 0 448 -155l137 139h109l-188 -190q101 -103 151.5 -238t40.5 -274z
M1124 1065q-127 195 -381 192q-102 -2 -184 -39t-136.5 -97.5t-90.5 -141.5t-51 -169t-13 -183q3 -201 82 -359zM1237 614q3 217 -72 381l-774 -794q135 -195 373 -189q104 2 185.5 36.5t134 89.5t87 133t49.5 162t17 181z" />
    <glyph glyph-name="ugrave" unicode="&#xf9;" horiz-adv-x="1417" 
d="M1358 0h-174l-17 6q-5 1 -12 11t-17 33.5t-16 53.5q-6 26 -13 72t-9 53l-6 17l-35 -47q-53 -72 -90 -106q-131 -119 -338 -126q-66 -3 -133 9.5t-133 44.5t-117.5 80.5t-83 123.5t-31.5 166v570q0 105 -24 137q-23 29 -36 38t-40 17v23q17 4 56.5 13.5t66.5 14.5
q21 4 39.5 10t40.5 14t38 13l31 -12q-2 -16 -6 -101q-2 -25 -2 -157l4 -529q0 -81 22.5 -154t65.5 -131t113.5 -91.5t159.5 -32.5q193 3 308.5 134.5t114.5 385.5v408v21v21.5v19.5t-1 20.5t-2 17.5t-2.5 18t-3.5 15t-5 14q-22 50 -76 63v23q17 -1 34 0.5t26 3.5t29.5 7
t29.5 7q64 16 98 35l37 -10q-2 -17 -6 -104q-3 -83 0 -172l17 -744q0 -19 19 -73.5t34 -75.5q25 -36 45 -52v-16zM881 1430h-115l-293 292h172z" />
    <glyph glyph-name="uacute" unicode="&#xfa;" horiz-adv-x="1417" 
d="M1358 0h-174l-17 6q-5 1 -12 11t-17 33.5t-16 53.5q-6 26 -13 72t-9 53l-6 17l-35 -47q-53 -72 -90 -106q-131 -119 -338 -126q-66 -3 -133 9.5t-133 44.5t-117.5 80.5t-83 123.5t-31.5 166v570q0 105 -24 137q-23 29 -36 38t-40 17v23q17 4 56.5 13.5t66.5 14.5
q21 4 39.5 10t40.5 14t38 13l31 -12q-2 -16 -6 -101q-2 -25 -2 -157l4 -529q0 -81 22.5 -154t65.5 -131t113.5 -91.5t159.5 -32.5q193 3 308.5 134.5t114.5 385.5v408v21v21.5v19.5t-1 20.5t-2 17.5t-2.5 18t-3.5 15t-5 14q-22 50 -76 63v23q17 -1 34 0.5t26 3.5t29.5 7
t29.5 7q64 16 98 35l37 -10q-2 -17 -6 -104q-3 -83 0 -172l17 -744q0 -19 19 -73.5t34 -75.5q25 -36 45 -52v-16zM899 1722l-293 -292h-114l235 292h172z" />
    <glyph glyph-name="ucircumflex" unicode="&#xfb;" horiz-adv-x="1417" 
d="M1358 0h-174l-17 6q-5 1 -12 11t-17 33.5t-16 53.5q-6 26 -13 72t-9 53l-6 17l-35 -47q-53 -72 -90 -106q-131 -119 -338 -126q-66 -3 -133 9.5t-133 44.5t-117.5 80.5t-83 123.5t-31.5 166v570q0 105 -24 137q-23 29 -36 38t-40 17v23q17 4 56.5 13.5t66.5 14.5
q21 4 39.5 10t40.5 14t38 13l31 -12q-2 -16 -6 -101q-2 -25 -2 -157l4 -529q0 -81 22.5 -154t65.5 -131t113.5 -91.5t159.5 -32.5q193 3 308.5 134.5t114.5 385.5v408v21v21.5v19.5t-1 20.5t-2 17.5t-2.5 18t-3.5 15t-5 14q-22 50 -76 63v23q17 -1 34 0.5t26 3.5t29.5 7
t29.5 7q64 16 98 35l37 -10q-2 -17 -6 -104q-3 -83 0 -172l17 -744q0 -19 19 -73.5t34 -75.5q25 -36 45 -52v-16zM1077 1432h-143l-225 237l-228 -237h-141l289 342h157z" />
    <glyph glyph-name="udieresis" unicode="&#xfc;" horiz-adv-x="1417" 
d="M1358 0h-174l-17 6q-5 1 -12 11t-17 33.5t-16 53.5q-6 26 -13 72t-9 53l-6 17l-35 -47q-53 -72 -90 -106q-131 -119 -338 -126q-66 -3 -133 9.5t-133 44.5t-117.5 80.5t-83 123.5t-31.5 166v570q0 105 -24 137q-23 29 -36 38t-40 17v23q17 4 56.5 13.5t66.5 14.5
q21 4 39.5 10t40.5 14t38 13l31 -12q-2 -16 -6 -101q-2 -25 -2 -157l4 -529q0 -81 22.5 -154t65.5 -131t113.5 -91.5t159.5 -32.5q193 3 308.5 134.5t114.5 385.5v408v21v21.5v19.5t-1 20.5t-2 17.5t-2.5 18t-3.5 15t-5 14q-22 50 -76 63v23q17 -1 34 0.5t26 3.5t29.5 7
t29.5 7q64 16 98 35l37 -10q-2 -17 -6 -104q-3 -83 0 -172l17 -744q0 -19 19 -73.5t34 -75.5q25 -36 45 -52v-16zM936 1430q-54 0 -84.5 36t-30.5 78.5t30.5 78.5t84.5 36q44 0 74 -23.5t37 -57.5t0 -67.5t-37 -57t-74 -23.5zM475 1430q-44 0 -74 23.5t-37 57t0 67.5
t37 57.5t74 23.5t74 -23.5t37 -57.5t0 -67.5t-37 -57t-74 -23.5z" />
    <glyph glyph-name="ydieresis" unicode="&#xff;" 
d="M1446 1225q-43 -32 -70 -62q-37 -38 -79.5 -108.5t-62 -109.5t-30.5 -64l-252 -514l-217 -430q-20 -41 -31.5 -62.5t-47 -76t-68.5 -91.5t-87.5 -80t-113.5 -69q-111 -51 -211 -45l-31 2l78 233l23 -6q66 -70 127 -70q59 1 115 33.5t93 80t60.5 96.5t26.5 87l6 84
q-14 39 -51.5 130.5t-75.5 162.5q-6 12 -58 122t-118.5 241.5t-124.5 228.5q-8 19 -48.5 86t-76.5 119q-27 37 -103 82v20q82 -6 215 -6q113 0 183 6l4 -20q-3 -2 -16 -8.5t-19.5 -13.5t-11.5 -21q-18 -40 0 -110t53 -134l387 -727l356 729q67 152 19 229q-12 19 -25.5 31.5
t-20.5 16t-18 5.5l-10 3v20q63 -6 166 -6t166 6v-20zM1024 1432q-54 0 -84.5 36t-30.5 78.5t30.5 78.5t84.5 36q44 0 74 -23.5t37 -57.5t0 -67.5t-37 -57t-74 -23.5zM563 1432q-44 0 -74 23.5t-37 57t0 67.5t37 57.5t74 23.5t74 -23.5t37 -57.5t0 -67.5t-37 -57t-74 -23.5z
" />
    <glyph glyph-name="OE" unicode="&#x152;" horiz-adv-x="2940" 
d="M2877 336l-104 -336h-903q-49 0 -127.5 4t-126.5 4q-134 0 -346.5 -25.5t-345.5 -25.5q-179 -1 -343.5 62.5t-286 173t-194 265t-71.5 328.5q2 231 118.5 418t319.5 293t453 107q124 1 307.5 -18t290.5 -19h1126l88 -273l-25 2l-24 23q-22 22 -43.5 40t-35.5 29t-38 23.5
t-34 17t-42 17.5t-43 18q-52 22 -192.5 33t-251.5 12.5t-315 1.5h-52l11 -653h493q65 0 98.5 1.5t78.5 12.5t77 33q72 49 107 121l20 2q-8 -99 -8 -194q0 -94 8 -193h-20q-27 44 -52.5 70.5t-76.5 54.5q-37 21 -87 28t-145 7h-487l18 -543q3 -72 17.5 -113.5t57 -60
t74.5 -22t115 -4.5q31 -1 47 -1q356 -7 562 63.5t307 209.5zM1462 754q6 185 -13 320.5t-60 226t-111 147.5t-155.5 84t-204.5 35q-125 10 -232.5 -31t-182.5 -117.5t-128.5 -180t-79 -219t-25.5 -235.5q0 -122 23 -234.5t74.5 -214.5t126 -177t184 -118t242.5 -40
q138 3 233.5 41.5t163.5 126.5t103 231t42 355z" />
    <glyph glyph-name="oe" unicode="&#x153;" horiz-adv-x="2639" 
d="M2589 477l-11 -37q-60 -213 -215.5 -340t-406.5 -137q-175 -6 -337.5 73.5t-260.5 233.5q-94 -150 -256.5 -236.5t-353.5 -86.5q-118 0 -241 48.5t-224.5 130.5t-168.5 202.5t-73 253.5q-7 143 45.5 272t147 222t230.5 148t290 56q184 1 334 -79t245 -216
q90 152 250 241.5t356 82.5q221 -6 394.5 -129.5t203.5 -288.5l17 -84h-1063l-4 -59q-17 -206 36 -368.5t171.5 -256t283.5 -92.5q186 2 350 123t212 315l8 31zM2324 889q6 143 -103 260t-279 123q-76 2 -141 -15t-109 -45.5t-79.5 -66t-55.5 -74t-34 -73t-18.5 -59.5
t-5.5 -36l-2 -45h827v31zM1237 594q2 79 -8.5 154.5t-33.5 149t-62.5 135t-93 108t-129.5 72t-167 24.5q-102 -2 -184 -39t-136.5 -97.5t-90.5 -142t-51 -169.5t-13 -183q1 -94 20 -182t58.5 -168t96 -139t139.5 -93t182 -32q104 2 185.5 36.5t134 89.5t87 133t49.5 162
t17 181z" />
    <glyph glyph-name="Ydieresis" unicode="&#x178;" horiz-adv-x="1763" 
d="M1677 1548q-37 -27 -106 -88q-93 -84 -197 -205l-456 -550v-449q0 -44 12 -97.5t22 -66.5q19 -21 30 -32.5t29 -23.5t38 -20v-16q-125 8 -244 8q-102 0 -209 -8v16q54 20 94 82q12 20 17.5 75t5.5 85v408l-432 587q-15 25 -60.5 82t-93.5 101q-32 30 -76.5 68.5
t-52.5 43.5v19q135 -6 233 -6q102 0 234 6v-19q-29 -15 -59 -71q-9 -18 -10 -39.5t5 -42t14 -40t19.5 -37.5t20.5 -30.5t17 -23t9 -11.5l404 -503l397 505q7 8 14.5 19t22 33.5t25 45t19.5 47.5t8 48t-13 39q-13 21 -40.5 40t-39.5 21v19q110 -11 205 -11q92 0 194 11v-19z
M1069 1735q-54 0 -84.5 36t-30.5 78.5t30.5 78.5t84.5 36q44 0 74 -23.5t37 -57t0 -67.5t-37 -57.5t-74 -23.5zM608 1735q-44 0 -74 23.5t-37 57.5t0 67.5t37 57t74 23.5t74 -23.5t37 -57t0 -67.5t-37 -57.5t-74 -23.5z" />
    <glyph glyph-name="florin" unicode="&#x192;" horiz-adv-x="950" 
d="M934 1542q-13 -38 -43.5 -59t-71.5 -21q-18 0 -40.5 20.5t-30.5 24.5q-28 15 -46.5 -9t-28.5 -79.5t-16.5 -116t-15.5 -135.5t-20 -120l-13 -46h219l-12 -90h-229l-133 -661q-11 -55 -24 -109t-35.5 -130t-47.5 -140t-60.5 -127.5t-73.5 -104.5t-87.5 -59t-101.5 -2
q-32 8 -52 39t-10 61q12 37 39 59t63 23q18 1 29.5 -7t15.5 -18.5t12.5 -21.5t20.5 -14q19 -6 35.5 5.5t30 40.5t24.5 61.5t21.5 81.5t18 87t17 92t15.5 83l152 763h-240l6 93h268l13 59q17 83 38 158.5t52 155t65.5 136.5t80.5 93.5t96 36.5q44 0 79 -33t21 -70z" />
    <glyph glyph-name="Delta" unicode="&#x394;" horiz-adv-x="1566" 
d="M1499 -2h-1442l770 1620zM1212 104l-477 1129l-528 -1129h1005z" />
    <glyph glyph-name="Omega" unicode="&#x3a9;" horiz-adv-x="1685" 
d="M1616 -4h-651l30 321q157 70 234 205t74 314q0 84 -10.5 150.5t-40.5 131t-80 107t-133 69t-195 27.5q-103 1 -184.5 -24.5t-134 -69.5t-87.5 -107t-49.5 -132.5t-15.5 -151.5q-3 -178 74 -313.5t233 -205.5l31 -321h-650v338h41q0 -38 21 -76q37 -55 117 -55h354v65
q-209 36 -337 194.5t-136 377.5q-6 170 89 295.5t258.5 188t371.5 62.5q334 0 528.5 -144t187.5 -402q-9 -219 -138 -377.5t-339 -194.5v-65h357q79 0 116 55q21 33 21 76h43v-338z" />
    <glyph glyph-name="pi" unicode="&#x3c0;" horiz-adv-x="1337" 
d="M1253 375l-6 -53q-10 -87 -48.5 -161.5t-106 -120.5t-148.5 -40q-56 5 -97 35.5t-62.5 77t-34 105t-12 119.5t4.5 120l56 506h-275l-96 -750q-6 -44 -20.5 -86t-37 -78t-56.5 -52.5t-74 -4.5q-84 21 -99 82q-11 42 3.5 77t39.5 56.5t55.5 54.5t43.5 66q4 11 12.5 29
t13 28t9 26t6.5 33l55 510h-78q-7 0 -23.5 0.5t-23.5 0t-19 -1.5t-22.5 -3.5t-22.5 -7.5q-41 -17 -76.5 -60t-41.5 -67l-41 16l14 33q6 14 20 46t20.5 45.5t19.5 38.5t23.5 38.5t26.5 31.5t34.5 31t41.5 25q73 37 154 37h854v-194h-309l-31 -566q-5 -76 39.5 -138.5
t114.5 -59.5q56 1 94.5 38.5t50.5 96.5l10 41h45z" />
    <glyph glyph-name="endash" unicode="&#x2013;" horiz-adv-x="1048" 
d="M1018 840l-27 -121h-950l45 121h932z" />
    <glyph glyph-name="emdash" unicode="&#x2014;" horiz-adv-x="1398" 
d="M1370 840l-27 -121h-1302l45 121h1284z" />
    <glyph glyph-name="quoteleft" unicode="&#x2018;" horiz-adv-x="339" 
d="M207 1571l-10 -17q0 -1 -11 -16.5t-22.5 -33.5t-23.5 -45t-17 -50q-3 -19 -9 -45q-6 -31 -3.5 -36t24.5 -5h6q38 2 66 -18t37 -50t5.5 -61t-28.5 -55.5t-65 -30.5q-50 -7 -89.5 35t-39.5 96q1 112 49.5 203.5t101.5 126.5l19 12z" />
    <glyph glyph-name="quoteright" unicode="&#x2019;" horiz-adv-x="344" 
d="M248 1430q-1 -113 -49.5 -204t-102.5 -126l-18 -10l-10 8l10 16q1 1 11.5 16.5t22 33.5t23.5 44t17 49q3 16 8 40q7 38 4 44t-31 5q-47 -1 -77.5 29.5t-34 69.5t21.5 74.5t76 41.5q50 7 89.5 -34.5t39.5 -96.5z" />
    <glyph glyph-name="quotesinglbase" unicode="&#x201a;" horiz-adv-x="344" 
d="M248 94q-1 -113 -49.5 -204t-102.5 -126l-18 -10l-10 8l10 17q1 1 11.5 16.5t22 33.5t23.5 44t17 49q3 16 8 41q7 37 4 42.5t-30 4.5h-1q-47 -1 -77.5 29.5t-34 69.5t21.5 74.5t76 41.5q50 7 89.5 -34.5t39.5 -96.5z" />
    <glyph glyph-name="quotedblleft" unicode="&#x201c;" horiz-adv-x="679" 
d="M535 1571l-11 -17q0 -1 -11 -16.5t-22 -33.5t-22.5 -45t-15.5 -50q-4 -22 -10 -51q-6 -26 -4 -30.5t23 -4.5h5q48 2 78.5 -28.5t34.5 -69.5t-21 -74.5t-76 -42.5q-50 -7 -88.5 35t-38.5 96q0 112 48.5 203.5t103.5 126.5l16 12zM213 1571l-10 -17q-63 -84 -72 -145
q-4 -20 -10 -46q-7 -30 -5 -35t24 -5h5q48 2 79 -28.5t35 -69.5t-21 -74.5t-76 -42.5t-90 35t-39 96q0 112 49 203.5t104 126.5l17 12z" />
    <glyph glyph-name="quotedblright" unicode="&#x201d;" horiz-adv-x="659" 
d="M561 1430q0 -113 -49 -204t-104 -126l-17 -10l-10 8l10 16q63 84 74 143q3 18 9 44q7 35 4 40.5t-29 4.5q-47 -1 -77.5 29.5t-34.5 69.5t20.5 74.5t74.5 41.5q51 7 90 -34t39 -97zM238 1430q0 -113 -48.5 -204t-103.5 -126l-16 -10l-11 8l11 16q62 82 71 143q4 21 10 49
q7 31 4 36t-28 4q-48 -1 -78.5 29.5t-34.5 69.5t21 74.5t76 41.5q50 7 88.5 -34.5t38.5 -96.5z" />
    <glyph glyph-name="quotedblbase" unicode="&#x201e;" horiz-adv-x="659" 
d="M561 94q0 -113 -49 -204t-104 -126l-17 -10l-10 8l10 17q63 84 74 143q3 18 9 45q8 37 2 41q-4 3 -26 2h-1q-47 -1 -77.5 29.5t-34.5 69.5t20.5 74.5t74.5 41.5q51 7 90 -34t39 -97zM238 94q0 -113 -48.5 -204t-103.5 -126l-16 -10l-11 8l11 17q62 82 71 143q4 21 10 50
q7 30 4 34.5t-27 3.5h-1q-48 -1 -78.5 29.5t-34.5 69.5t21 74.5t76 41.5q50 7 88.5 -34.5t38.5 -96.5z" />
    <glyph glyph-name="dagger" unicode="&#x2020;" horiz-adv-x="1101" 
d="M1018 881h-14q-2 0 -35.5 3.5t-81 8t-80.5 6.5q-72 4 -184 4h-15v-24v-394q2 -82 6 -193t8 -186t5 -86v-26h-15h-86h-84h-18l2 26q0 5 3.5 84t7.5 190.5t5 190.5v394v24h-12q-114 0 -186 -4q-33 -2 -80.5 -6.5t-81 -8t-35.5 -3.5h-12v8q0 3 2.5 24t3.5 58q0 19 -3 49
t-3 33v10h12q3 0 32.5 -4.5t74.5 -8.5t88 -3h184h14v30q0 45 -8 197q-8 142 -20 282l-2 23l16 -2q9 -2 104 -2q83 0 97 2l14 2l-2 -23q0 -10 -4 -55.5t-10 -114t-9 -112.5q-4 -152 -4 -197v-30h15h184q42 -1 87 3t74 8.5t32 4.5h14v-10q0 -2 -4 -32.5t-4 -49.5
q1 -37 4.5 -58.5t3.5 -23.5v-8z" />
    <glyph glyph-name="bullet" unicode="&#x2022;" horiz-adv-x="421" 
d="M186 614q-50 0 -87 23.5t-54 58.5t-17 76t17 76t54 58.5t87 23.5t87 -23.5t54 -58.5t17 -76t-17 -76t-54 -58.5t-87 -23.5z" />
    <glyph glyph-name="ellipsis" unicode="&#x2026;" horiz-adv-x="1177" 
d="M995 -2q-54 0 -84.5 35.5t-30.5 78t30.5 78t84.5 35.5q43 0 72 -23.5t36 -56.5t0 -66.5t-36 -57t-72 -23.5zM582 -2q-43 0 -72 23.5t-36 57t0 66.5t36 56.5t72 23.5q54 0 84.5 -35.5t30.5 -78t-30.5 -78t-84.5 -35.5zM170 -2q-54 0 -84.5 35.5t-30.5 78t30.5 78
t84.5 35.5t84.5 -35.5t30.5 -78t-30.5 -78t-84.5 -35.5z" />
    <glyph glyph-name="trademark" unicode="&#x2122;" horiz-adv-x="1810" 
d="M670 1577l-8 -184h-33l-8 71q0 23 -13 39q-10 10 -28 10l-179 5v-627q0 -24 15 -45q6 -8 17.5 -11.5t27.5 -4.5l16 -1l27 -4v-30h-19q-2 0 -54 3t-83 3q-32 0 -82.5 -3t-56.5 -3h-19v34l31 2q42 0 55 15q17 20 17 45v627l-172 -7q-19 0 -25 -6q-7 -7 -14 -32l-10 -80h-35
l-6 184l20 -2q1 0 34.5 -1t75.5 -2t95 -1.5t94 0.5q46 1 123 1.5t124.5 1t51.5 1.5zM1726 1540h-16q-64 0 -76 -16q-8 -9 -10 -12t-4 -12t-2 -25v-584q0 -25 14 -45q6 -6 16 -10t17.5 -4.5t17.5 -1.5t13 -1l26 -4v-30h-16q-2 0 -55 3t-84 3t-82.5 -3t-57.5 -3h-20v34l33 2
q40 0 55 15q16 19 16 45v545l-307 -654h-22l-308 650v-541q0 -25 17 -45q7 -8 18.5 -11.5t26.5 -4.5l16 -1l27 -4v-30h-18q-1 0 -53 3t-85 3q-19 0 -51.5 -3t-40.5 -3h-20v34l32 2q43 0 56 15q16 19 16 45v584q0 6 -0.5 11t-0.5 8.5t-1 7t-1 5t-2 4.5t-2.5 4t-3 4.5
t-3.5 4.5q-12 16 -78 16h-12v33h20q16 0 74 -4q26 0 66.5 2t41.5 2h13l295 -621l114 238q110 222 138 285q14 28 30 79l8 19h17q2 0 37.5 -2t56.5 -2t54.5 2t35.5 2h14v-33z" />
    <glyph glyph-name="partialdiff" unicode="&#x2202;" horiz-adv-x="1099" 
d="M1016 842q8 -100 -6 -207.5t-45.5 -207.5t-82 -189t-113 -153t-142.5 -98t-166 -26q-191 18 -294.5 132.5t-111.5 291.5q-6 123 49.5 233t157.5 176.5t223 65.5q82 0 141.5 -23.5t133.5 -78.5l65 -45l17 108q14 74 10 153t-17.5 154t-45.5 142.5t-74 118.5t-104 81.5
t-134 30.5q-37 0 -67.5 -7t-75.5 -24t-66 -24l-39 -12l-82 102l93 27q47 12 70.5 17.5t58.5 9.5t73 3q107 -2 198 -45.5t155.5 -116t112 -169.5t74 -202.5t34.5 -217.5zM809 633l-59 57q-67 61 -144 76q-62 13 -120 -6.5t-102 -63.5t-76.5 -101.5t-51.5 -123.5
q-19 -69 -19 -138.5t18.5 -132t62.5 -110t108 -67.5q60 -18 112.5 2t89.5 64t68 110t49 130.5t31 135.5z" />
    <glyph glyph-name="product" unicode="&#x220f;" horiz-adv-x="1841" 
d="M1753 -233h-690v40l57 3q32 1 47.5 3t38 10.5t39.5 24.5q12 12 19 24t10 31.5t4 26.5t0.5 35.5t-0.5 32.5v1458h-807v-1444q0 -65 9.5 -103.5t45.5 -66.5q19 -14 42 -20.5t38 -7t49 -0.5h43v-47h-690v49h55q29 0 45.5 1.5t38 8t39.5 20.5q32 26 39.5 60t7.5 93v13v1315
q0 97 -69 158q-53 44 -107 49l-39 4v45h1735v-49l-49 -2q-48 -2 -102 -43q-44 -35 -58 -80.5t-14 -114.5v-1300q0 -54 8 -87t39 -61q25 -24 52.5 -31.5t72.5 -9.5l51 -2v-36z" />
    <glyph glyph-name="summation" unicode="&#x2211;" horiz-adv-x="1597" 
d="M1522 231q-47 -136 -66 -254q-19 -123 -24 -235l-158 31h-1266l787 862l-772 962l143 -12h1198l4 -352h-47q3 117 -82 190q-45 40 -91.5 51t-125.5 11h-647l622 -750l-665 -751h889q44 0 76 13t71 42q51 38 75.5 83.5t29.5 108.5h49z" />
    <glyph glyph-name="radical" unicode="&#x221a;" horiz-adv-x="1144" 
d="M1073 1772l-305 -1874l-500 987l-190 -97l-31 66l293 139l401 -790l263 1577z" />
    <glyph glyph-name="infinity" unicode="&#x221e;" horiz-adv-x="1753" 
d="M1667 573q4 -156 -98 -256t-236 -98q-88 2 -188.5 43t-181.5 117l-105 98l-104 -98q-82 -76 -183.5 -117t-189.5 -43q-134 -2 -235.5 98t-98.5 256q3 89 49.5 162t123 115.5t167.5 46.5q163 8 340 -152l131 -118l131 118q181 160 338 152q140 -6 238.5 -97.5
t101.5 -226.5zM1548 565q-6 92 -71 152.5t-158 56.5q-67 -3 -115 -25.5t-117 -72.5l-157 -119l145 -135q56 -50 112.5 -71.5t129.5 -18.5q106 1 172.5 68.5t58.5 164.5zM784 557l-155 119q-68 50 -117 72.5t-115 25.5q-94 4 -158.5 -56.5t-72.5 -152.5q-8 -97 59 -164.5
t174 -68.5q74 -3 128.5 18t111.5 72z" />
    <glyph glyph-name="integral" unicode="&#x222b;" horiz-adv-x="616" 
d="M526 1751q-4 -35 -30.5 -57.5t-63.5 -22.5q-22 0 -49 20.5t-35 24.5q-38 18 -47 -47q-8 -59 12 -277q15 -153 15 -218v-685q0 -70 -2.5 -132.5t-11 -154t-27.5 -160.5t-47.5 -130.5t-76.5 -87t-110 -8.5q-32 9 -59 38t-23 64q3 34 25.5 56.5t56.5 23.5q18 1 31 -6.5
t19.5 -18t16.5 -21.5t23 -15q26 -7 41 18.5t19 81.5t4 107t-3 129t-3 114v952q0 512 202 514q49 0 89 -29.5t34 -72.5z" />
    <glyph glyph-name="approxequal" unicode="&#x2248;" horiz-adv-x="1409" 
d="M1343 850l-47 -55q-61 -72 -130.5 -104t-166.5 -38q-43 -2 -79.5 6.5t-85 26t-78.5 25.5l-197 55q-16 4 -42.5 12t-42 12t-36.5 7.5t-42 3t-44 -5.5q-55 -10 -94 -33.5t-80 -67.5l-41 -43l-100 68l31 35q65 68 127.5 102t150.5 47q86 9 133.5 2t130.5 -33l174 -51
q17 -6 53 -19.5t53 -18.5t46 -9t59 -2q72 7 120 26t91 66l43 45zM1343 467l-47 -55q-62 -71 -131.5 -103.5t-165.5 -38.5q-43 -2 -79.5 6.5t-85 26t-78.5 25.5l-197 55q-10 3 -36 11t-35.5 10.5t-30.5 7t-34 5.5t-32.5 0t-38.5 -5q-54 -10 -93 -33.5t-81 -67.5l-41 -41
l-100 66l31 35q66 68 128.5 102t149.5 47q86 9 133.5 2t130.5 -33l174 -53q21 -6 53.5 -17.5t51.5 -17t47.5 -9.5t58.5 -1q71 5 119.5 24t91.5 66l43 45z" />
    <glyph glyph-name="notequal" unicode="&#x2260;" horiz-adv-x="1296" 
d="M1227 367h-666l-205 -367l-104 61l166 306h-350v122h417l172 312h-589v123h653l207 374l108 -55l-176 -319h367v-119h-428l-170 -316h598v-122z" />
    <glyph glyph-name="lessequal" unicode="&#x2264;" horiz-adv-x="1017" 
d="M952 217l-891 410v102l891 424v-113l-759 -368l759 -350v-105zM952 -2h-891v100h891v-100z" />
    <glyph glyph-name="greaterequal" unicode="&#x2265;" horiz-adv-x="1032" 
d="M946 627l-893 -410v105l760 350l-760 368v113l893 -424v-102zM946 -2h-893v100h893v-100z" />
    <glyph glyph-name="lozenge" unicode="&#x25ca;" horiz-adv-x="1077" 
d="M1001 795l-411 -797h-135l-418 811l418 754h135zM879 795l-359 653l-356 -645l360 -707z" />
    </font>
</defs>
</svg>
