<?xml version="1.0" standalone="no"?>
<!DOCTYPE svg PUBLIC "-//W3C//DTD SVG 1.1//EN" "http://www.w3.org/Graphics/SVG/1.1/DTD/svg11.dtd" >
<svg xmlns="http://www.w3.org/2000/svg" xmlns:xlink="http://www.w3.org/1999/xlink" version="1.1">
<metadata>
Created by FontForge 20201107 at Sat Sep 14 23:45:01 2019
 By 
Copyright (c) 2012 by Linotype GmbH.  All rights reserved.
</metadata>
<defs>
<font id="NeuzeitOfficeSoftRoundedPro-Bold" horiz-adv-x="510" >
  <font-face 
    font-family="Neuzeit Office Soft Rounded Pro Bold"
    font-weight="700"
    font-stretch="normal"
    units-per-em="1000"
    panose-1="2 15 8 3 5 0 0 2 0 3"
    ascent="800"
    descent="-200"
    x-height="470"
    cap-height="680"
    bbox="-171.048 -250 1128 912"
    underline-thickness="50"
    underline-position="-125"
    unicode-range="U+000D-FB02"
  />
<missing-glyph horiz-adv-x="485" 
d="M0 651q0 12 8.5 20.5t20.5 8.5h427q12 0 20.5 -8.5t8.5 -20.5v-622q0 -12 -8.5 -20.5t-20.5 -8.5h-427q-12 0 -20.5 8.5t-8.5 20.5v622zM438 47v585h-391v-585h391zM232 222q-12 0 -16.5 6t-4.5 14v3q1 47 13 69q12 25 43 56q31 29 39 45t8 34q0 34 -21.5 57t-50.5 23
q-26 0 -45.5 -15.5t-27.5 -51.5q-2 -9 -6 -15.5t-15 -4.5l-8 1q-13 2 -17.5 9t-2.5 16q11 56 44.5 82.5t80.5 26.5q51 0 84.5 -33.5t33.5 -90.5q0 -31 -12 -55.5t-48 -58.5q-35 -30 -41 -49q-2 -8 -3 -19.5t-2 -28.5q0 -8 -5.5 -14t-15.5 -6h-4zM210 149q0 14 7.5 19.5
t18.5 5.5h2q11 0 18 -5.5t7 -19.5v-13q0 -14 -7 -19.5t-18 -5.5h-2q-11 0 -18.5 5.5t-7.5 19.5v13z" />
    <glyph glyph-name="IJ" unicode="IJ" horiz-adv-x="650" 
d="M77 642q0 23 11 30.5t27 7.5h59q16 0 27 -7.5t11 -30.5v-604q0 -23 -11 -30.5t-27 -7.5h-59q-16 0 -27 7.5t-11 30.5v604zM291 78q0 14 7 19t17 5q8 0 15.5 -0.5t17.5 -0.5q56 0 77 29.5t21 94.5v334h-76q-23 0 -30.5 11t-7.5 27v45q0 16 7.5 27t30.5 11h174
q16 0 27 -7.5t11 -30.5v-417q0 -68 -16.5 -113.5t-45.5 -73.5t-70 -39.5t-90 -11.5q-29 0 -49 6t-20 26v59z" />
    <glyph glyph-name="ij" unicode="ij" horiz-adv-x="500" 
d="M131 539q-17 0 -31 7t-24.5 17.5t-16 24t-5.5 27.5q0 30 21.5 54t55.5 24q15 0 28.5 -6t24 -16t17 -24t6.5 -30q0 -15 -6 -29t-16.5 -25t-24.5 -17.5t-29 -6.5zM65 432q0 23 11 30.5t27 7.5h55q16 0 27 -7.5t11 -30.5v-394q0 -23 -11 -30.5t-27 -7.5h-55q-16 0 -27 7.5
t-11 30.5v394zM372 539q-17 0 -31 7t-24.5 17.5t-16 24t-5.5 27.5q0 30 21.5 54t55.5 24q15 0 28.5 -6t24 -16t17 -24t6.5 -30q0 -15 -6 -29t-16.5 -25t-24.5 -17.5t-29 -6.5zM306 432q0 23 11 30.5t27 7.5h55q16 0 27 -7.5t11 -30.5v-454q0 -54 -15 -89t-39.5 -54.5
t-55.5 -27t-63 -7.5q-13 0 -24 5t-11 24v64q0 8 4 15t18 7q25 0 40 15.5t15 49.5v452z" />
    <glyph glyph-name="napostrophe" unicode="&#x22;n" horiz-adv-x="572" 
d="M68 432q0 23 11 30.5t27 7.5h49q16 0 27 -7.5t11 -30.5v-23h2q30 43 68 58.5t78 15.5q42 0 73.5 -13t51.5 -35t30 -52t10 -64v-281q0 -23 -11 -30.5t-27 -7.5h-56q-16 0 -27 7.5t-11 30.5v248q0 25 -7 42.5t-18.5 28t-26.5 15t-31 4.5q-39 0 -65.5 -30.5t-26.5 -78.5
v-229q0 -23 -11 -30.5t-27 -7.5h-55q-16 0 -27 7.5t-11 30.5v394zM-19 483q-9 0 -12 2.5t-3 6.5t2.5 8.5t5.5 8.5q32 52 32 92q0 15 -6 29q-4 8 -3.5 16t16.5 14l33 12q13 5 24 -1t16 -18q3 -8 5 -17t2 -20q0 -29 -13.5 -56t-36.5 -54q-9 -11 -18 -17t-23 -6h-21z" />
    <glyph glyph-name="uniFB01" unicode="fi" horiz-adv-x="578" 
d="M88 368h-36q-23 0 -30.5 11t-7.5 27v26q0 16 7.5 27t30.5 11h36v41q0 34 10 69t32 63t56.5 45.5t82.5 17.5q8 0 15.5 -0.5t15.5 -1.5q13 -2 20.5 -7t7.5 -25v-52q0 -9 -5 -16t-19 -7h-21q-35 0 -49.5 -23.5t-14.5 -68.5v-35h65q23 0 30.5 -11t7.5 -27v-26q0 -16 -7.5 -27
t-30.5 -11h-65v-330q0 -23 -11 -30.5t-27 -7.5h-55q-16 0 -27 7.5t-11 30.5v330zM448 539q-17 0 -31 7t-24.5 17.5t-16 24t-5.5 27.5q0 30 21.5 54t55.5 24q15 0 28.5 -6t24 -16t17 -24t6.5 -30q0 -15 -6 -29t-16.5 -25t-24.5 -17.5t-29 -6.5zM382 432q0 23 11 30.5t27 7.5
h55q16 0 27 -7.5t11 -30.5v-394q0 -23 -11 -30.5t-27 -7.5h-55q-16 0 -27 7.5t-11 30.5v394z" />
    <glyph glyph-name="uniFB02" unicode="fl" horiz-adv-x="578" 
d="M88 368h-36q-23 0 -30.5 11t-7.5 27v26q0 16 7.5 27t30.5 11h36v41q0 34 10 69t32 63t56.5 45.5t82.5 17.5q8 0 15.5 -0.5t15.5 -1.5q13 -2 20.5 -7t7.5 -25v-52q0 -9 -5 -16t-19 -7h-21q-35 0 -49.5 -23.5t-14.5 -68.5v-35h65q23 0 30.5 -11t7.5 -27v-26q0 -16 -7.5 -27
t-30.5 -11h-65v-330q0 -23 -11 -30.5t-27 -7.5h-55q-16 0 -27 7.5t-11 30.5v330zM382 668q0 23 11 30.5t27 7.5h55q16 0 27 -7.5t11 -30.5v-630q0 -23 -11 -30.5t-27 -7.5h-55q-16 0 -27 7.5t-11 30.5v630z" />
    <glyph glyph-name=".notdef" horiz-adv-x="485" 
d="M0 651q0 12 8.5 20.5t20.5 8.5h427q12 0 20.5 -8.5t8.5 -20.5v-622q0 -12 -8.5 -20.5t-20.5 -8.5h-427q-12 0 -20.5 8.5t-8.5 20.5v622zM438 47v585h-391v-585h391zM232 222q-12 0 -16.5 6t-4.5 14v3q1 47 13 69q12 25 43 56q31 29 39 45t8 34q0 34 -21.5 57t-50.5 23
q-26 0 -45.5 -15.5t-27.5 -51.5q-2 -9 -6 -15.5t-15 -4.5l-8 1q-13 2 -17.5 9t-2.5 16q11 56 44.5 82.5t80.5 26.5q51 0 84.5 -33.5t33.5 -90.5q0 -31 -12 -55.5t-48 -58.5q-35 -30 -41 -49q-2 -8 -3 -19.5t-2 -28.5q0 -8 -5.5 -14t-15.5 -6h-4zM210 149q0 14 7.5 19.5
t18.5 5.5h2q11 0 18 -5.5t7 -19.5v-13q0 -14 -7 -19.5t-18 -5.5h-2q-11 0 -18.5 5.5t-7.5 19.5v13z" />
    <glyph glyph-name="glyph1" horiz-adv-x="0" 
 />
    <glyph glyph-name="glyph1" horiz-adv-x="0" 
 />
    <glyph glyph-name="uni000D" unicode="&#xd;" horiz-adv-x="255" 
 />
    <glyph glyph-name="space" unicode=" " horiz-adv-x="255" 
 />
    <glyph glyph-name="exclam" unicode="!" horiz-adv-x="340" 
d="M143 233q-16 0 -27 7.5t-11 30.5v371q0 23 11 30.5t27 7.5h54q16 0 27 -7.5t11 -30.5v-371q0 -23 -11 -30.5t-27 -7.5h-54zM94 65q0 32 22 54t54 22t54 -22t22 -54q0 -31 -22 -53.5t-54 -22.5t-54 22.5t-22 53.5z" />
    <glyph glyph-name="quotedbl" unicode="&#x22;" horiz-adv-x="420" 
d="M270 428q-15 0 -25.5 7.5t-6.5 30.5l28 176q3 20 15 29t29 9h18q15 0 25.5 -7.5t6.5 -30.5l-28 -176q-3 -20 -15 -29t-29 -9h-18zM100 428q-15 0 -25.5 7.5t-6.5 30.5l28 176q3 20 15 29t29 9h18q15 0 25.5 -7.5t6.5 -30.5l-28 -176q-3 -20 -15 -29t-29 -9h-18z" />
    <glyph glyph-name="numbersign" unicode="#" 
d="M113 195h-42q-16 0 -27 6t-11 22v22q0 16 11 22t27 6h53l16 123h-42q-16 0 -27 6t-11 22v22q0 16 11 22t27 6h52l21 157q2 17 9.5 27.5t23.5 10.5h24q15 0 20 -11.5t3 -26.5l-20 -157h92l20 157q2 17 9.5 27.5t23.5 10.5h25q15 0 20 -11.5t3 -26.5l-21 -157h35
q16 0 27 -6t11 -22v-22q0 -16 -11 -22t-27 -6h-45l-16 -123h34q16 0 27 -6t11 -22v-22q0 -16 -11 -22t-27 -6h-45l-21 -157q-2 -17 -9.5 -27.5t-23.5 -10.5h-23q-15 0 -20 11.5t-3 26.5l20 157h-92l-21 -157q-2 -17 -9.5 -27.5t-23.5 -10.5h-24q-15 0 -20 11.5t-3 26.5z
M297 273l15 123h-92l-15 -123h92z" />
    <glyph glyph-name="dollar" unicode="$" 
d="M44 155q-2 15 4 26.5t29 11.5h45q17 0 25.5 -10.5t12.5 -27.5q6 -24 22.5 -41t45.5 -20v197q-30 10 -62.5 22.5t-58.5 33.5t-43 54.5t-17 84.5q0 87 48 135t133 59v46q0 23 18 23h15q16 0 16 -23v-46q30 -2 58.5 -9t53 -23t42 -42.5t24.5 -66.5q3 -15 -3 -26.5t-29 -11.5
h-45q-17 0 -25.5 10.5t-14.5 27.5q-8 23 -24.5 33t-36.5 12v-190q39 -12 73 -26t60 -36t41 -55t15 -82q0 -55 -18.5 -92.5t-46.5 -61.5t-61 -35t-63 -12v-83q0 -23 -18 -23h-13q-18 0 -18 23v83q-29 0 -59 7.5t-55.5 26.5t-44.5 49.5t-25 77.5zM228 584q-11 -1 -23.5 -6
t-23 -15.5t-17 -26.5t-6.5 -38q0 -23 6 -38t16 -25t22.5 -16.5t25.5 -11.5v177zM277 94q34 2 55.5 26.5t21.5 66.5q0 22 -5.5 36.5t-16 24.5t-24.5 17t-31 13v-184z" />
    <glyph glyph-name="percent" unicode="%" horiz-adv-x="830" 
d="M552 657q8 14 17 22.5t26 8.5h13q12 0 20.5 -7t-1.5 -25l-355 -642q-8 -15 -19 -24t-28 -9h-11q-13 0 -21 8.5t1 24.5zM221 334q-32 0 -60 10.5t-48 32.5t-31.5 54t-11.5 76t11.5 76.5t31.5 54t48 32t60 10.5t59.5 -10.5t48 -32t32 -54t11.5 -76.5t-11.5 -76t-32 -54
t-48 -32.5t-59.5 -10.5zM221 407q16 0 26 8.5t15.5 22.5t7.5 32t2 37t-2 37.5t-7.5 32t-15.5 22t-26 8.5t-26 -8.5t-16 -22t-8 -32t-2 -37.5t2 -37t8 -32t16 -22.5t26 -8.5zM458 162q0 43 11.5 75.5t31.5 54t48 32t60 10.5t59.5 -10.5t48 -32t32 -54t11.5 -75.5
q0 -44 -11.5 -76.5t-32 -54t-48 -32t-59.5 -10.5t-60 10.5t-48 32t-31.5 54t-11.5 76.5zM558 162q0 -20 2 -38t7.5 -32t15.5 -22.5t26 -8.5t26 8.5t16 22.5t8 32t2 38q0 19 -2 37t-8 32t-16 22.5t-26 8.5t-26 -8.5t-15.5 -22.5t-7.5 -32t-2 -37z" />
    <glyph glyph-name="ampersand" unicode="&#x26;" horiz-adv-x="653" 
d="M43 186q0 43 12.5 77t33 60t46 44.5t51.5 30.5q-27 34 -40 64.5t-13 62.5q0 31 12 59.5t34.5 49.5t54 33.5t69.5 12.5q43 0 75.5 -12t53.5 -32t31.5 -45.5t10.5 -52.5q0 -62 -33.5 -100.5t-91.5 -68.5l114 -148q9 13 15 36.5t8 51.5q2 16 10.5 27t31.5 11h42
q23 0 29.5 -11.5t4.5 -26.5q-6 -48 -23 -93.5t-44 -80.5l80 -100q11 -14 4 -24.5t-22 -10.5h-81q-17 0 -26 8t-20 22l-15 19q-28 -22 -75 -42t-107 -20q-56 0 -99 14.5t-72.5 41t-45 63t-15.5 80.5zM292 439q42 21 57.5 42t15.5 50q0 26 -15.5 40.5t-39.5 14.5
q-23 0 -40.5 -14.5t-17.5 -43.5q0 -19 8 -40t32 -49zM171 204q0 -45 30 -75.5t84 -30.5q65 0 100 36l-142 186q-38 -20 -55 -49t-17 -67z" />
    <glyph glyph-name="quotesingle" unicode="'" horiz-adv-x="250" 
d="M100 428q-15 0 -25.5 7.5t-6.5 30.5l28 176q3 20 15 29t29 9h18q15 0 25.5 -7.5t6.5 -30.5l-28 -176q-3 -20 -15 -29t-29 -9h-18v0z" />
    <glyph glyph-name="parenleft" unicode="(" horiz-adv-x="350" 
d="M182 -110q-66 79 -107.5 185.5t-41.5 231.5t41.5 231.5t107.5 185.5q11 13 27 16.5t30 -4.5l13 -7q16 -8 17.5 -22t-7.5 -25q-59 -72 -93.5 -166t-34.5 -209t34.5 -209t93.5 -166q9 -11 7.5 -25t-17.5 -22l-13 -7q-18 -10 -32 -5.5t-25 17.5z" />
    <glyph glyph-name="parenright" unicode=")" horiz-adv-x="350" 
d="M172 724q66 -79 107.5 -185.5t41.5 -231.5t-41.5 -231.5t-107.5 -185.5q-11 -13 -27 -16.5t-30 4.5l-13 7q-16 8 -17.5 22t7.5 25q59 72 93.5 166t34.5 209t-34.5 209t-93.5 166q-9 11 -7.5 25t17.5 22l13 7q18 10 32 5.5t25 -17.5z" />
    <glyph glyph-name="asterisk" unicode="*" 
d="M147 377q-13 9 -11 21t12 25l51 68l-80 23q-15 4 -24.5 12t-4.5 23l7 23q5 15 17 17t27 -3l79 -27l-3 83q0 16 6 27t22 11h21q16 0 23.5 -11t6.5 -27l-2 -85l78 30q15 6 27.5 3.5t18.5 -17.5l7 -18q5 -14 -3 -25t-23 -16l-84 -24l54 -65q10 -12 10.5 -25.5t-12.5 -22.5
l-20 -14q-13 -9 -24 -3t-19 19l-47 72l-46 -73q-8 -13 -19.5 -18.5t-24.5 3.5z" />
    <glyph glyph-name="plus" unicode="+" 
d="M208 198h-119q-23 0 -30.5 11t-7.5 27v19q0 16 7.5 27t30.5 11h119v139q0 23 11 30.5t27 7.5h18q16 0 27 -7.5t11 -30.5v-139h119q23 0 30.5 -11t7.5 -27v-19q0 -16 -7.5 -27t-30.5 -11h-119v-139q0 -23 -11 -30.5t-27 -7.5h-18q-16 0 -27 7.5t-11 30.5v139z" />
    <glyph glyph-name="comma" unicode="," horiz-adv-x="255" 
d="M72 109q5 19 18 26.5t30 4.5l51 -9q14 -2 22 -13t1 -28l-85 -199q-9 -22 -22.5 -26t-29.5 -1l-19 4q-15 3 -20 12t1 31z" />
    <glyph glyph-name="hyphen" unicode="-" horiz-adv-x="360" 
d="M108 192q-23 0 -30.5 11t-7.5 27v23q0 16 7.5 27t30.5 11h144q23 0 30.5 -11t7.5 -27v-23q0 -16 -7.5 -27t-30.5 -11h-144v0z" />
    <glyph glyph-name="period" unicode="." horiz-adv-x="255" 
d="M52 65q0 32 22 54t54 22q31 0 53.5 -22t22.5 -54q0 -31 -22.5 -53.5t-53.5 -22.5q-32 0 -54 22.5t-22 53.5z" />
    <glyph glyph-name="slash" unicode="/" horiz-adv-x="400" 
d="M276 656q6 16 15 26t26 10h33q13 0 22.5 -8.5t2.5 -27.5l-239 -633q-6 -16 -15 -26t-26 -10h-34q-14 0 -22 7.5t-3 28.5z" />
    <glyph glyph-name="zero" unicode="0" 
d="M254 -12q-71 0 -114 33.5t-66 85t-30.5 114t-7.5 119.5q0 33 2 72.5t9.5 78.5t22 75.5t38.5 64.5t60 45t86 17t86 -17t60.5 -45t39 -64.5t22 -75.5t10 -78.5t2.5 -72.5q0 -57 -7.5 -119.5t-31 -114t-67 -85t-114.5 -33.5zM254 102q24 0 40 18t25 49.5t12.5 75t3.5 95.5
q0 49 -3.5 92t-12.5 75.5t-25 51.5t-40 19t-39.5 -19t-25 -51.5t-13 -75.5t-3.5 -92q0 -52 3.5 -95.5t13 -75t25 -49.5t39.5 -18z" />
    <glyph glyph-name="one" unicode="1" 
d="M232 532q-26 -15 -57 -28.5t-60 -23.5q-14 -5 -25 -0.5t-11 26.5v53q0 17 9.5 26t25.5 16q30 14 60.5 31.5t57.5 36.5q15 11 25 17.5t28 6.5h41q16 0 27 -7.5t11 -30.5v-617q0 -23 -11 -30.5t-27 -7.5h-56q-16 0 -27 7.5t-11 30.5v494z" />
    <glyph glyph-name="two" unicode="2" 
d="M40 83q0 17 7 29t19 25l191 207q36 39 57.5 76t21.5 75t-19 60.5t-59 22.5q-34 0 -57 -20.5t-31 -58.5q-4 -17 -13.5 -27.5t-33.5 -10.5h-48q-23 0 -29.5 11.5t-4.5 26.5q6 49 26 85.5t49.5 60.5t66.5 36t78 12q105 0 158.5 -52t53.5 -137q0 -33 -8 -62.5t-26 -60.5
t-47.5 -66t-72.5 -78l-120 -119h239q23 0 30.5 -11t7.5 -27v-42q0 -16 -7.5 -27t-30.5 -11h-360q-16 0 -27 7.5t-11 30.5v45z" />
    <glyph glyph-name="three" unicode="3" 
d="M37 126q-5 15 0 27t28 14l61 7q18 2 27.5 -7.5t18.5 -25.5q21 -39 81 -39q26 0 44 9.5t29.5 25.5t16.5 36t5 41q0 48 -26 76.5t-83 28.5q-14 0 -23.5 -1.5t-25.5 -3.5q-37 -7 -37 20v64q0 17 7 27.5t20 22.5l118 116h-200q-23 0 -30.5 11t-7.5 27v40q0 16 7.5 27t30.5 11
h319q23 0 30.5 -11t7.5 -27v-51q0 -17 -7.5 -28t-20.5 -23l-135 -129q42 0 78 -14.5t61.5 -40t40 -61t14.5 -77.5q0 -51 -17 -93t-47.5 -73t-73.5 -48t-95 -17q-39 0 -74 8.5t-63.5 25.5t-49 43t-29.5 62z" />
    <glyph glyph-name="four" unicode="4" 
d="M64 169q-16 0 -27 11t-11 27v50q0 17 5.5 36.5t14.5 34.5l202 325q9 15 25 24t33 9h75q16 0 27 -7.5t11 -30.5v-377h34q23 0 30.5 -11t7.5 -27v-26q0 -16 -7.5 -27t-30.5 -11h-34v-131q0 -23 -11 -30.5t-27 -7.5h-51q-16 0 -27 7.5t-11 30.5v131h-228zM292 271v286h-2
l-164 -286h166z" />
    <glyph glyph-name="five" unicode="5" 
d="M41 116q-5 14 -1 26t27 14l64 6q10 1 16.5 -1t11 -6t9 -10.5t10.5 -13.5q11 -14 29 -21.5t45 -7.5q51 0 73 33t22 87q0 45 -23.5 78t-77.5 33q-15 0 -31 -3.5t-30 -11.5q-10 -5 -16.5 -9t-13 -7t-14 -4.5t-18.5 -0.5l-40 2q-16 1 -23 12t-6 27l19 304q1 16 12.5 27
t27.5 11h298q23 0 30.5 -11t7.5 -27v-40q0 -16 -7.5 -27t-30.5 -11h-221l-13 -151q26 16 50.5 23t55.5 7q37 0 73.5 -12.5t65 -39t46 -67.5t17.5 -99q0 -47 -14.5 -90t-43.5 -76t-73 -52.5t-102 -19.5q-78 0 -132.5 30t-78.5 99z" />
    <glyph glyph-name="six" unicode="6" 
d="M266 -13q-72 0 -117.5 30t-71.5 79t-35.5 111t-9.5 125q0 72 14 137.5t44.5 115t79.5 79t118 29.5q45 0 78 -11.5t55.5 -30.5t36 -43t19.5 -48q4 -15 -1 -26.5t-28 -13.5l-56 -5q-19 -2 -28 8t-19 27q-8 13 -22.5 21.5t-40.5 8.5q-33 0 -55.5 -19t-36.5 -49.5t-20 -68
t-6 -73.5h1q16 23 47.5 43t82.5 20q38 0 72.5 -13t61 -39.5t42 -67.5t15.5 -96t-16.5 -97.5t-46 -72t-69.5 -45t-88 -15.5zM175 219q0 -18 4 -39t14.5 -39t27.5 -30t44 -12t44 11t27.5 27.5t14.5 36.5t4 38t-3.5 38t-13 36.5t-26 27.5t-43.5 11t-45 -10t-29 -25t-15.5 -34
t-4.5 -37z" />
    <glyph glyph-name="seven" unicode="7" 
d="M124 37q14 59 38 129t53 141t60 137.5t60 119.5h-253q-23 0 -30.5 11t-7.5 27v40q0 16 7.5 27t30.5 11h356q16 0 27 -11t11 -27v-43q0 -18 -5.5 -31t-13.5 -28q-30 -55 -58.5 -119.5t-52.5 -131t-43.5 -131.5t-32.5 -121q-4 -16 -13.5 -26.5t-33.5 -10.5h-69
q-23 0 -28 11.5t-2 25.5z" />
    <glyph glyph-name="eight" unicode="8" 
d="M34 191q0 71 31.5 111.5t83.5 62.5q-51 23 -73 59t-22 88q0 39 12.5 72t37.5 57t62.5 38t87.5 14t87.5 -14t63 -38.5t38 -57.5t12.5 -71q0 -52 -26.5 -90t-68.5 -56q51 -18 83.5 -60.5t32.5 -114.5q0 -54 -18 -92.5t-48.5 -63.5t-70.5 -36.5t-85 -11.5q-44 0 -84 11.5
t-70 36.5t-48 63.5t-18 92.5zM254 418q36 0 56.5 23t20.5 63q0 39 -20.5 62.5t-56.5 23.5t-56 -23.5t-20 -62.5q0 -40 20 -63t56 -23zM163 201q0 -45 23 -73.5t68 -28.5t68.5 28.5t23.5 73.5q0 33 -9.5 54t-23.5 33.5t-30 17.5t-29 5t-28.5 -5t-29.5 -17.5t-23.5 -33.5
t-9.5 -54z" />
    <glyph glyph-name="nine" unicode="9" 
d="M36 120q-3 15 2 26.5t28 13.5l54 4q19 2 29 -7.5t20 -26.5q8 -13 22.5 -21.5t40.5 -8.5q33 0 55.5 19t36.5 49.5t20 68t6 73.5h-1q-16 -23 -47.5 -43t-82.5 -20q-38 0 -72.5 13t-61 39.5t-42 67t-15.5 96.5q0 55 16.5 97.5t46 72t69.5 45t88 15.5q72 0 117.5 -30
t71.5 -79t35.5 -111t9.5 -125q0 -72 -14 -137.5t-44.5 -115t-79.5 -79t-118 -29.5q-45 0 -77.5 11.5t-55.5 30.5t-37 43t-20 48zM245 355q27 0 45 10t29 25t15.5 34t4.5 37t-4 39t-14.5 39t-27.5 30t-44 12t-44 -11t-27.5 -27.5t-14.5 -36.5t-4 -38t3.5 -38t13 -36.5
t26 -27.5t43.5 -11z" />
    <glyph glyph-name="colon" unicode=":" horiz-adv-x="335" 
d="M168 331q-32 0 -54 22.5t-22 53.5q0 32 22 54t54 22q31 0 53.5 -22t22.5 -54q0 -31 -22.5 -53.5t-53.5 -22.5zM92 65q0 32 22 54t54 22q31 0 53.5 -22t22.5 -54q0 -31 -22.5 -53.5t-53.5 -22.5q-32 0 -54 22.5t-22 53.5z" />
    <glyph glyph-name="semicolon" unicode=";" horiz-adv-x="335" 
d="M173 331q-32 0 -54 22.5t-22 53.5q0 32 22 54t54 22q31 0 53.5 -22t22.5 -54q0 -31 -22.5 -53.5t-53.5 -22.5zM112 109q5 19 18 26.5t30 4.5l51 -9q14 -2 22 -13t1 -28l-85 -199q-9 -22 -22.5 -26t-29.5 -1l-19 4q-15 3 -20 12t1 31z" />
    <glyph glyph-name="less" unicode="&#x3c;" 
d="M81 199q-14 6 -22 13.5t-8 22.5v23q0 14 8 21t22 13l342 150q13 5 24 1.5t11 -24.5v-36q0 -17 -9.5 -27.5t-25.5 -17.5l-212 -92l212 -94q16 -7 25.5 -17.5t9.5 -27.5v-35q0 -21 -11 -24.5t-24 1.5l-342 150v0z" />
    <glyph glyph-name="equal" unicode="=" 
d="M89 275q-23 0 -30.5 11t-7.5 27v20q0 16 7.5 27t30.5 11h332q23 0 30.5 -11t7.5 -27v-20q0 -16 -7.5 -27t-30.5 -11h-332zM89 121q-23 0 -30.5 11t-7.5 27v19q0 16 7.5 27t30.5 11h332q23 0 30.5 -11t7.5 -27v-19q0 -16 -7.5 -27t-30.5 -11h-332z" />
    <glyph glyph-name="greater" unicode="&#x3e;" 
d="M51 107q0 17 9.5 27.5t25.5 17.5l212 94l-212 92q-16 7 -25.5 17.5t-9.5 27.5v36q0 21 11 24.5t24 -1.5l342 -150q14 -6 22 -13t8 -21v-23q0 -15 -8 -22.5t-22 -13.5l-342 -150q-13 -5 -24 -1.5t-11 24.5v35z" />
    <glyph glyph-name="question" unicode="?" horiz-adv-x="520" 
d="M230 212q-14 0 -21 6.5t-7 25.5q0 54 22 90t58 67q27 23 46 48t19 62t-20 54t-55 17q-60 0 -73 -57q-4 -17 -8 -27.5t-28 -10.5h-57q-23 0 -29.5 11.5t-4.5 26.5q11 80 64 124t140 44q38 0 74.5 -10t64.5 -31.5t45 -56t17 -83.5q0 -32 -8 -57t-21 -45.5t-30 -36.5
t-34 -30q-32 -26 -46.5 -49t-14.5 -53q0 -17 -6 -23t-19 -6h-68zM193 65q0 32 22 54t54 22q31 0 53.5 -22t22.5 -54q0 -31 -22.5 -53.5t-53.5 -22.5q-32 0 -54 22.5t-22 53.5z" />
    <glyph glyph-name="at" unicode="@" horiz-adv-x="1000" 
d="M72 245q0 94 35.5 175t96.5 139.5t143 92t175 33.5q81 0 156 -23.5t133 -71t93 -118.5t35 -166q0 -71 -19.5 -125t-51.5 -90t-74 -54.5t-87 -18.5q-48 0 -76 22t-28 57h-7q-9 -14 -22.5 -28.5t-31.5 -25.5t-40 -18t-49 -7q-81 0 -124.5 52.5t-43.5 137.5q0 50 17 98.5
t47.5 86t73 60.5t93.5 23q45 0 76 -18.5t40 -46.5h1l2 9q3 17 11 27.5t25 10.5h38q22 0 27.5 -11.5t2.5 -25.5l-37 -185q-3 -16 -7 -36t-4 -38q0 -20 7.5 -33.5t29.5 -13.5q48 0 77 49t29 133q0 72 -23.5 126.5t-65 91t-99 55.5t-126.5 19q-75 0 -136.5 -26.5t-105 -72.5
t-67.5 -109.5t-24 -136.5q0 -78 25.5 -140.5t71.5 -106.5t109.5 -67.5t139.5 -23.5q84 0 146.5 23.5t115.5 66.5q13 10 25.5 12.5t23.5 -9.5l20 -22q14 -16 11 -29.5t-15 -23.5q-68 -60 -155 -88t-183 -28q-101 0 -184 32.5t-142 90t-91.5 138t-32.5 176.5zM405 206
q0 -14 3 -29.5t11 -29t23 -22.5t38 -9q32 0 54.5 16t36.5 40t20.5 52t6.5 52q0 18 -3.5 36.5t-12.5 33.5t-24 24t-38 9q-28 0 -49.5 -16.5t-36 -41.5t-22 -56t-7.5 -59z" />
    <glyph glyph-name="A" unicode="A" horiz-adv-x="633" 
d="M243 644q6 16 20 26t31 10h67q17 0 31 -10t19 -26l212 -608q7 -20 -2 -28t-23 -8h-83q-17 0 -26 10t-14 26l-34 106h-238l-32 -105q-5 -17 -14 -27t-26 -10h-80q-14 0 -23.5 8t-1.5 28zM411 252l-87 264h-1l-86 -264h174z" />
    <glyph glyph-name="B" unicode="B" horiz-adv-x="597" 
d="M75 642q0 23 11 30.5t27 7.5h203q109 0 164.5 -50t55.5 -135q0 -56 -27 -89.5t-64 -50.5v-2q22 -5 42.5 -18t36.5 -32.5t25 -45.5t9 -58q0 -47 -17 -84t-48.5 -62.5t-75 -39t-95.5 -13.5h-209q-16 0 -27 7.5t-11 30.5v604zM293 400q48 0 77.5 21t29.5 63t-26.5 61
t-68.5 19h-94v-164h82zM300 116q64 0 90.5 25t26.5 61q0 16 -5.5 32t-18 28.5t-32.5 20t-50 7.5h-100v-174h89z" />
    <glyph glyph-name="C" unicode="C" horiz-adv-x="723" 
d="M52 340q0 74 24.5 138.5t69.5 112t107 75t137 27.5q53 0 100 -10t85.5 -31.5t68 -56.5t46.5 -85q5 -14 1.5 -26t-26.5 -17l-74 -14q-17 -3 -26.5 6t-17.5 25q-22 47 -62 67.5t-94 20.5q-44 0 -79.5 -18.5t-60 -50.5t-38 -74t-13.5 -90q0 -54 14 -97t39.5 -72.5t62 -45.5
t80.5 -16t82.5 17.5t63.5 55.5q9 16 19 24.5t27 6.5l82 -10q22 -3 25 -15t-3 -26q-41 -92 -120.5 -133t-181.5 -41q-74 0 -136 23t-107 68t-70 110.5t-25 151.5z" />
    <glyph glyph-name="D" unicode="D" horiz-adv-x="723" 
d="M75 642q0 23 11 30.5t27 7.5h227q156 0 241.5 -87t85.5 -253q0 -81 -26 -144.5t-70.5 -107t-103 -66t-123.5 -22.5h-231q-16 0 -27 7.5t-11 30.5v604zM334 116q52 0 89 20t59.5 52.5t33 72.5t10.5 80q0 43 -10 83t-33.5 71t-62.5 50t-96 19h-113v-448h123z" />
    <glyph glyph-name="E" unicode="E" horiz-adv-x="542" 
d="M75 642q0 23 11 30.5t27 7.5h336q23 0 30.5 -11t7.5 -27v-45q0 -16 -7.5 -27t-30.5 -11h-238v-155h230q23 0 30.5 -11t7.5 -27v-45q0 -16 -7.5 -27t-30.5 -11h-230v-162h238q23 0 30.5 -11t7.5 -27v-45q0 -16 -7.5 -27t-30.5 -11h-336q-16 0 -27 7.5t-11 30.5v604z" />
    <glyph glyph-name="F" unicode="F" horiz-adv-x="524" 
d="M75 642q0 23 11 30.5t27 7.5h323q23 0 30.5 -11t7.5 -27v-45q0 -16 -7.5 -27t-30.5 -11h-225v-155h218q23 0 30.5 -11t7.5 -27v-45q0 -16 -7.5 -27t-30.5 -11h-218v-245q0 -23 -11 -30.5t-27 -7.5h-60q-16 0 -27 7.5t-11 30.5v604z" />
    <glyph glyph-name="G" unicode="G" horiz-adv-x="753" 
d="M52 340q0 69 23.5 132.5t66.5 112.5t104.5 78.5t136.5 29.5q72 0 122 -16t84 -40.5t55 -54.5t33 -57q7 -13 3.5 -24.5t-25.5 -14.5l-75 -10q-18 -2 -27 7t-20 24q-20 30 -56 47.5t-94 17.5q-40 0 -74.5 -16t-60 -46t-40.5 -73t-15 -97q0 -46 14 -88t40 -74t62.5 -51
t82.5 -19q43 0 75 11t53 29.5t31.5 43.5t12.5 54h-125q-23 0 -30.5 11t-7.5 27v35q0 16 7.5 27t30.5 11h239q15 0 26 -11.5t10 -26.5q-9 -165 -94 -248.5t-237 -83.5q-75 0 -136.5 29.5t-104.5 78.5t-66.5 112.5t-23.5 132.5z" />
    <glyph glyph-name="H" unicode="H" horiz-adv-x="714" 
d="M75 642q0 23 11 30.5t27 7.5h60q16 0 27 -7.5t11 -30.5v-238h293v238q0 23 11 30.5t27 7.5h59q16 0 27 -7.5t11 -30.5v-604q0 -23 -11 -30.5t-27 -7.5h-59q-16 0 -27 7.5t-11 30.5v245h-293v-245q0 -23 -11 -30.5t-27 -7.5h-60q-16 0 -27 7.5t-11 30.5v604z" />
    <glyph glyph-name="I" unicode="I" horiz-adv-x="289" 
d="M77 642q0 23 11 30.5t27 7.5h59q16 0 27 -7.5t11 -30.5v-604q0 -23 -11 -30.5t-27 -7.5h-59q-16 0 -27 7.5t-11 30.5v604z" />
    <glyph glyph-name="J" unicode="J" horiz-adv-x="401" 
d="M42 78q0 14 7 19t17 5q8 0 15.5 -0.5t17.5 -0.5q56 0 77 29.5t21 94.5v334h-76q-23 0 -30.5 11t-7.5 27v45q0 16 7.5 27t30.5 11h174q16 0 27 -7.5t11 -30.5v-417q0 -68 -16.5 -113.5t-45.5 -73.5t-70 -39.5t-90 -11.5q-29 0 -49 6t-20 26v59z" />
    <glyph glyph-name="K" unicode="K" horiz-adv-x="597" 
d="M75 642q0 23 11 30.5t27 7.5h60q16 0 27 -7.5t11 -30.5v-281h1l196 287q11 15 23.5 23.5t29.5 8.5h93q9 0 15.5 -3.5t6.5 -12.5q0 -7 -7 -16l-211 -295l214 -316q3 -5 6.5 -10.5t3.5 -10.5q0 -16 -23 -16h-100q-17 0 -29.5 9t-22.5 23l-195 302h-1v-296q0 -23 -11 -30.5
t-27 -7.5h-60q-16 0 -27 7.5t-11 30.5v604z" />
    <glyph glyph-name="L" unicode="L" horiz-adv-x="497" 
d="M75 642q0 23 11 30.5t27 7.5h60q16 0 27 -7.5t11 -30.5v-515h223q23 0 30.5 -11t7.5 -27v-51q0 -16 -7.5 -27t-30.5 -11h-321q-16 0 -27 7.5t-11 30.5v604z" />
    <glyph glyph-name="M" unicode="M" horiz-adv-x="882" 
d="M75 642q0 23 11 30.5t27 7.5h107q17 0 26.5 -9.5t15.5 -25.5l182 -454l177 453q6 17 17 26.5t28 9.5h103q16 0 27 -7.5t11 -30.5v-604q0 -23 -11 -30.5t-27 -7.5h-54q-16 0 -27 7.5t-11 30.5v443h-2l-184 -447q-6 -15 -13 -24.5t-24 -9.5h-29q-17 0 -24.5 9.5t-13.5 24.5
l-180 438h-2v-434q0 -23 -11 -30.5t-27 -7.5h-54q-16 0 -27 7.5t-11 30.5v604z" />
    <glyph glyph-name="N" unicode="N" horiz-adv-x="723" 
d="M75 642q0 23 11 30.5t27 7.5h88q17 0 28 -9t20 -24l267 -442h2v437q0 23 11 30.5t27 7.5h54q16 0 27 -7.5t11 -30.5v-604q0 -23 -11 -30.5t-27 -7.5h-86q-17 0 -26.5 9t-18.5 24l-272 449h-2v-444q0 -23 -11 -30.5t-27 -7.5h-54q-16 0 -27 7.5t-11 30.5v604z" />
    <glyph glyph-name="O" unicode="O" horiz-adv-x="805" 
d="M52 339q0 69 23.5 132.5t68 113t109.5 79t149 29.5t149 -29.5t110 -79t68 -113t23 -132.5q0 -68 -23 -131.5t-68 -112.5t-110 -78.5t-149 -29.5t-149 29.5t-109.5 78.5t-68 112.5t-23.5 131.5zM199 339q0 -45 13 -87t38.5 -74t63.5 -51t88 -19t88.5 19t64 51t38.5 74
t13 87q0 46 -13 88t-38.5 74t-64 51t-88.5 19t-88 -19t-63.5 -51t-38.5 -74t-13 -88z" />
    <glyph glyph-name="P" unicode="P" horiz-adv-x="597" 
d="M75 642q0 23 11 30.5t27 7.5h196q40 0 82 -10.5t76 -35t56 -66t22 -104.5q0 -59 -20 -100t-52 -66.5t-72.5 -37t-80.5 -11.5h-109v-211q0 -23 -11 -30.5t-27 -7.5h-60q-16 0 -27 7.5t-11 30.5v604zM299 364q34 0 55.5 9.5t34 24t17 32t4.5 34.5t-6 35t-19.5 32.5
t-34.5 23.5t-50 9h-89v-200h88z" />
    <glyph glyph-name="Q" unicode="Q" horiz-adv-x="805" 
d="M52 339q0 69 23.5 132.5t68 113t109.5 79t149 29.5t149 -29.5t110 -79t68 -113t23 -132.5t-22.5 -131.5t-67.5 -111.5l29 -25q10 -8 13.5 -15.5t3 -14t-4.5 -12t-9 -11.5l-27 -29q-11 -11 -23 -16t-32 13l-43 39q-35 -18 -77 -28t-90 -10q-84 0 -149 29.5t-109.5 78.5
t-68 112.5t-23.5 131.5zM199 339q0 -45 13 -87t38.5 -74t63.5 -51t88 -19q37 0 63 10l-39 35q-10 9 -13.5 16t-3 13.5t4.5 12t9 11.5l22 25q11 11 23 15.5t32 -12.5l59 -50q47 65 47 155q0 46 -13 88t-38.5 74t-64 51t-88.5 19t-88 -19t-63.5 -51t-38.5 -74t-13 -88z" />
    <glyph glyph-name="R" unicode="R" horiz-adv-x="597" 
d="M75 642q0 23 11 30.5t27 7.5h216q54 0 95.5 -16t70 -43.5t43.5 -64.5t15 -79q0 -27 -7.5 -56t-23 -55.5t-39 -47.5t-56.5 -31l140 -254q5 -10 5 -15q0 -7 -6 -12.5t-21 -5.5h-95q-17 0 -26.5 9.5t-17.5 24.5l-116 234h-79v-230q0 -23 -11 -30.5t-27 -7.5h-60
q-16 0 -27 7.5t-11 30.5v604zM301 379q35 0 57.5 8.5t36 21.5t18.5 29.5t5 33.5q0 18 -5.5 35t-19 29.5t-37 20t-59.5 7.5h-86v-185h90z" />
    <glyph glyph-name="S" unicode="S" horiz-adv-x="603" 
d="M43 161q-3 15 2.5 26.5t28.5 12.5l69 2q17 1 24.5 -9t13.5 -27q13 -35 43 -49t74 -14q58 0 91 18.5t33 63.5q0 41 -37.5 61.5t-110.5 40.5q-51 14 -90 30.5t-65 39t-39 53t-13 74.5q0 42 16.5 79.5t48 66.5t78.5 46t107 17q53 0 94 -11.5t70.5 -31.5t47 -47.5t23.5 -58.5
q3 -15 -2.5 -26.5t-28.5 -12.5l-65 -3q-19 -1 -28 9t-19 27q-11 20 -34.5 31t-61.5 11q-48 0 -77.5 -19.5t-29.5 -59.5q0 -20 7.5 -34.5t23.5 -25t41.5 -19.5t62.5 -19q49 -13 89 -29t68.5 -39.5t44.5 -56.5t16 -79q0 -48 -18 -87.5t-51.5 -67t-82 -42.5t-109.5 -15
q-63 0 -108 14t-75.5 38t-47.5 55.5t-24 66.5z" />
    <glyph glyph-name="T" unicode="T" horiz-adv-x="524" 
d="M194 559h-141q-23 0 -30.5 11t-7.5 27v45q0 16 7.5 27t30.5 11h418q23 0 30.5 -11t7.5 -27v-45q0 -16 -7.5 -27t-30.5 -11h-141v-521q0 -23 -11 -30.5t-27 -7.5h-60q-16 0 -27 7.5t-11 30.5v521z" />
    <glyph glyph-name="U" unicode="U" horiz-adv-x="687" 
d="M69 642q0 23 11 30.5t27 7.5h59q16 0 27 -7.5t11 -30.5v-361q0 -85 33 -129t106 -44q72 0 106.5 44t34.5 129v361q0 23 11 30.5t27 7.5h59q16 0 27 -7.5t11 -30.5v-360q0 -80 -22.5 -136t-60 -91t-88 -51.5t-105.5 -16.5q-56 0 -105.5 16.5t-87 51.5t-59.5 91t-22 136
v360z" />
    <glyph glyph-name="V" unicode="V" horiz-adv-x="597" 
d="M25 644q-7 20 2.5 28t23.5 8h79q17 0 27.5 -10t15.5 -27l135 -463h2l132 463q5 17 14 27t26 10h78q14 0 23.5 -8t2.5 -28l-196 -608q-5 -16 -19 -26t-31 -10h-67q-17 0 -31 10t-19 26z" />
    <glyph glyph-name="W" unicode="W" horiz-adv-x="904" 
d="M37 643q-5 21 4.5 29t23.5 8h74q17 0 26.5 -10.5t13.5 -26.5l98 -463h2l99 463q4 16 13 26.5t26 10.5h83q17 0 26.5 -10.5t13.5 -26.5l103 -463h2l92 463q3 16 13 26.5t27 10.5h72q14 0 23.5 -7.5t5.5 -29.5l-155 -606q-4 -17 -17 -27t-30 -10h-68q-17 0 -30 10.5
t-17 26.5l-101 437h-2l-103 -437q-4 -16 -17 -26.5t-30 -10.5h-68q-17 0 -30 10t-18 27z" />
    <glyph glyph-name="X" unicode="X" horiz-adv-x="597" 
d="M226 344l-181 303q-10 17 -2.5 25t20.5 8h96q17 0 27.5 -9t18.5 -25l106 -196l105 196q8 16 18.5 25t27.5 9h93q13 0 21 -8t-3 -25l-184 -303l191 -311q11 -17 3 -25t-21 -8h-101q-17 0 -27.5 9t-19.5 24l-110 196l-111 -196q-9 -15 -19.5 -24t-27.5 -9h-96
q-13 0 -20.5 8t2.5 24z" />
    <glyph glyph-name="Y" unicode="Y" horiz-adv-x="570" 
d="M227 263l-197 383q-9 18 -0.5 26t21.5 8h93q17 0 26.5 -9.5t17.5 -25.5l111 -248l110 248q7 16 16.5 25.5t26.5 9.5h83q13 0 21.5 -8t-0.5 -26l-194 -383v-225q0 -23 -11 -30.5t-27 -7.5h-59q-16 0 -27 7.5t-11 30.5v225z" />
    <glyph glyph-name="Z" unicode="Z" horiz-adv-x="588" 
d="M42 83q0 17 6 29t17 26l314 420h-277q-23 0 -30.5 11t-7.5 27v46q0 16 7.5 27t30.5 11h408q16 0 27 -7.5t11 -30.5v-45q0 -17 -6 -29t-17 -26l-315 -421h300q23 0 30.5 -11t7.5 -27v-45q0 -16 -7.5 -27t-30.5 -11h-430q-16 0 -27 7.5t-11 30.5v45z" />
    <glyph glyph-name="bracketleft" unicode="[" horiz-adv-x="350" 
d="M67 709q0 23 11 30.5t27 7.5h144q23 0 30.5 -11t7.5 -27v-13q0 -16 -7.5 -27t-30.5 -11h-68v-703h68q23 0 30.5 -11t7.5 -27v-13q0 -16 -7.5 -27t-30.5 -11h-144q-16 0 -27 7.5t-11 30.5v805z" />
    <glyph glyph-name="backslash" unicode="\" horiz-adv-x="400" 
d="M39 656q-8 19 1.5 27.5t23.5 8.5h33q17 0 26 -10t15 -26l240 -633q7 -20 -2.5 -28t-22.5 -8h-34q-17 0 -26 10t-15 26z" />
    <glyph glyph-name="bracketright" unicode="]" horiz-adv-x="350" 
d="M283 -96q0 -23 -11 -30.5t-27 -7.5h-144q-23 0 -30.5 11t-7.5 27v13q0 16 7.5 27t30.5 11h68v703h-68q-23 0 -30.5 11t-7.5 27v13q0 16 7.5 27t30.5 11h144q16 0 27 -7.5t11 -30.5v-805z" />
    <glyph glyph-name="asciicircum" unicode="^" 
d="M76 297q-6 0 -12 1t-9.5 4.5t-3 9.5t7.5 17l138 213q9 14 19 22.5t27 8.5h24q17 0 27 -8.5t19 -22.5l137 -213q7 -11 7.5 -17t-3 -9.5t-9.5 -4.5t-12 -1h-47q-17 0 -27 8.5t-20 23.5l-86 128l-83 -128q-10 -14 -19.5 -23t-26.5 -9h-48v0z" />
    <glyph glyph-name="underscore" unicode="_" horiz-adv-x="500" 
d="M0 -75h500v-50h-500v50z" />
    <glyph glyph-name="grave" unicode="`" horiz-adv-x="255" 
d="M175 554q-17 0 -29 7t-24 20l-72 73q-8 8 -4 17.5t15 9.5h69q17 0 26.5 -9t18.5 -23l39 -63q6 -11 6.5 -17t-3 -9.5t-9.5 -4.5t-12 -1h-21v0z" />
    <glyph glyph-name="a" unicode="a" horiz-adv-x="552" 
d="M46 134q0 45 18.5 73.5t52 45t81 23t105.5 6.5h51v19q0 42 -18.5 64.5t-63.5 22.5q-49 0 -71 -25q-7 -8 -11 -14.5t-8.5 -11t-10.5 -7t-17 -2.5h-59q-22 0 -27.5 12t-0.5 26q7 25 23.5 46t42.5 37t63 25t85 9q58 0 96.5 -13t61.5 -36.5t32 -57t9 -73.5v-230
q0 -9 0.5 -18.5t1.5 -19.5q2 -14 -3 -24.5t-29 -10.5h-44q-24 0 -32.5 10.5t-10.5 27.5l-4 24h-2q-20 -37 -55.5 -55.5t-92.5 -18.5q-28 0 -57 7.5t-52.5 24.5t-38.5 45t-15 69zM178 140q0 -34 21 -46.5t54 -12.5q19 0 37 5.5t32.5 17.5t23 30.5t8.5 45.5v26h-37
q-26 0 -50.5 -2.5t-44.5 -9.5t-32 -20t-12 -34z" />
    <glyph glyph-name="b" unicode="b" horiz-adv-x="616" 
d="M68 668q0 24 11 31t27 7h55q16 0 27 -7.5t11 -30.5v-262h1q34 43 69.5 60t81.5 17q51 0 91.5 -20t68.5 -54t43 -79t15 -94t-16 -94t-45 -79.5t-69.5 -55t-89.5 -20.5q-46 0 -85 18.5t-68 60.5h-2v-28q0 -23 -11 -30.5t-27 -7.5h-50q-16 0 -27 7.5t-11 30.5v630zM195 234
q0 -29 8 -55t23 -45t37 -30t50 -11q29 0 51 11.5t37 30.5t22.5 44.5t7.5 53.5q0 27 -7.5 51.5t-21.5 44t-36 31t-50 11.5q-31 0 -53.5 -11.5t-37.5 -30.5t-22.5 -43.5t-7.5 -51.5z" />
    <glyph glyph-name="c" unicode="c" horiz-adv-x="550" 
d="M47 231q0 54 18 100.5t51.5 80t80.5 52.5t105 19q78 0 127 -24t77 -66q8 -12 7 -25t-21 -21l-53 -20q-17 -6 -29 0.5t-24 20.5q-13 14 -32 23.5t-47 9.5q-34 0 -57 -13t-37.5 -34.5t-21 -50t-6.5 -58.5q0 -57 31 -94.5t89 -37.5q52 0 80 33q12 13 23.5 19.5t28.5 0.5
l54 -20q16 -6 19 -20t-6 -26q-30 -42 -80.5 -67t-122.5 -25q-65 0 -113 18.5t-79.5 50.5t-46.5 76.5t-15 97.5z" />
    <glyph glyph-name="d" unicode="d" horiz-adv-x="616" 
d="M47 236q0 49 15 94t43 79t68.5 54t91.5 20q45 0 80.5 -17t68.5 -60h2v262q0 23 11 30.5t27 7.5h55q16 0 27 -7.5t11 -30.5v-630q0 -23 -11 -30.5t-27 -7.5h-50q-16 0 -27 7.5t-11 30.5v28h-1q-29 -42 -68.5 -60.5t-84.5 -18.5q-49 0 -89.5 20.5t-69.5 55t-45 79.5t-16 94
zM184 233q0 -28 8 -53.5t23 -44.5t37.5 -30.5t51.5 -11.5q28 0 49.5 11t36.5 30t23 45t8 55q0 27 -7.5 51.5t-22.5 43.5t-38 30.5t-54 11.5q-28 0 -49.5 -11.5t-36 -31t-22 -44t-7.5 -51.5z" />
    <glyph glyph-name="e" unicode="e" horiz-adv-x="580" 
d="M47 234q0 57 18 103t51.5 78.5t80.5 50t104 17.5q120 0 180 -65t60 -180q0 -22 -12 -29.5t-27 -7.5h-321q0 -21 8 -41.5t24 -36t40.5 -25t56.5 -9.5q48 0 77 24q15 13 28.5 19.5t33.5 1.5l47 -12q21 -5 23 -17.5t-6 -24.5q-30 -48 -81.5 -70t-127.5 -22
q-61 0 -108.5 17.5t-80.5 49.5t-50.5 77.5t-17.5 101.5zM407 285q0 18 -5 36.5t-16.5 33.5t-31 25t-49.5 10q-34 0 -57 -10.5t-37.5 -26t-21 -34t-8.5 -34.5h226z" />
    <glyph glyph-name="f" unicode="f" horiz-adv-x="332" 
d="M88 368h-36q-23 0 -30.5 11t-7.5 27v26q0 16 7.5 27t30.5 11h36v41q0 34 10 69t32 63t56.5 45.5t82.5 17.5q8 0 15.5 -0.5t15.5 -1.5q13 -2 20.5 -7t7.5 -25v-52q0 -9 -5 -16t-19 -7h-21q-35 0 -49.5 -23.5t-14.5 -68.5v-35h65q23 0 30.5 -11t7.5 -27v-26q0 -16 -7.5 -27
t-30.5 -11h-65v-330q0 -23 -11 -30.5t-27 -7.5h-55q-16 0 -27 7.5t-11 30.5v330z" />
    <glyph glyph-name="g" unicode="g" horiz-adv-x="616" 
d="M149 -49q10 1 16 -0.5t10.5 -5.5t9.5 -9.5t13 -12.5q15 -12 37.5 -17.5t48.5 -5.5q72 0 104.5 30t32.5 106v48l-1 1q-22 -45 -61.5 -65t-90.5 -20q-44 0 -84 15.5t-70 46t-47.5 75t-17.5 101.5q0 49 16.5 93.5t46 78t70.5 53.5t91 20q54 0 92.5 -24.5t55.5 -62.5h1v36
q0 23 11 30.5t27 7.5h50q16 0 27 -7.5t11 -30.5v-395q0 -53 -14.5 -96.5t-46.5 -75t-82 -48.5t-122 -17q-88 0 -142.5 26t-78.5 75q-7 14 -4 26t25 15zM185 241q0 -42 11.5 -69t29.5 -42.5t39 -21.5t40 -6q13 0 32.5 5t38 19.5t32 41.5t13.5 71q0 66 -31 99t-91 33
q-26 0 -47 -10t-36 -28t-23 -41.5t-8 -50.5z" />
    <glyph glyph-name="h" unicode="h" horiz-adv-x="572" 
d="M68 668q0 23 11 30.5t27 7.5h55q16 0 27 -7.5t11 -30.5v-259h2q28 43 63 58.5t73 15.5q42 0 74 -13t53 -35t31.5 -52t10.5 -64v-281q0 -23 -11 -30.5t-27 -7.5h-56q-16 0 -27 7.5t-11 30.5v248q0 25 -7.5 42.5t-20 28t-28 15t-30.5 4.5q-40 0 -64.5 -30.5t-24.5 -78.5
v-229q0 -23 -11 -30.5t-27 -7.5h-55q-16 0 -27 7.5t-11 30.5v630z" />
    <glyph glyph-name="i" unicode="i" horiz-adv-x="261" 
d="M131 539q-17 0 -31 7t-24.5 17.5t-16 24t-5.5 27.5q0 30 21.5 54t55.5 24q15 0 28.5 -6t24 -16t17 -24t6.5 -30q0 -15 -6 -29t-16.5 -25t-24.5 -17.5t-29 -6.5zM65 432q0 23 11 30.5t27 7.5h55q16 0 27 -7.5t11 -30.5v-394q0 -23 -11 -30.5t-27 -7.5h-55q-16 0 -27 7.5
t-11 30.5v394z" />
    <glyph glyph-name="j" unicode="j" horiz-adv-x="261" 
d="M133 539q-17 0 -31 7t-24.5 17.5t-16 24t-5.5 27.5q0 30 21.5 54t55.5 24q15 0 28.5 -6t24 -16t17 -24t6.5 -30q0 -15 -6 -29t-16.5 -25t-24.5 -17.5t-29 -6.5zM67 432q0 23 11 30.5t27 7.5h55q16 0 27 -7.5t11 -30.5v-454q0 -54 -15 -89t-39.5 -54.5t-55.5 -27t-63 -7.5
q-13 0 -24 5t-11 24v64q0 8 4 15t18 7q25 0 40 15.5t15 49.5v452z" />
    <glyph glyph-name="k" unicode="k" horiz-adv-x="507" 
d="M68 668q0 23 11 30.5t27 7.5h54q16 0 27 -7.5t11 -30.5v-383h1l124 155q11 14 23 22t29 8h86q17 0 17 -13q0 -6 -8 -15l-159 -181l177 -231q7 -8 7 -15q0 -15 -21 -15h-92q-17 0 -28.5 8.5t-21.5 22.5l-133 183h-1v-176q0 -23 -11 -30.5t-27 -7.5h-54q-16 0 -27 7.5
t-11 30.5v630z" />
    <glyph glyph-name="l" unicode="l" horiz-adv-x="261" 
d="M65 668q0 23 11 30.5t27 7.5h55q16 0 27 -7.5t11 -30.5v-630q0 -23 -11 -30.5t-27 -7.5h-55q-16 0 -27 7.5t-11 30.5v630z" />
    <glyph glyph-name="m" unicode="m" horiz-adv-x="855" 
d="M68 432q0 23 11 30.5t27 7.5h49q16 0 27 -7.5t11 -30.5v-23h2q31 42 69 58t80 16q12 0 29.5 -2.5t36.5 -10t37 -22t31 -38.5q17 23 37.5 37.5t41 22.5t39.5 10.5t34 2.5q30 0 58.5 -9t51 -27t36.5 -45t14 -64v-300q0 -23 -11 -30.5t-27 -7.5h-55q-16 0 -27 7.5t-11 30.5
v265q0 27 -16.5 50t-54.5 23q-21 0 -38 -8t-29 -20t-18.5 -27t-6.5 -29v-254q0 -23 -11 -30.5t-27 -7.5h-56q-16 0 -27 7.5t-11 30.5v252q0 37 -18.5 61.5t-60.5 24.5q-20 0 -36 -8t-27 -20.5t-17 -29t-6 -33.5v-247q0 -23 -11 -30.5t-27 -7.5h-55q-16 0 -27 7.5t-11 30.5
v394z" />
    <glyph glyph-name="n" unicode="n" horiz-adv-x="572" 
d="M68 432q0 23 11 30.5t27 7.5h49q16 0 27 -7.5t11 -30.5v-23h2q30 43 68 58.5t78 15.5q42 0 73.5 -13t51.5 -35t30 -52t10 -64v-281q0 -23 -11 -30.5t-27 -7.5h-56q-16 0 -27 7.5t-11 30.5v248q0 25 -7 42.5t-18.5 28t-26.5 15t-31 4.5q-39 0 -65.5 -30.5t-26.5 -78.5
v-229q0 -23 -11 -30.5t-27 -7.5h-55q-16 0 -27 7.5t-11 30.5v394z" />
    <glyph glyph-name="o" unicode="o" horiz-adv-x="613" 
d="M47 236q0 46 16.5 90.5t49.5 79.5t81.5 56t111.5 21q68 0 117.5 -21t81 -56t46.5 -79.5t15 -90.5q0 -47 -16.5 -92t-49.5 -79.5t-81.5 -55.5t-112.5 -21q-69 0 -118 21t-80.5 55.5t-46 79.5t-14.5 92zM180 235q0 -63 30 -103.5t96 -40.5q65 0 95 40.5t30 103.5t-30 104
t-95 41t-95.5 -41t-30.5 -104z" />
    <glyph glyph-name="p" unicode="p" horiz-adv-x="616" 
d="M68 432q0 23 11 30.5t27 7.5h49q16 0 27 -7.5t11 -30.5v-27h2q29 42 68.5 60t85.5 18q49 0 89.5 -20.5t69.5 -55t45 -79.5t16 -94q0 -50 -15 -94.5t-43 -78.5t-68.5 -54t-91.5 -20q-46 0 -81.5 16t-68.5 61h-2v-226q0 -23 -11 -30.5t-27 -7.5h-55q-16 0 -27 7.5t-11 30.5
v594zM194 236q0 -26 7.5 -51t23 -44t38.5 -30.5t54 -11.5q28 0 49.5 11.5t36 31t21.5 44.5t7 52q0 28 -7.5 53t-22.5 44t-37 30t-51 11q-28 0 -50 -11t-37.5 -29.5t-23.5 -44t-8 -55.5z" />
    <glyph glyph-name="q" unicode="q" horiz-adv-x="616" 
d="M47 234q0 49 16 94t45 79.5t69.5 55t89.5 20.5q46 0 85 -18t68 -60h2v27q0 23 11 30.5t27 7.5h49q16 0 27 -7.5t11 -30.5v-594q0 -23 -11 -30.5t-27 -7.5h-55q-16 0 -27 7.5t-11 30.5v226h-2q-33 -45 -68 -61t-81 -16q-51 0 -91.5 20t-68.5 54t-43 78.5t-15 94.5z
M185 238q0 -27 7.5 -52t21.5 -44.5t35.5 -31t49.5 -11.5q31 0 54 11.5t38 30.5t22.5 44t7.5 51q0 30 -8 55.5t-23 44t-37 29.5t-50 11q-29 0 -51 -11t-37 -30t-22.5 -44t-7.5 -53z" />
    <glyph glyph-name="r" unicode="r" horiz-adv-x="374" 
d="M70 432q0 23 11 30.5t27 7.5h50q16 0 27 -7.5t11 -30.5v-81h2q8 29 26.5 55.5t42.5 46.5q8 7 28 18.5t43 11.5q22 0 22 -23v-74q0 -15 -8.5 -21t-23 -10t-33 -9.5t-38.5 -20.5q-25 -19 -40.5 -47t-15.5 -66v-174q0 -23 -11 -30.5t-27 -7.5h-55q-16 0 -27 7.5t-11 30.5
v394z" />
    <glyph glyph-name="s" unicode="s" horiz-adv-x="500" 
d="M50 99q-4 14 4.5 26t23.5 13l57 2q11 0 17.5 -2t11 -6.5t9 -11.5t11.5 -15q12 -14 30.5 -18.5t38.5 -4.5q12 0 26 2t25.5 7.5t19 15t7.5 24.5q0 24 -21.5 34.5t-53 16.5t-68 12t-67.5 21t-51 42t-17 75q1 27 12 54t34 48.5t59.5 35t88.5 13.5q79 0 131.5 -27t69.5 -84
q5 -14 0 -25.5t-28 -13.5l-57 -3q-11 -1 -17 1.5t-10 7t-8 11t-11 14.5q-23 24 -71 24q-26 0 -47.5 -10.5t-21.5 -31.5q0 -25 21.5 -36.5t53.5 -18t69 -12.5t69 -20t53.5 -40.5t21.5 -73.5q0 -23 -9.5 -50.5t-33.5 -51.5t-66 -40t-108 -16q-74 0 -127 25t-71 87z" />
    <glyph glyph-name="t" unicode="t" horiz-adv-x="343" 
d="M88 368h-33q-23 0 -30.5 11t-7.5 27v26q0 16 7.5 27t30.5 11h33v97q0 23 11 30.5t27 7.5h56q16 0 27 -7.5t11 -30.5v-97h72q23 0 30.5 -11t7.5 -27v-26q0 -16 -7.5 -27t-30.5 -11h-72v-227q0 -24 13 -32.5t39 -8.5h13q9 0 17.5 -4.5t8.5 -24.5v-34q0 -18 -10 -26t-24 -11
q-11 -3 -23.5 -4t-21.5 -1q-32 0 -58.5 6t-45.5 21t-29.5 40.5t-10.5 64.5v241z" />
    <glyph glyph-name="u" unicode="u" horiz-adv-x="572" 
d="M66 432q0 23 11 30.5t27 7.5h55q16 0 27 -7.5t11 -30.5v-248q0 -26 7 -43t19 -28t26.5 -15.5t29.5 -4.5q42 0 67.5 31t25.5 79v229q0 23 11 30.5t27 7.5h56q16 0 27 -7.5t11 -30.5v-394q0 -23 -11 -30.5t-27 -7.5h-51q-16 0 -27 7.5t-11 30.5v24h-2q-29 -43 -67 -59
t-78 -16q-43 0 -74 13t-51 35.5t-29.5 52t-9.5 63.5v281z" />
    <glyph glyph-name="v" unicode="v" horiz-adv-x="507" 
d="M28 434q-8 20 1.5 28t23.5 8h79q17 0 25.5 -10t13.5 -26l90 -285h2l90 285q5 16 14 26t26 10h78q14 0 23 -8t1 -28l-152 -398q-6 -16 -20.5 -26t-31.5 -10h-62q-17 0 -31 10t-20 26z" />
    <glyph glyph-name="w" unicode="w" horiz-adv-x="769" 
d="M28 433q-6 21 3.5 29t23.5 8h74q17 0 24.5 -10.5t11.5 -26.5l66 -289h2l79 289q5 17 13 27t25 10h83q17 0 25.5 -10t13.5 -27l83 -289h2l66 289q4 16 11.5 26.5t24.5 10.5h67q14 0 24 -8t3 -29l-120 -396q-5 -17 -18.5 -27t-30.5 -10h-63q-17 0 -30 10t-18 27l-80 289h-2
l-87 -289q-5 -17 -18.5 -27t-30.5 -10h-60q-17 0 -30.5 10t-18.5 27z" />
    <glyph glyph-name="x" unicode="x" horiz-adv-x="507" 
d="M181 235l-140 204q-11 15 -3.5 23t19.5 8h97q17 0 28 -9t19 -24l59 -100l63 101q9 14 20 23t28 9h93q12 0 19.5 -8.5t-3.5 -22.5l-143 -199l147 -209q11 -15 3.5 -23t-19.5 -8h-97q-17 0 -28 9t-20 23l-66 106l-63 -105q-9 -15 -20 -24t-28 -9h-92q-12 0 -19.5 8t3.5 23z
" />
    <glyph glyph-name="y" unicode="y" horiz-adv-x="507" 
d="M30 434q-8 20 1.5 28t23.5 8h82q17 0 25.5 -10t13.5 -26l88 -278h2l88 278q5 16 14 26t26 10h75q14 0 23 -8t1 -28l-231 -598q-6 -16 -15.5 -26t-26.5 -10h-72q-14 0 -23 6t0 29l68 165z" />
    <glyph glyph-name="z" unicode="z" horiz-adv-x="469" 
d="M36 69q0 17 7 29t18 26l205 239h-179q-23 0 -30.5 11t-7.5 27v31q0 16 7.5 27t30.5 11h308q16 0 27 -7.5t11 -30.5v-34q0 -17 -7 -28t-18 -25l-202 -239h189q23 0 30.5 -11t7.5 -27v-30q0 -16 -7.5 -27t-30.5 -11h-321q-16 0 -27 7.5t-11 30.5v31z" />
    <glyph glyph-name="braceleft" unicode="{" horiz-adv-x="350" 
d="M90 193q0 25 -11 40t-25 23q-17 9 -27 14.5t-10 24.5v22q0 19 10 25t27 15q14 8 25 23t11 41v204q0 31 12 54t30 38t39.5 22.5t40.5 7.5h42q23 0 30.5 -6t7.5 -22v-36q0 -8 -5 -13.5t-13 -5.5h-21q-32 0 -40.5 -20.5t-8.5 -51.5v-184q0 -29 -10.5 -47.5t-25.5 -30
t-32.5 -16.5t-31.5 -6v-2q14 -2 31.5 -7t32.5 -16.5t25.5 -30t10.5 -47.5v-184q0 -31 8.5 -51t40.5 -20h21q8 0 13 -5.5t5 -13.5v-37q0 -16 -7.5 -22t-30.5 -6h-42q-19 0 -40.5 7.5t-39.5 22.5t-30 38t-12 54v205z" />
    <glyph glyph-name="bar" unicode="|" horiz-adv-x="250" 
d="M78 714q0 23 11 30.5t27 7.5h18q16 0 27 -7.5t11 -30.5v-816q0 -23 -11 -30.5t-27 -7.5h-18q-16 0 -27 7.5t-11 30.5v816z" />
    <glyph glyph-name="braceright" unicode="}" horiz-adv-x="350" 
d="M260 420q0 -25 11 -40t25 -23q17 -9 27 -14.5t10 -24.5v-22q0 -19 -10 -25t-27 -15q-14 -8 -25 -23t-11 -41v-204q0 -31 -12 -54t-30 -38t-39.5 -22.5t-40.5 -7.5h-42q-23 0 -30.5 6t-7.5 22v36q0 8 5 13.5t13 5.5h21q32 0 40.5 20.5t8.5 51.5v184q0 28 10.5 47
t25.5 30.5t32.5 16.5t31.5 6v2q-14 2 -31.5 7t-32.5 16.5t-25.5 30t-10.5 47.5v184q0 31 -8.5 51t-40.5 20h-21q-8 0 -13 5.5t-5 13.5v37q0 16 7.5 22t30.5 6h42q19 0 40.5 -7.5t39.5 -22.5t30 -38t12 -54v-205z" />
    <glyph glyph-name="asciitilde" unicode="~" 
d="M66 217q-17 14 -16.5 28t10.5 27q29 35 56 45t52 10q32 0 53.5 -9t46.5 -26q26 -17 41.5 -22.5t32.5 -5.5q20 0 37 18q10 11 21 15.5t31 -11.5l14 -11q17 -13 16 -27.5t-11 -26.5q-29 -35 -55.5 -45t-52.5 -10q-28 0 -51.5 9t-49.5 25q-28 17 -43 22t-29 5q-10 0 -19 -3
t-19 -14t-21.5 -16t-30.5 12z" />
    <glyph glyph-name="uni00A0" unicode="&#xa0;" horiz-adv-x="255" 
 />
    <glyph glyph-name="exclamdown" unicode="&#xa1;" horiz-adv-x="340" 
d="M170 331q-32 0 -54 22t-22 54q0 31 22 53.5t54 22.5t54 -22.5t22 -53.5q0 -32 -22 -54t-54 -22zM105 201q0 23 11 30.5t27 7.5h54q16 0 27 -7.5t11 -30.5v-371q0 -23 -11 -30.5t-27 -7.5h-54q-16 0 -27 7.5t-11 30.5v371z" />
    <glyph glyph-name="cent" unicode="&#xa2;" 
d="M32 236q0 103 58.5 168t160.5 79v41q0 10 5.5 17.5t16.5 7.5h12q10 0 14.5 -7.5t4.5 -17.5v-41q38 -2 74 -11.5t65 -30.5q12 -9 16.5 -20.5t-12.5 -29.5l-28 -29q-11 -12 -25 -10t-28 11q-29 17 -62 20v-296q34 0 66 21q14 9 26.5 12t23.5 -10l28 -30q18 -20 12.5 -31
t-18.5 -19q-30 -22 -65.5 -31.5t-72.5 -11.5v-46q0 -10 -5 -17.5t-15 -7.5h-13q-11 0 -15.5 7.5t-4.5 17.5v46q-51 4 -91.5 25t-69 54t-43.5 76.5t-15 93.5zM251 382q-55 -11 -81 -52t-26 -95q0 -52 26.5 -93t80.5 -55v295z" />
    <glyph glyph-name="sterling" unicode="&#xa3;" 
d="M41 56q-11 21 -3.5 31t21.5 21q30 23 52 54.5t22 74.5q0 26 -4.5 45.5t-10.5 33.5h-59q-13 0 -22 4.5t-9 17.5v21q0 12 9 16t22 4h37q-13 22 -25.5 56t-12.5 73q0 36 11.5 69.5t36 59t62 41t90.5 15.5q92 0 137 -35.5t56 -98.5q2 -15 -3.5 -26.5t-28.5 -11.5h-52
q-20 0 -25.5 9.5t-16.5 26.5q-8 13 -23 21t-39 8q-25 0 -40 -8.5t-23.5 -20.5t-11.5 -26t-3 -26q0 -26 11 -56.5t32 -69.5h109q12 0 21 -4t9 -16v-22q0 -13 -9 -17t-21 -4h-94q4 -11 6.5 -23t2.5 -24q0 -22 -3.5 -41.5t-12.5 -38t-24.5 -38t-40.5 -41.5l2 -2q31 10 55 10
q16 0 33.5 -3t34.5 -6.5t33.5 -6.5t30.5 -3t28 2.5t29 9.5q6 3 12.5 5.5t11.5 1.5t10 -7t8 -19l10 -39q4 -16 -4 -27t-23 -17q-47 -20 -85 -20q-23 0 -45 5.5t-43.5 12t-43 12t-42.5 5.5q-11 0 -31 -3t-45 -14q-15 -6 -28 -3.5t-24 23.5z" />
    <glyph glyph-name="currency" unicode="&#xa4;" 
d="M41 135q-11 11 -7.5 21.5t14.5 21.5l27 27q-23 23 -33.5 58t-10.5 71q0 37 10.5 72t33.5 58l-27 27q-11 11 -14.5 21t7.5 21l15 16q11 11 22 7.5t22 -14.5l26 -25q23 19 58 30.5t71 11.5t71.5 -11.5t58.5 -30.5l26 25q11 11 21.5 14.5t22.5 -8.5l14 -14q12 -12 8.5 -22
t-14.5 -21l-27 -27q23 -23 33.5 -58t10.5 -72q0 -36 -10.5 -71t-33.5 -58l27 -27q11 -11 14 -22.5t-8 -21.5l-12 -11q-11 -10 -23 -8.5t-23 12.5l-26 25q-23 -19 -58.5 -30.5t-71.5 -11.5t-71 11.5t-58 30.5l-26 -25q-11 -11 -22 -14t-22 8zM255 204q27 0 51 10t41.5 28
t27.5 41.5t10 50.5t-10 51t-27.5 42t-41.5 28t-51 10t-50.5 -10t-41.5 -28t-28 -42t-10 -51t10 -50.5t28 -41.5t41.5 -28t50.5 -10z" />
    <glyph glyph-name="yen" unicode="&#xa5;" 
d="M202 173h-98q-13 0 -22 4t-9 17v22q0 13 9 17t22 4h98v79h-98q-13 0 -22 4t-9 17v22q0 12 9 16t22 4h64l-125 266q-9 19 -0.5 27t22.5 8h70q17 0 26 -10t15 -26l86 -241l94 241q6 17 15.5 26.5t26.5 9.5h57q14 0 22.5 -8t-0.5 -27l-125 -266h64q12 0 21 -4t9 -16v-22
q0 -13 -9 -17t-21 -4h-100v-79h99q13 0 22 -4t9 -17v-22q0 -13 -9 -17t-22 -4h-99v-135q0 -16 -11 -27t-27 -11h-38q-16 0 -27 11t-11 27v135z" />
    <glyph glyph-name="brokenbar" unicode="&#xa6;" horiz-adv-x="250" 
d="M116 418q-16 0 -27 7.5t-11 30.5v228q0 23 11 30.5t27 7.5h18q16 0 27 -7.5t11 -30.5v-228q0 -23 -11 -30.5t-27 -7.5h-18zM116 -110q-16 0 -27 7.5t-11 30.5v228q0 23 11 30.5t27 7.5h18q16 0 27 -7.5t11 -30.5v-228q0 -23 -11 -30.5t-27 -7.5h-18z" />
    <glyph glyph-name="section" unicode="&#xa7;" 
d="M36 -36q-4 15 1.5 26.5t28.5 12.5l43 2q18 1 27.5 -9t17.5 -27q12 -26 36 -37t54 -11q15 0 30.5 4.5t28 13.5t20.5 23t8 32q0 22 -9.5 38t-28.5 28t-47 23t-65 25q-28 10 -54.5 23.5t-47 32t-33 44t-12.5 59.5q0 55 26 90t64 55q-61 39 -61 114q0 42 17.5 73t46.5 52
t65 31.5t74 10.5q85 0 133.5 -34.5t61.5 -86.5q4 -14 -1 -26t-28 -13l-43 -2q-20 -1 -27 9t-19 26q-11 14 -29 21.5t-46 7.5q-15 0 -30 -4t-27 -12t-19.5 -20.5t-7.5 -29.5q0 -19 10 -33.5t27 -26.5t41 -23t52 -23q30 -13 60 -28.5t53 -36.5t37.5 -48.5t14.5 -64.5
q0 -42 -21 -76.5t-55 -51.5q29 -22 40.5 -51t11.5 -65q0 -43 -18 -76.5t-48 -56.5t-68 -35t-77 -12q-51 0 -87.5 11.5t-61 31t-39 45.5t-20.5 55zM327 161q20 10 29 29t9 39q0 19 -6.5 33t-17 24.5t-24 18.5t-28.5 14l-89 40q-19 -6 -35.5 -23.5t-16.5 -46.5
q0 -18 6.5 -31.5t17 -23t24 -17t27.5 -13.5z" />
    <glyph glyph-name="dieresis" unicode="&#xa8;" horiz-adv-x="255" 
d="M224 548q-28 0 -47.5 20t-19.5 48t19.5 48t47.5 20t48 -20t20 -48t-20 -48t-48 -20zM31 548q-28 0 -48 20t-20 48t20 48t48 20t48 -20t20 -48t-20 -48t-48 -20z" />
    <glyph glyph-name="copyright" unicode="&#xa9;" horiz-adv-x="900" 
d="M98 340q0 73 27.5 137t75.5 112t112 75.5t138 27.5q73 0 137 -27.5t112 -75.5t75.5 -112t27.5 -137t-27.5 -137t-75.5 -112t-112 -76t-137 -28q-74 0 -138 28t-112 76t-75.5 112t-27.5 137zM150 340q0 -66 23 -122t63.5 -97t95.5 -64t119 -23t118.5 23t95 64t63.5 97
t23 122t-23 121.5t-63.5 96.5t-95 64t-118.5 23t-119 -23t-95.5 -64t-63.5 -96.5t-23 -121.5zM265 343q0 45 13.5 82.5t39 65.5t62 43.5t82.5 15.5q57 0 100 -27.5t61 -81.5q2 -7 4 -13.5t1 -12t-5.5 -8.5t-15.5 -3h-33q-9 0 -14.5 2.5t-9 7t-7.5 11t-10 14.5q-13 17 -33 25
t-43 8q-51 0 -77 -35.5t-26 -92.5q0 -27 7.5 -51t21 -42t33 -28t43.5 -10q52 0 77 34q6 8 9.5 15t7 11.5t9 7t15.5 2.5h29q22 0 23.5 -11.5t-3.5 -25.5q-19 -54 -63.5 -82t-98.5 -28q-45 0 -82 16t-63 43.5t-40 65.5t-14 82z" />
    <glyph glyph-name="ordfeminine" unicode="&#xaa;" horiz-adv-x="500" 
d="M208 338q-20 0 -41 5.5t-38 18t-28 32.5t-11 50q0 33 13 54t37 32.5t58 16t76 4.5h32v10q0 26 -12.5 41.5t-41.5 15.5q-24 0 -39 -13q-8 -6 -11.5 -11.5t-6.5 -9.5t-7.5 -6t-14.5 -2h-47q-22 0 -22 11.5t5 25.5q13 34 49 56.5t101 22.5q42 0 69.5 -9t44 -26t23 -41
t6.5 -54v-161q0 -6 0.5 -13.5t1.5 -15.5q1 -11 0.5 -18.5t-18.5 -7.5h-44q-15 0 -21.5 10t-9.5 25v1q-38 -44 -103 -44zM239 411q26 0 46.5 15t20.5 50v14h-22q-17 0 -34 -1.5t-30 -6t-21 -13t-8 -21.5q0 -21 13.5 -29t34.5 -8z" />
    <glyph glyph-name="guillemotleft" unicode="&#xab;" horiz-adv-x="500" 
d="M261 224q-10 17 -10 34t9 32l55 98q9 15 18.5 24t26.5 9h31q13 0 21.5 -8t-2.5 -25l-76 -131l79 -132q13 -22 4 -27.5t-22 -5.5h-30q-17 0 -27 9t-19 24zM87 224q-10 17 -10 34t9 32l55 98q9 15 18.5 24t26.5 9h31q6 0 12.5 -1t10 -4.5t3 -10t-6.5 -17.5l-76 -131
l79 -132q13 -22 4 -27.5t-22 -5.5h-30q-17 0 -27 9t-19 24z" />
    <glyph glyph-name="logicalnot" unicode="&#xac;" 
d="M68 275q-23 0 -30.5 11t-7.5 27v20q0 16 7.5 27t30.5 11h374q16 0 27 -7.5t11 -30.5v-171q0 -23 -11 -30.5t-27 -7.5h-20q-16 0 -27 7.5t-11 30.5v113h-316v0z" />
    <glyph glyph-name="uni00AD" unicode="&#xad;" horiz-adv-x="360" 
d="M108 192q-23 0 -30.5 11t-7.5 27v23q0 16 7.5 27t30.5 11h144q23 0 30.5 -11t7.5 -27v-23q0 -16 -7.5 -27t-30.5 -11h-144v0z" />
    <glyph glyph-name="registered" unicode="&#xae;" horiz-adv-x="600" 
d="M301 269q-47 0 -89 17.5t-73 47.5t-49 71t-18 88t18 88.5t49 72t73 48.5t89 18t88.5 -18t72 -48.5t48.5 -72t18 -88.5t-18 -88t-48.5 -71t-72 -47.5t-88.5 -17.5zM301 302q40 0 74.5 15t60.5 41t41 61t15 74q0 40 -15 75t-41 61.5t-60.5 41.5t-74.5 15t-75 -15
t-61.5 -41.5t-41.5 -61.5t-15 -75q0 -39 15 -74t41.5 -61t61.5 -41t75 -15zM223 368q-14 0 -19 8.5t-5 26.5v194q0 20 11 25.5t27 5.5h74q19 0 38 -4t34.5 -13.5t25 -25.5t9.5 -39q0 -26 -14.5 -44.5t-37.5 -26.5l46 -74q7 -11 5.5 -22t-23.5 -11h-21q-17 0 -25.5 9.5
t-16.5 24.5l-32 62h-29v-61q0 -35 -26 -35h-21zM308 516q14 0 24.5 8t10.5 21t-11.5 19t-23.5 6h-38v-54h38z" />
    <glyph glyph-name="macron" unicode="&#xaf;" horiz-adv-x="255" 
d="M26 575q-12 0 -20.5 3.5t-8.5 15.5v22q0 12 8.5 15.5t20.5 3.5h204q12 0 20.5 -3.5t8.5 -15.5v-22q0 -12 -8.5 -15.5t-20.5 -3.5h-204v0z" />
    <glyph glyph-name="degree" unicode="&#xb0;" horiz-adv-x="400" 
d="M200 400q-33 0 -62 12.5t-51 34.5t-34.5 51t-12.5 62t12.5 62t34.5 51t51 34.5t62 12.5t62 -12.5t51 -34.5t34.5 -51t12.5 -62t-12.5 -62t-34.5 -51t-51 -34.5t-62 -12.5zM200 478q34 0 58 24t24 58t-24 58t-58 24t-58 -24t-24 -58t24 -58t58 -24z" />
    <glyph glyph-name="plusminus" unicode="&#xb1;" 
d="M89 261q-23 0 -30.5 11t-7.5 27v19q0 16 7.5 27t30.5 11h122v74q0 23 11 30.5t27 7.5h14q16 0 27 -7.5t11 -30.5v-74h120q23 0 30.5 -11t7.5 -27v-19q0 -16 -7.5 -27t-30.5 -11h-120v-76q0 -23 -11 -30.5t-27 -7.5h-14q-16 0 -27 7.5t-11 30.5v76h-122zM51 79
q0 16 7.5 27t30.5 11h332q23 0 30.5 -11t7.5 -27v-20q0 -16 -7.5 -27t-30.5 -11h-332q-23 0 -30.5 11t-7.5 27v20z" />
    <glyph glyph-name="uni00B2" unicode="&#xb2;" horiz-adv-x="400" 
d="M107 292q-14 0 -24.5 6.5t-10.5 28.5v14q0 14 6.5 24.5t17.5 22.5l98 106q19 21 30 39.5t11 38.5q0 17 -8.5 27.5t-26.5 10.5q-25 0 -36 -27q-7 -17 -12 -27t-22 -10h-33q-15 0 -19.5 12t-1.5 26q11 53 46 79t80 26q61 0 93 -30.5t32 -81.5q0 -19 -4.5 -36t-14.5 -35
t-27 -38t-41 -44l-51 -51h101q23 0 30.5 -6.5t7.5 -22.5v-23q0 -16 -7.5 -22.5t-30.5 -6.5h-183v0z" />
    <glyph glyph-name="uni00B3" unicode="&#xb3;" horiz-adv-x="400" 
d="M198 285q-42 0 -75 18.5t-48 56.5q-5 14 -3.5 25.5t19.5 13.5l42 5q13 2 17 -5t14 -20q12 -15 34 -15q25 0 35 17t10 37q0 22 -13 35.5t-39 13.5q-18 0 -25.5 -2.5t-14.5 -2.5q-16 0 -16 19v33q0 17 7 26.5t19 20.5l42 41h-81q-23 0 -30.5 4.5t-7.5 20.5v27q0 16 7.5 22
t30.5 6h160q15 0 25.5 -6.5t10.5 -29.5v-16q0 -17 -7 -26.5t-19 -20.5l-53 -50q45 -5 70.5 -35t25.5 -78q0 -60 -37 -97.5t-100 -37.5z" />
    <glyph glyph-name="acute" unicode="&#xb4;" horiz-adv-x="255" 
d="M63 554q-6 0 -12 1t-9.5 4.5t-3 9.5t6.5 17l39 63q9 14 18.5 23t26.5 9h69q11 0 15 -9.5t-4 -17.5l-72 -73q-12 -13 -24 -20t-29 -7h-21v0z" />
    <glyph glyph-name="uni00B5" unicode="&#xb5;" horiz-adv-x="574" 
d="M188 -190q0 -23 -11 -30.5t-27 -7.5h-44q-16 0 -27 7.5t-11 30.5v622q0 23 11 30.5t27 7.5h44q16 0 27 -7.5t11 -30.5v-195q0 -20 2 -44.5t10.5 -46t26 -36t49.5 -14.5q30 0 50.5 10t34 27t19.5 39t6 46v214q0 23 11 30.5t27 7.5h44q16 0 27 -7.5t11 -30.5v-394
q0 -23 -11 -30.5t-27 -7.5h-38q-16 0 -27 7.5t-11 30.5v39h-2q-16 -36 -47.5 -62.5t-89.5 -26.5q-18 0 -36.5 6t-28.5 18v-202z" />
    <glyph glyph-name="paragraph" unicode="&#xb6;" horiz-adv-x="560" 
d="M203 334q-94 0 -146 44.5t-52 125.5q0 52 16.5 86t45.5 54t68.5 28t86.5 8h227q16 0 27 -7.5t11 -30.5v-794q0 -23 -11 -30.5t-27 -7.5h-18q-16 0 -27 7.5t-11 30.5v754h-96v-754q0 -23 -11 -30.5t-27 -7.5h-18q-16 0 -27 7.5t-11 30.5v486z" />
    <glyph glyph-name="periodcentered" unicode="&#xb7;" horiz-adv-x="255" 
d="M128 219q-32 0 -54 22.5t-22 53.5q0 32 22 54t54 22q31 0 53.5 -22t22.5 -54q0 -31 -22.5 -53.5t-53.5 -22.5z" />
    <glyph glyph-name="cedilla" unicode="&#xb8;" horiz-adv-x="255" 
d="M106 0h52l-28 -52l1 -1q4 1 10.5 1h10.5q37 0 63 -17.5t26 -56.5q0 -27 -10.5 -45.5t-28 -30t-41 -16t-50.5 -4.5q-9 0 -25 1t-30 4q-10 2 -16.5 7t-4.5 14l3 17q2 10 8.5 12t16.5 0q10 -1 20 -1.5t18 -0.5q23 0 41.5 7.5t18.5 31.5q0 20 -15.5 26.5t-37.5 6.5
q-20 0 -32 -3q-8 -2 -12 3l-3 4q-4 5 0 13z" />
    <glyph glyph-name="uni00B9" unicode="&#xb9;" horiz-adv-x="400" 
d="M226 292q-16 0 -27 7.5t-11 30.5v249q-24 -11 -49 -20q-13 -5 -24.5 -5t-11.5 21v26q0 17 9.5 25.5t25.5 16.5q11 6 22.5 12.5t22.5 14.5q13 8 23.5 13.5t26.5 5.5h19q13 0 18.5 -6t5.5 -26v-327q0 -23 -11 -30.5t-27 -7.5h-12v0z" />
    <glyph glyph-name="ordmasculine" unicode="&#xba;" horiz-adv-x="500" 
d="M249 336q-50 0 -85.5 15t-58 40t-33 57t-10.5 67q0 34 12 66t35.5 57t58.5 40.5t81 15.5q50 0 85.5 -15.5t58.5 -40.5t33.5 -57t10.5 -66q0 -35 -12 -67t-36 -57t-59 -40t-81 -15zM249 420q42 0 62 26.5t20 68.5t-20 68.5t-62 26.5t-62 -26.5t-20 -68.5t20 -68.5
t62 -26.5z" />
    <glyph glyph-name="guillemotright" unicode="&#xbb;" horiz-adv-x="500" 
d="M340 256l-79 132q-7 11 -7.5 17.5t3 10t10 4.5t12.5 1h30q17 0 27 -9t19 -24l58 -99q10 -17 10 -34t-9 -32l-55 -98q-9 -15 -18.5 -24t-26.5 -9h-31q-6 0 -12.5 1t-10 4.5t-3 10t6.5 17.5zM109 92q-6 0 -12.5 1t-10 4.5t-3 10t6.5 17.5l76 131l-79 132q-7 11 -7.5 17.5
t3 10t10 4.5t12.5 1h30q17 0 27 -9t19 -24l58 -99q10 -17 10 -34t-9 -32l-55 -98q-9 -15 -18.5 -24t-26.5 -9h-31z" />
    <glyph glyph-name="onequarter" unicode="&#xbc;" horiz-adv-x="900" 
d="M509 148q0 17 6 29t16 26l109 159q10 14 20.5 22.5t27.5 8.5h25q16 0 27 -11t11 -27v-190h15q14 0 24.5 -7t10.5 -21v-16q0 -14 -10.5 -21t-24.5 -7h-15v-55q0 -16 -7.5 -27t-23.5 -11h-24q-16 0 -23 11t-7 27v55h-119q-16 0 -27 8t-11 24v23zM666 165v123l-80 -123h80z
M226 292q-16 0 -27 7.5t-11 30.5v249q-24 -11 -49 -20q-13 -5 -24.5 -5t-11.5 21v26q0 17 9.5 25.5t25.5 16.5q11 6 22.5 12.5t22.5 14.5q13 8 23.5 13.5t26.5 5.5h19q13 0 18.5 -6t5.5 -26v-327q0 -23 -11 -30.5t-27 -7.5h-12zM568 657q8 14 16.5 22.5t25.5 8.5h20
q20 0 19 -10.5t-6 -21.5l-355 -642q-8 -15 -18 -24t-27 -9h-21q-20 0 -19 11t7 22z" />
    <glyph glyph-name="onehalf" unicode="&#xbd;" horiz-adv-x="900" 
d="M226 292q-16 0 -27 7.5t-11 30.5v249q-24 -11 -49 -20q-13 -5 -24.5 -5t-11.5 21v26q0 17 9.5 25.5t25.5 16.5q11 6 22.5 12.5t22.5 14.5q13 8 23.5 13.5t26.5 5.5h19q13 0 18.5 -6t5.5 -26v-327q0 -23 -11 -30.5t-27 -7.5h-12zM582 0q-14 0 -24.5 6.5t-10.5 28.5v14
q0 14 6.5 24.5t17.5 22.5l98 106q19 21 30 39.5t11 38.5q0 17 -8.5 27.5t-26.5 10.5q-25 0 -36 -27q-7 -17 -12 -27t-22 -10h-33q-15 0 -19.5 12t-1.5 26q11 53 46 79t80 26q61 0 93 -30.5t32 -81.5q0 -19 -4.5 -36t-14.5 -35t-27 -38t-41 -44l-51 -51h101q23 0 30.5 -6.5
t7.5 -22.5v-23q0 -16 -7.5 -22.5t-30.5 -6.5h-183zM568 657q8 14 16.5 22.5t25.5 8.5h20q20 0 19 -10.5t-6 -21.5l-355 -642q-8 -15 -18 -24t-27 -9h-21q-20 0 -19 11t7 22z" />
    <glyph glyph-name="threequarters" unicode="&#xbe;" horiz-adv-x="900" 
d="M582 657q8 14 16.5 22.5t25.5 8.5h20q20 0 19 -10.5t-6 -21.5l-355 -642q-8 -15 -18 -24t-27 -9h-21q-20 0 -19 11t7 22zM510 134q0 25 6 40t16 29l109 159q10 14 22.5 22.5t37.5 8.5h13q16 0 27 -7.5t11 -30.5v-190h15q22 0 28.5 -10.5t6.5 -24.5v-2q0 -14 -6.5 -24.5
t-28.5 -10.5h-15v-55q0 -23 -11 -30.5t-27 -7.5h-9q-16 0 -27 7.5t-11 30.5v55h-119q-23 0 -30.5 11t-7.5 27v3zM667 165v123l-80 -123h80zM197 285q-42 0 -75 18.5t-48 56.5q-5 14 -3.5 25.5t19.5 13.5l42 5q13 2 17 -5t14 -20q12 -15 34 -15q25 0 35 17t10 37
q0 22 -13 35.5t-39 13.5q-18 0 -25.5 -2.5t-14.5 -2.5q-16 0 -16 19v33q0 17 7 26.5t19 20.5l42 41h-81q-23 0 -30.5 4.5t-7.5 20.5v27q0 16 7.5 22t30.5 6h160q15 0 25.5 -6.5t10.5 -29.5v-16q0 -17 -7 -26.5t-19 -20.5l-53 -50q45 -5 70.5 -35t25.5 -78q0 -60 -37 -97.5
t-100 -37.5z" />
    <glyph glyph-name="questiondown" unicode="&#xbf;" horiz-adv-x="520" 
d="M253 331q-31 0 -53.5 22t-22.5 54q0 31 22.5 53.5t53.5 22.5q32 0 54 -22.5t22 -53.5q0 -32 -22 -54t-54 -22zM292 260q14 0 21 -6.5t7 -25.5q0 -54 -22 -90t-58 -67q-27 -23 -46 -48t-19 -62t20 -54t55 -17q59 0 73 57q4 17 8 27.5t28 10.5h57q23 0 29.5 -11.5
t4.5 -26.5q-11 -80 -64 -124t-140 -44q-38 0 -74.5 10t-64.5 31.5t-45 56t-17 83.5q0 32 8 57t21 45.5t30 36.5t34 30q32 26 46.5 49t14.5 53q0 17 6 23t19 6h68z" />
    <glyph glyph-name="Agrave" unicode="&#xc0;" horiz-adv-x="633" 
d="M243 644q6 16 20 26t31 10h67q17 0 31 -10t19 -26l212 -608q7 -20 -2 -28t-23 -8h-83q-17 0 -26 10t-14 26l-34 106h-238l-32 -105q-5 -17 -14 -27t-26 -10h-80q-14 0 -23.5 8t-1.5 28zM411 252l-87 264h-1l-86 -264h174zM317 744q-17 0 -29 7t-24 20l-72 73
q-8 8 -4 17.5t15 9.5h69q17 0 26.5 -9t18.5 -23l39 -63q6 -11 6.5 -17t-3 -9.5t-9.5 -4.5t-12 -1h-21z" />
    <glyph glyph-name="Aacute" unicode="&#xc1;" horiz-adv-x="633" 
d="M243 644q6 16 20 26t31 10h67q17 0 31 -10t19 -26l212 -608q7 -20 -2 -28t-23 -8h-83q-17 0 -26 10t-14 26l-34 106h-238l-32 -105q-5 -17 -14 -27t-26 -10h-80q-14 0 -23.5 8t-1.5 28zM411 252l-87 264h-1l-86 -264h174zM319 744q-6 0 -12 1t-9.5 4.5t-3 9.5t6.5 17
l39 63q9 14 18.5 23t26.5 9h69q11 0 15 -9.5t-4 -17.5l-72 -73q-12 -13 -24 -20t-29 -7h-21z" />
    <glyph glyph-name="Acircumflex" unicode="&#xc2;" horiz-adv-x="633" 
d="M243 644q6 16 20 26t31 10h67q17 0 31 -10t19 -26l212 -608q7 -20 -2 -28t-23 -8h-83q-17 0 -26 10t-14 26l-34 106h-238l-32 -105q-5 -17 -14 -27t-26 -10h-80q-14 0 -23.5 8t-1.5 28zM411 252l-87 264h-1l-86 -264h174zM210 739q-12 0 -20.5 5.5t5.5 25.5l51 70
q11 14 23 22.5t29 8.5h56q17 0 26.5 -8.5t20.5 -22.5l51 -70q14 -20 5.5 -25.5t-20.5 -5.5h-24q-17 0 -27.5 8t-21.5 22l-40 51l-40 -51q-11 -14 -21 -22t-27 -8h-26z" />
    <glyph glyph-name="Atilde" unicode="&#xc3;" horiz-adv-x="633" 
d="M243 644q6 16 20 26t31 10h67q17 0 31 -10t19 -26l212 -608q7 -20 -2 -28t-23 -8h-83q-17 0 -26 10t-14 26l-34 106h-238l-32 -105q-5 -17 -14 -27t-26 -10h-80q-14 0 -23.5 8t-1.5 28zM411 252l-87 264h-1l-86 -264h174zM178 745q-10 0 -11 7.5t1 16.5q4 16 11.5 30.5
t19 26t27.5 18.5t36 7q18 0 35 -5t33 -11q17 -7 31 -12.5t26 -5.5q22 0 33 15q8 11 12 17t18 6h16q9 0 11 -7.5t-1 -16.5q-8 -31 -30 -55.5t-62 -24.5q-17 0 -34.5 5t-33.5 11t-30 11.5t-27 5.5q-23 0 -35 -16q-8 -11 -11.5 -17t-16.5 -6h-18z" />
    <glyph glyph-name="Adieresis" unicode="&#xc4;" horiz-adv-x="633" 
d="M243 644q6 16 20 26t31 10h67q17 0 31 -10t19 -26l212 -608q7 -20 -2 -28t-23 -8h-83q-17 0 -26 10t-14 26l-34 106h-238l-32 -105q-5 -17 -14 -27t-26 -10h-80q-14 0 -23.5 8t-1.5 28zM411 252l-87 264h-1l-86 -264h174zM421 742q-28 0 -47.5 20t-19.5 48t19.5 48
t47.5 20t48 -20t20 -48t-20 -48t-48 -20zM228 742q-28 0 -48 20t-20 48t20 48t48 20t48 -20t20 -48t-20 -48t-48 -20z" />
    <glyph glyph-name="Aring" unicode="&#xc5;" horiz-adv-x="633" 
d="M243 644q6 16 20 26t31 10h67q17 0 31 -10t19 -26l212 -608q7 -20 -2 -28t-23 -8h-83q-17 0 -26 10t-14 26l-34 106h-238l-32 -105q-5 -17 -14 -27t-26 -10h-80q-14 0 -23.5 8t-1.5 28zM411 252l-87 264h-1l-86 -264h174zM322 726q-20 0 -36.5 7.5t-29.5 20.5t-20 30
t-7 35q0 19 7 35.5t20 29.5t29.5 20.5t36.5 7.5q18 0 35 -7.5t30 -20t20.5 -29.5t7.5 -36q0 -18 -7.5 -35t-20.5 -30t-30 -20.5t-35 -7.5zM322 775q18 0 31 13t13 31q0 19 -13 32t-31 13q-19 0 -32 -13t-13 -32q0 -18 13 -31t32 -13z" />
    <glyph glyph-name="AE" unicode="&#xc6;" horiz-adv-x="870" 
d="M322 645q8 16 22.5 25.5t31.5 9.5h409q23 0 30.5 -11t7.5 -27v-45q0 -16 -7.5 -27t-30.5 -11h-211v-155h202q23 0 30.5 -11t7.5 -27v-45q0 -16 -7.5 -27t-30.5 -11h-202v-162h211q23 0 30.5 -11t7.5 -27v-45q0 -16 -7.5 -27t-30.5 -11h-309q-16 0 -27 7.5t-11 30.5v108
h-198l-49 -111q-8 -16 -22.5 -25.5t-31.5 -9.5h-82q-14 0 -22.5 8t0.5 27zM438 261v314h-15l-135 -314h150z" />
    <glyph glyph-name="Ccedilla" unicode="&#xc7;" horiz-adv-x="723" 
d="M341 -10q-64 7 -117 33t-91.5 70.5t-59.5 106.5t-21 140q0 74 24.5 138.5t69.5 112t107 75t137 27.5q53 0 100 -10t85.5 -31.5t68 -56.5t46.5 -85q5 -14 1.5 -26t-26.5 -17l-74 -14q-17 -3 -26.5 6t-17.5 25q-22 47 -62 67.5t-94 20.5q-44 0 -79.5 -18.5t-60 -50.5
t-38 -74t-13.5 -90q0 -54 14 -97t39.5 -72.5t62 -45.5t80.5 -16t82.5 17.5t63.5 55.5q9 16 19 24.5t27 6.5l82 -10q22 -3 25 -15t-3 -26q-41 -92 -120 -132.5t-180 -41.5l-21 -39l1 -1q4 1 10.5 1h10.5q37 0 63 -17.5t26 -56.5q0 -27 -10.5 -45.5t-28 -30t-41 -16
t-50.5 -4.5q-9 0 -25 1t-30 4q-10 2 -16.5 7t-4.5 14l3 17q2 10 8.5 12t16.5 0q10 -1 20 -1.5t18 -0.5q23 0 41.5 7.5t18.5 31.5q0 20 -15.5 26.5t-37.5 6.5q-20 0 -32 -3q-8 -2 -12 3l-3 4q-4 5 0 13z" />
    <glyph glyph-name="Egrave" unicode="&#xc8;" horiz-adv-x="542" 
d="M75 642q0 23 11 30.5t27 7.5h336q23 0 30.5 -11t7.5 -27v-45q0 -16 -7.5 -27t-30.5 -11h-238v-155h230q23 0 30.5 -11t7.5 -27v-45q0 -16 -7.5 -27t-30.5 -11h-230v-162h238q23 0 30.5 -11t7.5 -27v-45q0 -16 -7.5 -27t-30.5 -11h-336q-16 0 -27 7.5t-11 30.5v604z
M289 744q-17 0 -29 7t-24 20l-72 73q-8 8 -4 17.5t15 9.5h69q17 0 26.5 -9t18.5 -23l39 -63q6 -11 6.5 -17t-3 -9.5t-9.5 -4.5t-12 -1h-21z" />
    <glyph glyph-name="Eacute" unicode="&#xc9;" horiz-adv-x="542" 
d="M75 642q0 23 11 30.5t27 7.5h336q23 0 30.5 -11t7.5 -27v-45q0 -16 -7.5 -27t-30.5 -11h-238v-155h230q23 0 30.5 -11t7.5 -27v-45q0 -16 -7.5 -27t-30.5 -11h-230v-162h238q23 0 30.5 -11t7.5 -27v-45q0 -16 -7.5 -27t-30.5 -11h-336q-16 0 -27 7.5t-11 30.5v604z
M254 744q-6 0 -12 1t-9.5 4.5t-3 9.5t6.5 17l39 63q9 14 18.5 23t26.5 9h69q11 0 15 -9.5t-4 -17.5l-72 -73q-12 -13 -24 -20t-29 -7h-21z" />
    <glyph glyph-name="Ecircumflex" unicode="&#xca;" horiz-adv-x="542" 
d="M75 642q0 23 11 30.5t27 7.5h336q23 0 30.5 -11t7.5 -27v-45q0 -16 -7.5 -27t-30.5 -11h-238v-155h230q23 0 30.5 -11t7.5 -27v-45q0 -16 -7.5 -27t-30.5 -11h-230v-162h238q23 0 30.5 -11t7.5 -27v-45q0 -16 -7.5 -27t-30.5 -11h-336q-16 0 -27 7.5t-11 30.5v604z
M167 739q-12 0 -20.5 5.5t5.5 25.5l51 70q11 14 23 22.5t29 8.5h56q17 0 26.5 -8.5t20.5 -22.5l51 -70q14 -20 5.5 -25.5t-20.5 -5.5h-24q-17 0 -27.5 8t-21.5 22l-40 51l-40 -51q-11 -14 -21 -22t-27 -8h-26z" />
    <glyph glyph-name="Edieresis" unicode="&#xcb;" horiz-adv-x="542" 
d="M75 642q0 23 11 30.5t27 7.5h336q23 0 30.5 -11t7.5 -27v-45q0 -16 -7.5 -27t-30.5 -11h-238v-155h230q23 0 30.5 -11t7.5 -27v-45q0 -16 -7.5 -27t-30.5 -11h-230v-162h238q23 0 30.5 -11t7.5 -27v-45q0 -16 -7.5 -27t-30.5 -11h-336q-16 0 -27 7.5t-11 30.5v604z
M379 742q-28 0 -47.5 20t-19.5 48t19.5 48t47.5 20t48 -20t20 -48t-20 -48t-48 -20zM186 742q-28 0 -48 20t-20 48t20 48t48 20t48 -20t20 -48t-20 -48t-48 -20z" />
    <glyph glyph-name="Igrave" unicode="&#xcc;" horiz-adv-x="289" 
d="M81 642q0 23 11 30.5t27 7.5h59q16 0 27 -7.5t11 -30.5v-604q0 -23 -11 -30.5t-27 -7.5h-59q-16 0 -27 7.5t-11 30.5v604zM132 744q-17 0 -29 7t-24 20l-72 73q-8 8 -4 17.5t15 9.5h69q17 0 26.5 -9t18.5 -23l39 -63q6 -11 6.5 -17t-3 -9.5t-9.5 -4.5t-12 -1h-21z" />
    <glyph glyph-name="Iacute" unicode="&#xcd;" horiz-adv-x="289" 
d="M77 642q0 23 11 30.5t27 7.5h59q16 0 27 -7.5t11 -30.5v-604q0 -23 -11 -30.5t-27 -7.5h-59q-16 0 -27 7.5t-11 30.5v604zM132 744q-6 0 -12 1t-9.5 4.5t-3 9.5t6.5 17l39 63q9 14 18.5 23t26.5 9h69q11 0 15 -9.5t-4 -17.5l-72 -73q-12 -13 -24 -20t-29 -7h-21z" />
    <glyph glyph-name="Icircumflex" unicode="&#xce;" horiz-adv-x="289" 
d="M85 642q0 23 11 30.5t27 7.5h59q16 0 27 -7.5t11 -30.5v-604q0 -23 -11 -30.5t-27 -7.5h-59q-16 0 -27 7.5t-11 30.5v604zM38 739q-12 0 -20.5 5.5t5.5 25.5l51 70q11 14 23 22.5t29 8.5h56q17 0 26.5 -8.5t20.5 -22.5l51 -70q14 -20 5.5 -25.5t-20.5 -5.5h-24
q-17 0 -27.5 8t-21.5 22l-40 51l-40 -51q-11 -14 -21 -22t-27 -8h-26z" />
    <glyph glyph-name="Idieresis" unicode="&#xcf;" horiz-adv-x="289" 
d="M232 742q-28 0 -45 20t-17 48t17 48t45 20t45.5 -20t17.5 -48t-17.5 -48t-45.5 -20zM59 742q-28 0 -45.5 20t-17.5 48t17.5 48t45.5 20t45.5 -20t17.5 -48t-17.5 -48t-45.5 -20zM77 642q0 23 11 30.5t27 7.5h59q16 0 27 -7.5t11 -30.5v-604q0 -23 -11 -30.5t-27 -7.5h-59
q-16 0 -27 7.5t-11 30.5v604z" />
    <glyph glyph-name="Eth" unicode="&#xd0;" horiz-adv-x="723" 
d="M75 316h-32q-23 0 -30.5 6t-7.5 22v28q0 16 7.5 22t30.5 6h32v242q0 23 11 30.5t27 7.5h227q156 0 241.5 -87t85.5 -253q0 -81 -26 -144.5t-70.5 -107t-103.5 -66t-124 -22.5h-230q-16 0 -27 7.5t-11 30.5v278zM334 116q52 0 89 20t59.5 52.5t33 72.5t10.5 80
q0 43 -10 83t-33.5 71t-62.5 50t-96 19h-113v-164h140q23 0 30.5 -6t7.5 -22v-28q0 -16 -7.5 -22t-30.5 -6h-140v-200h123z" />
    <glyph glyph-name="Ntilde" unicode="&#xd1;" horiz-adv-x="723" 
d="M75 642q0 23 11 30.5t27 7.5h88q17 0 28 -9t20 -24l267 -442h2v437q0 23 11 30.5t27 7.5h54q16 0 27 -7.5t11 -30.5v-604q0 -23 -11 -30.5t-27 -7.5h-86q-17 0 -26.5 9t-18.5 24l-272 449h-2v-444q0 -23 -11 -30.5t-27 -7.5h-54q-16 0 -27 7.5t-11 30.5v604zM223 745
q-10 0 -11 7.5t1 16.5q4 16 11.5 30.5t19 26t27.5 18.5t36 7q18 0 35 -5t33 -11q17 -7 31 -12.5t26 -5.5q22 0 33 15q8 11 12 17t18 6h16q9 0 11 -7.5t-1 -16.5q-8 -31 -30 -55.5t-62 -24.5q-17 0 -34.5 5t-33.5 11t-30 11.5t-27 5.5q-23 0 -35 -16q-8 -11 -11.5 -17
t-16.5 -6h-18z" />
    <glyph glyph-name="Ograve" unicode="&#xd2;" horiz-adv-x="805" 
d="M52 339q0 69 23.5 132.5t68 113t109.5 79t149 29.5t149 -29.5t110 -79t68 -113t23 -132.5q0 -68 -23 -131.5t-68 -112.5t-110 -78.5t-149 -29.5t-149 29.5t-109.5 78.5t-68 112.5t-23.5 131.5zM199 339q0 -45 13 -87t38.5 -74t63.5 -51t88 -19t88.5 19t64 51t38.5 74
t13 87q0 46 -13 88t-38.5 74t-64 51t-88.5 19t-88 -19t-63.5 -51t-38.5 -74t-13 -88zM401 744q-17 0 -29 7t-24 20l-72 73q-8 8 -4 17.5t15 9.5h69q17 0 26.5 -9t18.5 -23l39 -63q6 -11 6.5 -17t-3 -9.5t-9.5 -4.5t-12 -1h-21z" />
    <glyph glyph-name="Oacute" unicode="&#xd3;" horiz-adv-x="805" 
d="M52 339q0 69 23.5 132.5t68 113t109.5 79t149 29.5t149 -29.5t110 -79t68 -113t23 -132.5q0 -68 -23 -131.5t-68 -112.5t-110 -78.5t-149 -29.5t-149 29.5t-109.5 78.5t-68 112.5t-23.5 131.5zM199 339q0 -45 13 -87t38.5 -74t63.5 -51t88 -19t88.5 19t64 51t38.5 74
t13 87q0 46 -13 88t-38.5 74t-64 51t-88.5 19t-88 -19t-63.5 -51t-38.5 -74t-13 -88zM405 744q-6 0 -12 1t-9.5 4.5t-3 9.5t6.5 17l39 63q9 14 18.5 23t26.5 9h69q11 0 15 -9.5t-4 -17.5l-72 -73q-12 -13 -24 -20t-29 -7h-21z" />
    <glyph glyph-name="Ocircumflex" unicode="&#xd4;" horiz-adv-x="805" 
d="M52 339q0 69 23.5 132.5t68 113t109.5 79t149 29.5t149 -29.5t110 -79t68 -113t23 -132.5q0 -68 -23 -131.5t-68 -112.5t-110 -78.5t-149 -29.5t-149 29.5t-109.5 78.5t-68 112.5t-23.5 131.5zM199 339q0 -45 13 -87t38.5 -74t63.5 -51t88 -19t88.5 19t64 51t38.5 74
t13 87q0 46 -13 88t-38.5 74t-64 51t-88.5 19t-88 -19t-63.5 -51t-38.5 -74t-13 -88zM303 739q-12 0 -20.5 5.5t5.5 25.5l51 70q11 14 23 22.5t29 8.5h56q17 0 26.5 -8.5t20.5 -22.5l51 -70q14 -20 5.5 -25.5t-20.5 -5.5h-24q-17 0 -27.5 8t-21.5 22l-40 51l-40 -51
q-11 -14 -21 -22t-27 -8h-26z" />
    <glyph glyph-name="Otilde" unicode="&#xd5;" horiz-adv-x="805" 
d="M52 339q0 69 23.5 132.5t68 113t109.5 79t149 29.5t149 -29.5t110 -79t68 -113t23 -132.5q0 -68 -23 -131.5t-68 -112.5t-110 -78.5t-149 -29.5t-149 29.5t-109.5 78.5t-68 112.5t-23.5 131.5zM199 339q0 -45 13 -87t38.5 -74t63.5 -51t88 -19t88.5 19t64 51t38.5 74
t13 87q0 46 -13 88t-38.5 74t-64 51t-88.5 19t-88 -19t-63.5 -51t-38.5 -74t-13 -88zM268 745q-10 0 -11 7.5t1 16.5q4 16 11.5 30.5t19 26t27.5 18.5t36 7q18 0 35 -5t33 -11q17 -7 31 -12.5t26 -5.5q22 0 33 15q8 11 12 17t18 6h16q9 0 11 -7.5t-1 -16.5q-8 -31 -30 -55.5
t-62 -24.5q-17 0 -34.5 5t-33.5 11t-30 11.5t-27 5.5q-23 0 -35 -16q-8 -11 -11.5 -17t-16.5 -6h-18z" />
    <glyph glyph-name="Odieresis" unicode="&#xd6;" horiz-adv-x="805" 
d="M52 339q0 69 23.5 132.5t68 113t109.5 79t149 29.5t149 -29.5t110 -79t68 -113t23 -132.5q0 -68 -23 -131.5t-68 -112.5t-110 -78.5t-149 -29.5t-149 29.5t-109.5 78.5t-68 112.5t-23.5 131.5zM199 339q0 -45 13 -87t38.5 -74t63.5 -51t88 -19t88.5 19t64 51t38.5 74
t13 87q0 46 -13 88t-38.5 74t-64 51t-88.5 19t-88 -19t-63.5 -51t-38.5 -74t-13 -88zM501 742q-28 0 -47.5 20t-19.5 48t19.5 48t47.5 20t48 -20t20 -48t-20 -48t-48 -20zM308 742q-28 0 -48 20t-20 48t20 48t48 20t48 -20t20 -48t-20 -48t-48 -20z" />
    <glyph glyph-name="multiply" unicode="&#xd7;" 
d="M61 61q-11 11 -13.5 24.5t12.5 28.5l130 128l-129 131q-15 15 -13 29t13 25l14 12q11 11 25 13t29 -13l128 -128l128 126q11 11 25 13t29 -13l10 -10q15 -15 13 -29t-13 -25l-125 -124l129 -134q15 -15 13 -29t-13 -25l-14 -13q-11 -11 -25 -13t-29 13l-130 125
l-126 -125q-15 -15 -29 -13.5t-26 12.5l-13 14v0z" />
    <glyph glyph-name="Oslash" unicode="&#xd8;" horiz-adv-x="805" 
d="M49 -1q-8 8 -6.5 18.5t9.5 18.5l78 78q-77 97 -77 226q0 69 23.5 133t68 112.5t109.5 78t148 29.5q72 0 127 -21t100 -59l74 72q9 9 18.5 11.5t18.5 -5.5l12 -11q9 -8 6.5 -18t-10.5 -18l-75 -74q80 -98 80 -230q0 -69 -23 -132.5t-67.5 -112.5t-110 -78.5t-150.5 -29.5
q-72 0 -130 22t-101 60l-74 -74q-9 -8 -20 -10.5t-19 5.5zM542 522q-25 25 -60 39t-80 14q-51 0 -89 -19t-64 -51.5t-39 -75.5t-13 -90q0 -35 7 -68t22 -60zM265 159q49 -54 137 -54q52 0 91.5 19.5t65.5 52t39 75t13 88.5q0 36 -8.5 71t-22.5 62z" />
    <glyph glyph-name="Ugrave" unicode="&#xd9;" horiz-adv-x="687" 
d="M69 642q0 23 11 30.5t27 7.5h59q16 0 27 -7.5t11 -30.5v-361q0 -85 33 -129t106 -44q72 0 106.5 44t34.5 129v361q0 23 11 30.5t27 7.5h59q16 0 27 -7.5t11 -30.5v-360q0 -80 -22.5 -136t-60 -91t-88 -51.5t-105.5 -16.5q-56 0 -105.5 16.5t-87 51.5t-59.5 91t-22 136
v360zM332 744q-17 0 -29 7t-24 20l-72 73q-8 8 -4 17.5t15 9.5h69q17 0 26.5 -9t18.5 -23l39 -63q6 -11 6.5 -17t-3 -9.5t-9.5 -4.5t-12 -1h-21z" />
    <glyph glyph-name="Uacute" unicode="&#xda;" horiz-adv-x="687" 
d="M69 642q0 23 11 30.5t27 7.5h59q16 0 27 -7.5t11 -30.5v-361q0 -85 33 -129t106 -44q72 0 106.5 44t34.5 129v361q0 23 11 30.5t27 7.5h59q16 0 27 -7.5t11 -30.5v-360q0 -80 -22.5 -136t-60 -91t-88 -51.5t-105.5 -16.5q-56 0 -105.5 16.5t-87 51.5t-59.5 91t-22 136
v360zM336 744q-6 0 -12 1t-9.5 4.5t-3 9.5t6.5 17l39 63q9 14 18.5 23t26.5 9h69q11 0 15 -9.5t-4 -17.5l-72 -73q-12 -13 -24 -20t-29 -7h-21z" />
    <glyph glyph-name="Ucircumflex" unicode="&#xdb;" horiz-adv-x="687" 
d="M69 642q0 23 11 30.5t27 7.5h59q16 0 27 -7.5t11 -30.5v-361q0 -85 33 -129t106 -44q72 0 106.5 44t34.5 129v361q0 23 11 30.5t27 7.5h59q16 0 27 -7.5t11 -30.5v-360q0 -80 -22.5 -136t-60 -91t-88 -51.5t-105.5 -16.5q-56 0 -105.5 16.5t-87 51.5t-59.5 91t-22 136
v360zM235 739q-12 0 -20.5 5.5t5.5 25.5l51 70q11 14 23 22.5t29 8.5h56q17 0 26.5 -8.5t20.5 -22.5l51 -70q14 -20 5.5 -25.5t-20.5 -5.5h-24q-17 0 -27.5 8t-21.5 22l-40 51l-40 -51q-11 -14 -21 -22t-27 -8h-26z" />
    <glyph glyph-name="Udieresis" unicode="&#xdc;" horiz-adv-x="687" 
d="M69 642q0 23 11 30.5t27 7.5h59q16 0 27 -7.5t11 -30.5v-361q0 -85 33 -129t106 -44q72 0 106.5 44t34.5 129v361q0 23 11 30.5t27 7.5h59q16 0 27 -7.5t11 -30.5v-360q0 -80 -22.5 -136t-60 -91t-88 -51.5t-105.5 -16.5q-56 0 -105.5 16.5t-87 51.5t-59.5 91t-22 136
v360zM441 742q-28 0 -47.5 20t-19.5 48t19.5 48t47.5 20t48 -20t20 -48t-20 -48t-48 -20zM248 742q-28 0 -48 20t-20 48t20 48t48 20t48 -20t20 -48t-20 -48t-48 -20z" />
    <glyph glyph-name="Yacute" unicode="&#xdd;" horiz-adv-x="570" 
d="M227 263l-197 383q-9 18 -0.5 26t21.5 8h93q17 0 26.5 -9.5t17.5 -25.5l111 -248l110 248q7 16 16.5 25.5t26.5 9.5h83q13 0 21.5 -8t-0.5 -26l-194 -383v-225q0 -23 -11 -30.5t-27 -7.5h-59q-16 0 -27 7.5t-11 30.5v225zM285 744q-6 0 -12 1t-9.5 4.5t-3 9.5t6.5 17
l39 63q9 14 18.5 23t26.5 9h69q11 0 15 -9.5t-4 -17.5l-72 -73q-12 -13 -24 -20t-29 -7h-21z" />
    <glyph glyph-name="Thorn" unicode="&#xde;" horiz-adv-x="552" 
d="M75 642q0 23 11 30.5t27 7.5h60q16 0 27 -7.5t11 -30.5v-79h76q40 0 81.5 -10.5t75.5 -35t56 -66t22 -104.5q0 -59 -20 -99.5t-52 -66.5t-72.5 -37.5t-80.5 -11.5h-86v-94q0 -23 -11 -30.5t-27 -7.5h-60q-16 0 -27 7.5t-11 30.5v604zM277 248q33 0 54.5 9t34 23.5t17 32
t4.5 34.5t-6 35t-19.5 32.5t-34.5 23.5t-50 9h-66v-199h66z" />
    <glyph glyph-name="germandbls" unicode="&#xdf;" horiz-adv-x="572" 
d="M70 487q0 43 13 82.5t40 70t69 48.5t100 18q42 0 79 -10.5t65 -32.5t44.5 -57t16.5 -84t-23.5 -90t-74.5 -61v-2q25 -4 48.5 -15.5t41.5 -31t29 -48t11 -66.5q0 -42 -14.5 -80.5t-42.5 -68t-69 -47t-95 -17.5h-14t-14 1q-11 2 -18.5 6t-7.5 23v57q0 17 8 20.5t19 3.5h4
q54 0 81 28.5t27 70.5q0 48 -24 70t-65 28q-17 2 -27.5 9t-10.5 23v36q0 17 10.5 24.5t27.5 13.5q23 9 42 31.5t19 64.5q0 49 -23.5 69.5t-55.5 20.5q-45 0 -64.5 -31.5t-19.5 -82.5v-443q0 -16 -11 -27t-27 -11h-56q-16 0 -27 11t-11 27v449z" />
    <glyph glyph-name="agrave" unicode="&#xe0;" horiz-adv-x="552" 
d="M46 134q0 45 18.5 73.5t52 45t81 23t105.5 6.5h51v19q0 42 -18.5 64.5t-63.5 22.5q-49 0 -71 -25q-7 -8 -11 -14.5t-8.5 -11t-10.5 -7t-17 -2.5h-59q-22 0 -27.5 12t-0.5 26q7 25 23.5 46t42.5 37t63 25t85 9q58 0 96.5 -13t61.5 -36.5t32 -57t9 -73.5v-230
q0 -9 0.5 -18.5t1.5 -19.5q2 -14 -3 -24.5t-29 -10.5h-44q-24 0 -32.5 10.5t-10.5 27.5l-4 24h-2q-20 -37 -55.5 -55.5t-92.5 -18.5q-28 0 -57 7.5t-52.5 24.5t-38.5 45t-15 69zM178 140q0 -34 21 -46.5t54 -12.5q19 0 37 5.5t32.5 17.5t23 30.5t8.5 45.5v26h-37
q-26 0 -50.5 -2.5t-44.5 -9.5t-32 -20t-12 -34zM294 554q-17 0 -29 7t-24 20l-72 73q-8 8 -4 17.5t15 9.5h69q17 0 26.5 -9t18.5 -23l39 -63q6 -11 6.5 -17t-3 -9.5t-9.5 -4.5t-12 -1h-21z" />
    <glyph glyph-name="aacute" unicode="&#xe1;" horiz-adv-x="552" 
d="M46 134q0 45 18.5 73.5t52 45t81 23t105.5 6.5h51v19q0 42 -18.5 64.5t-63.5 22.5q-49 0 -71 -25q-7 -8 -11 -14.5t-8.5 -11t-10.5 -7t-17 -2.5h-59q-22 0 -27.5 12t-0.5 26q7 25 23.5 46t42.5 37t63 25t85 9q58 0 96.5 -13t61.5 -36.5t32 -57t9 -73.5v-230
q0 -9 0.5 -18.5t1.5 -19.5q2 -14 -3 -24.5t-29 -10.5h-44q-24 0 -32.5 10.5t-10.5 27.5l-4 24h-2q-20 -37 -55.5 -55.5t-92.5 -18.5q-28 0 -57 7.5t-52.5 24.5t-38.5 45t-15 69zM178 140q0 -34 21 -46.5t54 -12.5q19 0 37 5.5t32.5 17.5t23 30.5t8.5 45.5v26h-37
q-26 0 -50.5 -2.5t-44.5 -9.5t-32 -20t-12 -34zM251 554q-6 0 -12 1t-9.5 4.5t-3 9.5t6.5 17l39 63q9 14 18.5 23t26.5 9h69q11 0 15 -9.5t-4 -17.5l-72 -73q-12 -13 -24 -20t-29 -7h-21z" />
    <glyph glyph-name="acircumflex" unicode="&#xe2;" horiz-adv-x="552" 
d="M46 134q0 45 18.5 73.5t52 45t81 23t105.5 6.5h51v19q0 42 -18.5 64.5t-63.5 22.5q-49 0 -71 -25q-7 -8 -11 -14.5t-8.5 -11t-10.5 -7t-17 -2.5h-59q-22 0 -27.5 12t-0.5 26q7 25 23.5 46t42.5 37t63 25t85 9q58 0 96.5 -13t61.5 -36.5t32 -57t9 -73.5v-230
q0 -9 0.5 -18.5t1.5 -19.5q2 -14 -3 -24.5t-29 -10.5h-44q-24 0 -32.5 10.5t-10.5 27.5l-4 24h-2q-20 -37 -55.5 -55.5t-92.5 -18.5q-28 0 -57 7.5t-52.5 24.5t-38.5 45t-15 69zM178 140q0 -34 21 -46.5t54 -12.5q19 0 37 5.5t32.5 17.5t23 30.5t8.5 45.5v26h-37
q-26 0 -50.5 -2.5t-44.5 -9.5t-32 -20t-12 -34zM157 549q-12 0 -20.5 5.5t5.5 25.5l51 70q11 14 23 22.5t29 8.5h56q17 0 26.5 -8.5t20.5 -22.5l51 -70q14 -20 5.5 -25.5t-20.5 -5.5h-24q-17 0 -27.5 8t-21.5 22l-40 51l-40 -51q-11 -14 -21 -22t-27 -8h-26z" />
    <glyph glyph-name="atilde" unicode="&#xe3;" horiz-adv-x="552" 
d="M46 134q0 45 18.5 73.5t52 45t81 23t105.5 6.5h51v19q0 42 -18.5 64.5t-63.5 22.5q-49 0 -71 -25q-7 -8 -11 -14.5t-8.5 -11t-10.5 -7t-17 -2.5h-59q-22 0 -27.5 12t-0.5 26q7 25 23.5 46t42.5 37t63 25t85 9q58 0 96.5 -13t61.5 -36.5t32 -57t9 -73.5v-230
q0 -9 0.5 -18.5t1.5 -19.5q2 -14 -3 -24.5t-29 -10.5h-44q-24 0 -32.5 10.5t-10.5 27.5l-4 24h-2q-20 -37 -55.5 -55.5t-92.5 -18.5q-28 0 -57 7.5t-52.5 24.5t-38.5 45t-15 69zM178 140q0 -34 21 -46.5t54 -12.5q19 0 37 5.5t32.5 17.5t23 30.5t8.5 45.5v26h-37
q-26 0 -50.5 -2.5t-44.5 -9.5t-32 -20t-12 -34zM127 555q-10 0 -11 7.5t1 16.5q4 16 11.5 30.5t19 26t27.5 18.5t36 7q18 0 35 -5t33 -11q17 -7 31 -12.5t26 -5.5q22 0 33 15q8 11 12 17t18 6h16q9 0 11 -7.5t-1 -16.5q-8 -31 -30 -55.5t-62 -24.5q-17 0 -34.5 5t-33.5 11
t-30 11.5t-27 5.5q-23 0 -35 -16q-8 -11 -11.5 -17t-16.5 -6h-18z" />
    <glyph glyph-name="adieresis" unicode="&#xe4;" horiz-adv-x="552" 
d="M46 134q0 45 18.5 73.5t52 45t81 23t105.5 6.5h51v19q0 42 -18.5 64.5t-63.5 22.5q-49 0 -71 -25q-7 -8 -11 -14.5t-8.5 -11t-10.5 -7t-17 -2.5h-59q-22 0 -27.5 12t-0.5 26q7 25 23.5 46t42.5 37t63 25t85 9q58 0 96.5 -13t61.5 -36.5t32 -57t9 -73.5v-230
q0 -9 0.5 -18.5t1.5 -19.5q2 -14 -3 -24.5t-29 -10.5h-44q-24 0 -32.5 10.5t-10.5 27.5l-4 24h-2q-20 -37 -55.5 -55.5t-92.5 -18.5q-28 0 -57 7.5t-52.5 24.5t-38.5 45t-15 69zM178 140q0 -34 21 -46.5t54 -12.5q19 0 37 5.5t32.5 17.5t23 30.5t8.5 45.5v26h-37
q-26 0 -50.5 -2.5t-44.5 -9.5t-32 -20t-12 -34zM373 548q-28 0 -47.5 20t-19.5 48t19.5 48t47.5 20t48 -20t20 -48t-20 -48t-48 -20zM180 548q-28 0 -48 20t-20 48t20 48t48 20t48 -20t20 -48t-20 -48t-48 -20z" />
    <glyph glyph-name="aring" unicode="&#xe5;" horiz-adv-x="552" 
d="M46 134q0 45 18.5 73.5t52 45t81 23t105.5 6.5h51v19q0 42 -18.5 64.5t-63.5 22.5q-49 0 -71 -25q-7 -8 -11 -14.5t-8.5 -11t-10.5 -7t-17 -2.5h-59q-22 0 -27.5 12t-0.5 26q7 25 23.5 46t42.5 37t63 25t85 9q58 0 96.5 -13t61.5 -36.5t32 -57t9 -73.5v-230
q0 -9 0.5 -18.5t1.5 -19.5q2 -14 -3 -24.5t-29 -10.5h-44q-24 0 -32.5 10.5t-10.5 27.5l-4 24h-2q-20 -37 -55.5 -55.5t-92.5 -18.5q-28 0 -57 7.5t-52.5 24.5t-38.5 45t-15 69zM178 140q0 -34 21 -46.5t54 -12.5q19 0 37 5.5t32.5 17.5t23 30.5t8.5 45.5v26h-37
q-26 0 -50.5 -2.5t-44.5 -9.5t-32 -20t-12 -34zM285 536q-20 0 -36.5 7.5t-29.5 20.5t-20 30t-7 35q0 19 7 35.5t20 29.5t29.5 20.5t36.5 7.5q18 0 35 -7.5t30 -20t20.5 -29.5t7.5 -36q0 -18 -7.5 -35t-20.5 -30t-30 -20.5t-35 -7.5zM285 585q18 0 31 13t13 31q0 19 -13 32
t-31 13q-19 0 -32 -13t-13 -32q0 -18 13 -31t32 -13z" />
    <glyph glyph-name="ae" unicode="&#xe6;" horiz-adv-x="870" 
d="M48 131q0 35 11.5 63t39 47.5t72.5 29.5t113 10h71v24q0 42 -18 62.5t-63 20.5q-56 0 -77 -24q-7 -8 -11 -15t-8 -11.5t-9.5 -7t-16.5 -2.5h-54q-23 0 -28 12t0 26q6 22 20.5 43.5t39 37.5t61.5 26t88 10q22 0 45.5 -3.5t44.5 -12t38.5 -22.5t28.5 -36q26 35 68 54.5
t90 19.5q120 0 178.5 -65t58.5 -180q0 -22 -8 -29.5t-25 -7.5h-322q0 -21 7.5 -41.5t23.5 -36t40 -25t56 -9.5q48 0 76 23q15 14 25.5 21.5t29.5 2.5l52 -14q20 -5 22.5 -17t-5.5 -25q-29 -48 -79 -70.5t-126 -22.5q-66 0 -111 25t-71 63q-35 -47 -82 -67.5t-118 -20.5
q-27 0 -57 7t-54.5 24t-40.5 44.5t-16 68.5zM697 285q0 18 -4.5 36.5t-15.5 33.5t-30 25t-49 10q-34 0 -56.5 -10.5t-36.5 -26t-20.5 -34t-8.5 -34.5h221zM175 140q0 -32 21 -45t57 -13q45 0 73.5 22.5t28.5 65.5v27h-68q-63 0 -87.5 -12.5t-24.5 -44.5z" />
    <glyph glyph-name="ccedilla" unicode="&#xe7;" horiz-adv-x="550" 
d="M255 -9q-53 6 -92.5 26.5t-65 52t-38 72.5t-12.5 89q0 54 18 100.5t51.5 80t80.5 52.5t105 19q78 0 127 -24t77 -66q8 -12 7 -25t-21 -21l-53 -20q-17 -6 -29 0.5t-24 20.5q-13 14 -32 23.5t-47 9.5q-34 0 -57 -13t-37.5 -34.5t-21 -50t-6.5 -58.5q0 -57 31 -94.5
t89 -37.5q52 0 80 33q12 13 23.5 19.5t28.5 0.5l54 -20q16 -6 19 -20t-6 -26q-29 -41 -79 -65.5t-119 -26.5l-21 -40l1 -1q4 1 10.5 1h10.5q37 0 63 -17.5t26 -56.5q0 -27 -10.5 -45.5t-28 -30t-41 -16t-50.5 -4.5q-9 0 -25 1t-30 4q-10 2 -16.5 7t-4.5 14l3 17q2 10 8.5 12
t16.5 0q10 -1 20 -1.5t18 -0.5q23 0 41.5 7.5t18.5 31.5q0 20 -15.5 26.5t-37.5 6.5q-20 0 -32 -3q-8 -2 -12 3l-3 4q-4 5 0 13z" />
    <glyph glyph-name="egrave" unicode="&#xe8;" horiz-adv-x="580" 
d="M47 234q0 57 18 103t51.5 78.5t80.5 50t104 17.5q120 0 180 -65t60 -180q0 -22 -12 -29.5t-27 -7.5h-321q0 -21 8 -41.5t24 -36t40.5 -25t56.5 -9.5q48 0 77 24q15 13 28.5 19.5t33.5 1.5l47 -12q21 -5 23 -17.5t-6 -24.5q-30 -48 -81.5 -70t-127.5 -22
q-61 0 -108.5 17.5t-80.5 49.5t-50.5 77.5t-17.5 101.5zM407 285q0 18 -5 36.5t-16.5 33.5t-31 25t-49.5 10q-34 0 -57 -10.5t-37.5 -26t-21 -34t-8.5 -34.5h226zM302 554q-17 0 -29 7t-24 20l-72 73q-8 8 -4 17.5t15 9.5h69q17 0 26.5 -9t18.5 -23l39 -63q6 -11 6.5 -17
t-3 -9.5t-9.5 -4.5t-12 -1h-21z" />
    <glyph glyph-name="eacute" unicode="&#xe9;" horiz-adv-x="580" 
d="M47 234q0 57 18 103t51.5 78.5t80.5 50t104 17.5q120 0 180 -65t60 -180q0 -22 -12 -29.5t-27 -7.5h-321q0 -21 8 -41.5t24 -36t40.5 -25t56.5 -9.5q48 0 77 24q15 13 28.5 19.5t33.5 1.5l47 -12q21 -5 23 -17.5t-6 -24.5q-30 -48 -81.5 -70t-127.5 -22
q-61 0 -108.5 17.5t-80.5 49.5t-50.5 77.5t-17.5 101.5zM407 285q0 18 -5 36.5t-16.5 33.5t-31 25t-49.5 10q-34 0 -57 -10.5t-37.5 -26t-21 -34t-8.5 -34.5h226zM292 554q-6 0 -12 1t-9.5 4.5t-3 9.5t6.5 17l39 63q9 14 18.5 23t26.5 9h69q11 0 15 -9.5t-4 -17.5l-72 -73
q-12 -13 -24 -20t-29 -7h-21z" />
    <glyph glyph-name="ecircumflex" unicode="&#xea;" horiz-adv-x="580" 
d="M47 234q0 57 18 103t51.5 78.5t80.5 50t104 17.5q120 0 180 -65t60 -180q0 -22 -12 -29.5t-27 -7.5h-321q0 -21 8 -41.5t24 -36t40.5 -25t56.5 -9.5q48 0 77 24q15 13 28.5 19.5t33.5 1.5l47 -12q21 -5 23 -17.5t-6 -24.5q-30 -48 -81.5 -70t-127.5 -22
q-61 0 -108.5 17.5t-80.5 49.5t-50.5 77.5t-17.5 101.5zM407 285q0 18 -5 36.5t-16.5 33.5t-31 25t-49.5 10q-34 0 -57 -10.5t-37.5 -26t-21 -34t-8.5 -34.5h226zM184 549q-12 0 -20.5 5.5t5.5 25.5l51 70q11 14 23 22.5t29 8.5h56q17 0 26.5 -8.5t20.5 -22.5l51 -70
q14 -20 5.5 -25.5t-20.5 -5.5h-24q-17 0 -27.5 8t-21.5 22l-40 51l-40 -51q-11 -14 -21 -22t-27 -8h-26z" />
    <glyph glyph-name="edieresis" unicode="&#xeb;" horiz-adv-x="580" 
d="M47 234q0 57 18 103t51.5 78.5t80.5 50t104 17.5q120 0 180 -65t60 -180q0 -22 -12 -29.5t-27 -7.5h-321q0 -21 8 -41.5t24 -36t40.5 -25t56.5 -9.5q48 0 77 24q15 13 28.5 19.5t33.5 1.5l47 -12q21 -5 23 -17.5t-6 -24.5q-30 -48 -81.5 -70t-127.5 -22
q-61 0 -108.5 17.5t-80.5 49.5t-50.5 77.5t-17.5 101.5zM407 285q0 18 -5 36.5t-16.5 33.5t-31 25t-49.5 10q-34 0 -57 -10.5t-37.5 -26t-21 -34t-8.5 -34.5h226zM397 548q-28 0 -47.5 20t-19.5 48t19.5 48t47.5 20t48 -20t20 -48t-20 -48t-48 -20zM204 548q-28 0 -48 20
t-20 48t20 48t48 20t48 -20t20 -48t-20 -48t-48 -20z" />
    <glyph glyph-name="igrave" unicode="&#xec;" horiz-adv-x="261" 
d="M69 432q0 23 11 30.5t27 7.5h55q16 0 27 -7.5t11 -30.5v-394q0 -23 -11 -30.5t-27 -7.5h-55q-16 0 -27 7.5t-11 30.5v394zM126 554q-17 0 -29 7t-24 20l-72 73q-8 8 -4 17.5t15 9.5h69q17 0 26.5 -9t18.5 -23l39 -63q6 -11 6.5 -17t-3 -9.5t-9.5 -4.5t-12 -1h-21z" />
    <glyph glyph-name="iacute" unicode="&#xed;" horiz-adv-x="261" 
d="M65 432q0 23 11 30.5t27 7.5h55q16 0 27 -7.5t11 -30.5v-394q0 -23 -11 -30.5t-27 -7.5h-55q-16 0 -27 7.5t-11 30.5v394zM123 554q-6 0 -12 1t-9.5 4.5t-3 9.5t6.5 17l39 63q9 14 18.5 23t26.5 9h69q11 0 15 -9.5t-4 -17.5l-72 -73q-12 -13 -24 -20t-29 -7h-21z" />
    <glyph glyph-name="icircumflex" unicode="&#xee;" horiz-adv-x="261" 
d="M73 432q0 23 11 30.5t27 7.5h55q16 0 27 -7.5t11 -30.5v-394q0 -23 -11 -30.5t-27 -7.5h-55q-16 0 -27 7.5t-11 30.5v394zM32 549q-12 0 -20.5 5.5t5.5 25.5l51 70q11 14 23 22.5t29 8.5h56q17 0 26.5 -8.5t20.5 -22.5l51 -70q14 -20 5.5 -25.5t-20.5 -5.5h-24
q-17 0 -27.5 8t-21.5 22l-40 51l-40 -51q-11 -14 -21 -22t-27 -8h-26z" />
    <glyph glyph-name="idieresis" unicode="&#xef;" horiz-adv-x="261" 
d="M220 548q-28 0 -45 20t-17 48t17 48t45 20t45.5 -20t17.5 -48t-17.5 -48t-45.5 -20zM47 548q-28 0 -45.5 20t-17.5 48t17.5 48t45.5 20t45.5 -20t17.5 -48t-17.5 -48t-45.5 -20zM65 432q0 23 11 30.5t27 7.5h55q16 0 27 -7.5t11 -30.5v-394q0 -23 -11 -30.5t-27 -7.5h-55
q-16 0 -27 7.5t-11 30.5v394z" />
    <glyph glyph-name="eth" unicode="&#xf0;" horiz-adv-x="612" 
d="M47 235q0 57 19.5 103.5t53 78.5t78.5 49.5t96 17.5q33 0 54.5 -7t47.5 -23h2q-17 30 -46.5 65.5t-67.5 64.5l-89 -37q-15 -6 -25.5 -7.5t-23.5 8.5l-13 10q-10 8 -10.5 19t16.5 18l86 35q-16 11 -30.5 20.5t-31.5 19.5q-10 5 -12.5 15.5t14.5 18.5l58 26q16 7 29 3.5
t27 -13.5l59 -44l93 38q14 6 25 7.5t22 -9.5l10 -10q9 -9 12 -19t-19 -18l-87 -35q44 -38 76.5 -77.5t53.5 -83t31 -92t10 -105.5t-14 -109t-45 -91t-80.5 -62t-121.5 -23q-57 0 -104.5 17.5t-81.5 50t-52.5 78t-18.5 102.5zM178 237q0 -30 7.5 -56.5t23 -46t40 -30.5
t58.5 -11q32 0 56 11t39.5 30.5t23 46t7.5 56.5q0 63 -34.5 104t-91.5 41q-60 0 -94.5 -41t-34.5 -104z" />
    <glyph glyph-name="ntilde" unicode="&#xf1;" horiz-adv-x="572" 
d="M68 432q0 23 11 30.5t27 7.5h49q16 0 27 -7.5t11 -30.5v-23h2q30 43 68 58.5t78 15.5q42 0 73.5 -13t51.5 -35t30 -52t10 -64v-281q0 -23 -11 -30.5t-27 -7.5h-56q-16 0 -27 7.5t-11 30.5v248q0 25 -7 42.5t-18.5 28t-26.5 15t-31 4.5q-39 0 -65.5 -30.5t-26.5 -78.5
v-229q0 -23 -11 -30.5t-27 -7.5h-55q-16 0 -27 7.5t-11 30.5v394zM150 555q-10 0 -11 7.5t1 16.5q4 16 11.5 30.5t19 26t27.5 18.5t36 7q18 0 35 -5t33 -11q17 -7 31 -12.5t26 -5.5q22 0 33 15q8 11 12 17t18 6h16q9 0 11 -7.5t-1 -16.5q-8 -31 -30 -55.5t-62 -24.5
q-17 0 -34.5 5t-33.5 11t-30 11.5t-27 5.5q-23 0 -35 -16q-8 -11 -11.5 -17t-16.5 -6h-18z" />
    <glyph glyph-name="ograve" unicode="&#xf2;" horiz-adv-x="613" 
d="M47 236q0 46 16.5 90.5t49.5 79.5t81.5 56t111.5 21q68 0 117.5 -21t81 -56t46.5 -79.5t15 -90.5q0 -47 -16.5 -92t-49.5 -79.5t-81.5 -55.5t-112.5 -21q-69 0 -118 21t-80.5 55.5t-46 79.5t-14.5 92zM180 235q0 -63 30 -103.5t96 -40.5q65 0 95 40.5t30 103.5t-30 104
t-95 41t-95.5 -41t-30.5 -104zM295 554q-17 0 -29 7t-24 20l-72 73q-8 8 -4 17.5t15 9.5h69q17 0 26.5 -9t18.5 -23l39 -63q6 -11 6.5 -17t-3 -9.5t-9.5 -4.5t-12 -1h-21z" />
    <glyph glyph-name="oacute" unicode="&#xf3;" horiz-adv-x="613" 
d="M47 236q0 46 16.5 90.5t49.5 79.5t81.5 56t111.5 21q68 0 117.5 -21t81 -56t46.5 -79.5t15 -90.5q0 -47 -16.5 -92t-49.5 -79.5t-81.5 -55.5t-112.5 -21q-69 0 -118 21t-80.5 55.5t-46 79.5t-14.5 92zM180 235q0 -63 30 -103.5t96 -40.5q65 0 95 40.5t30 103.5t-30 104
t-95 41t-95.5 -41t-30.5 -104zM302 554q-6 0 -12 1t-9.5 4.5t-3 9.5t6.5 17l39 63q9 14 18.5 23t26.5 9h69q11 0 15 -9.5t-4 -17.5l-72 -73q-12 -13 -24 -20t-29 -7h-21z" />
    <glyph glyph-name="ocircumflex" unicode="&#xf4;" horiz-adv-x="613" 
d="M47 236q0 46 16.5 90.5t49.5 79.5t81.5 56t111.5 21q68 0 117.5 -21t81 -56t46.5 -79.5t15 -90.5q0 -47 -16.5 -92t-49.5 -79.5t-81.5 -55.5t-112.5 -21q-69 0 -118 21t-80.5 55.5t-46 79.5t-14.5 92zM180 235q0 -63 30 -103.5t96 -40.5q65 0 95 40.5t30 103.5t-30 104
t-95 41t-95.5 -41t-30.5 -104zM197 549q-12 0 -20.5 5.5t5.5 25.5l51 70q11 14 23 22.5t29 8.5h56q17 0 26.5 -8.5t20.5 -22.5l51 -70q14 -20 5.5 -25.5t-20.5 -5.5h-24q-17 0 -27.5 8t-21.5 22l-40 51l-40 -51q-11 -14 -21 -22t-27 -8h-26z" />
    <glyph glyph-name="otilde" unicode="&#xf5;" horiz-adv-x="613" 
d="M47 236q0 46 16.5 90.5t49.5 79.5t81.5 56t111.5 21q68 0 117.5 -21t81 -56t46.5 -79.5t15 -90.5q0 -47 -16.5 -92t-49.5 -79.5t-81.5 -55.5t-112.5 -21q-69 0 -118 21t-80.5 55.5t-46 79.5t-14.5 92zM180 235q0 -63 30 -103.5t96 -40.5q65 0 95 40.5t30 103.5t-30 104
t-95 41t-95.5 -41t-30.5 -104zM166 555q-10 0 -11 7.5t1 16.5q4 16 11.5 30.5t19 26t27.5 18.5t36 7q18 0 35 -5t33 -11q17 -7 31 -12.5t26 -5.5q22 0 33 15q8 11 12 17t18 6h16q9 0 11 -7.5t-1 -16.5q-8 -31 -30 -55.5t-62 -24.5q-17 0 -34.5 5t-33.5 11t-30 11.5t-27 5.5
q-23 0 -35 -16q-8 -11 -11.5 -17t-16.5 -6h-18z" />
    <glyph glyph-name="odieresis" unicode="&#xf6;" horiz-adv-x="613" 
d="M47 236q0 46 16.5 90.5t49.5 79.5t81.5 56t111.5 21q68 0 117.5 -21t81 -56t46.5 -79.5t15 -90.5q0 -47 -16.5 -92t-49.5 -79.5t-81.5 -55.5t-112.5 -21q-69 0 -118 21t-80.5 55.5t-46 79.5t-14.5 92zM180 235q0 -63 30 -103.5t96 -40.5q65 0 95 40.5t30 103.5t-30 104
t-95 41t-95.5 -41t-30.5 -104zM404 548q-28 0 -47.5 20t-19.5 48t19.5 48t47.5 20t48 -20t20 -48t-20 -48t-48 -20zM211 548q-28 0 -48 20t-20 48t20 48t48 20t48 -20t20 -48t-20 -48t-48 -20z" />
    <glyph glyph-name="divide" unicode="&#xf7;" 
d="M255 329q-27 0 -47 20t-20 48t20 47t47 19t46.5 -19t19.5 -47t-19.5 -48t-46.5 -20zM89 198q-23 0 -30.5 11t-7.5 27v19q0 16 7.5 27t30.5 11h332q23 0 30.5 -11t7.5 -27v-19q0 -16 -7.5 -27t-30.5 -11h-332zM188 95q0 27 20 46.5t47 19.5t46.5 -19.5t19.5 -46.5
q0 -28 -19.5 -47.5t-46.5 -19.5t-47 19.5t-20 47.5z" />
    <glyph glyph-name="oslash" unicode="&#xf8;" horiz-adv-x="613" 
d="M67 -8q-7 7 -5.5 14.5t8.5 14.5l40 42q-32 35 -47.5 80t-15.5 93q0 46 16.5 90.5t49.5 79.5t81.5 56t111.5 21q51 0 90 -12t69 -32l41 44q7 7 14.5 9.5t14.5 -4.5l9 -9q7 -7 5.5 -14.5t-7.5 -14.5l-39 -43q32 -35 47.5 -79t15.5 -92q0 -47 -16.5 -92t-49.5 -79.5
t-81.5 -55.5t-112.5 -21q-51 0 -90 11t-69 31l-41 -43q-7 -7 -14.5 -9.5t-14.5 4.5zM385 355q-29 25 -79 25q-65 0 -95.5 -41t-30.5 -104q0 -49 16 -81zM227 115q31 -24 79 -24q65 0 95 40.5t30 103.5q0 48 -16 80z" />
    <glyph glyph-name="ugrave" unicode="&#xf9;" horiz-adv-x="572" 
d="M66 432q0 23 11 30.5t27 7.5h55q16 0 27 -7.5t11 -30.5v-248q0 -26 7 -43t19 -28t26.5 -15.5t29.5 -4.5q42 0 67.5 31t25.5 79v229q0 23 11 30.5t27 7.5h56q16 0 27 -7.5t11 -30.5v-394q0 -23 -11 -30.5t-27 -7.5h-51q-16 0 -27 7.5t-11 30.5v24h-2q-29 -43 -67 -59
t-78 -16q-43 0 -74 13t-51 35.5t-29.5 52t-9.5 63.5v281zM291 554q-17 0 -29 7t-24 20l-72 73q-8 8 -4 17.5t15 9.5h69q17 0 26.5 -9t18.5 -23l39 -63q6 -11 6.5 -17t-3 -9.5t-9.5 -4.5t-12 -1h-21z" />
    <glyph glyph-name="uacute" unicode="&#xfa;" horiz-adv-x="572" 
d="M66 432q0 23 11 30.5t27 7.5h55q16 0 27 -7.5t11 -30.5v-248q0 -26 7 -43t19 -28t26.5 -15.5t29.5 -4.5q42 0 67.5 31t25.5 79v229q0 23 11 30.5t27 7.5h56q16 0 27 -7.5t11 -30.5v-394q0 -23 -11 -30.5t-27 -7.5h-51q-16 0 -27 7.5t-11 30.5v24h-2q-29 -43 -67 -59
t-78 -16q-43 0 -74 13t-51 35.5t-29.5 52t-9.5 63.5v281zM267 554q-6 0 -12 1t-9.5 4.5t-3 9.5t6.5 17l39 63q9 14 18.5 23t26.5 9h69q11 0 15 -9.5t-4 -17.5l-72 -73q-12 -13 -24 -20t-29 -7h-21z" />
    <glyph glyph-name="ucircumflex" unicode="&#xfb;" horiz-adv-x="572" 
d="M66 432q0 23 11 30.5t27 7.5h55q16 0 27 -7.5t11 -30.5v-248q0 -26 7 -43t19 -28t26.5 -15.5t29.5 -4.5q42 0 67.5 31t25.5 79v229q0 23 11 30.5t27 7.5h56q16 0 27 -7.5t11 -30.5v-394q0 -23 -11 -30.5t-27 -7.5h-51q-16 0 -27 7.5t-11 30.5v24h-2q-29 -43 -67 -59
t-78 -16q-43 0 -74 13t-51 35.5t-29.5 52t-9.5 63.5v281zM176 549q-12 0 -20.5 5.5t5.5 25.5l51 70q11 14 23 22.5t29 8.5h56q17 0 26.5 -8.5t20.5 -22.5l51 -70q14 -20 5.5 -25.5t-20.5 -5.5h-24q-17 0 -27.5 8t-21.5 22l-40 51l-40 -51q-11 -14 -21 -22t-27 -8h-26z" />
    <glyph glyph-name="udieresis" unicode="&#xfc;" horiz-adv-x="572" 
d="M66 432q0 23 11 30.5t27 7.5h55q16 0 27 -7.5t11 -30.5v-248q0 -26 7 -43t19 -28t26.5 -15.5t29.5 -4.5q42 0 67.5 31t25.5 79v229q0 23 11 30.5t27 7.5h56q16 0 27 -7.5t11 -30.5v-394q0 -23 -11 -30.5t-27 -7.5h-51q-16 0 -27 7.5t-11 30.5v24h-2q-29 -43 -67 -59
t-78 -16q-43 0 -74 13t-51 35.5t-29.5 52t-9.5 63.5v281zM379 548q-28 0 -47.5 20t-19.5 48t19.5 48t47.5 20t48 -20t20 -48t-20 -48t-48 -20zM186 548q-28 0 -48 20t-20 48t20 48t48 20t48 -20t20 -48t-20 -48t-48 -20z" />
    <glyph glyph-name="yacute" unicode="&#xfd;" horiz-adv-x="507" 
d="M30 434q-8 20 1.5 28t23.5 8h82q17 0 25.5 -10t13.5 -26l88 -278h2l88 278q5 16 14 26t26 10h75q14 0 23 -8t1 -28l-231 -598q-6 -16 -15.5 -26t-26.5 -10h-72q-14 0 -23 6t0 29l68 165zM243 554q-6 0 -12 1t-9.5 4.5t-3 9.5t6.5 17l39 63q9 14 18.5 23t26.5 9h69
q11 0 15 -9.5t-4 -17.5l-72 -73q-12 -13 -24 -20t-29 -7h-21z" />
    <glyph glyph-name="thorn" unicode="&#xfe;" horiz-adv-x="616" 
d="M68 668q0 23 11 30.5t27 7.5h55q16 0 27 -7.5t11 -30.5v-257h1q23 35 62.5 53.5t85.5 18.5q49 0 89.5 -20.5t69.5 -55t45 -79.5t16 -94q0 -50 -15 -94.5t-43 -78.5t-68.5 -54t-91.5 -20q-46 0 -81 16.5t-69 60.5h-1v-226q0 -23 -11 -30.5t-27 -7.5h-55q-16 0 -27 7.5
t-11 30.5v830zM194 236q0 -26 7.5 -51t22.5 -44t37.5 -30.5t53.5 -11.5q29 0 50.5 11.5t36 31t21.5 44.5t7 52q0 28 -7.5 53t-22.5 44t-37 30t-51 11q-28 0 -50 -11t-37 -29.5t-23 -44t-8 -55.5z" />
    <glyph glyph-name="ydieresis" unicode="&#xff;" horiz-adv-x="507" 
d="M30 434q-8 20 1.5 28t23.5 8h82q17 0 25.5 -10t13.5 -26l88 -278h2l88 278q5 16 14 26t26 10h75q14 0 23 -8t1 -28l-231 -598q-6 -16 -15.5 -26t-26.5 -10h-72q-14 0 -23 6t0 29l68 165zM360 548q-28 0 -47.5 20t-19.5 48t19.5 48t47.5 20t48 -20t20 -48t-20 -48t-48 -20
zM167 548q-28 0 -48 20t-20 48t20 48t48 20t48 -20t20 -48t-20 -48t-48 -20z" />
    <glyph glyph-name="Amacron" unicode="&#x100;" horiz-adv-x="633" 
d="M243 644q6 16 20 26t31 10h67q17 0 31 -10t19 -26l212 -608q7 -20 -2 -28t-23 -8h-83q-17 0 -26 10t-14 26l-34 106h-238l-32 -105q-5 -17 -14 -27t-26 -10h-80q-14 0 -23.5 8t-1.5 28zM411 252l-87 264h-1l-86 -264h174zM223 765q-12 0 -20.5 3.5t-8.5 15.5v22
q0 12 8.5 15.5t20.5 3.5h204q12 0 20.5 -3.5t8.5 -15.5v-22q0 -12 -8.5 -15.5t-20.5 -3.5h-204z" />
    <glyph glyph-name="amacron" unicode="&#x101;" horiz-adv-x="552" 
d="M46 134q0 45 18.5 73.5t52 45t81 23t105.5 6.5h51v19q0 42 -18.5 64.5t-63.5 22.5q-49 0 -71 -25q-7 -8 -11 -14.5t-8.5 -11t-10.5 -7t-17 -2.5h-59q-22 0 -27.5 12t-0.5 26q7 25 23.5 46t42.5 37t63 25t85 9q58 0 96.5 -13t61.5 -36.5t32 -57t9 -73.5v-230
q0 -9 0.5 -18.5t1.5 -19.5q2 -14 -3 -24.5t-29 -10.5h-44q-24 0 -32.5 10.5t-10.5 27.5l-4 24h-2q-20 -37 -55.5 -55.5t-92.5 -18.5q-28 0 -57 7.5t-52.5 24.5t-38.5 45t-15 69zM178 140q0 -34 21 -46.5t54 -12.5q19 0 37 5.5t32.5 17.5t23 30.5t8.5 45.5v26h-37
q-26 0 -50.5 -2.5t-44.5 -9.5t-32 -20t-12 -34zM176 575q-12 0 -20.5 3.5t-8.5 15.5v22q0 12 8.5 15.5t20.5 3.5h204q12 0 20.5 -3.5t8.5 -15.5v-22q0 -12 -8.5 -15.5t-20.5 -3.5h-204z" />
    <glyph glyph-name="Abreve" unicode="&#x102;" horiz-adv-x="633" 
d="M243 644q6 16 20 26t31 10h67q17 0 31 -10t19 -26l212 -608q7 -20 -2 -28t-23 -8h-83q-17 0 -26 10t-14 26l-34 106h-238l-32 -105q-5 -17 -14 -27t-26 -10h-80q-14 0 -23.5 8t-1.5 28zM411 252l-87 264h-1l-86 -264h174zM325 741q-55 0 -92 26.5t-49 71.5
q-3 11 -0.5 20.5t14.5 9.5h21q14 0 19.5 -7.5t11.5 -21.5q10 -20 27.5 -29.5t47.5 -9.5q29 0 47 10.5t28 30.5q7 12 13.5 19.5t20.5 7.5h19q11 0 13 -9t0 -20q-11 -45 -48.5 -72t-92.5 -27z" />
    <glyph glyph-name="abreve" unicode="&#x103;" horiz-adv-x="552" 
d="M46 134q0 45 18.5 73.5t52 45t81 23t105.5 6.5h51v19q0 42 -18.5 64.5t-63.5 22.5q-49 0 -71 -25q-7 -8 -11 -14.5t-8.5 -11t-10.5 -7t-17 -2.5h-59q-22 0 -27.5 12t-0.5 26q7 25 23.5 46t42.5 37t63 25t85 9q58 0 96.5 -13t61.5 -36.5t32 -57t9 -73.5v-230
q0 -9 0.5 -18.5t1.5 -19.5q2 -14 -3 -24.5t-29 -10.5h-44q-24 0 -32.5 10.5t-10.5 27.5l-4 24h-2q-20 -37 -55.5 -55.5t-92.5 -18.5q-28 0 -57 7.5t-52.5 24.5t-38.5 45t-15 69zM178 140q0 -34 21 -46.5t54 -12.5q19 0 37 5.5t32.5 17.5t23 30.5t8.5 45.5v26h-37
q-26 0 -50.5 -2.5t-44.5 -9.5t-32 -20t-12 -34zM271 551q-55 0 -92 26.5t-49 71.5q-3 11 -0.5 20.5t14.5 9.5h21q14 0 19.5 -7.5t11.5 -21.5q10 -20 27.5 -29.5t47.5 -9.5q29 0 47 10.5t28 30.5q7 12 13.5 19.5t20.5 7.5h19q11 0 13 -9t0 -20q-11 -45 -48.5 -72t-92.5 -27z
" />
    <glyph glyph-name="Aogonek" unicode="&#x104;" horiz-adv-x="633" 
d="M453 -127q0 35 25 67t68 60h-31q-17 0 -26 10t-14 26l-34 106h-238l-32 -105q-5 -17 -14 -27t-26 -10h-80q-14 0 -23.5 8t-1.5 28l217 608q6 16 20 26t31 10h67q17 0 31 -10t19 -26l212 -608q7 -20 -2 -28t-23 -8h-3q-30 -30 -47.5 -54t-17.5 -53q0 -39 40 -39
q6 0 11.5 0.5t10.5 0.5q11 1 15 -1t6 -10l3 -17q2 -9 -4.5 -15t-15.5 -8q-10 -2 -20.5 -3t-21.5 -1q-17 0 -35 3.5t-32.5 11.5t-24 22.5t-9.5 35.5zM411 252l-87 264h-1l-86 -264h174z" />
    <glyph glyph-name="aogonek" unicode="&#x105;" horiz-adv-x="552" 
d="M310 -127q0 35 25 67t68 60q-23 1 -30.5 11t-9.5 27l-4 24h-2q-20 -37 -55.5 -55.5t-92.5 -18.5q-28 0 -57 7.5t-52.5 24.5t-38.5 45t-15 69q0 45 18.5 73.5t52 45t81 23t105.5 6.5h51v19q0 42 -18.5 64.5t-63.5 22.5q-49 0 -71 -25q-7 -8 -11 -14.5t-8.5 -11t-10.5 -7
t-17 -2.5h-59q-22 0 -27.5 12t-0.5 26q7 25 23.5 46t42.5 37t63 25t85 9q58 0 96.5 -13t61.5 -36.5t32 -57t9 -73.5v-230q0 -9 0.5 -18.5t1.5 -19.5q2 -14 -2.5 -24.5t-27.5 -10.5q-30 -30 -47.5 -54t-17.5 -53q0 -39 40 -39q6 0 11.5 0.5t10.5 0.5q11 1 15 -1t6 -10l3 -17
q2 -9 -4.5 -15t-15.5 -8q-10 -2 -20.5 -3t-21.5 -1q-17 0 -35 3.5t-32.5 11.5t-24 22.5t-9.5 35.5zM178 140q0 -34 21 -46.5t54 -12.5q19 0 37 5.5t32.5 17.5t23 30.5t8.5 45.5v26h-37q-26 0 -50.5 -2.5t-44.5 -9.5t-32 -20t-12 -34z" />
    <glyph glyph-name="Cacute" unicode="&#x106;" horiz-adv-x="723" 
d="M52 340q0 74 24.5 138.5t69.5 112t107 75t137 27.5q53 0 100 -10t85.5 -31.5t68 -56.5t46.5 -85q5 -14 1.5 -26t-26.5 -17l-74 -14q-17 -3 -26.5 6t-17.5 25q-22 47 -62 67.5t-94 20.5q-44 0 -79.5 -18.5t-60 -50.5t-38 -74t-13.5 -90q0 -54 14 -97t39.5 -72.5t62 -45.5
t80.5 -16t82.5 17.5t63.5 55.5q9 16 19 24.5t27 6.5l82 -10q22 -3 25 -15t-3 -26q-41 -92 -120.5 -133t-181.5 -41q-74 0 -136 23t-107 68t-70 110.5t-25 151.5zM382 744q-6 0 -12 1t-9.5 4.5t-3 9.5t6.5 17l39 63q9 14 18.5 23t26.5 9h69q11 0 15 -9.5t-4 -17.5l-72 -73
q-12 -13 -24 -20t-29 -7h-21z" />
    <glyph glyph-name="cacute" unicode="&#x107;" horiz-adv-x="550" 
d="M47 231q0 54 18 100.5t51.5 80t80.5 52.5t105 19q78 0 127 -24t77 -66q8 -12 7 -25t-21 -21l-53 -20q-17 -6 -29 0.5t-24 20.5q-13 14 -32 23.5t-47 9.5q-34 0 -57 -13t-37.5 -34.5t-21 -50t-6.5 -58.5q0 -57 31 -94.5t89 -37.5q52 0 80 33q12 13 23.5 19.5t28.5 0.5
l54 -20q16 -6 19 -20t-6 -26q-30 -42 -80.5 -67t-122.5 -25q-65 0 -113 18.5t-79.5 50.5t-46.5 76.5t-15 97.5zM284 554q-6 0 -12 1t-9.5 4.5t-3 9.5t6.5 17l39 63q9 14 18.5 23t26.5 9h69q11 0 15 -9.5t-4 -17.5l-72 -73q-12 -13 -24 -20t-29 -7h-21z" />
    <glyph glyph-name="Ccircumflex" unicode="&#x108;" horiz-adv-x="723" 
d="M52 340q0 74 24.5 138.5t69.5 112t107 75t137 27.5q53 0 100 -10t85.5 -31.5t68 -56.5t46.5 -85q5 -14 1.5 -26t-26.5 -17l-74 -14q-17 -3 -26.5 6t-17.5 25q-22 47 -62 67.5t-94 20.5q-44 0 -79.5 -18.5t-60 -50.5t-38 -74t-13.5 -90q0 -54 14 -97t39.5 -72.5t62 -45.5
t80.5 -16t82.5 17.5t63.5 55.5q9 16 19 24.5t27 6.5l82 -10q22 -3 25 -15t-3 -26q-41 -92 -120.5 -133t-181.5 -41q-74 0 -136 23t-107 68t-70 110.5t-25 151.5zM287 739q-12 0 -20.5 5.5t5.5 25.5l51 70q11 14 23 22.5t29 8.5h56q17 0 26.5 -8.5t20.5 -22.5l51 -70
q14 -20 5.5 -25.5t-20.5 -5.5h-24q-17 0 -27.5 8t-21.5 22l-40 51l-40 -51q-11 -14 -21 -22t-27 -8h-26z" />
    <glyph glyph-name="ccircumflex" unicode="&#x109;" horiz-adv-x="550" 
d="M47 231q0 54 18 100.5t51.5 80t80.5 52.5t105 19q78 0 127 -24t77 -66q8 -12 7 -25t-21 -21l-53 -20q-17 -6 -29 0.5t-24 20.5q-13 14 -32 23.5t-47 9.5q-34 0 -57 -13t-37.5 -34.5t-21 -50t-6.5 -58.5q0 -57 31 -94.5t89 -37.5q52 0 80 33q12 13 23.5 19.5t28.5 0.5
l54 -20q16 -6 19 -20t-6 -26q-30 -42 -80.5 -67t-122.5 -25q-65 0 -113 18.5t-79.5 50.5t-46.5 76.5t-15 97.5zM186 549q-12 0 -20.5 5.5t5.5 25.5l51 70q11 14 23 22.5t29 8.5h56q17 0 26.5 -8.5t20.5 -22.5l51 -70q14 -20 5.5 -25.5t-20.5 -5.5h-24q-17 0 -27.5 8
t-21.5 22l-40 51l-40 -51q-11 -14 -21 -22t-27 -8h-26z" />
    <glyph glyph-name="Cdotaccent" unicode="&#x10a;" horiz-adv-x="723" 
d="M52 340q0 74 24.5 138.5t69.5 112t107 75t137 27.5q53 0 100 -10t85.5 -31.5t68 -56.5t46.5 -85q5 -14 1.5 -26t-26.5 -17l-74 -14q-17 -3 -26.5 6t-17.5 25q-22 47 -62 67.5t-94 20.5q-44 0 -79.5 -18.5t-60 -50.5t-38 -74t-13.5 -90q0 -54 14 -97t39.5 -72.5t62 -45.5
t80.5 -16t82.5 17.5t63.5 55.5q9 16 19 24.5t27 6.5l82 -10q22 -3 25 -15t-3 -26q-41 -92 -120.5 -133t-181.5 -41q-74 0 -136 23t-107 68t-70 110.5t-25 151.5zM394 736q-17 0 -31 7t-24.5 17.5t-16 24t-5.5 27.5q0 30 21.5 54t55.5 24q15 0 28.5 -6t24 -16t17 -24t6.5 -30
q0 -15 -6 -29t-16.5 -25t-24.5 -17.5t-29 -6.5z" />
    <glyph glyph-name="cdotaccent" unicode="&#x10b;" horiz-adv-x="550" 
d="M47 231q0 54 18 100.5t51.5 80t80.5 52.5t105 19q78 0 127 -24t77 -66q8 -12 7 -25t-21 -21l-53 -20q-17 -6 -29 0.5t-24 20.5q-13 14 -32 23.5t-47 9.5q-34 0 -57 -13t-37.5 -34.5t-21 -50t-6.5 -58.5q0 -57 31 -94.5t89 -37.5q52 0 80 33q12 13 23.5 19.5t28.5 0.5
l54 -20q16 -6 19 -20t-6 -26q-30 -42 -80.5 -67t-122.5 -25q-65 0 -113 18.5t-79.5 50.5t-46.5 76.5t-15 97.5zM298 539q-17 0 -31 7t-24.5 17.5t-16 24t-5.5 27.5q0 30 21.5 54t55.5 24q15 0 28.5 -6t24 -16t17 -24t6.5 -30q0 -15 -6 -29t-16.5 -25t-24.5 -17.5t-29 -6.5z
" />
    <glyph glyph-name="Ccaron" unicode="&#x10c;" horiz-adv-x="723" 
d="M52 340q0 74 24.5 138.5t69.5 112t107 75t137 27.5q53 0 100 -10t85.5 -31.5t68 -56.5t46.5 -85q5 -14 1.5 -26t-26.5 -17l-74 -14q-17 -3 -26.5 6t-17.5 25q-22 47 -62 67.5t-94 20.5q-44 0 -79.5 -18.5t-60 -50.5t-38 -74t-13.5 -90q0 -54 14 -97t39.5 -72.5t62 -45.5
t80.5 -16t82.5 17.5t63.5 55.5q9 16 19 24.5t27 6.5l82 -10q22 -3 25 -15t-3 -26q-41 -92 -120.5 -133t-181.5 -41q-74 0 -136 23t-107 68t-70 110.5t-25 151.5zM378 739q-17 0 -29 8.5t-23 22.5l-51 70q-14 20 -5.5 25.5t20.5 5.5h26q17 0 27 -8t21 -22l40 -51l40 51
q11 14 21.5 22t27.5 8h24q12 0 20.5 -5.5t-5.5 -25.5l-51 -70q-11 -14 -20.5 -22.5t-26.5 -8.5h-56z" />
    <glyph glyph-name="ccaron" unicode="&#x10d;" horiz-adv-x="550" 
d="M47 231q0 54 18 100.5t51.5 80t80.5 52.5t105 19q78 0 127 -24t77 -66q8 -12 7 -25t-21 -21l-53 -20q-17 -6 -29 0.5t-24 20.5q-13 14 -32 23.5t-47 9.5q-34 0 -57 -13t-37.5 -34.5t-21 -50t-6.5 -58.5q0 -57 31 -94.5t89 -37.5q52 0 80 33q12 13 23.5 19.5t28.5 0.5
l54 -20q16 -6 19 -20t-6 -26q-30 -42 -80.5 -67t-122.5 -25q-65 0 -113 18.5t-79.5 50.5t-46.5 76.5t-15 97.5zM269 549q-17 0 -29 8.5t-23 22.5l-51 70q-14 20 -5.5 25.5t20.5 5.5h26q17 0 27 -8t21 -22l40 -51l40 51q11 14 21.5 22t27.5 8h24q12 0 20.5 -5.5t-5.5 -25.5
l-51 -70q-11 -14 -20.5 -22.5t-26.5 -8.5h-56z" />
    <glyph glyph-name="Dcaron" unicode="&#x10e;" horiz-adv-x="723" 
d="M75 642q0 23 11 30.5t27 7.5h227q156 0 241.5 -87t85.5 -253q0 -81 -26 -144.5t-70.5 -107t-103 -66t-123.5 -22.5h-231q-16 0 -27 7.5t-11 30.5v604zM334 116q52 0 89 20t59.5 52.5t33 72.5t10.5 80q0 43 -10 83t-33.5 71t-62.5 50t-96 19h-113v-448h123zM308 739
q-17 0 -29 8.5t-23 22.5l-51 70q-14 20 -5.5 25.5t20.5 5.5h26q17 0 27 -8t21 -22l40 -51l40 51q11 14 21.5 22t27.5 8h24q12 0 20.5 -5.5t-5.5 -25.5l-51 -70q-11 -14 -20.5 -22.5t-26.5 -8.5h-56z" />
    <glyph glyph-name="dcaron" unicode="&#x10f;" horiz-adv-x="616" 
d="M47 236q0 49 15 94t43 79t68.5 54t91.5 20q45 0 80.5 -17t68.5 -60h2v262q0 23 11 30.5t27 7.5h55q16 0 27 -7.5t11 -30.5v-630q0 -23 -11 -30.5t-27 -7.5h-50q-16 0 -27 7.5t-11 30.5v28h-1q-29 -42 -68.5 -60.5t-84.5 -18.5q-49 0 -89.5 20.5t-69.5 55t-45 79.5t-16 94
zM184 233q0 -28 8 -53.5t23 -44.5t37.5 -30.5t51.5 -11.5q28 0 49.5 11t36.5 30t23 45t8 55q0 27 -7.5 51.5t-22.5 43.5t-38 30.5t-54 11.5q-28 0 -49.5 -11.5t-36 -31t-22 -44t-7.5 -51.5zM619 483q-9 0 -12 2.5t-3 6.5t2.5 8.5t5.5 8.5q32 52 32 92q0 15 -6 29
q-4 8 -3.5 16t16.5 14l33 12q13 5 24 -1t16 -18q3 -8 5 -17t2 -20q0 -29 -13.5 -56t-36.5 -54q-9 -11 -18 -17t-23 -6h-21z" />
    <glyph glyph-name="Dcroat" unicode="&#x110;" horiz-adv-x="723" 
d="M75 316h-32q-23 0 -30.5 6t-7.5 22v28q0 16 7.5 22t30.5 6h32v242q0 23 11 30.5t27 7.5h227q156 0 241.5 -87t85.5 -253q0 -81 -26 -144.5t-70.5 -107t-103.5 -66t-124 -22.5h-230q-16 0 -27 7.5t-11 30.5v278zM334 116q52 0 89 20t59.5 52.5t33 72.5t10.5 80
q0 43 -10 83t-33.5 71t-62.5 50t-96 19h-113v-164h140q23 0 30.5 -6t7.5 -22v-28q0 -16 -7.5 -22t-30.5 -6h-140v-200h123z" />
    <glyph glyph-name="dcroat" unicode="&#x111;" horiz-adv-x="616" 
d="M47 236q0 49 15 94t43 79t68.5 54t91.5 20q45 0 80.5 -17t68.5 -60h2v135h-100q-13 0 -21.5 3.5t-8.5 16.5v22q0 12 8.5 15.5t21.5 3.5h100v66q0 23 11 30.5t27 7.5h55q16 0 27 -7.5t11 -30.5v-66h36q12 0 20.5 -3.5t8.5 -15.5v-22q0 -13 -8.5 -16.5t-20.5 -3.5h-36v-503
q0 -23 -11 -30.5t-27 -7.5h-50q-16 0 -27 7.5t-11 30.5v28h-1q-29 -42 -68.5 -60.5t-84.5 -18.5q-49 0 -89.5 20.5t-69.5 55t-45 79.5t-16 94zM184 233q0 -28 8 -53.5t23 -44.5t37.5 -30.5t51.5 -11.5q28 0 49.5 11t36.5 30t23 45t8 55q0 27 -7.5 51.5t-22.5 43.5t-38 30.5
t-54 11.5q-28 0 -49.5 -11.5t-36 -31t-22 -44t-7.5 -51.5z" />
    <glyph glyph-name="Emacron" unicode="&#x112;" horiz-adv-x="542" 
d="M75 642q0 23 11 30.5t27 7.5h336q23 0 30.5 -11t7.5 -27v-45q0 -16 -7.5 -27t-30.5 -11h-238v-155h230q23 0 30.5 -11t7.5 -27v-45q0 -16 -7.5 -27t-30.5 -11h-230v-162h238q23 0 30.5 -11t7.5 -27v-45q0 -16 -7.5 -27t-30.5 -11h-336q-16 0 -27 7.5t-11 30.5v604z
M178 765q-12 0 -20.5 3.5t-8.5 15.5v22q0 12 8.5 15.5t20.5 3.5h204q12 0 20.5 -3.5t8.5 -15.5v-22q0 -12 -8.5 -15.5t-20.5 -3.5h-204z" />
    <glyph glyph-name="emacron" unicode="&#x113;" horiz-adv-x="580" 
d="M47 234q0 57 18 103t51.5 78.5t80.5 50t104 17.5q120 0 180 -65t60 -180q0 -22 -12 -29.5t-27 -7.5h-321q0 -21 8 -41.5t24 -36t40.5 -25t56.5 -9.5q48 0 77 24q15 13 28.5 19.5t33.5 1.5l47 -12q21 -5 23 -17.5t-6 -24.5q-30 -48 -81.5 -70t-127.5 -22
q-61 0 -108.5 17.5t-80.5 49.5t-50.5 77.5t-17.5 101.5zM407 285q0 18 -5 36.5t-16.5 33.5t-31 25t-49.5 10q-34 0 -57 -10.5t-37.5 -26t-21 -34t-8.5 -34.5h226zM190 575q-12 0 -20.5 3.5t-8.5 15.5v22q0 12 8.5 15.5t20.5 3.5h204q12 0 20.5 -3.5t8.5 -15.5v-22
q0 -12 -8.5 -15.5t-20.5 -3.5h-204z" />
    <glyph glyph-name="Ebreve" unicode="&#x114;" horiz-adv-x="542" 
d="M75 642q0 23 11 30.5t27 7.5h336q23 0 30.5 -11t7.5 -27v-45q0 -16 -7.5 -27t-30.5 -11h-238v-155h230q23 0 30.5 -11t7.5 -27v-45q0 -16 -7.5 -27t-30.5 -11h-230v-162h238q23 0 30.5 -11t7.5 -27v-45q0 -16 -7.5 -27t-30.5 -11h-336q-16 0 -27 7.5t-11 30.5v604z
M279 741q-55 0 -92 26.5t-49 71.5q-3 11 -0.5 20.5t14.5 9.5h21q14 0 19.5 -7.5t11.5 -21.5q10 -20 27.5 -29.5t47.5 -9.5q29 0 47 10.5t28 30.5q7 12 13.5 19.5t20.5 7.5h19q11 0 13 -9t0 -20q-11 -45 -48.5 -72t-92.5 -27z" />
    <glyph glyph-name="ebreve" unicode="&#x115;" horiz-adv-x="580" 
d="M47 234q0 57 18 103t51.5 78.5t80.5 50t104 17.5q120 0 180 -65t60 -180q0 -22 -12 -29.5t-27 -7.5h-321q0 -21 8 -41.5t24 -36t40.5 -25t56.5 -9.5q48 0 77 24q15 13 28.5 19.5t33.5 1.5l47 -12q21 -5 23 -17.5t-6 -24.5q-30 -48 -81.5 -70t-127.5 -22
q-61 0 -108.5 17.5t-80.5 49.5t-50.5 77.5t-17.5 101.5zM407 285q0 18 -5 36.5t-16.5 33.5t-31 25t-49.5 10q-34 0 -57 -10.5t-37.5 -26t-21 -34t-8.5 -34.5h226zM301 551q-55 0 -92 26.5t-49 71.5q-3 11 -0.5 20.5t14.5 9.5h21q14 0 19.5 -7.5t11.5 -21.5
q10 -20 27.5 -29.5t47.5 -9.5q29 0 47 10.5t28 30.5q7 12 13.5 19.5t20.5 7.5h19q11 0 13 -9t0 -20q-11 -45 -48.5 -72t-92.5 -27z" />
    <glyph glyph-name="Edotaccent" unicode="&#x116;" horiz-adv-x="542" 
d="M75 642q0 23 11 30.5t27 7.5h336q23 0 30.5 -11t7.5 -27v-45q0 -16 -7.5 -27t-30.5 -11h-238v-155h230q23 0 30.5 -11t7.5 -27v-45q0 -16 -7.5 -27t-30.5 -11h-230v-162h238q23 0 30.5 -11t7.5 -27v-45q0 -16 -7.5 -27t-30.5 -11h-336q-16 0 -27 7.5t-11 30.5v604z
M285 736q-17 0 -31 7t-24.5 17.5t-16 24t-5.5 27.5q0 30 21.5 54t55.5 24q15 0 28.5 -6t24 -16t17 -24t6.5 -30q0 -15 -6 -29t-16.5 -25t-24.5 -17.5t-29 -6.5z" />
    <glyph glyph-name="edotaccent" unicode="&#x117;" horiz-adv-x="580" 
d="M47 234q0 57 18 103t51.5 78.5t80.5 50t104 17.5q120 0 180 -65t60 -180q0 -22 -12 -29.5t-27 -7.5h-321q0 -21 8 -41.5t24 -36t40.5 -25t56.5 -9.5q48 0 77 24q15 13 28.5 19.5t33.5 1.5l47 -12q21 -5 23 -17.5t-6 -24.5q-30 -48 -81.5 -70t-127.5 -22
q-61 0 -108.5 17.5t-80.5 49.5t-50.5 77.5t-17.5 101.5zM407 285q0 18 -5 36.5t-16.5 33.5t-31 25t-49.5 10q-34 0 -57 -10.5t-37.5 -26t-21 -34t-8.5 -34.5h226zM298 539q-17 0 -31 7t-24.5 17.5t-16 24t-5.5 27.5q0 30 21.5 54t55.5 24q15 0 28.5 -6t24 -16t17 -24
t6.5 -30q0 -15 -6 -29t-16.5 -25t-24.5 -17.5t-29 -6.5z" />
    <glyph glyph-name="Eogonek" unicode="&#x118;" horiz-adv-x="542" 
d="M291 -127q0 35 25 67t68 60h-271q-16 0 -27 7.5t-11 30.5v604q0 23 11 30.5t27 7.5h336q23 0 30.5 -11t7.5 -27v-45q0 -16 -7.5 -27t-30.5 -11h-238v-155h230q23 0 30.5 -11t7.5 -27v-45q0 -16 -7.5 -27t-30.5 -11h-230v-162h238q23 0 30.5 -11t7.5 -27v-45
q0 -16 -7.5 -27t-30.5 -11h-16q-30 -30 -47.5 -54t-17.5 -53q0 -39 40 -39q6 0 11.5 0.5t10.5 0.5q11 1 15 -1t6 -10l3 -17q2 -9 -4.5 -15t-15.5 -8q-10 -2 -20.5 -3t-21.5 -1q-17 0 -35 3.5t-32.5 11.5t-24 22.5t-9.5 35.5z" />
    <glyph glyph-name="eogonek" unicode="&#x119;" horiz-adv-x="580" 
d="M217 -127q0 32 20 60.5t55 54.5q-117 4 -181 70t-64 176q0 57 18 103t51.5 78.5t80.5 50t104 17.5q120 0 180 -65t60 -180q0 -22 -12 -29.5t-27 -7.5h-321q0 -21 8 -41.5t24 -36t40.5 -25t56.5 -9.5q48 0 77 24q15 13 28.5 19.5t33.5 1.5l47 -12q21 -5 23 -17.5t-6 -24.5
q-50 -78 -164 -90q-26 -26 -40.5 -48t-14.5 -49q0 -39 40 -39q6 0 11.5 0.5t10.5 0.5q11 1 15 -1t6 -10l3 -17q2 -9 -4.5 -15t-15.5 -8q-10 -2 -20.5 -3t-21.5 -1q-17 0 -35 3.5t-32.5 11.5t-24 22.5t-9.5 35.5zM407 285q0 18 -5 36.5t-16.5 33.5t-31 25t-49.5 10
q-34 0 -57 -10.5t-37.5 -26t-21 -34t-8.5 -34.5h226z" />
    <glyph glyph-name="Ecaron" unicode="&#x11a;" horiz-adv-x="542" 
d="M75 642q0 23 11 30.5t27 7.5h336q23 0 30.5 -11t7.5 -27v-45q0 -16 -7.5 -27t-30.5 -11h-238v-155h230q23 0 30.5 -11t7.5 -27v-45q0 -16 -7.5 -27t-30.5 -11h-230v-162h238q23 0 30.5 -11t7.5 -27v-45q0 -16 -7.5 -27t-30.5 -11h-336q-16 0 -27 7.5t-11 30.5v604z
M260 739q-17 0 -29 8.5t-23 22.5l-51 70q-14 20 -5.5 25.5t20.5 5.5h26q17 0 27 -8t21 -22l40 -51l40 51q11 14 21.5 22t27.5 8h24q12 0 20.5 -5.5t-5.5 -25.5l-51 -70q-11 -14 -20.5 -22.5t-26.5 -8.5h-56z" />
    <glyph glyph-name="ecaron" unicode="&#x11b;" horiz-adv-x="580" 
d="M47 234q0 57 18 103t51.5 78.5t80.5 50t104 17.5q120 0 180 -65t60 -180q0 -22 -12 -29.5t-27 -7.5h-321q0 -21 8 -41.5t24 -36t40.5 -25t56.5 -9.5q48 0 77 24q15 13 28.5 19.5t33.5 1.5l47 -12q21 -5 23 -17.5t-6 -24.5q-30 -48 -81.5 -70t-127.5 -22
q-61 0 -108.5 17.5t-80.5 49.5t-50.5 77.5t-17.5 101.5zM407 285q0 18 -5 36.5t-16.5 33.5t-31 25t-49.5 10q-34 0 -57 -10.5t-37.5 -26t-21 -34t-8.5 -34.5h226zM272 549q-17 0 -29 8.5t-23 22.5l-51 70q-14 20 -5.5 25.5t20.5 5.5h26q17 0 27 -8t21 -22l40 -51l40 51
q11 14 21.5 22t27.5 8h24q12 0 20.5 -5.5t-5.5 -25.5l-51 -70q-11 -14 -20.5 -22.5t-26.5 -8.5h-56z" />
    <glyph glyph-name="Gcircumflex" unicode="&#x11c;" horiz-adv-x="753" 
d="M52 340q0 69 23.5 132.5t66.5 112.5t104.5 78.5t136.5 29.5q72 0 122 -16t84 -40.5t55 -54.5t33 -57q7 -13 3.5 -24.5t-25.5 -14.5l-75 -10q-18 -2 -27 7t-20 24q-20 30 -56 47.5t-94 17.5q-40 0 -74.5 -16t-60 -46t-40.5 -73t-15 -97q0 -46 14 -88t40 -74t62.5 -51
t82.5 -19q43 0 75 11t53 29.5t31.5 43.5t12.5 54h-125q-23 0 -30.5 11t-7.5 27v35q0 16 7.5 27t30.5 11h239q15 0 26 -11.5t10 -26.5q-9 -165 -94 -248.5t-237 -83.5q-75 0 -136.5 29.5t-104.5 78.5t-66.5 112.5t-23.5 132.5zM274 739q-12 0 -20.5 5.5t5.5 25.5l51 70
q11 14 23 22.5t29 8.5h56q17 0 26.5 -8.5t20.5 -22.5l51 -70q14 -20 5.5 -25.5t-20.5 -5.5h-24q-17 0 -27.5 8t-21.5 22l-40 51l-40 -51q-11 -14 -21 -22t-27 -8h-26z" />
    <glyph glyph-name="gcircumflex" unicode="&#x11d;" horiz-adv-x="616" 
d="M149 -49q10 1 16 -0.5t10.5 -5.5t9.5 -9.5t13 -12.5q15 -12 37.5 -17.5t48.5 -5.5q72 0 104.5 30t32.5 106v48l-1 1q-22 -45 -61.5 -65t-90.5 -20q-44 0 -84 15.5t-70 46t-47.5 75t-17.5 101.5q0 49 16.5 93.5t46 78t70.5 53.5t91 20q54 0 92.5 -24.5t55.5 -62.5h1v36
q0 23 11 30.5t27 7.5h50q16 0 27 -7.5t11 -30.5v-395q0 -53 -14.5 -96.5t-46.5 -75t-82 -48.5t-122 -17q-88 0 -142.5 26t-78.5 75q-7 14 -4 26t25 15zM185 241q0 -42 11.5 -69t29.5 -42.5t39 -21.5t40 -6q13 0 32.5 5t38 19.5t32 41.5t13.5 71q0 66 -31 99t-91 33
q-26 0 -47 -10t-36 -28t-23 -41.5t-8 -50.5zM186 549q-12 0 -20.5 5.5t5.5 25.5l51 70q11 14 23 22.5t29 8.5h56q17 0 26.5 -8.5t20.5 -22.5l51 -70q14 -20 5.5 -25.5t-20.5 -5.5h-24q-17 0 -27.5 8t-21.5 22l-40 51l-40 -51q-11 -14 -21 -22t-27 -8h-26z" />
    <glyph glyph-name="Gbreve" unicode="&#x11e;" horiz-adv-x="753" 
d="M52 340q0 69 23.5 132.5t66.5 112.5t104.5 78.5t136.5 29.5q72 0 122 -16t84 -40.5t55 -54.5t33 -57q7 -13 3.5 -24.5t-25.5 -14.5l-75 -10q-18 -2 -27 7t-20 24q-20 30 -56 47.5t-94 17.5q-40 0 -74.5 -16t-60 -46t-40.5 -73t-15 -97q0 -46 14 -88t40 -74t62.5 -51
t82.5 -19q43 0 75 11t53 29.5t31.5 43.5t12.5 54h-125q-23 0 -30.5 11t-7.5 27v35q0 16 7.5 27t30.5 11h239q15 0 26 -11.5t10 -26.5q-9 -165 -94 -248.5t-237 -83.5q-75 0 -136.5 29.5t-104.5 78.5t-66.5 112.5t-23.5 132.5zM379 741q-55 0 -92 26.5t-49 71.5
q-3 11 -0.5 20.5t14.5 9.5h21q14 0 19.5 -7.5t11.5 -21.5q10 -20 27.5 -29.5t47.5 -9.5q29 0 47 10.5t28 30.5q7 12 13.5 19.5t20.5 7.5h19q11 0 13 -9t0 -20q-11 -45 -48.5 -72t-92.5 -27z" />
    <glyph glyph-name="gbreve" unicode="&#x11f;" horiz-adv-x="616" 
d="M149 -49q10 1 16 -0.5t10.5 -5.5t9.5 -9.5t13 -12.5q15 -12 37.5 -17.5t48.5 -5.5q72 0 104.5 30t32.5 106v48l-1 1q-22 -45 -61.5 -65t-90.5 -20q-44 0 -84 15.5t-70 46t-47.5 75t-17.5 101.5q0 49 16.5 93.5t46 78t70.5 53.5t91 20q54 0 92.5 -24.5t55.5 -62.5h1v36
q0 23 11 30.5t27 7.5h50q16 0 27 -7.5t11 -30.5v-395q0 -53 -14.5 -96.5t-46.5 -75t-82 -48.5t-122 -17q-88 0 -142.5 26t-78.5 75q-7 14 -4 26t25 15zM185 241q0 -42 11.5 -69t29.5 -42.5t39 -21.5t40 -6q13 0 32.5 5t38 19.5t32 41.5t13.5 71q0 66 -31 99t-91 33
q-26 0 -47 -10t-36 -28t-23 -41.5t-8 -50.5zM301 551q-55 0 -92 26.5t-49 71.5q-3 11 -0.5 20.5t14.5 9.5h21q14 0 19.5 -7.5t11.5 -21.5q10 -20 27.5 -29.5t47.5 -9.5q29 0 47 10.5t28 30.5q7 12 13.5 19.5t20.5 7.5h19q11 0 13 -9t0 -20q-11 -45 -48.5 -72t-92.5 -27z" />
    <glyph glyph-name="Gdotaccent" unicode="&#x120;" horiz-adv-x="753" 
d="M52 340q0 69 23.5 132.5t66.5 112.5t104.5 78.5t136.5 29.5q72 0 122 -16t84 -40.5t55 -54.5t33 -57q7 -13 3.5 -24.5t-25.5 -14.5l-75 -10q-18 -2 -27 7t-20 24q-20 30 -56 47.5t-94 17.5q-40 0 -74.5 -16t-60 -46t-40.5 -73t-15 -97q0 -46 14 -88t40 -74t62.5 -51
t82.5 -19q43 0 75 11t53 29.5t31.5 43.5t12.5 54h-125q-23 0 -30.5 11t-7.5 27v35q0 16 7.5 27t30.5 11h239q15 0 26 -11.5t10 -26.5q-9 -165 -94 -248.5t-237 -83.5q-75 0 -136.5 29.5t-104.5 78.5t-66.5 112.5t-23.5 132.5zM387 736q-17 0 -31 7t-24.5 17.5t-16 24
t-5.5 27.5q0 30 21.5 54t55.5 24q15 0 28.5 -6t24 -16t17 -24t6.5 -30q0 -15 -6 -29t-16.5 -25t-24.5 -17.5t-29 -6.5z" />
    <glyph glyph-name="gdotaccent" unicode="&#x121;" horiz-adv-x="616" 
d="M149 -49q10 1 16 -0.5t10.5 -5.5t9.5 -9.5t13 -12.5q15 -12 37.5 -17.5t48.5 -5.5q72 0 104.5 30t32.5 106v48l-1 1q-22 -45 -61.5 -65t-90.5 -20q-44 0 -84 15.5t-70 46t-47.5 75t-17.5 101.5q0 49 16.5 93.5t46 78t70.5 53.5t91 20q54 0 92.5 -24.5t55.5 -62.5h1v36
q0 23 11 30.5t27 7.5h50q16 0 27 -7.5t11 -30.5v-395q0 -53 -14.5 -96.5t-46.5 -75t-82 -48.5t-122 -17q-88 0 -142.5 26t-78.5 75q-7 14 -4 26t25 15zM185 241q0 -42 11.5 -69t29.5 -42.5t39 -21.5t40 -6q13 0 32.5 5t38 19.5t32 41.5t13.5 71q0 66 -31 99t-91 33
q-26 0 -47 -10t-36 -28t-23 -41.5t-8 -50.5zM301 539q-17 0 -31 7t-24.5 17.5t-16 24t-5.5 27.5q0 30 21.5 54t55.5 24q15 0 28.5 -6t24 -16t17 -24t6.5 -30q0 -15 -6 -29t-16.5 -25t-24.5 -17.5t-29 -6.5z" />
    <glyph glyph-name="Gcommaaccent" unicode="&#x122;" horiz-adv-x="753" 
d="M52 340q0 69 23.5 132.5t66.5 112.5t104.5 78.5t136.5 29.5q72 0 122 -16t84 -40.5t55 -54.5t33 -57q7 -13 3.5 -24.5t-25.5 -14.5l-75 -10q-18 -2 -27 7t-20 24q-20 30 -56 47.5t-94 17.5q-40 0 -74.5 -16t-60 -46t-40.5 -73t-15 -97q0 -46 14 -88t40 -74t62.5 -51
t82.5 -19q43 0 75 11t53 29.5t31.5 43.5t12.5 54h-125q-23 0 -30.5 11t-7.5 27v35q0 16 7.5 27t30.5 11h239q15 0 26 -11.5t10 -26.5q-9 -165 -94 -248.5t-237 -83.5q-75 0 -136.5 29.5t-104.5 78.5t-66.5 112.5t-23.5 132.5zM395 -61q13 5 23 -1t15 -18q3 -8 5 -17t2 -20
q0 -29 -13.5 -56t-36.5 -54q-9 -11 -17 -17t-22 -6h-19q-17 0 -16.5 9t5.5 17q32 52 32 92q0 15 -6 29q-4 8 -3.5 16.5t16.5 13.5z" />
    <glyph glyph-name="gcommaaccent" unicode="&#x123;" horiz-adv-x="616" 
d="M149 -49q10 1 16 -0.5t10.5 -5.5t9.5 -9.5t13 -12.5q15 -12 37.5 -17.5t48.5 -5.5q72 0 104.5 30t32.5 106v48l-1 1q-22 -45 -61.5 -65t-90.5 -20q-44 0 -84 15.5t-70 46t-47.5 75t-17.5 101.5q0 49 16.5 93.5t46 78t70.5 53.5t91 20q54 0 92.5 -24.5t55.5 -62.5h1v36
q0 23 11 30.5t27 7.5h50q16 0 27 -7.5t11 -30.5v-395q0 -53 -14.5 -96.5t-46.5 -75t-82 -48.5t-122 -17q-88 0 -142.5 26t-78.5 75q-7 14 -4 26t25 15zM185 241q0 -42 11.5 -69t29.5 -42.5t39 -21.5t40 -6q13 0 32.5 5t38 19.5t32 41.5t13.5 71q0 66 -31 99t-91 33
q-26 0 -47 -10t-36 -28t-23 -41.5t-8 -50.5zM276 548q-13 -5 -23 1t-15 18q-7 17 -7 37q0 29 13.5 56t36.5 54q9 11 17 17t22 6h19q17 0 16.5 -9t-5.5 -17q-32 -52 -32 -92q0 -16 6 -29q4 -8 3.5 -16.5t-16.5 -13.5z" />
    <glyph glyph-name="Hcircumflex" unicode="&#x124;" horiz-adv-x="714" 
d="M75 642q0 23 11 30.5t27 7.5h60q16 0 27 -7.5t11 -30.5v-238h293v238q0 23 11 30.5t27 7.5h59q16 0 27 -7.5t11 -30.5v-604q0 -23 -11 -30.5t-27 -7.5h-59q-16 0 -27 7.5t-11 30.5v245h-293v-245q0 -23 -11 -30.5t-27 -7.5h-60q-16 0 -27 7.5t-11 30.5v604zM248 739
q-12 0 -20.5 5.5t5.5 25.5l51 70q11 14 23 22.5t29 8.5h56q17 0 26.5 -8.5t20.5 -22.5l51 -70q14 -20 5.5 -25.5t-20.5 -5.5h-24q-17 0 -27.5 8t-21.5 22l-40 51l-40 -51q-11 -14 -21 -22t-27 -8h-26z" />
    <glyph glyph-name="hcircumflex" unicode="&#x125;" horiz-adv-x="572" 
d="M68 668q0 23 11 30.5t27 7.5h55q16 0 27 -7.5t11 -30.5v-259h2q28 43 63 58.5t73 15.5q42 0 74 -13t53 -35t31.5 -52t10.5 -64v-281q0 -23 -11 -30.5t-27 -7.5h-56q-16 0 -27 7.5t-11 30.5v248q0 25 -7.5 42.5t-20 28t-28 15t-30.5 4.5q-40 0 -64.5 -30.5t-24.5 -78.5
v-229q0 -23 -11 -30.5t-27 -7.5h-55q-16 0 -27 7.5t-11 30.5v630zM204 729q-12 0 -20.5 5.5t5.5 25.5l51 70q11 14 23 22.5t29 8.5h56q17 0 26.5 -8.5t20.5 -22.5l51 -70q14 -20 5.5 -25.5t-20.5 -5.5h-24q-17 0 -27.5 8t-21.5 22l-40 51l-40 -51q-11 -14 -21 -22t-27 -8
h-26z" />
    <glyph glyph-name="Hbar" unicode="&#x126;" horiz-adv-x="714" 
d="M75 477h-20q-13 0 -22 4t-9 17v22q0 13 9 17t22 4h20v101q0 23 11 30.5t27 7.5h60q16 0 27 -7.5t11 -30.5v-101h293v101q0 23 11 30.5t27 7.5h59q16 0 27 -7.5t11 -30.5v-101h28q13 0 22 -4t9 -17v-22q0 -13 -9 -17t-22 -4h-28v-439q0 -23 -11 -30.5t-27 -7.5h-59
q-16 0 -27 7.5t-11 30.5v245h-293v-245q0 -23 -11 -30.5t-27 -7.5h-60q-16 0 -27 7.5t-11 30.5v439zM504 404v73h-293v-73h293z" />
    <glyph glyph-name="hbar" unicode="&#x127;" horiz-adv-x="572" 
d="M68 541h-22q-13 0 -21.5 6t-8.5 19v12q0 12 8.5 18t21.5 6h22v66q0 23 11 30.5t27 7.5h55q16 0 27 -7.5t11 -30.5v-66h132q12 0 20.5 -6t8.5 -18v-12q0 -13 -8.5 -19t-20.5 -6h-132v-132h2q28 43 63 58.5t73 15.5q42 0 74 -13t53 -35t31.5 -52t10.5 -64v-281
q0 -23 -11 -30.5t-27 -7.5h-56q-16 0 -27 7.5t-11 30.5v248q0 25 -7.5 42.5t-20 28t-28 15t-30.5 4.5q-40 0 -64.5 -30.5t-24.5 -78.5v-229q0 -23 -11 -30.5t-27 -7.5h-55q-16 0 -27 7.5t-11 30.5v503z" />
    <glyph glyph-name="Itilde" unicode="&#x128;" horiz-adv-x="289" 
d="M78 642q0 23 11 30.5t27 7.5h59q16 0 27 -7.5t11 -30.5v-604q0 -23 -11 -30.5t-27 -7.5h-59q-16 0 -27 7.5t-11 30.5v604zM-1 745q-10 0 -11 7.5t1 16.5q4 16 11.5 30.5t19 26t27.5 18.5t36 7q18 0 35 -5t33 -11q17 -7 31 -12.5t26 -5.5q22 0 33 15q8 11 12 17t18 6h16
q9 0 11 -7.5t-1 -16.5q-8 -31 -30 -55.5t-62 -24.5q-17 0 -34.5 5t-33.5 11t-30 11.5t-27 5.5q-23 0 -35 -16q-8 -11 -11.5 -17t-16.5 -6h-18z" />
    <glyph glyph-name="itilde" unicode="&#x129;" horiz-adv-x="261" 
d="M66 432q0 23 11 30.5t27 7.5h55q16 0 27 -7.5t11 -30.5v-394q0 -23 -11 -30.5t-27 -7.5h-55q-16 0 -27 7.5t-11 30.5v394zM-9 555q-10 0 -11 7.5t1 16.5q4 16 11.5 30.5t19 26t27.5 18.5t36 7q18 0 35 -5t33 -11q17 -7 31 -12.5t26 -5.5q22 0 33 15q8 11 12 17t18 6h16
q9 0 11 -7.5t-1 -16.5q-8 -31 -30 -55.5t-62 -24.5q-17 0 -34.5 5t-33.5 11t-30 11.5t-27 5.5q-23 0 -35 -16q-8 -11 -11.5 -17t-16.5 -6h-18z" />
    <glyph glyph-name="Imacron" unicode="&#x12a;" horiz-adv-x="289" 
d="M77 642q0 23 11 30.5t27 7.5h59q16 0 27 -7.5t11 -30.5v-604q0 -23 -11 -30.5t-27 -7.5h-59q-16 0 -27 7.5t-11 30.5v604zM40 765q-12 0 -20.5 3.5t-8.5 15.5v22q0 12 8.5 15.5t20.5 3.5h204q12 0 20.5 -3.5t8.5 -15.5v-22q0 -12 -8.5 -15.5t-20.5 -3.5h-204z" />
    <glyph glyph-name="imacron" unicode="&#x12b;" horiz-adv-x="261" 
d="M65 432q0 23 11 30.5t27 7.5h55q16 0 27 -7.5t11 -30.5v-394q0 -23 -11 -30.5t-27 -7.5h-55q-16 0 -27 7.5t-11 30.5v394zM31 575q-12 0 -20.5 3.5t-8.5 15.5v22q0 12 8.5 15.5t20.5 3.5h204q12 0 20.5 -3.5t8.5 -15.5v-22q0 -12 -8.5 -15.5t-20.5 -3.5h-204z" />
    <glyph glyph-name="Iogonek" unicode="&#x12e;" horiz-adv-x="289" 
d="M47 -127q0 35 25 67t68 60h-25q-16 0 -27 7.5t-11 30.5v604q0 23 11 30.5t27 7.5h59q16 0 27 -7.5t11 -30.5v-604q0 -21 -9 -29t-23 -9h9q-30 -30 -47.5 -54t-17.5 -53q0 -39 40 -39q6 0 11.5 0.5t10.5 0.5q11 1 15 -1t6 -10l3 -17q2 -9 -4.5 -15t-15.5 -8
q-10 -2 -20.5 -3t-21.5 -1q-17 0 -35 3.5t-32.5 11.5t-24 22.5t-9.5 35.5z" />
    <glyph glyph-name="iogonek" unicode="&#x12f;" horiz-adv-x="261" 
d="M40 -127q0 35 25 67t68 60h-30q-16 0 -27 7.5t-11 30.5v394q0 23 11 30.5t27 7.5h55q16 0 27 -7.5t11 -30.5v-394q0 -21 -9 -29t-23 -9h18q-30 -30 -47.5 -54t-17.5 -53q0 -39 40 -39q6 0 11.5 0.5t10.5 0.5q11 1 15 -1t6 -10l3 -17q2 -9 -4.5 -15t-15.5 -8
q-10 -2 -20.5 -3t-21.5 -1q-17 0 -35 3.5t-32.5 11.5t-24 22.5t-9.5 35.5zM131 539q-17 0 -31 7t-24.5 17.5t-16 24t-5.5 27.5q0 30 21.5 54t55.5 24q15 0 28.5 -6t24 -16t17 -24t6.5 -30q0 -15 -6 -29t-16.5 -25t-24.5 -17.5t-29 -6.5z" />
    <glyph glyph-name="Idotaccent" unicode="&#x130;" horiz-adv-x="289" 
d="M77 642q0 23 11 30.5t27 7.5h59q16 0 27 -7.5t11 -30.5v-604q0 -23 -11 -30.5t-27 -7.5h-59q-16 0 -27 7.5t-11 30.5v604zM144 736q-17 0 -31 7t-24.5 17.5t-16 24t-5.5 27.5q0 30 21.5 54t55.5 24q15 0 28.5 -6t24 -16t17 -24t6.5 -30q0 -15 -6 -29t-16.5 -25
t-24.5 -17.5t-29 -6.5z" />
    <glyph glyph-name="dotlessi" unicode="&#x131;" horiz-adv-x="261" 
d="M65 432q0 23 11 30.5t27 7.5h55q16 0 27 -7.5t11 -30.5v-394q0 -23 -11 -30.5t-27 -7.5h-55q-16 0 -27 7.5t-11 30.5v394z" />
    <glyph glyph-name="Jcircumflex" unicode="&#x134;" horiz-adv-x="401" 
d="M42 78q0 14 7 19t17 5q8 0 15.5 -0.5t17.5 -0.5q56 0 77 29.5t21 94.5v334h-76q-23 0 -30.5 11t-7.5 27v45q0 16 7.5 27t30.5 11h174q16 0 27 -7.5t11 -30.5v-417q0 -68 -16.5 -113.5t-45.5 -73.5t-70 -39.5t-90 -11.5q-29 0 -49 6t-20 26v59zM120 739q-12 0 -20.5 5.5
t5.5 25.5l51 70q11 14 23 22.5t29 8.5h56q17 0 26.5 -8.5t20.5 -22.5l51 -70q14 -20 5.5 -25.5t-20.5 -5.5h-24q-17 0 -27.5 8t-21.5 22l-40 51l-40 -51q-11 -14 -21 -22t-27 -8h-26z" />
    <glyph glyph-name="jcircumflex" unicode="&#x135;" horiz-adv-x="261" 
d="M67 432q0 23 11 30.5t27 7.5h55q16 0 27 -7.5t11 -30.5v-454q0 -54 -15 -89t-39.5 -54.5t-55.5 -27t-63 -7.5q-13 0 -24 5t-11 24v64q0 8 4 15t18 7q25 0 40 15.5t15 49.5v452zM21 549q-12 0 -20.5 5.5t5.5 25.5l51 70q11 14 23 22.5t29 8.5h56q17 0 26.5 -8.5
t20.5 -22.5l51 -70q14 -20 5.5 -25.5t-20.5 -5.5h-24q-17 0 -27.5 8t-21.5 22l-40 51l-40 -51q-11 -14 -21 -22t-27 -8h-26z" />
    <glyph glyph-name="Kcommaaccent" unicode="&#x136;" horiz-adv-x="597" 
d="M75 642q0 23 11 30.5t27 7.5h60q16 0 27 -7.5t11 -30.5v-281h1l196 287q11 15 23.5 23.5t29.5 8.5h93q9 0 15.5 -3.5t6.5 -12.5q0 -7 -7 -16l-211 -295l214 -316q3 -5 6.5 -10.5t3.5 -10.5q0 -16 -23 -16h-100q-17 0 -29.5 9t-22.5 23l-195 302h-1v-296q0 -23 -11 -30.5
t-27 -7.5h-60q-16 0 -27 7.5t-11 30.5v604zM313 -61q13 5 23 -1t15 -18q3 -8 5 -17t2 -20q0 -29 -13.5 -56t-36.5 -54q-9 -11 -17 -17t-22 -6h-19q-17 0 -16.5 9t5.5 17q32 52 32 92q0 15 -6 29q-4 8 -3.5 16.5t16.5 13.5z" />
    <glyph glyph-name="kcommaaccent" unicode="&#x137;" horiz-adv-x="507" 
d="M68 668q0 23 11 30.5t27 7.5h54q16 0 27 -7.5t11 -30.5v-383h1l124 155q11 14 23 22t29 8h86q17 0 17 -13q0 -6 -8 -15l-159 -181l177 -231q7 -8 7 -15q0 -15 -21 -15h-92q-17 0 -28.5 8.5t-21.5 22.5l-133 183h-1v-176q0 -23 -11 -30.5t-27 -7.5h-54q-16 0 -27 7.5
t-11 30.5v630zM269 -61q13 5 23 -1t15 -18q3 -8 5 -17t2 -20q0 -29 -13.5 -56t-36.5 -54q-9 -11 -17 -17t-22 -6h-19q-17 0 -16.5 9t5.5 17q32 52 32 92q0 15 -6 29q-4 8 -3.5 16.5t16.5 13.5z" />
    <glyph glyph-name="Lacute" unicode="&#x139;" horiz-adv-x="497" 
d="M75 642q0 23 11 30.5t27 7.5h60q16 0 27 -7.5t11 -30.5v-515h223q23 0 30.5 -11t7.5 -27v-51q0 -16 -7.5 -27t-30.5 -11h-321q-16 0 -27 7.5t-11 30.5v604zM134 744q-6 0 -12 1t-9.5 4.5t-3 9.5t6.5 17l39 63q9 14 18.5 23t26.5 9h69q11 0 15 -9.5t-4 -17.5l-72 -73
q-12 -13 -24 -20t-29 -7h-21z" />
    <glyph glyph-name="lacute" unicode="&#x13a;" horiz-adv-x="261" 
d="M65 668q0 23 11 30.5t27 7.5h55q16 0 27 -7.5t11 -30.5v-630q0 -23 -11 -30.5t-27 -7.5h-55q-16 0 -27 7.5t-11 30.5v630zM130 774q-6 0 -12 1t-9.5 3.5t-3 8t6.5 14.5l38 53q9 12 18 19.5t26 7.5h68q11 0 15 -8.5t-4 -14.5l-71 -61q-11 -11 -23 -17t-29 -6h-20z" />
    <glyph glyph-name="Lcommaaccent" unicode="&#x13b;" horiz-adv-x="497" 
d="M75 642q0 23 11 30.5t27 7.5h60q16 0 27 -7.5t11 -30.5v-515h223q23 0 30.5 -11t7.5 -27v-51q0 -16 -7.5 -27t-30.5 -11h-321q-16 0 -27 7.5t-11 30.5v604zM280 -61q13 5 23 -1t15 -18q3 -8 5 -17t2 -20q0 -29 -13.5 -56t-36.5 -54q-9 -11 -17 -17t-22 -6h-19
q-17 0 -16.5 9t5.5 17q32 52 32 92q0 15 -6 29q-4 8 -3.5 16.5t16.5 13.5z" />
    <glyph glyph-name="lcommaaccent" unicode="&#x13c;" horiz-adv-x="261" 
d="M65 668q0 23 11 30.5t27 7.5h55q16 0 27 -7.5t11 -30.5v-630q0 -23 -11 -30.5t-27 -7.5h-55q-16 0 -27 7.5t-11 30.5v630zM148 -61q13 5 23 -1t15 -18q3 -8 5 -17t2 -20q0 -29 -13.5 -56t-36.5 -54q-9 -11 -17 -17t-22 -6h-19q-17 0 -16.5 9t5.5 17q32 52 32 92
q0 15 -6 29q-4 8 -3.5 16.5t16.5 13.5z" />
    <glyph glyph-name="Lcaron" unicode="&#x13d;" horiz-adv-x="497" 
d="M75 642q0 23 11 30.5t27 7.5h60q16 0 27 -7.5t11 -30.5v-515h223q23 0 30.5 -11t7.5 -27v-51q0 -16 -7.5 -27t-30.5 -11h-321q-16 0 -27 7.5t-11 30.5v604zM350 483q-9 0 -12 2.5t-3 6.5t2.5 8.5t5.5 8.5q32 52 32 92q0 15 -6 29q-4 8 -3.5 16t16.5 14l33 12q13 5 24 -1
t16 -18q3 -8 5 -17t2 -20q0 -29 -13.5 -56t-36.5 -54q-9 -11 -18 -17t-23 -6h-21z" />
    <glyph glyph-name="lcaron" unicode="&#x13e;" horiz-adv-x="261" 
d="M65 668q0 23 11 30.5t27 7.5h55q16 0 27 -7.5t11 -30.5v-630q0 -23 -11 -30.5t-27 -7.5h-55q-16 0 -27 7.5t-11 30.5v630zM272 483q-9 0 -12 2.5t-3 6.5t2.5 8.5t5.5 8.5q32 52 32 92q0 15 -6 29q-4 8 -3.5 16t16.5 14l33 12q13 5 24 -1t16 -18q3 -8 5 -17t2 -20
q0 -29 -13.5 -56t-36.5 -54q-9 -11 -18 -17t-23 -6h-21z" />
    <glyph glyph-name="Ldot" unicode="&#x13f;" horiz-adv-x="497" 
d="M75 642q0 23 11 30.5t27 7.5h60q16 0 27 -7.5t11 -30.5v-515h223q23 0 30.5 -11t7.5 -27v-51q0 -16 -7.5 -27t-30.5 -11h-321q-16 0 -27 7.5t-11 30.5v604zM396 338q-17 0 -31 7t-24.5 17.5t-16 24t-5.5 27.5q0 30 21.5 54t55.5 24q15 0 28.5 -6t24 -16t17 -24t6.5 -30
q0 -15 -6 -29t-16.5 -25t-24.5 -17.5t-29 -6.5z" />
    <glyph glyph-name="ldot" unicode="&#x140;" horiz-adv-x="416" 
d="M65 668q0 23 11 30.5t27 7.5h55q16 0 27 -7.5t11 -30.5v-630q0 -23 -11 -30.5t-27 -7.5h-55q-16 0 -27 7.5t-11 30.5v630zM341 338q-17 0 -31 7t-24.5 17.5t-16 24t-5.5 27.5q0 30 21.5 54t55.5 24q15 0 28.5 -6t24 -16t17 -24t6.5 -30q0 -15 -6 -29t-16.5 -25
t-24.5 -17.5t-29 -6.5z" />
    <glyph glyph-name="Lslash" unicode="&#x141;" horiz-adv-x="497" 
d="M75 235l-23 -14q-11 -7 -17.5 -7.5t-9.5 3t-4 9.5t-1 12v38q0 17 9 28t23 21l23 14v303q0 23 11 30.5t27 7.5h60q16 0 27 -7.5t11 -30.5v-223l150 88q11 6 17.5 6.5t10 -3t4.5 -10t1 -12.5v-38q0 -17 -9 -28t-24 -19l-150 -88v-188h223q23 0 30.5 -11t7.5 -27v-51
q0 -16 -7.5 -27t-30.5 -11h-321q-16 0 -27 7.5t-11 30.5v197z" />
    <glyph glyph-name="lslash" unicode="&#x142;" horiz-adv-x="261" 
d="M68 375l-19 -13q-17 -11 -24 -3.5t-7 19.5v26q0 17 8.5 27t22.5 20l19 13v204q0 23 11 30.5t27 7.5h49q16 0 27 -7.5t11 -30.5v-133l22 16q17 13 24 4.5t7 -20.5v-25q0 -17 -8.5 -27t-22.5 -20l-22 -16v-409q0 -23 -11 -30.5t-27 -7.5h-49q-16 0 -27 7.5t-11 30.5v337z
" />
    <glyph glyph-name="Nacute" unicode="&#x143;" horiz-adv-x="723" 
d="M75 642q0 23 11 30.5t27 7.5h88q17 0 28 -9t20 -24l267 -442h2v437q0 23 11 30.5t27 7.5h54q16 0 27 -7.5t11 -30.5v-604q0 -23 -11 -30.5t-27 -7.5h-86q-17 0 -26.5 9t-18.5 24l-272 449h-2v-444q0 -23 -11 -30.5t-27 -7.5h-54q-16 0 -27 7.5t-11 30.5v604zM346 744
q-6 0 -12 1t-9.5 4.5t-3 9.5t6.5 17l39 63q9 14 18.5 23t26.5 9h69q11 0 15 -9.5t-4 -17.5l-72 -73q-12 -13 -24 -20t-29 -7h-21z" />
    <glyph glyph-name="nacute" unicode="&#x144;" horiz-adv-x="572" 
d="M68 432q0 23 11 30.5t27 7.5h49q16 0 27 -7.5t11 -30.5v-23h2q30 43 68 58.5t78 15.5q42 0 73.5 -13t51.5 -35t30 -52t10 -64v-281q0 -23 -11 -30.5t-27 -7.5h-56q-16 0 -27 7.5t-11 30.5v248q0 25 -7 42.5t-18.5 28t-26.5 15t-31 4.5q-39 0 -65.5 -30.5t-26.5 -78.5
v-229q0 -23 -11 -30.5t-27 -7.5h-55q-16 0 -27 7.5t-11 30.5v394zM249 554q-6 0 -12 1t-9.5 4.5t-3 9.5t6.5 17l39 63q9 14 18.5 23t26.5 9h69q11 0 15 -9.5t-4 -17.5l-72 -73q-12 -13 -24 -20t-29 -7h-21z" />
    <glyph glyph-name="Ncommaaccent" unicode="&#x145;" horiz-adv-x="723" 
d="M75 642q0 23 11 30.5t27 7.5h88q17 0 28 -9t20 -24l267 -442h2v437q0 23 11 30.5t27 7.5h54q16 0 27 -7.5t11 -30.5v-604q0 -23 -11 -30.5t-27 -7.5h-86q-17 0 -26.5 9t-18.5 24l-272 449h-2v-444q0 -23 -11 -30.5t-27 -7.5h-54q-16 0 -27 7.5t-11 30.5v604zM357 -61
q13 5 23 -1t15 -18q3 -8 5 -17t2 -20q0 -29 -13.5 -56t-36.5 -54q-9 -11 -17 -17t-22 -6h-19q-17 0 -16.5 9t5.5 17q32 52 32 92q0 15 -6 29q-4 8 -3.5 16.5t16.5 13.5z" />
    <glyph glyph-name="ncommaaccent" unicode="&#x146;" horiz-adv-x="572" 
d="M68 432q0 23 11 30.5t27 7.5h49q16 0 27 -7.5t11 -30.5v-23h2q30 43 68 58.5t78 15.5q42 0 73.5 -13t51.5 -35t30 -52t10 -64v-281q0 -23 -11 -30.5t-27 -7.5h-56q-16 0 -27 7.5t-11 30.5v248q0 25 -7 42.5t-18.5 28t-26.5 15t-31 4.5q-39 0 -65.5 -30.5t-26.5 -78.5
v-229q0 -23 -11 -30.5t-27 -7.5h-55q-16 0 -27 7.5t-11 30.5v394zM292 -61q13 5 23 -1t15 -18q3 -8 5 -17t2 -20q0 -29 -13.5 -56t-36.5 -54q-9 -11 -17 -17t-22 -6h-19q-17 0 -16.5 9t5.5 17q32 52 32 92q0 15 -6 29q-4 8 -3.5 16.5t16.5 13.5z" />
    <glyph glyph-name="Ncaron" unicode="&#x147;" horiz-adv-x="723" 
d="M75 642q0 23 11 30.5t27 7.5h88q17 0 28 -9t20 -24l267 -442h2v437q0 23 11 30.5t27 7.5h54q16 0 27 -7.5t11 -30.5v-604q0 -23 -11 -30.5t-27 -7.5h-86q-17 0 -26.5 9t-18.5 24l-272 449h-2v-444q0 -23 -11 -30.5t-27 -7.5h-54q-16 0 -27 7.5t-11 30.5v604zM354 739
q-17 0 -29 8.5t-23 22.5l-51 70q-14 20 -5.5 25.5t20.5 5.5h26q17 0 27 -8t21 -22l40 -51l40 51q11 14 21.5 22t27.5 8h24q12 0 20.5 -5.5t-5.5 -25.5l-51 -70q-11 -14 -20.5 -22.5t-26.5 -8.5h-56z" />
    <glyph glyph-name="ncaron" unicode="&#x148;" horiz-adv-x="572" 
d="M68 432q0 23 11 30.5t27 7.5h49q16 0 27 -7.5t11 -30.5v-23h2q30 43 68 58.5t78 15.5q42 0 73.5 -13t51.5 -35t30 -52t10 -64v-281q0 -23 -11 -30.5t-27 -7.5h-56q-16 0 -27 7.5t-11 30.5v248q0 25 -7 42.5t-18.5 28t-26.5 15t-31 4.5q-39 0 -65.5 -30.5t-26.5 -78.5
v-229q0 -23 -11 -30.5t-27 -7.5h-55q-16 0 -27 7.5t-11 30.5v394zM261 549q-17 0 -29 8.5t-23 22.5l-51 70q-14 20 -5.5 25.5t20.5 5.5h26q17 0 27 -8t21 -22l40 -51l40 51q11 14 21.5 22t27.5 8h24q12 0 20.5 -5.5t-5.5 -25.5l-51 -70q-11 -14 -20.5 -22.5t-26.5 -8.5h-56z
" />
    <glyph glyph-name="Omacron" unicode="&#x14c;" horiz-adv-x="805" 
d="M52 339q0 69 23.5 132.5t68 113t109.5 79t149 29.5t149 -29.5t110 -79t68 -113t23 -132.5q0 -68 -23 -131.5t-68 -112.5t-110 -78.5t-149 -29.5t-149 29.5t-109.5 78.5t-68 112.5t-23.5 131.5zM199 339q0 -45 13 -87t38.5 -74t63.5 -51t88 -19t88.5 19t64 51t38.5 74
t13 87q0 46 -13 88t-38.5 74t-64 51t-88.5 19t-88 -19t-63.5 -51t-38.5 -74t-13 -88zM298 765q-12 0 -20.5 3.5t-8.5 15.5v22q0 12 8.5 15.5t20.5 3.5h204q12 0 20.5 -3.5t8.5 -15.5v-22q0 -12 -8.5 -15.5t-20.5 -3.5h-204z" />
    <glyph glyph-name="omacron" unicode="&#x14d;" horiz-adv-x="613" 
d="M47 236q0 46 16.5 90.5t49.5 79.5t81.5 56t111.5 21q68 0 117.5 -21t81 -56t46.5 -79.5t15 -90.5q0 -47 -16.5 -92t-49.5 -79.5t-81.5 -55.5t-112.5 -21q-69 0 -118 21t-80.5 55.5t-46 79.5t-14.5 92zM180 235q0 -63 30 -103.5t96 -40.5q65 0 95 40.5t30 103.5t-30 104
t-95 41t-95.5 -41t-30.5 -104zM207 575q-12 0 -20.5 3.5t-8.5 15.5v22q0 12 8.5 15.5t20.5 3.5h204q12 0 20.5 -3.5t8.5 -15.5v-22q0 -12 -8.5 -15.5t-20.5 -3.5h-204z" />
    <glyph glyph-name="Obreve" unicode="&#x14e;" horiz-adv-x="805" 
d="M52 339q0 69 23.5 132.5t68 113t109.5 79t149 29.5t149 -29.5t110 -79t68 -113t23 -132.5q0 -68 -23 -131.5t-68 -112.5t-110 -78.5t-149 -29.5t-149 29.5t-109.5 78.5t-68 112.5t-23.5 131.5zM199 339q0 -45 13 -87t38.5 -74t63.5 -51t88 -19t88.5 19t64 51t38.5 74
t13 87q0 46 -13 88t-38.5 74t-64 51t-88.5 19t-88 -19t-63.5 -51t-38.5 -74t-13 -88zM404 741q-55 0 -92 26.5t-49 71.5q-3 11 -0.5 20.5t14.5 9.5h21q14 0 19.5 -7.5t11.5 -21.5q10 -20 27.5 -29.5t47.5 -9.5q29 0 47 10.5t28 30.5q7 12 13.5 19.5t20.5 7.5h19q11 0 13 -9
t0 -20q-11 -45 -48.5 -72t-92.5 -27z" />
    <glyph glyph-name="obreve" unicode="&#x14f;" horiz-adv-x="613" 
d="M47 236q0 46 16.5 90.5t49.5 79.5t81.5 56t111.5 21q68 0 117.5 -21t81 -56t46.5 -79.5t15 -90.5q0 -47 -16.5 -92t-49.5 -79.5t-81.5 -55.5t-112.5 -21q-69 0 -118 21t-80.5 55.5t-46 79.5t-14.5 92zM180 235q0 -63 30 -103.5t96 -40.5q65 0 95 40.5t30 103.5t-30 104
t-95 41t-95.5 -41t-30.5 -104zM306 551q-55 0 -92 26.5t-49 71.5q-3 11 -0.5 20.5t14.5 9.5h21q14 0 19.5 -7.5t11.5 -21.5q10 -20 27.5 -29.5t47.5 -9.5q29 0 47 10.5t28 30.5q7 12 13.5 19.5t20.5 7.5h19q11 0 13 -9t0 -20q-11 -45 -48.5 -72t-92.5 -27z" />
    <glyph glyph-name="Ohungarumlaut" unicode="&#x150;" horiz-adv-x="805" 
d="M52 339q0 69 23.5 132.5t68 113t109.5 79t149 29.5t149 -29.5t110 -79t68 -113t23 -132.5q0 -68 -23 -131.5t-68 -112.5t-110 -78.5t-149 -29.5t-149 29.5t-109.5 78.5t-68 112.5t-23.5 131.5zM199 339q0 -45 13 -87t38.5 -74t63.5 -51t88 -19t88.5 19t64 51t38.5 74
t13 87q0 46 -13 88t-38.5 74t-64 51t-88.5 19t-88 -19t-63.5 -51t-38.5 -74t-13 -88zM495 744q-6 0 -12.5 1t-10 4t-3 9t7.5 17l40 64q9 14 18 23t26 9h61q11 0 15 -9.5t-4 -17.5l-74 -74q-12 -12 -22 -19t-27 -7h-15zM304 744q-6 0 -12 1t-9.5 4t-3 9t7.5 17l41 64
q9 14 18.5 23t26.5 9h59q11 0 15 -9.5t-4 -17.5l-74 -74q-12 -12 -23 -19t-28 -7h-14z" />
    <glyph glyph-name="ohungarumlaut" unicode="&#x151;" horiz-adv-x="613" 
d="M47 236q0 46 16.5 90.5t49.5 79.5t81.5 56t111.5 21q68 0 117.5 -21t81 -56t46.5 -79.5t15 -90.5q0 -47 -16.5 -92t-49.5 -79.5t-81.5 -55.5t-112.5 -21q-69 0 -118 21t-80.5 55.5t-46 79.5t-14.5 92zM180 235q0 -63 30 -103.5t96 -40.5q65 0 95 40.5t30 103.5t-30 104
t-95 41t-95.5 -41t-30.5 -104zM391 554q-6 0 -12.5 1t-10 4t-3 9t7.5 17l40 64q9 14 18 23t26 9h61q11 0 15 -9.5t-4 -17.5l-74 -74q-12 -12 -22 -19t-27 -7h-15zM200 554q-6 0 -12 1t-9.5 4t-3 9t7.5 17l41 64q9 14 18.5 23t26.5 9h59q11 0 15 -9.5t-4 -17.5l-74 -74
q-12 -12 -23 -19t-28 -7h-14z" />
    <glyph glyph-name="OE" unicode="&#x152;" horiz-adv-x="950" 
d="M326 -13q-62 0 -114.5 21t-90.5 64.5t-59.5 110t-21.5 158.5q0 76 21 141t58.5 111.5t90.5 73t116 26.5q76 0 123.5 -25t68.5 -61h1v35q0 23 11 30.5t27 7.5h300q23 0 30.5 -11t7.5 -27v-45q0 -16 -7.5 -27t-30.5 -11h-208v-155h199q23 0 30.5 -11t7.5 -27v-45
q0 -16 -7.5 -27t-30.5 -11h-199v-162h208q23 0 30.5 -11t7.5 -27v-45q0 -16 -7.5 -27t-30.5 -11h-300q-16 0 -27 7.5t-11 30.5v41h-2q-20 -31 -46.5 -49t-53.5 -27.5t-51.5 -12.5t-39.5 -3zM346 106q82 0 130.5 62t48.5 171q0 37 -7 78t-26 76t-53 58t-88 23
q-49 0 -82.5 -19.5t-54.5 -52t-30 -75.5t-9 -89q0 -107 42 -169.5t129 -62.5z" />
    <glyph glyph-name="oe" unicode="&#x153;" horiz-adv-x="930" 
d="M47 234q0 57 19.5 103t53 78.5t79.5 50t99 17.5q57 0 106.5 -19.5t76.5 -61.5q27 38 72.5 59.5t106.5 21.5q114 0 172.5 -65.5t58.5 -179.5q0 -16 -7.5 -26.5t-24.5 -10.5h-314q0 -21 7.5 -41.5t23 -36t38.5 -25t55 -9.5q46 0 74 23q14 13 21.5 21t26.5 4l55 -14
q17 -5 21.5 -18t-3.5 -25q-29 -48 -78.5 -70t-122.5 -22q-66 0 -112.5 21.5t-72.5 60.5q-21 -34 -66 -58.5t-122 -24.5q-50 0 -94 17.5t-77 49.5t-52.5 78t-19.5 102zM762 285q0 18 -4.5 36.5t-16 33.5t-30.5 25t-47 10q-32 0 -54 -10.5t-36 -26t-20.5 -34t-8.5 -34.5h217z
M180 235q0 -69 32 -106.5t93 -37.5q33 0 57 14.5t39 36.5t22 49t7 53q0 33 -10.5 58.5t-27.5 43t-40 26.5t-47 9q-58 0 -91.5 -40t-33.5 -106z" />
    <glyph glyph-name="Racute" unicode="&#x154;" horiz-adv-x="597" 
d="M75 642q0 23 11 30.5t27 7.5h216q54 0 95.5 -16t70 -43.5t43.5 -64.5t15 -79q0 -27 -7.5 -56t-23 -55.5t-39 -47.5t-56.5 -31l140 -254q5 -10 5 -15q0 -7 -6 -12.5t-21 -5.5h-95q-17 0 -26.5 9.5t-17.5 24.5l-116 234h-79v-230q0 -23 -11 -30.5t-27 -7.5h-60
q-16 0 -27 7.5t-11 30.5v604zM301 379q35 0 57.5 8.5t36 21.5t18.5 29.5t5 33.5q0 18 -5.5 35t-19 29.5t-37 20t-59.5 7.5h-86v-185h90zM243 744q-6 0 -12 1t-9.5 4.5t-3 9.5t6.5 17l39 63q9 14 18.5 23t26.5 9h69q11 0 15 -9.5t-4 -17.5l-72 -73q-12 -13 -24 -20t-29 -7
h-21z" />
    <glyph glyph-name="racute" unicode="&#x155;" horiz-adv-x="374" 
d="M70 432q0 23 11 30.5t27 7.5h50q16 0 27 -7.5t11 -30.5v-81h2q8 29 26.5 55.5t42.5 46.5q8 7 28 18.5t43 11.5q22 0 22 -23v-74q0 -15 -8.5 -21t-23 -10t-33 -9.5t-38.5 -20.5q-25 -19 -40.5 -47t-15.5 -66v-174q0 -23 -11 -30.5t-27 -7.5h-55q-16 0 -27 7.5t-11 30.5
v394zM164 554q-6 0 -12 1t-9.5 4.5t-3 9.5t6.5 17l39 63q9 14 18.5 23t26.5 9h69q11 0 15 -9.5t-4 -17.5l-72 -73q-12 -13 -24 -20t-29 -7h-21z" />
    <glyph glyph-name="Rcommaaccent" unicode="&#x156;" horiz-adv-x="597" 
d="M75 642q0 23 11 30.5t27 7.5h216q54 0 95.5 -16t70 -43.5t43.5 -64.5t15 -79q0 -27 -7.5 -56t-23 -55.5t-39 -47.5t-56.5 -31l140 -254q5 -10 5 -15q0 -7 -6 -12.5t-21 -5.5h-95q-17 0 -26.5 9.5t-17.5 24.5l-116 234h-79v-230q0 -23 -11 -30.5t-27 -7.5h-60
q-16 0 -27 7.5t-11 30.5v604zM301 379q35 0 57.5 8.5t36 21.5t18.5 29.5t5 33.5q0 18 -5.5 35t-19 29.5t-37 20t-59.5 7.5h-86v-185h90zM301 -61q13 5 23 -1t15 -18q3 -8 5 -17t2 -20q0 -29 -13.5 -56t-36.5 -54q-9 -11 -17 -17t-22 -6h-19q-17 0 -16.5 9t5.5 17
q32 52 32 92q0 15 -6 29q-4 8 -3.5 16.5t16.5 13.5z" />
    <glyph glyph-name="rcommaaccent" unicode="&#x157;" horiz-adv-x="374" 
d="M70 432q0 23 11 30.5t27 7.5h50q16 0 27 -7.5t11 -30.5v-81h2q8 29 26.5 55.5t42.5 46.5q8 7 28 18.5t43 11.5q22 0 22 -23v-74q0 -15 -8.5 -21t-23 -10t-33 -9.5t-38.5 -20.5q-25 -19 -40.5 -47t-15.5 -66v-174q0 -23 -11 -30.5t-27 -7.5h-55q-16 0 -27 7.5t-11 30.5
v394zM150 -61q13 5 23 -1t15 -18q3 -8 5 -17t2 -20q0 -29 -13.5 -56t-36.5 -54q-9 -11 -17 -17t-22 -6h-19q-17 0 -16.5 9t5.5 17q32 52 32 92q0 15 -6 29q-4 8 -3.5 16.5t16.5 13.5z" />
    <glyph glyph-name="Rcaron" unicode="&#x158;" horiz-adv-x="597" 
d="M75 642q0 23 11 30.5t27 7.5h216q54 0 95.5 -16t70 -43.5t43.5 -64.5t15 -79q0 -27 -7.5 -56t-23 -55.5t-39 -47.5t-56.5 -31l140 -254q5 -10 5 -15q0 -7 -6 -12.5t-21 -5.5h-95q-17 0 -26.5 9.5t-17.5 24.5l-116 234h-79v-230q0 -23 -11 -30.5t-27 -7.5h-60
q-16 0 -27 7.5t-11 30.5v604zM301 379q35 0 57.5 8.5t36 21.5t18.5 29.5t5 33.5q0 18 -5.5 35t-19 29.5t-37 20t-59.5 7.5h-86v-185h90zM252 739q-17 0 -29 8.5t-23 22.5l-51 70q-14 20 -5.5 25.5t20.5 5.5h26q17 0 27 -8t21 -22l40 -51l40 51q11 14 21.5 22t27.5 8h24
q12 0 20.5 -5.5t-5.5 -25.5l-51 -70q-11 -14 -20.5 -22.5t-26.5 -8.5h-56z" />
    <glyph glyph-name="rcaron" unicode="&#x159;" horiz-adv-x="374" 
d="M78 432q0 23 11 30.5t27 7.5h50q16 0 27 -7.5t11 -30.5v-81h2q8 29 26.5 55.5t42.5 46.5q8 7 28 18.5t43 11.5q22 0 22 -23v-74q0 -15 -8.5 -21t-23 -10t-33 -9.5t-38.5 -20.5q-25 -19 -40.5 -47t-15.5 -66v-174q0 -23 -11 -30.5t-27 -7.5h-55q-16 0 -27 7.5t-11 30.5
v394zM169 549q-17 0 -29 8.5t-23 22.5l-51 70q-14 20 -5.5 25.5t20.5 5.5h26q17 0 27 -8t21 -22l40 -51l40 51q11 14 21.5 22t27.5 8h24q12 0 20.5 -5.5t-5.5 -25.5l-51 -70q-11 -14 -20.5 -22.5t-26.5 -8.5h-56z" />
    <glyph glyph-name="Sacute" unicode="&#x15a;" horiz-adv-x="603" 
d="M43 161q-3 15 2.5 26.5t28.5 12.5l69 2q17 1 24.5 -9t13.5 -27q13 -35 43 -49t74 -14q58 0 91 18.5t33 63.5q0 41 -37.5 61.5t-110.5 40.5q-51 14 -90 30.5t-65 39t-39 53t-13 74.5q0 42 16.5 79.5t48 66.5t78.5 46t107 17q53 0 94 -11.5t70.5 -31.5t47 -47.5t23.5 -58.5
q3 -15 -2.5 -26.5t-28.5 -12.5l-65 -3q-19 -1 -28 9t-19 27q-11 20 -34.5 31t-61.5 11q-48 0 -77.5 -19.5t-29.5 -59.5q0 -20 7.5 -34.5t23.5 -25t41.5 -19.5t62.5 -19q49 -13 89 -29t68.5 -39.5t44.5 -56.5t16 -79q0 -48 -18 -87.5t-51.5 -67t-82 -42.5t-109.5 -15
q-63 0 -108 14t-75.5 38t-47.5 55.5t-24 66.5zM294 744q-6 0 -12 1t-9.5 4.5t-3 9.5t6.5 17l39 63q9 14 18.5 23t26.5 9h69q11 0 15 -9.5t-4 -17.5l-72 -73q-12 -13 -24 -20t-29 -7h-21z" />
    <glyph glyph-name="sacute" unicode="&#x15b;" horiz-adv-x="500" 
d="M50 99q-4 14 4.5 26t23.5 13l57 2q11 0 17.5 -2t11 -6.5t9 -11.5t11.5 -15q12 -14 30.5 -18.5t38.5 -4.5q12 0 26 2t25.5 7.5t19 15t7.5 24.5q0 24 -21.5 34.5t-53 16.5t-68 12t-67.5 21t-51 42t-17 75q1 27 12 54t34 48.5t59.5 35t88.5 13.5q79 0 131.5 -27t69.5 -84
q5 -14 0 -25.5t-28 -13.5l-57 -3q-11 -1 -17 1.5t-10 7t-8 11t-11 14.5q-23 24 -71 24q-26 0 -47.5 -10.5t-21.5 -31.5q0 -25 21.5 -36.5t53.5 -18t69 -12.5t69 -20t53.5 -40.5t21.5 -73.5q0 -23 -9.5 -50.5t-33.5 -51.5t-66 -40t-108 -16q-74 0 -127 25t-71 87zM236 554
q-6 0 -12 1t-9.5 4.5t-3 9.5t6.5 17l39 63q9 14 18.5 23t26.5 9h69q11 0 15 -9.5t-4 -17.5l-72 -73q-12 -13 -24 -20t-29 -7h-21z" />
    <glyph glyph-name="Scircumflex" unicode="&#x15c;" horiz-adv-x="603" 
d="M43 161q-3 15 2.5 26.5t28.5 12.5l69 2q17 1 24.5 -9t13.5 -27q13 -35 43 -49t74 -14q58 0 91 18.5t33 63.5q0 41 -37.5 61.5t-110.5 40.5q-51 14 -90 30.5t-65 39t-39 53t-13 74.5q0 42 16.5 79.5t48 66.5t78.5 46t107 17q53 0 94 -11.5t70.5 -31.5t47 -47.5t23.5 -58.5
q3 -15 -2.5 -26.5t-28.5 -12.5l-65 -3q-19 -1 -28 9t-19 27q-11 20 -34.5 31t-61.5 11q-48 0 -77.5 -19.5t-29.5 -59.5q0 -20 7.5 -34.5t23.5 -25t41.5 -19.5t62.5 -19q49 -13 89 -29t68.5 -39.5t44.5 -56.5t16 -79q0 -48 -18 -87.5t-51.5 -67t-82 -42.5t-109.5 -15
q-63 0 -108 14t-75.5 38t-47.5 55.5t-24 66.5zM201 739q-12 0 -20.5 5.5t5.5 25.5l51 70q11 14 23 22.5t29 8.5h56q17 0 26.5 -8.5t20.5 -22.5l51 -70q14 -20 5.5 -25.5t-20.5 -5.5h-24q-17 0 -27.5 8t-21.5 22l-40 51l-40 -51q-11 -14 -21 -22t-27 -8h-26z" />
    <glyph glyph-name="scircumflex" unicode="&#x15d;" horiz-adv-x="500" 
d="M50 99q-4 14 4.5 26t23.5 13l57 2q11 0 17.5 -2t11 -6.5t9 -11.5t11.5 -15q12 -14 30.5 -18.5t38.5 -4.5q12 0 26 2t25.5 7.5t19 15t7.5 24.5q0 24 -21.5 34.5t-53 16.5t-68 12t-67.5 21t-51 42t-17 75q1 27 12 54t34 48.5t59.5 35t88.5 13.5q79 0 131.5 -27t69.5 -84
q5 -14 0 -25.5t-28 -13.5l-57 -3q-11 -1 -17 1.5t-10 7t-8 11t-11 14.5q-23 24 -71 24q-26 0 -47.5 -10.5t-21.5 -31.5q0 -25 21.5 -36.5t53.5 -18t69 -12.5t69 -20t53.5 -40.5t21.5 -73.5q0 -23 -9.5 -50.5t-33.5 -51.5t-66 -40t-108 -16q-74 0 -127 25t-71 87zM144 549
q-12 0 -20.5 5.5t5.5 25.5l51 70q11 14 23 22.5t29 8.5h56q17 0 26.5 -8.5t20.5 -22.5l51 -70q14 -20 5.5 -25.5t-20.5 -5.5h-24q-17 0 -27.5 8t-21.5 22l-40 51l-40 -51q-11 -14 -21 -22t-27 -8h-26z" />
    <glyph glyph-name="Scedilla" unicode="&#x15e;" horiz-adv-x="603" 
d="M263 -11q-54 4 -92.5 19t-65 38t-41.5 52.5t-21 62.5q-3 15 2.5 26.5t28.5 12.5l69 2q17 1 24.5 -9t13.5 -27q13 -35 43 -49t74 -14q58 0 91 18.5t33 63.5q0 41 -37.5 61.5t-110.5 40.5q-51 14 -90 30.5t-65 39t-39 53t-13 74.5q0 42 16.5 79.5t48 66.5t78.5 46t107 17
q53 0 94 -11.5t70.5 -31.5t47 -47.5t23.5 -58.5q3 -15 -2.5 -26.5t-28.5 -12.5l-65 -3q-19 -1 -28 9t-19 27q-11 20 -34.5 31t-61.5 11q-48 0 -77.5 -19.5t-29.5 -59.5q0 -20 7.5 -34.5t23.5 -25t41.5 -19.5t62.5 -19q49 -13 89 -29t68.5 -39.5t44.5 -56.5t16 -79
q0 -94 -64.5 -150.5t-179.5 -61.5l-21 -39l1 -1q4 1 10.5 1h10.5q37 0 63 -17.5t26 -56.5q0 -27 -10.5 -45.5t-28 -30t-41 -16t-50.5 -4.5q-9 0 -25 1t-30 4q-10 2 -16.5 7t-4.5 14l3 17q2 10 8.5 12t16.5 0q10 -1 20 -1.5t18 -0.5q23 0 41.5 7.5t18.5 31.5q0 20 -15.5 26.5
t-37.5 6.5q-20 0 -32 -3q-8 -2 -12 3l-3 4q-4 5 0 13z" />
    <glyph glyph-name="scedilla" unicode="&#x15f;" horiz-adv-x="500" 
d="M230 -12q-67 2 -115 27t-65 84q-4 14 4.5 26t23.5 13l57 2q11 0 17.5 -2t11 -6.5t9 -11.5t11.5 -15q12 -14 30.5 -18.5t38.5 -4.5q12 0 26 2t25.5 7.5t19 15t7.5 24.5q0 24 -21.5 34.5t-53 16.5t-68 12t-67.5 21t-51 42t-17 75q1 27 12 54t34 48.5t59.5 35t88.5 13.5
q79 0 131.5 -27t69.5 -84q5 -14 0 -25.5t-28 -13.5l-57 -3q-11 -1 -17 1.5t-10 7t-8 11t-11 14.5q-23 24 -71 24q-26 0 -47.5 -10.5t-21.5 -31.5q0 -25 21.5 -36.5t53.5 -18t69 -12.5t69 -20t53.5 -40.5t21.5 -73.5q0 -21 -8 -46.5t-28.5 -48.5t-56 -40t-90.5 -21l-21 -41
l1 -1q4 1 10.5 1h10.5q37 0 63 -17.5t26 -56.5q0 -27 -10.5 -45.5t-28 -30t-41 -16t-50.5 -4.5q-9 0 -25 1t-30 4q-10 2 -16.5 7t-4.5 14l3 17q2 10 8.5 12t16.5 0q10 -1 20 -1.5t18 -0.5q23 0 41.5 7.5t18.5 31.5q0 20 -15.5 26.5t-37.5 6.5q-20 0 -32 -3q-8 -2 -12 3l-3 4
q-4 5 0 13z" />
    <glyph glyph-name="Scaron" unicode="&#x160;" horiz-adv-x="603" 
d="M43 161q-3 15 2.5 26.5t28.5 12.5l69 2q17 1 24.5 -9t13.5 -27q13 -35 43 -49t74 -14q58 0 91 18.5t33 63.5q0 41 -37.5 61.5t-110.5 40.5q-51 14 -90 30.5t-65 39t-39 53t-13 74.5q0 42 16.5 79.5t48 66.5t78.5 46t107 17q53 0 94 -11.5t70.5 -31.5t47 -47.5t23.5 -58.5
q3 -15 -2.5 -26.5t-28.5 -12.5l-65 -3q-19 -1 -28 9t-19 27q-11 20 -34.5 31t-61.5 11q-48 0 -77.5 -19.5t-29.5 -59.5q0 -20 7.5 -34.5t23.5 -25t41.5 -19.5t62.5 -19q49 -13 89 -29t68.5 -39.5t44.5 -56.5t16 -79q0 -48 -18 -87.5t-51.5 -67t-82 -42.5t-109.5 -15
q-63 0 -108 14t-75.5 38t-47.5 55.5t-24 66.5zM287 739q-17 0 -29 8.5t-23 22.5l-51 70q-14 20 -5.5 25.5t20.5 5.5h26q17 0 27 -8t21 -22l40 -51l40 51q11 14 21.5 22t27.5 8h24q12 0 20.5 -5.5t-5.5 -25.5l-51 -70q-11 -14 -20.5 -22.5t-26.5 -8.5h-56z" />
    <glyph glyph-name="scaron" unicode="&#x161;" horiz-adv-x="500" 
d="M50 99q-4 14 4.5 26t23.5 13l57 2q11 0 17.5 -2t11 -6.5t9 -11.5t11.5 -15q12 -14 30.5 -18.5t38.5 -4.5q12 0 26 2t25.5 7.5t19 15t7.5 24.5q0 24 -21.5 34.5t-53 16.5t-68 12t-67.5 21t-51 42t-17 75q1 27 12 54t34 48.5t59.5 35t88.5 13.5q79 0 131.5 -27t69.5 -84
q5 -14 0 -25.5t-28 -13.5l-57 -3q-11 -1 -17 1.5t-10 7t-8 11t-11 14.5q-23 24 -71 24q-26 0 -47.5 -10.5t-21.5 -31.5q0 -25 21.5 -36.5t53.5 -18t69 -12.5t69 -20t53.5 -40.5t21.5 -73.5q0 -23 -9.5 -50.5t-33.5 -51.5t-66 -40t-108 -16q-74 0 -127 25t-71 87zM234 549
q-17 0 -29 8.5t-23 22.5l-51 70q-14 20 -5.5 25.5t20.5 5.5h26q17 0 27 -8t21 -22l40 -51l40 51q11 14 21.5 22t27.5 8h24q12 0 20.5 -5.5t-5.5 -25.5l-51 -70q-11 -14 -20.5 -22.5t-26.5 -8.5h-56z" />
    <glyph glyph-name="Tcommaaccent" unicode="&#x162;" horiz-adv-x="524" 
d="M194 559h-141q-23 0 -30.5 11t-7.5 27v45q0 16 7.5 27t30.5 11h418q23 0 30.5 -11t7.5 -27v-45q0 -16 -7.5 -27t-30.5 -11h-141v-521q0 -23 -11 -30.5t-27 -7.5h-60q-16 0 -27 7.5t-11 30.5v521zM273 -61q13 5 23 -1t15 -18q3 -8 5 -17t2 -20q0 -29 -13.5 -56t-36.5 -54
q-9 -11 -17 -17t-22 -6h-19q-17 0 -16.5 9t5.5 17q32 52 32 92q0 15 -6 29q-4 8 -3.5 16.5t16.5 13.5z" />
    <glyph glyph-name="tcommaaccent" unicode="&#x163;" horiz-adv-x="343" 
d="M88 368h-33q-23 0 -30.5 11t-7.5 27v26q0 16 7.5 27t30.5 11h33v97q0 23 11 30.5t27 7.5h56q16 0 27 -7.5t11 -30.5v-97h72q23 0 30.5 -11t7.5 -27v-26q0 -16 -7.5 -27t-30.5 -11h-72v-227q0 -24 13 -32.5t39 -8.5h13q9 0 17.5 -4.5t8.5 -24.5v-34q0 -18 -10 -26t-24 -11
q-11 -3 -23.5 -4t-21.5 -1q-32 0 -58.5 6t-45.5 21t-29.5 40.5t-10.5 64.5v241zM216 -61q13 5 23 -1t15 -18q3 -8 5 -17t2 -20q0 -29 -13.5 -56t-36.5 -54q-9 -11 -17 -17t-22 -6h-19q-17 0 -16.5 9t5.5 17q32 52 32 92q0 15 -6 29q-4 8 -3.5 16.5t16.5 13.5z" />
    <glyph glyph-name="Tcaron" unicode="&#x164;" horiz-adv-x="524" 
d="M194 559h-141q-23 0 -30.5 11t-7.5 27v45q0 16 7.5 27t30.5 11h418q23 0 30.5 -11t7.5 -27v-45q0 -16 -7.5 -27t-30.5 -11h-141v-521q0 -23 -11 -30.5t-27 -7.5h-60q-16 0 -27 7.5t-11 30.5v521zM237 739q-17 0 -29 8.5t-23 22.5l-51 70q-14 20 -5.5 25.5t20.5 5.5h26
q17 0 27 -8t21 -22l40 -51l40 51q11 14 21.5 22t27.5 8h24q12 0 20.5 -5.5t-5.5 -25.5l-51 -70q-11 -14 -20.5 -22.5t-26.5 -8.5h-56z" />
    <glyph glyph-name="tcaron" unicode="&#x165;" horiz-adv-x="343" 
d="M88 368h-33q-23 0 -30.5 11t-7.5 27v26q0 16 7.5 27t30.5 11h33v97q0 23 11 30.5t27 7.5h56q16 0 27 -7.5t11 -30.5v-97h72q23 0 30.5 -11t7.5 -27v-26q0 -16 -7.5 -27t-30.5 -11h-72v-227q0 -24 13 -32.5t39 -8.5h13q9 0 17.5 -4.5t8.5 -24.5v-34q0 -18 -10 -26t-24 -11
q-11 -3 -23.5 -4t-21.5 -1q-32 0 -58.5 6t-45.5 21t-29.5 40.5t-10.5 64.5v241zM294 513q-9 0 -12 2.5t-3 6.5t2.5 8.5t5.5 8.5q32 52 32 92q0 15 -6 29q-4 8 -3.5 16t16.5 14l33 12q13 5 24 -1t16 -18q3 -8 5 -17t2 -20q0 -29 -13.5 -56t-36.5 -54q-9 -11 -18 -17t-23 -6
h-21z" />
    <glyph glyph-name="Tbar" unicode="&#x166;" horiz-adv-x="524" 
d="M194 358h-90q-23 0 -30 6t-7 21v22q0 15 7 21t30 6h90v125h-141q-23 0 -30.5 11t-7.5 27v45q0 16 7.5 27t30.5 11h418q23 0 30.5 -11t7.5 -27v-45q0 -16 -7.5 -27t-30.5 -11h-141v-125h90q23 0 30 -6t7 -21v-22q0 -15 -7 -21t-30 -6h-90v-320q0 -23 -11 -30.5t-27 -7.5
h-60q-16 0 -27 7.5t-11 30.5v320z" />
    <glyph glyph-name="tbar" unicode="&#x167;" horiz-adv-x="343" 
d="M88 231h-35q-12 0 -20.5 6t-8.5 18v12q0 12 8.5 18t20.5 6h35v77h-33q-23 0 -30.5 11t-7.5 27v26q0 16 7.5 27t30.5 11h33v97q0 23 11 30.5t27 7.5h56q16 0 27 -7.5t11 -30.5v-97h72q23 0 30.5 -11t7.5 -27v-26q0 -16 -7.5 -27t-30.5 -11h-72v-77h70q12 0 20.5 -6
t8.5 -18v-12q0 -12 -8.5 -18t-20.5 -6h-70v-90q0 -24 13 -32.5t39 -8.5h13q9 0 17.5 -4.5t8.5 -24.5v-34q0 -18 -10 -26t-24 -11q-11 -3 -23.5 -4t-21.5 -1q-32 0 -58.5 6t-45.5 21t-29.5 40.5t-10.5 64.5v104z" />
    <glyph glyph-name="Utilde" unicode="&#x168;" horiz-adv-x="687" 
d="M69 642q0 23 11 30.5t27 7.5h59q16 0 27 -7.5t11 -30.5v-361q0 -85 33 -129t106 -44q72 0 106.5 44t34.5 129v361q0 23 11 30.5t27 7.5h59q16 0 27 -7.5t11 -30.5v-360q0 -80 -22.5 -136t-60 -91t-88 -51.5t-105.5 -16.5q-56 0 -105.5 16.5t-87 51.5t-59.5 91t-22 136
v360zM200 745q-10 0 -11 7.5t1 16.5q4 16 11.5 30.5t19 26t27.5 18.5t36 7q18 0 35 -5t33 -11q17 -7 31 -12.5t26 -5.5q22 0 33 15q8 11 12 17t18 6h16q9 0 11 -7.5t-1 -16.5q-8 -31 -30 -55.5t-62 -24.5q-17 0 -34.5 5t-33.5 11t-30 11.5t-27 5.5q-23 0 -35 -16
q-8 -11 -11.5 -17t-16.5 -6h-18z" />
    <glyph glyph-name="utilde" unicode="&#x169;" horiz-adv-x="572" 
d="M66 432q0 23 11 30.5t27 7.5h55q16 0 27 -7.5t11 -30.5v-248q0 -26 7 -43t19 -28t26.5 -15.5t29.5 -4.5q42 0 67.5 31t25.5 79v229q0 23 11 30.5t27 7.5h56q16 0 27 -7.5t11 -30.5v-394q0 -23 -11 -30.5t-27 -7.5h-51q-16 0 -27 7.5t-11 30.5v24h-2q-29 -43 -67 -59
t-78 -16q-43 0 -74 13t-51 35.5t-29.5 52t-9.5 63.5v281zM142 555q-10 0 -11 7.5t1 16.5q4 16 11.5 30.5t19 26t27.5 18.5t36 7q18 0 35 -5t33 -11q17 -7 31 -12.5t26 -5.5q22 0 33 15q8 11 12 17t18 6h16q9 0 11 -7.5t-1 -16.5q-8 -31 -30 -55.5t-62 -24.5q-17 0 -34.5 5
t-33.5 11t-30 11.5t-27 5.5q-23 0 -35 -16q-8 -11 -11.5 -17t-16.5 -6h-18z" />
    <glyph glyph-name="Umacron" unicode="&#x16a;" horiz-adv-x="687" 
d="M69 642q0 23 11 30.5t27 7.5h59q16 0 27 -7.5t11 -30.5v-361q0 -85 33 -129t106 -44q72 0 106.5 44t34.5 129v361q0 23 11 30.5t27 7.5h59q16 0 27 -7.5t11 -30.5v-360q0 -80 -22.5 -136t-60 -91t-88 -51.5t-105.5 -16.5q-56 0 -105.5 16.5t-87 51.5t-59.5 91t-22 136
v360zM246 765q-12 0 -20.5 3.5t-8.5 15.5v22q0 12 8.5 15.5t20.5 3.5h204q12 0 20.5 -3.5t8.5 -15.5v-22q0 -12 -8.5 -15.5t-20.5 -3.5h-204z" />
    <glyph glyph-name="umacron" unicode="&#x16b;" horiz-adv-x="572" 
d="M66 432q0 23 11 30.5t27 7.5h55q16 0 27 -7.5t11 -30.5v-248q0 -26 7 -43t19 -28t26.5 -15.5t29.5 -4.5q42 0 67.5 31t25.5 79v229q0 23 11 30.5t27 7.5h56q16 0 27 -7.5t11 -30.5v-394q0 -23 -11 -30.5t-27 -7.5h-51q-16 0 -27 7.5t-11 30.5v24h-2q-29 -43 -67 -59
t-78 -16q-43 0 -74 13t-51 35.5t-29.5 52t-9.5 63.5v281zM191 575q-12 0 -20.5 3.5t-8.5 15.5v22q0 12 8.5 15.5t20.5 3.5h204q12 0 20.5 -3.5t8.5 -15.5v-22q0 -12 -8.5 -15.5t-20.5 -3.5h-204z" />
    <glyph glyph-name="Ubreve" unicode="&#x16c;" horiz-adv-x="687" 
d="M69 642q0 23 11 30.5t27 7.5h59q16 0 27 -7.5t11 -30.5v-361q0 -85 33 -129t106 -44q72 0 106.5 44t34.5 129v361q0 23 11 30.5t27 7.5h59q16 0 27 -7.5t11 -30.5v-360q0 -80 -22.5 -136t-60 -91t-88 -51.5t-105.5 -16.5q-56 0 -105.5 16.5t-87 51.5t-59.5 91t-22 136
v360zM342 741q-55 0 -92 26.5t-49 71.5q-3 11 -0.5 20.5t14.5 9.5h21q14 0 19.5 -7.5t11.5 -21.5q10 -20 27.5 -29.5t47.5 -9.5q29 0 47 10.5t28 30.5q7 12 13.5 19.5t20.5 7.5h19q11 0 13 -9t0 -20q-11 -45 -48.5 -72t-92.5 -27z" />
    <glyph glyph-name="ubreve" unicode="&#x16d;" horiz-adv-x="572" 
d="M66 432q0 23 11 30.5t27 7.5h55q16 0 27 -7.5t11 -30.5v-248q0 -26 7 -43t19 -28t26.5 -15.5t29.5 -4.5q42 0 67.5 31t25.5 79v229q0 23 11 30.5t27 7.5h56q16 0 27 -7.5t11 -30.5v-394q0 -23 -11 -30.5t-27 -7.5h-51q-16 0 -27 7.5t-11 30.5v24h-2q-29 -43 -67 -59
t-78 -16q-43 0 -74 13t-51 35.5t-29.5 52t-9.5 63.5v281zM283 551q-55 0 -92 26.5t-49 71.5q-3 11 -0.5 20.5t14.5 9.5h21q14 0 19.5 -7.5t11.5 -21.5q10 -20 27.5 -29.5t47.5 -9.5q29 0 47 10.5t28 30.5q7 12 13.5 19.5t20.5 7.5h19q11 0 13 -9t0 -20q-11 -45 -48.5 -72
t-92.5 -27z" />
    <glyph glyph-name="Uring" unicode="&#x16e;" horiz-adv-x="687" 
d="M69 642q0 23 11 30.5t27 7.5h59q16 0 27 -7.5t11 -30.5v-361q0 -85 33 -129t106 -44q72 0 106.5 44t34.5 129v361q0 23 11 30.5t27 7.5h59q16 0 27 -7.5t11 -30.5v-360q0 -80 -22.5 -136t-60 -91t-88 -51.5t-105.5 -16.5q-56 0 -105.5 16.5t-87 51.5t-59.5 91t-22 136
v360zM345 726q-20 0 -36.5 7.5t-29.5 20.5t-20 30t-7 35q0 19 7 35.5t20 29.5t29.5 20.5t36.5 7.5q18 0 35 -7.5t30 -20t20.5 -29.5t7.5 -36q0 -18 -7.5 -35t-20.5 -30t-30 -20.5t-35 -7.5zM345 775q18 0 31 13t13 31q0 19 -13 32t-31 13q-19 0 -32 -13t-13 -32
q0 -18 13 -31t32 -13z" />
    <glyph glyph-name="uring" unicode="&#x16f;" horiz-adv-x="572" 
d="M66 432q0 23 11 30.5t27 7.5h55q16 0 27 -7.5t11 -30.5v-248q0 -26 7 -43t19 -28t26.5 -15.5t29.5 -4.5q42 0 67.5 31t25.5 79v229q0 23 11 30.5t27 7.5h56q16 0 27 -7.5t11 -30.5v-394q0 -23 -11 -30.5t-27 -7.5h-51q-16 0 -27 7.5t-11 30.5v24h-2q-29 -43 -67 -59
t-78 -16q-43 0 -74 13t-51 35.5t-29.5 52t-9.5 63.5v281zM289 536q-20 0 -36.5 7.5t-29.5 20.5t-20 30t-7 35q0 19 7 35.5t20 29.5t29.5 20.5t36.5 7.5q18 0 35 -7.5t30 -20t20.5 -29.5t7.5 -36q0 -18 -7.5 -35t-20.5 -30t-30 -20.5t-35 -7.5zM289 585q18 0 31 13t13 31
q0 19 -13 32t-31 13q-19 0 -32 -13t-13 -32q0 -18 13 -31t32 -13z" />
    <glyph glyph-name="Uhungarumlaut" unicode="&#x170;" horiz-adv-x="687" 
d="M69 642q0 23 11 30.5t27 7.5h59q16 0 27 -7.5t11 -30.5v-361q0 -85 33 -129t106 -44q72 0 106.5 44t34.5 129v361q0 23 11 30.5t27 7.5h59q16 0 27 -7.5t11 -30.5v-360q0 -80 -22.5 -136t-60 -91t-88 -51.5t-105.5 -16.5q-56 0 -105.5 16.5t-87 51.5t-59.5 91t-22 136
v360zM437 744q-6 0 -12.5 1t-10 4t-3 9t7.5 17l40 64q9 14 18 23t26 9h61q11 0 15 -9.5t-4 -17.5l-74 -74q-12 -12 -22 -19t-27 -7h-15zM246 744q-6 0 -12 1t-9.5 4t-3 9t7.5 17l41 64q9 14 18.5 23t26.5 9h59q11 0 15 -9.5t-4 -17.5l-74 -74q-12 -12 -23 -19t-28 -7h-14z
" />
    <glyph glyph-name="uhungarumlaut" unicode="&#x171;" horiz-adv-x="572" 
d="M66 432q0 23 11 30.5t27 7.5h55q16 0 27 -7.5t11 -30.5v-248q0 -26 7 -43t19 -28t26.5 -15.5t29.5 -4.5q42 0 67.5 31t25.5 79v229q0 23 11 30.5t27 7.5h56q16 0 27 -7.5t11 -30.5v-394q0 -23 -11 -30.5t-27 -7.5h-51q-16 0 -27 7.5t-11 30.5v24h-2q-29 -43 -67 -59
t-78 -16q-43 0 -74 13t-51 35.5t-29.5 52t-9.5 63.5v281zM382 554q-6 0 -12.5 1t-10 4t-3 9t7.5 17l40 64q9 14 18 23t26 9h61q11 0 15 -9.5t-4 -17.5l-74 -74q-12 -12 -22 -19t-27 -7h-15zM191 554q-6 0 -12 1t-9.5 4t-3 9t7.5 17l41 64q9 14 18.5 23t26.5 9h59
q11 0 15 -9.5t-4 -17.5l-74 -74q-12 -12 -23 -19t-28 -7h-14z" />
    <glyph glyph-name="Uogonek" unicode="&#x172;" horiz-adv-x="687" 
d="M270 -127q0 32 19.5 60t54.5 54h-1q-56 0 -105.5 16.5t-87 51.5t-59.5 91t-22 136v360q0 23 11 30.5t27 7.5h59q16 0 27 -7.5t11 -30.5v-361q0 -85 33 -129t106 -44q72 0 106.5 44t34.5 129v361q0 23 11 30.5t27 7.5h59q16 0 27 -7.5t11 -30.5v-360q0 -68 -16.5 -119
t-45.5 -86.5t-68.5 -56t-84.5 -27.5q-26 -27 -41.5 -49.5t-15.5 -50.5q0 -39 40 -39q6 0 11.5 0.5t10.5 0.5q11 1 15 -1t6 -10l3 -17q2 -9 -4.5 -15t-15.5 -8q-10 -2 -20.5 -3t-21.5 -1q-17 0 -35 3.5t-32.5 11.5t-24 22.5t-9.5 35.5z" />
    <glyph glyph-name="uogonek" unicode="&#x173;" horiz-adv-x="572" 
d="M325 -127q0 35 25 67t68 60h-3q-16 0 -27 7.5t-11 30.5v24h-2q-29 -43 -67 -59t-78 -16q-43 0 -74 13t-51 35.5t-29.5 52t-9.5 63.5v281q0 23 11 30.5t27 7.5h55q16 0 27 -7.5t11 -30.5v-248q0 -26 7 -43t19 -28t26.5 -15.5t29.5 -4.5q42 0 67.5 31t25.5 79v229
q0 23 11 30.5t27 7.5h56q16 0 27 -7.5t11 -30.5v-394q0 -23 -11 -30.5t-26 -7.5q-30 -30 -47.5 -54t-17.5 -53q0 -39 40 -39q6 0 11.5 0.5t10.5 0.5q11 1 15 -1t6 -10l3 -17q2 -9 -4.5 -15t-15.5 -8q-10 -2 -20.5 -3t-21.5 -1q-17 0 -35 3.5t-32.5 11.5t-24 22.5t-9.5 35.5z
" />
    <glyph glyph-name="Wcircumflex" unicode="&#x174;" horiz-adv-x="904" 
d="M37 643q-5 21 4.5 29t23.5 8h74q17 0 26.5 -10.5t13.5 -26.5l98 -463h2l99 463q4 16 13 26.5t26 10.5h83q17 0 26.5 -10.5t13.5 -26.5l103 -463h2l92 463q3 16 13 26.5t27 10.5h72q14 0 23.5 -7.5t5.5 -29.5l-155 -606q-4 -17 -17 -27t-30 -10h-68q-17 0 -30 10.5
t-17 26.5l-101 437h-2l-103 -437q-4 -16 -17 -26.5t-30 -10.5h-68q-17 0 -30 10t-18 27zM347 739q-12 0 -20.5 5.5t5.5 25.5l51 70q11 14 23 22.5t29 8.5h56q17 0 26.5 -8.5t20.5 -22.5l51 -70q14 -20 5.5 -25.5t-20.5 -5.5h-24q-17 0 -27.5 8t-21.5 22l-40 51l-40 -51
q-11 -14 -21 -22t-27 -8h-26z" />
    <glyph glyph-name="wcircumflex" unicode="&#x175;" horiz-adv-x="769" 
d="M28 433q-6 21 3.5 29t23.5 8h74q17 0 24.5 -10.5t11.5 -26.5l66 -289h2l79 289q5 17 13 27t25 10h83q17 0 25.5 -10t13.5 -27l83 -289h2l66 289q4 16 11.5 26.5t24.5 10.5h67q14 0 24 -8t3 -29l-120 -396q-5 -17 -18.5 -27t-30.5 -10h-63q-17 0 -30 10t-18 27l-80 289h-2
l-87 -289q-5 -17 -18.5 -27t-30.5 -10h-60q-17 0 -30.5 10t-18.5 27zM279 549q-12 0 -20.5 5.5t5.5 25.5l51 70q11 14 23 22.5t29 8.5h56q17 0 26.5 -8.5t20.5 -22.5l51 -70q14 -20 5.5 -25.5t-20.5 -5.5h-24q-17 0 -27.5 8t-21.5 22l-40 51l-40 -51q-11 -14 -21 -22t-27 -8
h-26z" />
    <glyph glyph-name="Ycircumflex" unicode="&#x176;" horiz-adv-x="570" 
d="M227 263l-197 383q-9 18 -0.5 26t21.5 8h93q17 0 26.5 -9.5t17.5 -25.5l111 -248l110 248q7 16 16.5 25.5t26.5 9.5h83q13 0 21.5 -8t-0.5 -26l-194 -383v-225q0 -23 -11 -30.5t-27 -7.5h-59q-16 0 -27 7.5t-11 30.5v225zM187 739q-12 0 -20.5 5.5t5.5 25.5l51 70
q11 14 23 22.5t29 8.5h56q17 0 26.5 -8.5t20.5 -22.5l51 -70q14 -20 5.5 -25.5t-20.5 -5.5h-24q-17 0 -27.5 8t-21.5 22l-40 51l-40 -51q-11 -14 -21 -22t-27 -8h-26z" />
    <glyph glyph-name="ycircumflex" unicode="&#x177;" horiz-adv-x="507" 
d="M30 434q-8 20 1.5 28t23.5 8h82q17 0 25.5 -10t13.5 -26l88 -278h2l88 278q5 16 14 26t26 10h75q14 0 23 -8t1 -28l-231 -598q-6 -16 -15.5 -26t-26.5 -10h-72q-14 0 -23 6t0 29l68 165zM151 549q-12 0 -20.5 5.5t5.5 25.5l51 70q11 14 23 22.5t29 8.5h56q17 0 26.5 -8.5
t20.5 -22.5l51 -70q14 -20 5.5 -25.5t-20.5 -5.5h-24q-17 0 -27.5 8t-21.5 22l-40 51l-40 -51q-11 -14 -21 -22t-27 -8h-26z" />
    <glyph glyph-name="Ydieresis" unicode="&#x178;" horiz-adv-x="570" 
d="M227 263l-197 383q-9 18 -0.5 26t21.5 8h93q17 0 26.5 -9.5t17.5 -25.5l111 -248l110 248q7 16 16.5 25.5t26.5 9.5h83q13 0 21.5 -8t-0.5 -26l-194 -383v-225q0 -23 -11 -30.5t-27 -7.5h-59q-16 0 -27 7.5t-11 30.5v225zM396 742q-28 0 -47.5 20t-19.5 48t19.5 48
t47.5 20t48 -20t20 -48t-20 -48t-48 -20zM203 742q-28 0 -48 20t-20 48t20 48t48 20t48 -20t20 -48t-20 -48t-48 -20z" />
    <glyph glyph-name="Zacute" unicode="&#x179;" horiz-adv-x="588" 
d="M42 83q0 17 6 29t17 26l314 420h-277q-23 0 -30.5 11t-7.5 27v46q0 16 7.5 27t30.5 11h408q16 0 27 -7.5t11 -30.5v-45q0 -17 -6 -29t-17 -26l-315 -421h300q23 0 30.5 -11t7.5 -27v-45q0 -16 -7.5 -27t-30.5 -11h-430q-16 0 -27 7.5t-11 30.5v45zM289 744q-6 0 -12 1
t-9.5 4.5t-3 9.5t6.5 17l39 63q9 14 18.5 23t26.5 9h69q11 0 15 -9.5t-4 -17.5l-72 -73q-12 -13 -24 -20t-29 -7h-21z" />
    <glyph glyph-name="zacute" unicode="&#x17a;" horiz-adv-x="469" 
d="M36 69q0 17 7 29t18 26l205 239h-179q-23 0 -30.5 11t-7.5 27v31q0 16 7.5 27t30.5 11h308q16 0 27 -7.5t11 -30.5v-34q0 -17 -7 -28t-18 -25l-202 -239h189q23 0 30.5 -11t7.5 -27v-30q0 -16 -7.5 -27t-30.5 -11h-321q-16 0 -27 7.5t-11 30.5v31zM224 554q-6 0 -12 1
t-9.5 4.5t-3 9.5t6.5 17l39 63q9 14 18.5 23t26.5 9h69q11 0 15 -9.5t-4 -17.5l-72 -73q-12 -13 -24 -20t-29 -7h-21z" />
    <glyph glyph-name="Zdotaccent" unicode="&#x17b;" horiz-adv-x="588" 
d="M42 83q0 17 6 29t17 26l314 420h-277q-23 0 -30.5 11t-7.5 27v46q0 16 7.5 27t30.5 11h408q16 0 27 -7.5t11 -30.5v-45q0 -17 -6 -29t-17 -26l-315 -421h300q23 0 30.5 -11t7.5 -27v-45q0 -16 -7.5 -27t-30.5 -11h-430q-16 0 -27 7.5t-11 30.5v45zM318 736q-17 0 -31 7
t-24.5 17.5t-16 24t-5.5 27.5q0 30 21.5 54t55.5 24q15 0 28.5 -6t24 -16t17 -24t6.5 -30q0 -15 -6 -29t-16.5 -25t-24.5 -17.5t-29 -6.5z" />
    <glyph glyph-name="zdotaccent" unicode="&#x17c;" horiz-adv-x="469" 
d="M36 69q0 17 7 29t18 26l205 239h-179q-23 0 -30.5 11t-7.5 27v31q0 16 7.5 27t30.5 11h308q16 0 27 -7.5t11 -30.5v-34q0 -17 -7 -28t-18 -25l-202 -239h189q23 0 30.5 -11t7.5 -27v-30q0 -16 -7.5 -27t-30.5 -11h-321q-16 0 -27 7.5t-11 30.5v31zM250 539q-17 0 -31 7
t-24.5 17.5t-16 24t-5.5 27.5q0 30 21.5 54t55.5 24q15 0 28.5 -6t24 -16t17 -24t6.5 -30q0 -15 -6 -29t-16.5 -25t-24.5 -17.5t-29 -6.5z" />
    <glyph glyph-name="Zcaron" unicode="&#x17d;" horiz-adv-x="588" 
d="M42 83q0 17 6 29t17 26l314 420h-277q-23 0 -30.5 11t-7.5 27v46q0 16 7.5 27t30.5 11h408q16 0 27 -7.5t11 -30.5v-45q0 -17 -6 -29t-17 -26l-315 -421h300q23 0 30.5 -11t7.5 -27v-45q0 -16 -7.5 -27t-30.5 -11h-430q-16 0 -27 7.5t-11 30.5v45zM288 739q-17 0 -29 8.5
t-23 22.5l-51 70q-14 20 -5.5 25.5t20.5 5.5h26q17 0 27 -8t21 -22l40 -51l40 51q11 14 21.5 22t27.5 8h24q12 0 20.5 -5.5t-5.5 -25.5l-51 -70q-11 -14 -20.5 -22.5t-26.5 -8.5h-56z" />
    <glyph glyph-name="zcaron" unicode="&#x17e;" horiz-adv-x="469" 
d="M36 69q0 17 7 29t18 26l205 239h-179q-23 0 -30.5 11t-7.5 27v31q0 16 7.5 27t30.5 11h308q16 0 27 -7.5t11 -30.5v-34q0 -17 -7 -28t-18 -25l-202 -239h189q23 0 30.5 -11t7.5 -27v-30q0 -16 -7.5 -27t-30.5 -11h-321q-16 0 -27 7.5t-11 30.5v31zM218 549q-17 0 -29 8.5
t-23 22.5l-51 70q-14 20 -5.5 25.5t20.5 5.5h26q17 0 27 -8t21 -22l40 -51l40 51q11 14 21.5 22t27.5 8h24q12 0 20.5 -5.5t-5.5 -25.5l-51 -70q-11 -14 -20.5 -22.5t-26.5 -8.5h-56z" />
    <glyph glyph-name="florin" unicode="&#x192;" 
d="M78 -123q2 12 12.5 14t19.5 2q14 0 23 8.5t14.5 21.5t8 27t3.5 26l24 295h-37q-23 0 -30 11.5t-5 26.5l2 24q2 16 10 27t31 11h35l11 106q4 36 10.5 72t23 65t46.5 47.5t81 18.5h16t13 -1q11 -1 18 -9.5t6 -19.5l-5 -54q-1 -12 -12 -16.5t-20 -4.5q-16 0 -25.5 -7.5
t-14.5 -18t-7.5 -23t-3.5 -22.5l-13 -133h41q23 0 29.5 -11.5t4.5 -26.5l-2 -24q-2 -16 -10.5 -27t-31.5 -11h-36l-24 -296q-4 -44 -12.5 -79t-27 -59t-49 -36.5t-77.5 -12.5q-7 0 -13 0.5t-12 1.5q-10 1 -16 8.5t-5 17.5l6 61v0z" />
    <glyph glyph-name="Scommaaccent" unicode="&#x218;" horiz-adv-x="603" 
d="M43 161q-3 15 2.5 26.5t28.5 12.5l69 2q17 1 24.5 -9t13.5 -27q13 -35 43 -49t74 -14q58 0 91 18.5t33 63.5q0 41 -37.5 61.5t-110.5 40.5q-51 14 -90 30.5t-65 39t-39 53t-13 74.5q0 42 16.5 79.5t48 66.5t78.5 46t107 17q53 0 94 -11.5t70.5 -31.5t47 -47.5t23.5 -58.5
q3 -15 -2.5 -26.5t-28.5 -12.5l-65 -3q-19 -1 -28 9t-19 27q-11 20 -34.5 31t-61.5 11q-48 0 -77.5 -19.5t-29.5 -59.5q0 -20 7.5 -34.5t23.5 -25t41.5 -19.5t62.5 -19q49 -13 89 -29t68.5 -39.5t44.5 -56.5t16 -79q0 -48 -18 -87.5t-51.5 -67t-82 -42.5t-109.5 -15
q-63 0 -108 14t-75.5 38t-47.5 55.5t-24 66.5zM327 -61q13 5 23 -1t15 -18q3 -8 5 -17t2 -20q0 -29 -13.5 -56t-36.5 -54q-9 -11 -17 -17t-22 -6h-19q-17 0 -16.5 9t5.5 17q32 52 32 92q0 15 -6 29q-4 8 -3.5 16.5t16.5 13.5z" />
    <glyph glyph-name="scommaaccent" unicode="&#x219;" horiz-adv-x="500" 
d="M50 99q-4 14 4.5 26t23.5 13l57 2q11 0 17.5 -2t11 -6.5t9 -11.5t11.5 -15q12 -14 30.5 -18.5t38.5 -4.5q12 0 26 2t25.5 7.5t19 15t7.5 24.5q0 24 -21.5 34.5t-53 16.5t-68 12t-67.5 21t-51 42t-17 75q1 27 12 54t34 48.5t59.5 35t88.5 13.5q79 0 131.5 -27t69.5 -84
q5 -14 0 -25.5t-28 -13.5l-57 -3q-11 -1 -17 1.5t-10 7t-8 11t-11 14.5q-23 24 -71 24q-26 0 -47.5 -10.5t-21.5 -31.5q0 -25 21.5 -36.5t53.5 -18t69 -12.5t69 -20t53.5 -40.5t21.5 -73.5q0 -23 -9.5 -50.5t-33.5 -51.5t-66 -40t-108 -16q-74 0 -127 25t-71 87zM267 -61
q13 5 23 -1t15 -18q3 -8 5 -17t2 -20q0 -29 -13.5 -56t-36.5 -54q-9 -11 -17 -17t-22 -6h-19q-17 0 -16.5 9t5.5 17q32 52 32 92q0 15 -6 29q-4 8 -3.5 16.5t16.5 13.5z" />
    <glyph glyph-name="uni021A" unicode="&#x21a;" horiz-adv-x="524" 
d="M194 559h-141q-23 0 -30.5 11t-7.5 27v45q0 16 7.5 27t30.5 11h418q23 0 30.5 -11t7.5 -27v-45q0 -16 -7.5 -27t-30.5 -11h-141v-521q0 -23 -11 -30.5t-27 -7.5h-60q-16 0 -27 7.5t-11 30.5v521zM273 -61q13 5 23 -1t15 -18q3 -8 5 -17t2 -20q0 -29 -13.5 -56t-36.5 -54
q-9 -11 -17 -17t-22 -6h-19q-17 0 -16.5 9t5.5 17q32 52 32 92q0 15 -6 29q-4 8 -3.5 16.5t16.5 13.5z" />
    <glyph glyph-name="uni021B" unicode="&#x21b;" horiz-adv-x="343" 
d="M88 368h-33q-23 0 -30.5 11t-7.5 27v26q0 16 7.5 27t30.5 11h33v97q0 23 11 30.5t27 7.5h56q16 0 27 -7.5t11 -30.5v-97h72q23 0 30.5 -11t7.5 -27v-26q0 -16 -7.5 -27t-30.5 -11h-72v-227q0 -24 13 -32.5t39 -8.5h13q9 0 17.5 -4.5t8.5 -24.5v-34q0 -18 -10 -26t-24 -11
q-11 -3 -23.5 -4t-21.5 -1q-32 0 -58.5 6t-45.5 21t-29.5 40.5t-10.5 64.5v241zM216 -61q13 5 23 -1t15 -18q3 -8 5 -17t2 -20q0 -29 -13.5 -56t-36.5 -54q-9 -11 -17 -17t-22 -6h-19q-17 0 -16.5 9t5.5 17q32 52 32 92q0 15 -6 29q-4 8 -3.5 16.5t16.5 13.5z" />
    <glyph glyph-name="uni0237" unicode="&#x237;" horiz-adv-x="261" 
d="M67 432q0 23 11 30.5t27 7.5h55q16 0 27 -7.5t11 -30.5v-454q0 -54 -15 -89t-39.5 -54.5t-55.5 -27t-63 -7.5q-13 0 -24 5t-11 24v64q0 8 4 15t18 7q25 0 40 15.5t15 49.5v452z" />
    <glyph glyph-name="circumflex" unicode="&#x2c6;" horiz-adv-x="255" 
d="M23 549q-12 0 -20.5 5.5t5.5 25.5l51 70q11 14 23 22.5t29 8.5h56q17 0 26.5 -8.5t20.5 -22.5l51 -70q14 -20 5.5 -25.5t-20.5 -5.5h-24q-17 0 -27.5 8t-21.5 22l-40 51l-40 -51q-11 -14 -21 -22t-27 -8h-26v0z" />
    <glyph glyph-name="caron" unicode="&#x2c7;" horiz-adv-x="255" 
d="M111 549q-17 0 -29 8.5t-23 22.5l-51 70q-14 20 -5.5 25.5t20.5 5.5h26q17 0 27 -8t21 -22l40 -51l40 51q11 14 21.5 22t27.5 8h24q12 0 20.5 -5.5t-5.5 -25.5l-51 -70q-11 -14 -20.5 -22.5t-26.5 -8.5h-56v0z" />
    <glyph glyph-name="uni02C9" unicode="&#x2c9;" horiz-adv-x="255" 
d="M26 575q-12 0 -20.5 3.5t-8.5 15.5v22q0 12 8.5 15.5t20.5 3.5h204q12 0 20.5 -3.5t8.5 -15.5v-22q0 -12 -8.5 -15.5t-20.5 -3.5h-204v0z" />
    <glyph glyph-name="breve" unicode="&#x2d8;" horiz-adv-x="255" 
d="M131 551q-55 0 -92 26.5t-49 71.5q-3 11 -0.5 20.5t14.5 9.5h21q14 0 19.5 -7.5t11.5 -21.5q10 -20 27.5 -29.5t47.5 -9.5q29 0 47 10.5t28 30.5q7 12 13.5 19.5t20.5 7.5h19q11 0 13 -9t0 -20q-11 -45 -48.5 -72t-92.5 -27z" />
    <glyph glyph-name="dotaccent" unicode="&#x2d9;" horiz-adv-x="255" 
d="M128 539q-17 0 -31 7t-24.5 17.5t-16 24t-5.5 27.5q0 30 21.5 54t55.5 24q15 0 28.5 -6t24 -16t17 -24t6.5 -30q0 -15 -6 -29t-16.5 -25t-24.5 -17.5t-29 -6.5z" />
    <glyph glyph-name="ring" unicode="&#x2da;" horiz-adv-x="255" 
d="M128 536q-20 0 -36.5 7.5t-29.5 20.5t-20 30t-7 35q0 19 7 35.5t20 29.5t29.5 20.5t36.5 7.5q18 0 35 -7.5t30 -20t20.5 -29.5t7.5 -36q0 -18 -7.5 -35t-20.5 -30t-30 -20.5t-35 -7.5zM128 585q18 0 31 13t13 31q0 19 -13 32t-31 13q-19 0 -32 -13t-13 -32q0 -18 13 -31
t32 -13z" />
    <glyph glyph-name="ogonek" unicode="&#x2db;" horiz-adv-x="255" 
d="M33 -127q0 35 25 67t68 60h49q-30 -30 -47.5 -54t-17.5 -53q0 -39 40 -39q6 0 11.5 0.5t10.5 0.5q11 1 15 -1t6 -10l3 -17q2 -9 -4.5 -15t-15.5 -8q-10 -2 -20.5 -3t-21.5 -1q-17 0 -35 3.5t-32.5 11.5t-24 22.5t-9.5 35.5z" />
    <glyph glyph-name="tilde" unicode="&#x2dc;" horiz-adv-x="255" 
d="M-16 555q-10 0 -11 7.5t1 16.5q4 16 11.5 30.5t19 26t27.5 18.5t36 7q18 0 35 -5t33 -11q17 -7 31 -12.5t26 -5.5q22 0 33 15q8 11 12 17t18 6h16q9 0 11 -7.5t-1 -16.5q-8 -31 -30 -55.5t-62 -24.5q-17 0 -34.5 5t-33.5 11t-30 11.5t-27 5.5q-23 0 -35 -16
q-8 -11 -11.5 -17t-16.5 -6h-18z" />
    <glyph glyph-name="hungarumlaut" unicode="&#x2dd;" horiz-adv-x="255" 
d="M163 554q-6 0 -12.5 1t-10 4t-3 9t7.5 17l40 64q9 14 18 23t26 9h61q11 0 15 -9.5t-4 -17.5l-74 -74q-12 -12 -22 -19t-27 -7h-15zM-28 554q-6 0 -12 1t-9.5 4t-3 9t7.5 17l41 64q9 14 18.5 23t26.5 9h59q11 0 15 -9.5t-4 -17.5l-74 -74q-12 -12 -23 -19t-28 -7h-14z" />
    <glyph glyph-name="Delta" unicode="&#x394;" horiz-adv-x="685" 
d="M272 676q6 16 20.5 26t31.5 10h39q17 0 31.5 -9.5t20.5 -26.5l256 -640q8 -20 -1 -28t-23 -8h-593q-14 0 -23 8t-1 28zM527 104l-185 477l-173 -477h358z" />
    <glyph glyph-name="Omega" unicode="&#x3a9;" horiz-adv-x="759" 
d="M46 68q0 16 7.5 27t30.5 11h134v32q-45 14 -77.5 40t-53.5 61t-31 77t-10 88q0 69 25.5 127.5t70 100.5t104 65.5t127.5 23.5t128 -23t104.5 -64t70 -99t25.5 -128q0 -47 -9.5 -89.5t-30.5 -77.5t-54 -61.5t-79 -40.5v-32h135q23 0 30.5 -11t7.5 -27v-30q0 -16 -7.5 -27
t-30.5 -11h-200q-16 0 -27 7.5t-11 30.5v117q0 18 10 28t27 17q29 12 51.5 32t37.5 46t23 56.5t8 62.5q0 45 -15 84.5t-42.5 69.5t-65.5 47.5t-84 17.5q-47 0 -85.5 -17.5t-66 -47.5t-42.5 -70t-15 -85q0 -69 29 -119t89 -76q16 -7 26 -17t10 -28v-118q0 -23 -11 -30.5
t-27 -7.5h-198q-23 0 -30.5 11t-7.5 27v30z" />
    <glyph glyph-name="mu" unicode="&#x3bc;" horiz-adv-x="574" 
d="M188 -190q0 -23 -11 -30.5t-27 -7.5h-44q-16 0 -27 7.5t-11 30.5v622q0 23 11 30.5t27 7.5h44q16 0 27 -7.5t11 -30.5v-195q0 -20 2 -44.5t10.5 -46t26 -36t49.5 -14.5q30 0 50.5 10t34 27t19.5 39t6 46v214q0 23 11 30.5t27 7.5h44q16 0 27 -7.5t11 -30.5v-394
q0 -23 -11 -30.5t-27 -7.5h-38q-16 0 -27 7.5t-11 30.5v39h-2q-16 -36 -47.5 -62.5t-89.5 -26.5q-18 0 -36.5 6t-28.5 18v-202z" />
    <glyph glyph-name="pi" unicode="&#x3c0;" horiz-adv-x="593" 
d="M81 368h-32q-23 0 -30.5 11t-7.5 27v26q0 16 7.5 27t30.5 11h490q23 0 30.5 -11t7.5 -27v-26q0 -16 -7.5 -27t-30.5 -11h-41v-227q0 -11 0.5 -21t4.5 -18.5t11.5 -13.5t21.5 -5q10 0 15 1t13 1q16 0 16 -15v-31q0 -14 -10 -23t-24.5 -14t-31 -7t-29.5 -2q-33 0 -53.5 10
t-32 27.5t-15 41.5t-3.5 52v244h-183v-330q0 -23 -11 -30.5t-27 -7.5h-41q-16 0 -27 7.5t-11 30.5v330z" />
    <glyph glyph-name="endash" unicode="&#x2013;" horiz-adv-x="500" 
d="M38 217q-23 0 -30.5 6t-7.5 22v24q0 16 7.5 22t30.5 6h424q23 0 30.5 -6t7.5 -22v-24q0 -16 -7.5 -22t-30.5 -6h-424v0z" />
    <glyph glyph-name="emdash" unicode="&#x2014;" horiz-adv-x="1000" 
d="M238 217q-23 0 -30.5 6t-7.5 22v24q0 16 7.5 22t30.5 6h524q23 0 30.5 -6t7.5 -22v-24q0 -16 -7.5 -22t-30.5 -6h-524v0z" />
    <glyph glyph-name="quoteleft" unicode="&#x2018;" horiz-adv-x="250" 
d="M79 441q-14 2 -23 12t0 30l76 174q7 15 15.5 24t25.5 6l24 -4q16 -3 21 -12t-1 -31l-47 -177q-5 -16 -14.5 -25t-25.5 -6l-51 9v0z" />
    <glyph glyph-name="quoteright" unicode="&#x2019;" horiz-adv-x="250" 
d="M67 436q-16 3 -21 12t1 31l47 177q5 16 14.5 25t25.5 6l51 -9q14 -2 23 -12t0 -30l-76 -174q-7 -15 -15.5 -24t-25.5 -6l-24 4v0z" />
    <glyph glyph-name="quotesinglbase" unicode="&#x201a;" horiz-adv-x="250" 
d="M91 109q5 16 18.5 24.5t29.5 5.5l43 -8q14 -3 23 -12.5t0 -29.5l-76 -174q-7 -15 -17 -24t-27 -6l-26 5q-16 3 -18.5 11.5t3.5 30.5z" />
    <glyph glyph-name="quotedblleft" unicode="&#x201c;" horiz-adv-x="420" 
d="M259 441q-15 2 -23 12t0 30l73 176q6 14 14 22.5t24 5.5l25 -5q15 -3 17.5 -10.5t-2.5 -29.5l-44 -179q-4 -16 -17.5 -24.5t-29.5 -5.5zM78 441q-15 2 -23 12t0 30l73 176q6 14 14.5 22.5t24.5 5.5l20 -4q15 -3 19.5 -11t-0.5 -30l-44 -179q-4 -16 -17.5 -24.5
t-29.5 -5.5z" />
    <glyph glyph-name="quotedblright" unicode="&#x201d;" horiz-adv-x="420" 
d="M243 435q-15 3 -19 11t0 30l44 179q4 16 17.5 24.5t29.5 5.5l37 -8q15 -2 23 -12t0 -30l-73 -176q-6 -14 -14.5 -22.5t-24.5 -5.5zM58 436q-15 3 -17 10.5t2 29.5l44 179q4 16 17.5 24.5t29.5 5.5l37 -8q15 -2 23 -12t0 -30l-73 -176q-6 -14 -14 -22.5t-24 -5.5z" />
    <glyph glyph-name="quotedblbase" unicode="&#x201e;" horiz-adv-x="420" 
d="M268 109q4 16 17.5 24.5t29.5 5.5l37 -8q15 -2 23 -12t0 -30l-73 -176q-6 -14 -14.5 -22.5t-24.5 -5.5l-20 4q-15 3 -19.5 11t0.5 30zM87 109q4 16 17.5 24.5t29.5 5.5l37 -8q15 -2 23 -12t0 -30l-73 -176q-6 -14 -14 -22.5t-24 -5.5l-25 5q-15 3 -17.5 10.5t2.5 29.5z
" />
    <glyph glyph-name="dagger" unicode="&#x2020;" 
d="M193 357h-112q-23 0 -30.5 11t-7.5 27v34q0 16 7.5 27t30.5 11h112v175q0 23 11 30.5t27 7.5h49q16 0 27 -7.5t11 -30.5v-175h112q23 0 30.5 -11t7.5 -27v-34q0 -16 -7.5 -27t-30.5 -11h-112v-428q0 -23 -11 -30.5t-27 -7.5h-49q-16 0 -27 7.5t-11 30.5v428z" />
    <glyph glyph-name="daggerdbl" unicode="&#x2021;" 
d="M81 71q-23 0 -30.5 11t-7.5 27v34q0 16 7.5 27t30.5 11h112v209h-112q-23 0 -30.5 11t-7.5 27v34q0 16 7.5 27t30.5 11h112v142q0 23 11 30.5t27 7.5h49q16 0 27 -7.5t11 -30.5v-142h112q16 0 27 -11t11 -27v-34q0 -16 -11 -27t-27 -11h-112v-209h112q23 0 30.5 -11
t7.5 -27v-34q0 -16 -7.5 -27t-30.5 -11h-112v-142q0 -23 -11 -30.5t-27 -7.5h-49q-16 0 -27 7.5t-11 30.5v142h-112v0z" />
    <glyph glyph-name="bullet" unicode="&#x2022;" horiz-adv-x="500" 
d="M250 171q-38 0 -70.5 14t-57.5 39t-39 57.5t-14 70.5q0 37 14 70t39 57.5t57.5 38.5t70.5 14q37 0 70 -14t58 -38.5t39 -57.5t14 -70q0 -38 -14 -70.5t-39 -57.5t-58 -39t-70 -14z" />
    <glyph glyph-name="ellipsis" unicode="&#x2026;" horiz-adv-x="765" 
d="M562 65q0 32 22 54t54 22q31 0 53.5 -22t22.5 -54q0 -31 -22.5 -53.5t-53.5 -22.5q-32 0 -54 22.5t-22 53.5zM307 65q0 32 22 54t54 22q31 0 53.5 -22t22.5 -54q0 -31 -22.5 -53.5t-53.5 -22.5q-32 0 -54 22.5t-22 53.5zM52 65q0 32 22 54t54 22q31 0 53.5 -22t22.5 -54
q0 -31 -22.5 -53.5t-53.5 -22.5q-32 0 -54 22.5t-22 53.5z" />
    <glyph glyph-name="perthousand" unicode="&#x2030;" horiz-adv-x="1190" 
d="M552 657q8 14 16.5 22.5t25.5 8.5h20q12 0 17 -7.5t-4 -24.5l-355 -642q-8 -15 -18 -24t-27 -9h-21q-13 0 -17.5 8t5.5 25zM221 334q-32 0 -60 10.5t-48 32.5t-31.5 54t-11.5 76t11.5 76.5t31.5 54t48 32t60 10.5t59.5 -10.5t48 -32t32 -54t11.5 -76.5t-11.5 -76t-32 -54
t-48 -32.5t-59.5 -10.5zM221 407q16 0 26 8.5t15.5 22.5t7.5 32t2 37t-2 37.5t-7.5 32t-15.5 22t-26 8.5t-26 -8.5t-16 -22t-8 -32t-2 -37.5t2 -37t8 -32t16 -22.5t26 -8.5zM826 162q0 43 11.5 75.5t31.5 54t48 32t60 10.5t59.5 -10.5t48 -32t32 -54t11.5 -75.5
q0 -44 -11.5 -76.5t-32 -54t-48 -32t-59.5 -10.5t-60 10.5t-48 32t-31.5 54t-11.5 76.5zM460 162q0 43 11.5 75.5t31.5 54t48 32t60 10.5t59.5 -10.5t48 -32t32 -54t11.5 -75.5q0 -44 -11.5 -76.5t-32 -54t-48 -32t-59.5 -10.5t-60 10.5t-48 32t-31.5 54t-11.5 76.5z
M926 162q0 -20 2 -38t7.5 -32t15.5 -22.5t26 -8.5t26 8.5t16 22.5t8 32t2 38q0 19 -2 37t-8 32t-16 22.5t-26 8.5t-26 -8.5t-15.5 -22.5t-7.5 -32t-2 -37zM560 162q0 -20 2 -38t7.5 -32t15.5 -22.5t26 -8.5t26 8.5t16 22.5t8 32t2 38q0 19 -2 37t-8 32t-16 22.5t-26 8.5
t-26 -8.5t-15.5 -22.5t-7.5 -32t-2 -37z" />
    <glyph glyph-name="guilsinglleft" unicode="&#x2039;" horiz-adv-x="330" 
d="M86 224q-9 15 -9 34q0 17 9 32l59 98q9 15 19.5 24t27.5 9h33q6 0 12 -1t9.5 -4.5t3 -10t-6.5 -17.5l-78 -131l75 -132q6 -12 6.5 -18.5t-3 -9.5t-10 -4t-12.5 -1h-34q-17 0 -27.5 9t-19.5 24z" />
    <glyph glyph-name="guilsinglright" unicode="&#x203a;" horiz-adv-x="330" 
d="M110 92q-6 0 -12.5 1t-10 4t-3 9.5t6.5 18.5l75 132l-78 131q-6 11 -6.5 17.5t3 10t9.5 4.5t12 1h33q17 0 27.5 -9t19.5 -24l59 -98q9 -15 9 -32q0 -19 -9 -34l-54 -99q-9 -15 -19.5 -24t-27.5 -9h-34v0z" />
    <glyph glyph-name="fraction" unicode="&#x2044;" horiz-adv-x="100" 
d="M194 657q8 14 16.5 22.5t25.5 8.5h20q20 0 19 -10.5t-6 -21.5l-355 -642q-8 -15 -18 -24t-27 -9h-21q-20 0 -19 11t7 22z" />
    <glyph glyph-name="Euro" unicode="&#x20ac;" 
d="M56 238q-12 0 -20.5 5t-6.5 17l3 20q2 14 11.5 18t23.5 4h27q-1 6 -1.5 16.5t-0.5 17.5q0 10 0.5 20t1.5 19h-38q-12 0 -20.5 6.5t-6.5 18.5l3 16q2 14 11.5 18.5t23.5 4.5h37q10 49 31.5 94.5t56 81t81.5 57t109 21.5q11 0 23 -0.5t24 -2.5q17 -3 25.5 -11.5t3.5 -30.5
l-11 -45q-3 -11 -11 -16.5t-18 -5.5q-8 0 -16 1t-19 1q-33 0 -59 -12.5t-44.5 -33t-30.5 -46.5t-16 -52h143q13 0 21 -5.5t6 -17.5l-4 -19q-3 -14 -12.5 -18t-23.5 -4h-139q-3 -18 -3 -36q0 -11 0.5 -20t1.5 -17h133q13 0 21 -6.5t6 -18.5l-3 -17q-2 -14 -12 -18t-24 -4
h-117q11 -66 52 -102.5t104 -36.5q23 0 31.5 2t18.5 2q8 0 12.5 -5.5t7.5 -23.5l8 -49q2 -16 -8 -24.5t-25 -10.5q-24 -3 -46 -3q-60 0 -109 18.5t-85 51.5t-59 79t-31 102h-42v0z" />
    <glyph glyph-name="afii61289" unicode="&#x2113;" horiz-adv-x="500" 
d="M49 165q-8 14 -6 23t19 23l71 61v244q0 42 11 76.5t32 60t51.5 39.5t70.5 14q63 0 100 -38.5t37 -104.5q0 -76 -45.5 -151t-139.5 -159v-107q0 -21 6 -35.5t15 -22.5t20.5 -11.5t23.5 -3.5q20 0 39 8t32 17q9 6 16.5 5.5t15.5 -12.5l14 -21q8 -12 2.5 -23t-17.5 -19
q-61 -41 -130 -41q-72 0 -112.5 38.5t-40.5 102.5v48l-34 -32q-17 -16 -25.5 -11.5t-12.5 11.5zM250 353q46 51 68 102.5t22 99.5q0 31 -9.5 52t-33.5 21q-25 0 -36 -23.5t-11 -66.5v-185z" />
    <glyph glyph-name="trademark" unicode="&#x2122;" horiz-adv-x="900" 
d="M404 642q0 23 11 30.5t27 7.5h63q17 0 26.5 -10t15.5 -26l76 -199l75 199q6 16 15.5 26t26.5 10h63q16 0 27 -7.5t11 -30.5v-297q0 -23 -11 -30.5t-27 -7.5h-11q-16 0 -27 7.5t-11 30.5v226h-2l-85 -233q-5 -14 -11.5 -22.5t-20.5 -8.5h-22q-15 0 -22.5 8.5t-12.5 22.5
l-85 233h-2v-226q0 -23 -11 -30.5t-27 -7.5h-11q-16 0 -27 7.5t-11 30.5v297zM198 307q-16 0 -27 7.5t-11 30.5v262h-70q-23 0 -29.5 5.5t-6.5 20.5v22q0 14 6.5 19.5t29.5 5.5h235q22 0 28.5 -5.5t6.5 -19.5v-22q0 -15 -6.5 -20.5t-28.5 -5.5h-71v-262q0 -23 -11 -30.5
t-27 -7.5h-18z" />
    <glyph glyph-name="uni2126" unicode="&#x2126;" horiz-adv-x="759" 
d="M46 68q0 16 7.5 27t30.5 11h134v32q-45 14 -77.5 40t-53.5 61t-31 77t-10 88q0 69 25.5 127.5t70 100.5t104 65.5t127.5 23.5t128 -23t104.5 -64t70 -99t25.5 -128q0 -47 -9.5 -89.5t-30.5 -77.5t-54 -61.5t-79 -40.5v-32h135q23 0 30.5 -11t7.5 -27v-30q0 -16 -7.5 -27
t-30.5 -11h-200q-16 0 -27 7.5t-11 30.5v117q0 18 10 28t27 17q29 12 51.5 32t37.5 46t23 56.5t8 62.5q0 45 -15 84.5t-42.5 69.5t-65.5 47.5t-84 17.5q-47 0 -85.5 -17.5t-66 -47.5t-42.5 -70t-15 -85q0 -69 29 -119t89 -76q16 -7 26 -17t10 -28v-118q0 -23 -11 -30.5
t-27 -7.5h-198q-23 0 -30.5 11t-7.5 27v30z" />
    <glyph glyph-name="estimated" unicode="&#x212e;" horiz-adv-x="604" 
d="M157 259v-181q59 -59 145 -59q63 0 109 28.5t84 91.5l35 -21q-23 -36 -46.5 -61.5t-51 -42t-59.5 -24t-71 -7.5q-59 0 -106.5 21.5t-81.5 59t-52 87.5t-18 108t18 108.5t52 87.5t81.5 58.5t106.5 21.5q58 0 105.5 -20.5t81.5 -57t53 -87t19 -111.5h-404zM448 295v145
q-63 60 -147 60t-144 -60v-145h291z" />
    <glyph glyph-name="partialdiff" unicode="&#x2202;" horiz-adv-x="556" 
d="M40 215q0 48 15.5 88.5t44 70t68.5 46t88 16.5q42 0 76.5 -14.5t66.5 -40.5v28q0 36 -7 75.5t-24.5 72.5t-46.5 55t-73 22q-26 0 -48 -7t-43 -20q-14 -8 -24.5 -12t-25.5 13l-16 19q-14 16 -10 29t17 21q33 22 66.5 33t77.5 11q78 0 130 -32t83.5 -84t45 -116.5
t13.5 -130.5q0 -64 -10.5 -130t-38.5 -119.5t-77.5 -87.5t-128.5 -34q-50 0 -90 17.5t-69 48t-44.5 72t-15.5 90.5zM149 209q0 -27 6.5 -52t20.5 -44t35.5 -30.5t51.5 -11.5q36 0 61 19t41.5 47.5t24 62.5t7.5 64v25q-26 29 -55 46.5t-71 17.5q-31 0 -54 -12t-38 -31.5
t-22.5 -46t-7.5 -54.5z" />
    <glyph glyph-name="uni2206" unicode="&#x2206;" horiz-adv-x="685" 
d="M272 676q6 16 20.5 26t31.5 10h39q17 0 31.5 -9.5t20.5 -26.5l256 -640q8 -20 -1 -28t-23 -8h-593q-14 0 -23 8t-1 28zM527 104l-185 477l-173 -477h358z" />
    <glyph glyph-name="product" unicode="&#x220f;" horiz-adv-x="741" 
d="M62 748q0 23 11 30.5t27 7.5h541q16 0 27 -7.5t11 -30.5v-924q0 -16 -11 -27t-27 -11h-38q-16 0 -27 11t-11 27v859h-389v-859q0 -16 -11 -27t-27 -11h-38q-16 0 -27 11t-11 27v924z" />
    <glyph glyph-name="summation" unicode="&#x2211;" horiz-adv-x="648" 
d="M328 292l-268 374q-10 14 -16 27.5t-6 30.5v24q0 23 11 30.5t27 7.5h497q23 0 30.5 -11t7.5 -27v-27q0 -16 -7.5 -27t-30.5 -11h-384l253 -359q10 -15 10 -31t-10 -31l-271 -373h415q23 0 30.5 -11t7.5 -27v-27q0 -16 -7.5 -27t-30.5 -11h-523q-16 0 -27 7.5t-11 30.5v24
q0 17 6 30.5t16 27.5z" />
    <glyph glyph-name="minus" unicode="&#x2212;" 
d="M89 198q-23 0 -30.5 11t-7.5 27v19q0 16 7.5 27t30.5 11h332q23 0 30.5 -11t7.5 -27v-19q0 -16 -7.5 -27t-30.5 -11h-332v0z" />
    <glyph glyph-name="uni2215" unicode="&#x2215;" horiz-adv-x="100" 
d="M194 657q8 14 16.5 22.5t25.5 8.5h20q20 0 19 -10.5t-6 -21.5l-355 -642q-8 -15 -18 -24t-27 -9h-21q-20 0 -19 11t7 22z" />
    <glyph glyph-name="uni2219" unicode="&#x2219;" horiz-adv-x="255" 
d="M128 219q-32 0 -54 22.5t-22 53.5q0 32 22 54t54 22q31 0 53.5 -22t22.5 -54q0 -31 -22.5 -53.5t-53.5 -22.5z" />
    <glyph glyph-name="radical" unicode="&#x221a;" horiz-adv-x="537" 
d="M7 133q-7 14 -4 27.5t23 23.5l78 36q14 7 27.5 4t23.5 -23l113 -238l160 786q5 23 17 30t29 7h40q14 0 24.5 -7.5t5.5 -29.5l-195 -926q-4 -16 -16.5 -26.5t-29.5 -10.5h-39q-17 0 -27.5 9.5t-18.5 24.5l-135 283l-17 -8q-20 -9 -31.5 -2.5t-18.5 20.5z" />
    <glyph glyph-name="infinity" unicode="&#x221e;" horiz-adv-x="815" 
d="M216 82q-39 0 -71 14t-54 38t-34 57t-12 71q0 37 11.5 70t33 57t52.5 38t70 14q33 0 60.5 -10t51 -26.5t44 -38t40.5 -44.5q19 23 39.5 44.5t44 38.5t51 27t59.5 10q39 0 70 -14t53 -38t33.5 -57t11.5 -70q0 -38 -11.5 -71t-33.5 -58t-53 -39t-71 -14q-31 0 -58 9.5
t-50.5 25t-44.5 35.5t-40 42q-21 -22 -41.5 -42t-43 -35.5t-49 -24.5t-58.5 -9zM465 259q13 -15 28 -29.5t32.5 -26t37 -19t40.5 -7.5q37 0 57 24t20 59q0 36 -21 61t-59 25q-20 0 -38.5 -8.5t-36 -21.5t-33 -28.5t-27.5 -28.5zM215 178q19 0 38 7.5t36.5 19t33 26
t27.5 28.5q-12 13 -28 28t-34 28t-37.5 21.5t-38.5 8.5q-35 0 -56 -25.5t-21 -59.5q0 -37 21.5 -59.5t58.5 -22.5z" />
    <glyph glyph-name="integral" unicode="&#x222b;" horiz-adv-x="611" 
d="M134 -86q24 0 34.5 -11.5t16 -25t9.5 -25t14 -11.5q6 0 10 3t7 17.5t4.5 44t1.5 83.5v506q0 42 2.5 93t17 95t46 73.5t89.5 29.5q17 0 36.5 -4.5t36 -13.5t27 -23.5t10.5 -35.5q0 -23 -14.5 -37.5t-37.5 -14.5q-24 0 -34.5 11.5t-16 25t-10 25t-15.5 11.5
q-14 0 -18 -32.5t-4 -115.5v-589q0 -38 -6.5 -75t-23.5 -66.5t-47 -48t-77 -18.5q-18 0 -37.5 4t-36 13t-27 23.5t-10.5 35.5q0 23 15 38t38 15z" />
    <glyph glyph-name="approxequal" unicode="&#x2248;" 
d="M58 232q-12 0 -14.5 9.5t-0.5 21.5q5 23 14.5 44.5t24 38t34.5 26.5t47 10q25 0 48 -7t53 -20q42 -18 62.5 -23t37.5 -5q14 0 23 6t14 15q8 14 13 22.5t21 8.5h22q12 0 15 -9.5t0 -22.5q-5 -24 -14 -45t-23.5 -37t-35 -25.5t-47.5 -9.5q-23 0 -49 8.5t-62 22.5
q-29 11 -48.5 17.5t-38.5 6.5q-14 0 -24 -6.5t-17 -16.5q-8 -14 -13 -22t-21 -8h-21zM60 53q-12 0 -15.5 9.5t-1.5 21.5q5 23 14.5 44.5t24 38t34.5 26.5t47 10q25 0 48 -7t53 -20q42 -18 62.5 -23t37.5 -5q14 0 23 6t14 15q8 14 13 22.5t21 8.5h21q12 0 15.5 -9.5
t0.5 -22.5q-5 -24 -14 -45t-23.5 -37t-35 -25.5t-47.5 -9.5q-23 0 -49 8.5t-62 22.5q-29 11 -48.5 17.5t-38.5 6.5q-14 0 -24 -6.5t-17 -16.5q-8 -14 -12.5 -22t-20.5 -8h-20z" />
    <glyph glyph-name="notequal" unicode="&#x2260;" 
d="M145 51q-14 7 -21.5 16t5.5 35l20 41h-62q-23 0 -30.5 11t-7.5 27v19q0 16 7.5 27t30.5 11h109l22 48h-131q-23 0 -30.5 11t-7.5 27v19q0 16 7.5 27t30.5 11h178l40 80q10 20 24 22.5t28 -4.5l13 -6q7 -3 13 -7t9.5 -9.5t2.5 -13.5t-7 -21l-20 -41h54q23 0 30.5 -11
t7.5 -27v-19q0 -16 -7.5 -27t-30.5 -11h-101l-21 -48h122q23 0 30.5 -11t7.5 -27v-19q0 -16 -7.5 -27t-30.5 -11h-168l-43 -83q-11 -20 -24 -22.5t-27 5.5z" />
    <glyph glyph-name="lessequal" unicode="&#x2264;" 
d="M85 249q-16 5 -26 19t-10 31v22q0 17 10 31t26 19l339 116q20 7 28 -2.5t8 -23.5v-38q0 -17 -10 -26.5t-27 -14.5l-236 -73l236 -67q17 -5 27 -15t10 -27v-34q0 -14 -10 -22.5t-26 -3.5zM49 65q0 16 7.5 27t30.5 11h335q23 0 30.5 -11t7.5 -27v-24q0 -16 -7.5 -27
t-30.5 -11h-335q-23 0 -30.5 11t-7.5 27v24z" />
    <glyph glyph-name="greaterequal" unicode="&#x2265;" 
d="M85 140q-16 -5 -26 3.5t-10 22.5v34q0 17 10 27t27 15l236 67l-236 73q-17 5 -27 14.5t-10 26.5v38q0 14 10 22.5t26 3.5l339 -116q16 -5 26 -19t10 -31v-22q0 -17 -10 -31t-26 -19zM49 65q0 16 7.5 27t30.5 11h335q23 0 30.5 -11t7.5 -27v-24q0 -16 -7.5 -27t-30.5 -11
h-335q-23 0 -30.5 11t-7.5 27v24z" />
    <glyph glyph-name="lozenge" unicode="&#x25ca;" horiz-adv-x="593" 
d="M85 321q-8 16 -8 35q0 17 8 35l145 321q8 16 17.5 25.5t26.5 9.5h44q17 0 26.5 -9.5t17.5 -25.5l146 -321q7 -15 7 -35q0 -9 -1.5 -18t-5.5 -17l-146 -321q-8 -16 -17.5 -25.5t-26.5 -9.5h-44q-17 0 -26.5 9.5t-17.5 25.5zM415 356l-119 285l-118 -285l118 -286z" />
    <glyph glyph-name="uniE000" unicode="&#xe000;" horiz-adv-x="255" 
d="M175 744q-17 0 -29 7t-24 20l-72 73q-8 8 -4 17.5t15 9.5h69q17 0 26.5 -9t18.5 -23l39 -63q6 -11 6.5 -17t-3 -9.5t-9.5 -4.5t-12 -1h-21v0z" />
    <glyph glyph-name="uniE002" unicode="&#xe002;" horiz-adv-x="255" 
d="M63 744q-6 0 -12 1t-9.5 4.5t-3 9.5t6.5 17l39 63q9 14 18.5 23t26.5 9h69q11 0 15 -9.5t-4 -17.5l-72 -73q-12 -13 -24 -20t-29 -7h-21v0z" />
    <glyph glyph-name="uniE004" unicode="&#xe004;" horiz-adv-x="255" 
d="M23 739q-12 0 -20.5 5.5t5.5 25.5l51 70q11 14 23 22.5t29 8.5h56q17 0 26.5 -8.5t20.5 -22.5l51 -70q14 -20 5.5 -25.5t-20.5 -5.5h-24q-17 0 -27.5 8t-21.5 22l-40 51l-40 -51q-11 -14 -21 -22t-27 -8h-26v0z" />
    <glyph glyph-name="uniE006" unicode="&#xe006;" horiz-adv-x="255" 
d="M111 739q-17 0 -29 8.5t-23 22.5l-51 70q-14 20 -5.5 25.5t20.5 5.5h26q17 0 27 -8t21 -22l40 -51l40 51q11 14 21.5 22t27.5 8h24q12 0 20.5 -5.5t-5.5 -25.5l-51 -70q-11 -14 -20.5 -22.5t-26.5 -8.5h-56v0z" />
    <glyph glyph-name="uniE008" unicode="&#xe008;" horiz-adv-x="255" 
d="M95 483q-9 0 -12 2.5t-3 6.5t2.5 8.5t5.5 8.5q32 52 32 92q0 15 -6 29q-4 8 -3.5 16t16.5 14l33 12q13 5 24 -1t16 -18q3 -8 5 -17t2 -20q0 -29 -13.5 -56t-36.5 -54q-9 -11 -18 -17t-23 -6h-21v0z" />
    <glyph glyph-name="uniE009" unicode="&#xe009;" horiz-adv-x="255" 
d="M-16 745q-10 0 -11 7.5t1 16.5q4 16 11.5 30.5t19 26t27.5 18.5t36 7q18 0 35 -5t33 -11q17 -7 31 -12.5t26 -5.5q22 0 33 15q8 11 12 17t18 6h16q9 0 11 -7.5t-1 -16.5q-8 -31 -30 -55.5t-62 -24.5q-17 0 -34.5 5t-33.5 11t-30 11.5t-27 5.5q-23 0 -35 -16
q-8 -11 -11.5 -17t-16.5 -6h-18z" />
    <glyph glyph-name="uniE00B" unicode="&#xe00b;" horiz-adv-x="255" 
d="M224 742q-28 0 -47.5 20t-19.5 48t19.5 48t47.5 20t48 -20t20 -48t-20 -48t-48 -20zM31 742q-28 0 -48 20t-20 48t20 48t48 20t48 -20t20 -48t-20 -48t-48 -20z" />
    <glyph glyph-name="uniE00D" unicode="&#xe00d;" horiz-adv-x="255" 
d="M26 765q-12 0 -20.5 3.5t-8.5 15.5v22q0 12 8.5 15.5t20.5 3.5h204q12 0 20.5 -3.5t8.5 -15.5v-22q0 -12 -8.5 -15.5t-20.5 -3.5h-204v0z" />
    <glyph glyph-name="uniE00F" unicode="&#xe00f;" horiz-adv-x="255" 
d="M131 741q-55 0 -92 26.5t-49 71.5q-3 11 -0.5 20.5t14.5 9.5h21q14 0 19.5 -7.5t11.5 -21.5q10 -20 27.5 -29.5t47.5 -9.5q29 0 47 10.5t28 30.5q7 12 13.5 19.5t20.5 7.5h19q11 0 13 -9t0 -20q-11 -45 -48.5 -72t-92.5 -27z" />
    <glyph glyph-name="uniE011" unicode="&#xe011;" horiz-adv-x="255" 
d="M128 726q-20 0 -36.5 7.5t-29.5 20.5t-20 30t-7 35q0 19 7 35.5t20 29.5t29.5 20.5t36.5 7.5q18 0 35 -7.5t30 -20t20.5 -29.5t7.5 -36q0 -18 -7.5 -35t-20.5 -30t-30 -20.5t-35 -7.5zM128 775q18 0 31 13t13 31q0 19 -13 32t-31 13q-19 0 -32 -13t-13 -32q0 -18 13 -31
t32 -13z" />
    <glyph glyph-name="uniE013" unicode="&#xe013;" horiz-adv-x="255" 
d="M163 744q-6 0 -12.5 1t-10 4t-3 9t7.5 17l40 64q9 14 18 23t26 9h61q11 0 15 -9.5t-4 -17.5l-74 -74q-12 -12 -22 -19t-27 -7h-15zM-28 744q-6 0 -12 1t-9.5 4t-3 9t7.5 17l41 64q9 14 18.5 23t26.5 9h59q11 0 15 -9.5t-4 -17.5l-74 -74q-12 -12 -23 -19t-28 -7h-14z" />
    <glyph glyph-name="uniE015" unicode="&#xe015;" horiz-adv-x="255" 
d="M128 736q-17 0 -31 7t-24.5 17.5t-16 24t-5.5 27.5q0 30 21.5 54t55.5 24q15 0 28.5 -6t24 -16t17 -24t6.5 -30q0 -15 -6 -29t-16.5 -25t-24.5 -17.5t-29 -6.5z" />
    <glyph glyph-name="uniE017" unicode="&#xe017;" horiz-adv-x="255" 
d="M157 -61q13 5 23 -1t15 -18q3 -8 5 -17t2 -20q0 -29 -13.5 -56t-36.5 -54q-9 -11 -17 -17t-22 -6h-19q-17 0 -16.5 9t5.5 17q32 52 32 92q0 15 -6 29q-4 8 -3.5 16.5t16.5 13.5z" />
    <glyph glyph-name="uniE01A" unicode="&#xe01a;" horiz-adv-x="255" 
d="M124 548q-13 -5 -23 1t-15 18q-7 17 -7 37q0 29 13.5 56t36.5 54q9 11 17 17t22 6h19q17 0 16.5 -9t-5.5 -17q-32 -52 -32 -92q0 -16 6 -29q4 -8 3.5 -16.5t-16.5 -13.5l-35 -12v0z" />
    <glyph glyph-name="uniF8FF" unicode="&#xf8ff;" horiz-adv-x="485" 
d="M0 651q0 12 8.5 20.5t20.5 8.5h427q12 0 20.5 -8.5t8.5 -20.5v-622q0 -12 -8.5 -20.5t-20.5 -8.5h-427q-12 0 -20.5 8.5t-8.5 20.5v622zM438 47v585h-391v-585h391zM232 222q-12 0 -16.5 6t-4.5 14v3q1 47 13 69q12 25 43 56q31 29 39 45t8 34q0 34 -21.5 57t-50.5 23
q-26 0 -45.5 -15.5t-27.5 -51.5q-2 -9 -6 -15.5t-15 -4.5l-8 1q-13 2 -17.5 9t-2.5 16q11 56 44.5 82.5t80.5 26.5q51 0 84.5 -33.5t33.5 -90.5q0 -31 -12 -55.5t-48 -58.5q-35 -30 -41 -49q-2 -8 -3 -19.5t-2 -28.5q0 -8 -5.5 -14t-15.5 -6h-4zM210 149q0 14 7.5 19.5
t18.5 5.5h2q11 0 18 -5.5t7 -19.5v-13q0 -14 -7 -19.5t-18 -5.5h-2q-11 0 -18.5 5.5t-7.5 19.5v13z" />
    </font>
</defs>
</svg>
